<svg id="Layer_1" data-name="Layer 1" xmlns="http://www.w3.org/2000/svg" xmlns:xlink="http://www.w3.org/1999/xlink" viewBox="0 0 304.36 153.46"><defs><style>.cls-1{stroke:#000;fill:url(#linear-gradient);}.cls-1,.cls-4,.cls-5{stroke-miterlimit:10;}.cls-2{fill:#ffc769;opacity:0.41;}.cls-2,.cls-3{isolation:isolate;}.cls-3{fill:#ffc800;opacity:0.26;}.cls-4{fill:#760000;}.cls-4,.cls-5{stroke:#231f20;stroke-width:0.25px;}.cls-5{fill:#fff;opacity:0.37;}</style><linearGradient id="linear-gradient" x1="208.78" y1="963.47" x2="318.92" y2="963.47" gradientTransform="matrix(-0.04, -1, -1, 0.04, 1149.2, 399.64)" gradientUnits="userSpaceOnUse"><stop offset="0" stop-color="#f7c316"/><stop offset="0.13" stop-color="#dd9412"/><stop offset="0.28" stop-color="#c5680d"/><stop offset="0.42" stop-color="#b1430a"/><stop offset="0.57" stop-color="#a12707"/><stop offset="0.71" stop-color="#961206"/><stop offset="0.86" stop-color="#8f0604"/><stop offset="1" stop-color="#8d0204"/></linearGradient></defs><path class="cls-1" d="M71.51,122.66c-3.15,5.7-8.23,4.2-8.23,4.2s-6.09,1.34-6,5.24-6.59,3-6.59,3-4.4,1.83-4.34,3.5-3.86,1.26-3.86,1.26l-6.5,4.2s-7.33-2-11.47,7.12c0,0,.47,12.83,12.87,15.73,0,0,3.77,11.59,9.91,11.36,0,0,1.4,7.77,9.7,5.79,0,0,1.36,6.65,2.44,5.49,0,0,10-.92,10.12,1.87,0,0,11.27,2.94,14.25,7.85l26.16,13s36.29,14.86,37.32,12.59c0,0,2.39,4.38,5.08,1.49l18.62.24s32.69-2.12,38.14-5.67,19.38-4.62,24.32-7l11.15-.41s-1,2.83,1.74,1.61,10.61.17,13.8-4.41c0,0,8.71,9.17,19.68,3.74,0,0,7.33,2,9.94-3.15,0,0,6.52-4.71,9.41-2a1,1,0,0,1,.24.27c6.51-2.09,12.42-9.75,14.14-15.82s2.31-11.33,6.49-16.26c2.39-2.82,5.48-5.13,6.93-8.63,1.36-3.27,1-6.9.11-10.24-2.12-7.8-8.73-13.52-10.56-21.39a14,14,0,0,1-.29-5.51c.17-1.06.83-2.19.71-3.28A6.94,6.94,0,0,0,314,124c-2.32.25-4.52.55-4.52.55l-9.49.35s-2.29-3.69-7.57-1l-.27.15s0-1.11-1.72-1l-5.3.19-8.12-.82s-3.72-3.21-6.54.24c0,0-4.14-2.08-5.71.77,0,0-6.16-.33-6.67.8s-13.47-1.74-18.88,2.93-8.27,3.09-15.13,13.95-6.94,8.63-10.25,9.87-27.27,2.68-27.37-.11-18.15-7.71-18.15-7.71.95-4.51-4.56-2.63-8.16-9.19-13.72-8.43-14.1-4-16.27-2.2-3.27,2.35-6.65,1.36-4.49-.39-4-1.53-13.42-.62-13.42-.62-18.12-6.6-20.86-5.38.93-5.06-7.89-2C81,121.75,74.65,117,71.51,122.66Z" transform="translate(-24.02 -74.38)"/><path class="cls-2" d="M32.52,155.92s53,43.29,57.71,35.86,70.38,30.93,75.18,24.61,62.46-2.29,64.45-9.06,68-4.17,65.95-13.59,19.42-3.5,16.86-12.34-84.17,19.28-91,16.73-81.63,12.49-91.33-8.38-51.8-14.89-51.8-14.89S25.78,140.53,32.52,155.92Z" transform="translate(-24.02 -74.38)"/><path class="cls-3" d="M45.33,147.35S106,171.35,108,164.6s39.13,21.54,40.49,18.1,69.52,12.5,81.45,2.57,79.08-5.69,78.54-12.93-42-5.21-46.78-9.2-45.87,19.25-64.14,7.38-43.53,5.75-51.86-3.13S108,151.2,104.83,155.78,39.9,136.38,45.33,147.35Z" transform="translate(-24.02 -74.38)"/><path d="M260.85,132.36a6,6,0,0,0,1.47,0,8.37,8.37,0,0,0,1.79-.37,1.63,1.63,0,0,0,.66-.39,1.57,1.57,0,0,0,.38-.66,1.49,1.49,0,0,0-.38-1.46,2.52,2.52,0,0,0-1.72-.73,2.48,2.48,0,0,0-1.73.68,1.5,1.5,0,0,0-.44,1.06,1.54,1.54,0,0,0,.44,1.06,1.52,1.52,0,0,0,1.06.44,1.66,1.66,0,0,0,1.06-.44v-.05l-.3.23.2-.11-.36.15a1.14,1.14,0,0,1,.25-.06h-.53a.66.66,0,0,1,.25.07l-.36-.16.2.11-.31-.23.12.1.66-2.51a6.13,6.13,0,0,1-1.28.31h.4a6,6,0,0,1-1.58,0,1.52,1.52,0,0,0-1.06.44,1.54,1.54,0,0,0-.44,1.06,1.5,1.5,0,0,0,.44,1.06l.3.24a1.6,1.6,0,0,0,.76.2Z" transform="translate(-24.02 -74.38)"/><path d="M274.47,128l-2.8-.42a1.64,1.64,0,0,0-1.15.16,1.54,1.54,0,0,0-.62.71,1.52,1.52,0,0,0,.62,1.88l2.55,1.45v-2.59l-2.51,1.93a1.27,1.27,0,0,0-.42.38,1.18,1.18,0,0,0-.26.51,1.56,1.56,0,0,0,.15,1.16,1.53,1.53,0,0,0,.89.69,1.47,1.47,0,0,0,1.16-.15l2.51-1.93a1.47,1.47,0,0,0,.54-.54,1.51,1.51,0,0,0-.54-2L272,127.7l-1.16,2.74,2.8.41a1.22,1.22,0,0,0,.6,0,1.09,1.09,0,0,0,.56-.18,1.49,1.49,0,0,0,.69-.9,1.45,1.45,0,0,0-.15-1.15,1.43,1.43,0,0,0-.9-.69Z" transform="translate(-24.02 -74.38)"/><path d="M244.23,136.15l1.59-.92a1.06,1.06,0,0,0,.42-.39.94.94,0,0,0,.27-.51,1.22,1.22,0,0,0,0-.6,1.12,1.12,0,0,0-.18-.56,1.44,1.44,0,0,0-.9-.68l-.39-.06a1.48,1.48,0,0,0-.76.21l-1.59.92a1,1,0,0,0-.42.38,1.2,1.2,0,0,0-.27.51,1.22,1.22,0,0,0,0,.6,1.23,1.23,0,0,0,.18.56,1.55,1.55,0,0,0,.9.69l.4,0A1.48,1.48,0,0,0,244.23,136.15Z" transform="translate(-24.02 -74.38)"/><path d="M302.51,138l-2.2-.77.35,2.74,1.41-.69a1.72,1.72,0,0,0,.69-.9,1,1,0,0,0,0-.59.93.93,0,0,0-.17-.56,1.52,1.52,0,0,0-.9-.69l-.4-.05a1.47,1.47,0,0,0-.76.2l-1.4.69-.3.24-.24.3-.15.36a1.22,1.22,0,0,0,0,.6.87.87,0,0,0,.11.38.84.84,0,0,0,.19.33.87.87,0,0,0,.27.27,1.26,1.26,0,0,0,.51.27l2.2.76a1.22,1.22,0,0,0,.6,0,1.09,1.09,0,0,0,.56-.18,1.55,1.55,0,0,0,.69-.9,1.5,1.5,0,0,0-.16-1.15l-.23-.31a1.51,1.51,0,0,0-.66-.38Z" transform="translate(-24.02 -74.38)"/><path class="cls-4" d="M229.63,89.51a21.62,21.62,0,0,0-9.93-2.92c4.18-.36,8.55-.78,12.72-.12.61-.6-3.34-1.69-3.93-1.71a23.35,23.35,0,0,0-9.26-.73c2.77-.38,5.75-.88,8.52-1.21.42-.21,3.24.11,2.93-.42A85.5,85.5,0,0,0,222,81c2.72,0,5.51-1.19,8.18-1.38.57.06,1.47.31,2,.42.55-.47-.68-.71-1-.86a49.74,49.74,0,0,0-10.9-.59c-1.62.39-3.68.82-5.33,1.1a51.71,51.71,0,0,0-18.7,7,87.61,87.61,0,0,0-11.44,8c-1.3,1.58-2.62,3.33-3.81,5.11l-.35.06a22,22,0,0,1-2.42.68,2.63,2.63,0,0,0-1.48-.85,36.92,36.92,0,0,0-3-4.83c-1.39-1.34-3-2.85-4.38-4.2-4.27-5-11.23-8.9-17.9-6.82a30.8,30.8,0,0,0-5.5,2.77,33.46,33.46,0,0,0-5.17,3.28A80.84,80.84,0,0,0,132,96.36c-.7.72-6,5.2-4.66,5.89a39.93,39.93,0,0,0,4-1.89c.37,0,1.94-1.67,1.66-.49a41.9,41.9,0,0,0-3.52,4.8c-.3.54.32.2.49,0,1.46-1.41,3.11-2.74,4.66-4.06-1.77,2.88-3.91,5.73-5.86,8.5-1.35,2.32,2.84-1.75,3.41-2,1.9-1.69,4.14-3.32,6.15-4.87a61.79,61.79,0,0,0-6.6,9.21c-.24.23-.68.67-.21.9a28.69,28.69,0,0,0,4.5-4.58,32.18,32.18,0,0,0,2.57-2.38c-.88,1.16-9.27,13.86-5.53,13.19a22.53,22.53,0,0,1,3-3.92,51.8,51.8,0,0,1,4.2-5.55A149.25,149.25,0,0,1,153.6,96.66,12.94,12.94,0,0,1,164,92.75c3.17.4,5.69,2.83,7.89,5a10.39,10.39,0,0,1,2.19,2.72,1.61,1.61,0,0,0-.35,1.28,11.3,11.3,0,0,0-3.64,1.52l-1.1-.81a11.74,11.74,0,0,0-11-.72,17.14,17.14,0,0,0-2.2,1.06.17.17,0,0,0-.12,0,2.23,2.23,0,0,0-2.22,0c-1,1-2.53,3.91-1.95,5.34-1.54.53-3.07,1.52-4.63,2.12a4.53,4.53,0,0,0-3.17,1.54c-1.13,1.12-2.71,2.35-2.78,4.09.59,1.81,2.57,2.13,4.2,1.59a8.26,8.26,0,0,1,3.38,1.2,2.76,2.76,0,0,0,2.32,1.38h0a7.93,7.93,0,0,0,3.43.63c.7,0,1.6-.26,2.18.24,1,.33,2.26,1,3.38.84.85-.2,1.88-.29,2.71-.52a9.87,9.87,0,0,1,2.2-.81c-.36.43.53.82.92.93a5,5,0,0,0,3.59-.71,7.27,7.27,0,0,1,0,1.92,11.06,11.06,0,0,1-1.69,2.85c-1.14,2-2.44,4.48-3.66,6.48a15.2,15.2,0,0,0-1.67,2.59l0,0-2.37,3.36,1.55,1.14.6-.85-.09.94,1.61.75,1.76-3.42.15.08a53.91,53.91,0,0,0,3.56-5.77c1-1.16,1.75-1.15,2.33-2.81.16-1.59,2-3.12,2.9-4.33s3-3.76,2.43-.42a50,50,0,0,1-.58,8c-.33,1.58-.62,5.26-1.56,6.62h0l-1.25,4,1.33.61.46-.72.13.86,1.24.33.94-4-.22-.08c.8.08.37-1,1-4.36.35-2,.78-4.77,1.22-6.75.18-.36.24-3.28.81-3.37a15.08,15.08,0,0,0,1.35-.9,14.65,14.65,0,0,0,3.32.22,64,64,0,0,0,8.64-.33,21.82,21.82,0,0,0,4.27.24,14.91,14.91,0,0,0,1.92-.64c1.23,2.43,2.84,2.59,5.07,3.61,1,.52,2.06,1.49,3.12,1.94a20.34,20.34,0,0,1,3.5,1.73l.91.86a1.48,1.48,0,0,1,.77.38,9.78,9.78,0,0,0,3.22,2.38,47,47,0,0,0,6.38,1.84l.5,0h0l1.58,1.11.73.2.62-.74-.89-1.23,1.61.14.16-1.11-2.61-1.34,0-.05-2.28-1c-.94-.56-2.73-1.71-3.64-2.28a22.33,22.33,0,0,0-4.43-3.27c-1.53-.84-3.57-1.89-4.28-3.57.15-.71-.4-1.49-.58-2.16a8.09,8.09,0,0,0,2.55.81c1.93.52,3,2.53,4.29,3.84a14.87,14.87,0,0,0,2.53,1.41,36.55,36.55,0,0,1,3.69,3,16.61,16.61,0,0,0,4.42,1.45c.07.1.14.12.22.08l2.45.87h.5l.2-.78-.69-.93.82.22.18-1.23-2.24-.73h0c-1.11-.39-3.4-1.51-4.48-2-1-1-2.4-1.89-3.36-2.92a16.4,16.4,0,0,1-3.25-4.52c-.29-2.49-.7-5.33-.93-7.82.46,0,1.06.32,1.51.32a2.73,2.73,0,0,0,1.95,1.64c.83.22.25-.4,0-.7a12.47,12.47,0,0,1-.91-1.22s0,0,0,0l.66-.37a3.81,3.81,0,0,0,1.34-2.37c.16-1.06-.17-2.49-1.44-2.59-1.1.22-1.59,1.49-1.92,2.43-.24,1.66.19,1.77-1.44.93-.86-1.66-1.26-4.11-2.45-5.61a23.49,23.49,0,0,0-3.75-1.78,16.23,16.23,0,0,0-2.28-1.15,40.14,40.14,0,0,0-7.71-1.34,98.18,98.18,0,0,0-13.2-.12,12.3,12.3,0,0,1,4.06-3.3c2.09-.62,4.21-1.79,6.31-2.33a81.1,81.1,0,0,1,13.44-2.05c4.71.67,9.79.45,14.31,2.17A55,55,0,0,1,230,96c-1.7-2.59-5.16-4-8-4.88,3.59.46,6.54,2.91,9.76,4.19a39.53,39.53,0,0,0-8.88-6.12,29.1,29.1,0,0,1,9.38,2.37C232,90.57,230.5,90,229.63,89.51Zm-10.34,17.4c1.08.43-.35,3.52-1.12,2.28h0C218.1,108.44,218.34,106.91,219.29,106.91Z" transform="translate(-24.02 -74.38)"/><path class="cls-5" d="M237.09,86.86a24.52,24.52,0,0,0-11.2-3.29c4.71-.41,9.64-.88,14.34-.14.69-.67-3.77-1.91-4.43-1.93a26.67,26.67,0,0,0-10.44-.82c3.11-.43,6.48-1,9.6-1.37.48-.23,3.66.13,3.31-.47a95.47,95.47,0,0,0-9.79-1.53c3.08,0,6.22-1.34,9.23-1.56.64.07,1.66.36,2.3.48.62-.53-.77-.81-1.1-1a55.58,55.58,0,0,0-12.29-.67c-1.84.44-4.15.93-6,1.24a58.36,58.36,0,0,0-21.1,7.88,97.89,97.89,0,0,0-12.9,9,70.6,70.6,0,0,0-4.29,5.76l-.4.07a24.46,24.46,0,0,1-2.73.77,3,3,0,0,0-1.67-1,41.88,41.88,0,0,0-3.35-5.45c-1.56-1.52-3.37-3.21-4.93-4.74-4.82-5.66-12.67-10-20.19-7.69a35.29,35.29,0,0,0-6.2,3.12A37.61,37.61,0,0,0,137,87.34,88,88,0,0,0,127,94.59c-.8.81-6.75,5.87-5.27,6.64a46,46,0,0,0,4.55-2.13c.42,0,2.19-1.88,1.87-.55a47.22,47.22,0,0,0-4,5.41c-.33.61.36.23.56,0,1.65-1.58,3.51-3.09,5.25-4.57-2,3.25-4.41,6.46-6.61,9.58-1.52,2.62,3.21-2,3.85-2.26,2.14-1.9,4.66-3.75,6.93-5.5a71,71,0,0,0-7.44,10.39c-.27.26-.76.76-.23,1,1.88-1.28,3.54-3.46,5.07-5.17a36.79,36.79,0,0,0,2.9-2.69c-1,1.31-10.46,15.64-6.24,14.88,1-1.37,2-3.26,3.36-4.41a57,57,0,0,1,4.74-6.27,170.13,170.13,0,0,1,15-14A14.63,14.63,0,0,1,163,90.51c3.56.46,6.41,3.19,8.9,5.59a11.43,11.43,0,0,1,2.46,3.07,1.81,1.81,0,0,0-.39,1.44,12.8,12.8,0,0,0-4.11,1.72l-1.23-.91a13.22,13.22,0,0,0-12.44-.82,19.05,19.05,0,0,0-2.49,1.2.18.18,0,0,0-.14-.06,2.51,2.51,0,0,0-2.5.05c-1.18,1.15-2.85,4.41-2.2,6-1.74.61-3.46,1.72-5.22,2.4a5,5,0,0,0-3.57,1.74c-1.29,1.26-3.07,2.65-3.15,4.6.68,2,2.9,2.41,4.74,1.8a9.36,9.36,0,0,1,3.82,1.35,3,3,0,0,0,2.62,1.56h0A9.05,9.05,0,0,0,152,122c.79,0,1.8-.3,2.45.27,1.19.37,2.55,1.14,3.82.94.95-.22,2.12-.32,3-.59a11.93,11.93,0,0,1,2.48-.91c-.4.49.6.93,1,1a5.71,5.71,0,0,0,4-.79,8.16,8.16,0,0,1,0,2.15,12,12,0,0,1-1.91,3.22c-1.28,2.29-2.74,5-4.12,7.31a16.14,16.14,0,0,0-1.88,2.92l0,0-2.67,3.79,1.75,1.28.68-1-.1,1.05,1.81.86,2-3.87.17.09a63,63,0,0,0,4-6.5c1.11-1.31,2-1.3,2.63-3.17.18-1.8,2.26-3.52,3.27-4.89s3.42-4.23,2.74-.47a55.92,55.92,0,0,1-.66,9c-.36,1.77-.7,5.93-1.75,7.46h0l-1.41,4.53,1.5.69.51-.82.15,1,1.4.37,1-4.5-.24-.09c.91.1.42-1.15,1.16-4.92.4-2.26.88-5.38,1.38-7.61.2-.41.27-3.7.91-3.8a15.41,15.41,0,0,0,1.52-1,17.26,17.26,0,0,0,3.74.25,74,74,0,0,0,9.76-.37,24.91,24.91,0,0,0,4.81.26,16.58,16.58,0,0,0,2.16-.72c1.39,2.74,3.21,2.93,5.73,4.07,1.14.58,2.32,1.69,3.51,2.19a22.7,22.7,0,0,1,4,2s1,1,1,1a1.54,1.54,0,0,1,.86.43,11.2,11.2,0,0,0,3.63,2.68,51.9,51.9,0,0,0,7.2,2.08l.57,0h0l1.78,1.26.82.22.71-.84-1-1.38,1.82.16.17-1.25-2.93-1.52,0-.06-2.56-1.11c-1.07-.63-3.08-1.93-4.11-2.57a24.73,24.73,0,0,0-5-3.68c-1.73-1-4-2.15-4.83-4,.16-.8-.45-1.69-.66-2.44a9.08,9.08,0,0,0,2.87.91c2.18.58,3.38,2.85,4.85,4.33a16.55,16.55,0,0,0,2.85,1.6,42,42,0,0,1,4.16,3.4,19.22,19.22,0,0,0,5,1.64.19.19,0,0,0,.24.09l2.77,1h.56l.23-.88-.78-1,.92.24.2-1.38-2.52-.83h0c-1.25-.44-3.84-1.7-5.06-2.26-1.13-1.09-2.7-2.14-3.79-3.29-1.29-1.48-2.95-3.24-3.66-5.1-.32-2.81-.79-6-1.05-8.83.52,0,1.2.37,1.7.36a3.12,3.12,0,0,0,2.2,1.86c.94.24.28-.46.05-.79s-.78-1-1-1.37c0,0,0,0,0,0l.74-.42a4.29,4.29,0,0,0,1.51-2.67c.18-1.2-.19-2.81-1.62-2.92-1.24.25-1.79,1.68-2.17,2.73-.27,1.88.22,2-1.63,1.06-1-1.88-1.41-4.64-2.76-6.33a26.39,26.39,0,0,0-4.22-2,19.47,19.47,0,0,0-2.58-1.3,45.56,45.56,0,0,0-8.69-1.51,113.37,113.37,0,0,0-14.89-.14A14.12,14.12,0,0,1,192.93,94c2.37-.69,4.75-2,7.13-2.62a91,91,0,0,1,15.15-2.31c5.32.75,11,.5,16.14,2.44a64.84,64.84,0,0,1,6.15,2.67c-1.91-2.91-5.82-4.5-9-5.5,4,.52,7.37,3.28,11,4.72-2.79-2.8-6.58-5-10-6.9,3.57.45,7.44,1.08,10.59,2.68C239.71,88.06,238.06,87.42,237.09,86.86Zm-11.67,19.63c1.22.48-.39,4-1.27,2.57h0C224.08,108.22,224.35,106.48,225.42,106.49Z" transform="translate(-24.02 -74.38)"/></svg>
