<svg id="Layer_1" data-name="Layer 1" xmlns="http://www.w3.org/2000/svg" viewBox="0 0 757.88 510.72"><defs><style>.cls-1{fill:#fbcbc2;}.cls-2,.cls-4,.cls-9{fill:#231f20;}.cls-3,.cls-5{fill:#fff;}.cls-3,.cls-4,.cls-8,.cls-9{stroke:#231f20;stroke-miterlimit:10;}.cls-3,.cls-4{stroke-width:0.25px;}.cls-6,.cls-8{fill:#fbc7be;}.cls-7{fill:#f8b1b3;}</style></defs><g id="Layer_3" data-name="Layer 3"><path class="cls-1" d="M512.92,185.08c-42.79,4.48-91.58,11.3-132.1,26.87l-.09,0c-15.78,9.28-57.93,22-70.82,35.92a.28.28,0,0,1-.33.06l-8.49-4.29h0c-25.92-9.82-55.39-8.23-78.36,8.12-3.32,2.22-11,6.9-14,9.85a.5.5,0,0,1-.57.09c-4.4-2-9.57-1.15-13.69,1.26a10.92,10.92,0,0,0-3.82,3.82c-5.62,9.35-11,28.29-6.17,37.15a.57.57,0,0,1-.22.79C173,311.05,162.58,321.07,151.09,327a.6.6,0,0,0-.22.89l43.25,61.08a.59.59,0,0,0,.37.25,57.55,57.55,0,0,0,24.68.29c4.91-.73,10.85-3.7,15.5-1a.45.45,0,0,0,.18.07c7.75,1.07,17,4.38,24.67,1.84h0c5.68-2.38,12.8-4.26,18.36-6.89l.06,0c3.92-2.58,8.71-6,13.2-7.83a.63.63,0,0,1,.88.59c-.23,2.74,5.34,4.11,7.9,4.38H300a36,36,0,0,0,23.62-8.57.6.6,0,0,1,1,.33c.86,4,2.72,8.42,2.28,12.37l0,.09a93.17,93.17,0,0,1-6.34,18.28,82.94,82.94,0,0,0-4.35,10c-5,14.2-10.34,30.14-15.71,43.61l0,0c-5.68,12.19-8,18-7.88,21,.19,4.5,6.82,3,23.54,9.13a.64.64,0,0,0,.76-.27c3.92-6.51,14.06-33.21,17.27-42.66a14.64,14.64,0,0,1,1.71-3.51c4.27-6.39,8.35-8.52,10.71-15.76a27.31,27.31,0,0,0,1.17-7.08c.6-10.85,10.67-22.8,15.21-31.79,4.3-9.23,16.1-28.84,16.53-7.75a29.6,29.6,0,0,0,.36,4.1c2.69,16.78,5.47,38.29,5.16,54.88-.37,10.61,1.61,33.93-2,45.81a2.81,2.81,0,0,0,2.13,3.56c27.61,5.84,17.54,6.83,18.49-28.83.07-14.5-.2-34.4.53-48.85l0-.09c.77-2.9-2.21-23.31,1.63-24.6,2.82-2,5.73-5.39,8.24-7.75a.49.49,0,0,1,.39-.13c7.23.72,16.19-1.48,23.36-2.45,17-1.5,33.72-6.15,50.32-10.25a80.75,80.75,0,0,1,15.68-2.38,159.87,159.87,0,0,0,19.48-2.61l13-4.83c1.48-.89,2.93-1.77,4.36-2.52a.69.69,0,0,1,.86.21c11.44,15.09,22.91,14.39,39.61,18.83,7.76,2.4,16.24,8,24.24,9.93,8.61,2.43,18.63,3.85,26.67,8,0,0,.55.33,1.29.82a35.68,35.68,0,0,0,9.2,4.54,9.41,9.41,0,0,1,2.76,1.34c7.79,5.08,16,11.26,25.47,12.84,15.26,2.85,30.54,3.94,46.05,4.62h0l2.64-.12h0l1.05-.1a.34.34,0,0,0,.27-.22l6.85-20.74a.31.31,0,0,0-.21-.4c-.76-.24-2.55-1-2.67-1l-15.52-4-.07,0c-6.34-2.42-17.61-7.17-25.1-10.3a40.76,40.76,0,0,1-6-3.11c-9.47-6-22.34-12.86-32.23-15.88-11.7-4.12-27.22-9-34.25-19.82a.67.67,0,0,1-.09-.34c0-4.6-3.74-9-6-13a.6.6,0,0,1,.7-.87,60.62,60.62,0,0,0,17.45,2.17h.06c14.19,1.33,24,14.2,34.76,21.84,5,3.24,11.87,4.32,17.58,6.24a17.24,17.24,0,0,1,3.15,1.44c7.55,4.38,16.16,7.9,23.64,12.75a34.74,34.74,0,0,0,10.91,4.73c8.65,2,17.6,4,26.37,3.49a.6.6,0,0,1,.21.08l.38.14a1.38,1.38,0,0,0,.22,0,3.43,3.43,0,0,0,.34.06,1.46,1.46,0,0,0,.36,0,.84.84,0,0,0,.52-.24c2.7-2.63,3.95-16.82,5-19.15.07-.16,0-.41-.15-.44-7.63-1.37-22.29-5.51-31-7.91a16.76,16.76,0,0,1-4.6-2c-7.93-5-17.71-9.57-25.07-15.12-8.92-7.28-20.16-15.78-26.79-25.65a15.81,15.81,0,0,1-2-4.41c-4.85-16.41-10.69-34.68-15.09-51a.59.59,0,0,1,.52-.75c3.09-.17,7.07.93,10,.54a.56.56,0,0,1,.5.2c3.68,4.69,9.15,9.51,15.5,9,6.09.52,1.26-3.12-.54-4.93l0,0c-1.93-1.61-5.47-5-7.45-7.09a.62.62,0,0,1,.06-.89l3.73-3.06.09-.09c3.71-4.53,7.36-12.15,6.54-18.16-1-7.47-4-16.64-12.28-16.52a4.57,4.57,0,0,0-1.71.37c-6.54,2.84-8.49,11.6-9.68,18.22l-.12,1.58c.43,10.92,3,11.36-8.14,7.77a2.75,2.75,0,0,1-1.42-1c-6.66-9.21-11.83-22.52-19.51-31.71a20.44,20.44,0,0,0-9.45-6.37c-6.76-2.18-15.93-5.17-20.7-6.53-.8-.22-1.58-.49-2.36-.77-5.4-1.89-11.7-2.54-17.22-3.76h-.05C551.91,182.89,529.79,183.87,512.92,185.08ZM655,232.49c-3.25-4.08-1.59-15.65,4.65-17.22a1.78,1.78,0,0,1,1,0c7.38,2.5,1.16,24.84-5.62,17.22Z" transform="translate(-6.35 -6.3)"/><path class="cls-2" d="M293.37,375.31c1.78-1.68,3-4,5.14-5.29a.61.61,0,0,0,.12-.87.63.63,0,0,0-.74-.19c-2.26,1.34-3.52,3.71-5.4,5.47-.57.54.3,1.42.88.88Z" transform="translate(-6.35 -6.3)"/><path class="cls-2" d="M234.33,387.55c7-3.56,13.11-8.5,19.27-13.27,3.16-2.44,6.23-5.32,10-6.91A66,66,0,0,0,274,362a92.31,92.31,0,0,0,10.68-7.9c1.2-1-.55-2.78-1.74-1.75a73,73,0,0,1-19.82,12.6c-3.54,1.45-6.38,3.82-9.38,6.14s-6.23,4.87-9.41,7.21a79.52,79.52,0,0,1-11.22,7.11c-1.42.73-.17,2.86,1.24,2.14Z" transform="translate(-6.35 -6.3)"/><path class="cls-2" d="M295.34,286.65c1.85,2.64,2.69,5.8,3.41,8.89a93,93,0,0,1,1.74,10.23c.2,1.7.38,3.4.54,5.11a28.62,28.62,0,0,1,.34,5.07c-.23,3-2.33,5.85-.87,8.89,1.32,2.75,4.53,3.51,7.34,3.48s5.83-.72,7.9-2.79a21.33,21.33,0,0,0,4.52-7.91c1.08-3,1.34-6.17,2.27-9.2,1.07-3.55.53-7.24.19-10.87a56,56,0,0,0-2-11.34c-.47-1.51-2.85-.87-2.38.66a70.89,70.89,0,0,1,2.35,18.45,21.34,21.34,0,0,1-1,3.85c-.42,1.52-.56,3.09-.91,4.63a25.37,25.37,0,0,1-3.29,8,8.08,8.08,0,0,1-6.91,4c-2.75.17-6.51-.39-6.18-3.95a24.3,24.3,0,0,1,1-3.84,13,13,0,0,0,.26-4.61c-.28-3-.58-6-1-9.05a90.24,90.24,0,0,0-1.61-9.94,26.38,26.38,0,0,0-3.55-9c-.91-1.29-3.05-.05-2.14,1.25Z" transform="translate(-6.35 -6.3)"/><path class="cls-2" d="M184.9,304.3a3.38,3.38,0,0,0,4.33.46c1.67-1.05,2.09-3.07,2.28-4.89a56.76,56.76,0,0,1,2.68-13,34.65,34.65,0,0,1,3.06-5.93c1.24-2.06,2.47-4.12,3.72-6.17l3.77-6.15a19,19,0,0,1,3.95-5c1.23-1-.52-2.74-1.75-1.74-3,2.45-4.83,6.35-6.81,9.6-2.2,3.58-4.43,7.15-6.49,10.8a37,37,0,0,0-3.56,10.94,55.36,55.36,0,0,0-.92,5.72,7.2,7.2,0,0,1-.66,3.1c-.41.65-1.19,1.2-1.82.51-1.07-1.17-2.82.57-1.75,1.74Z" transform="translate(-6.35 -6.3)"/><path class="cls-2" d="M334.85,265.64c-.59-2.24-2.16-3.9-3.79-5.46-2-1.89-3.87-3.85-5.93-5.63a45.88,45.88,0,0,0-6.24-4.18,32.84,32.84,0,0,0-6.84-3.66c-1.51-.51-2.17,1.87-.66,2.38a29.76,29.76,0,0,1,6.08,3.29,45.66,45.66,0,0,1,5.93,3.91c1.82,1.61,3.53,3.35,5.29,5,1.5,1.44,3.23,2.89,3.78,4.94a1.25,1.25,0,0,0,1.55.82,1.23,1.23,0,0,0,.83-1.47Z" transform="translate(-6.35 -6.3)"/><path class="cls-2" d="M414.2,363.14a32.57,32.57,0,0,1-.71,6.15,21.57,21.57,0,0,1-1.7,5.74,1.28,1.28,0,0,0,.44,1.69,1.25,1.25,0,0,0,1.69-.44,23.46,23.46,0,0,0,2-6.32,35.58,35.58,0,0,0,.8-6.82c-.06-1.58-2.53-1.59-2.47,0Z" transform="translate(-6.35 -6.3)"/><path class="cls-2" d="M653.59,249.35c2.66,0,4.45-2.11,6.68-3.2a.61.61,0,0,0-.62-1.06h0c-2,1-3.71,3-6.06,3a.62.62,0,0,0-.54.69A.63.63,0,0,0,653.59,249.35Z" transform="translate(-6.35 -6.3)"/><path class="cls-2" d="M592.67,311.54c1.81,1.76,3.66,3.48,5.43,5.26.81.83,1.48,1.73,2.22,2.62a15.3,15.3,0,0,1,2.15,2.47c.76,1.4,2.89.15,2.14-1.24a13.82,13.82,0,0,0-2.3-2.7c-.82-.89-1.49-1.89-2.32-2.75-1.81-1.85-3.72-3.61-5.58-5.4-1.13-1.1-2.88.63-1.74,1.74Z" transform="translate(-6.35 -6.3)"/><path class="cls-2" d="M408.42,241.21a19.87,19.87,0,0,0-1.05-5.6,26.44,26.44,0,0,0-2.21-5.47c-1.8-3-5.32-3.95-8.57-4.08-2-.11-3.95-.06-5.93-.21a27.26,27.26,0,0,0-6,.18c-2,.29-3.95.61-5.85,1a8.73,8.73,0,0,0-4.72,2c-1.5,1.46-2.38,3.6-3.38,5.4l-3.57,6.47c-.76,1.39,1.37,2.64,2.14,1.24l3.56-6.47c.91-1.65,1.76-4,3.33-5.18s4.11-1.21,6-1.53a33.67,33.67,0,0,1,6.71-.7c2.19.08,4.36.23,6.54.28a11.86,11.86,0,0,1,5.74,1.18c1.87,1,2.47,3,3.19,4.88a20.7,20.7,0,0,1,1.57,6.66c0,1.59,2.52,1.59,2.47,0Z" transform="translate(-6.35 -6.3)"/><path class="cls-2" d="M334.52,361.5a17.41,17.41,0,0,1-2.2,2.34c-.82.72-1.75,1.3-2.57,2s-1.36,1.41-2.13,2a9.72,9.72,0,0,1-2.91,1.33,1.23,1.23,0,1,0,.65,2.38,14,14,0,0,0,3.28-1.42,20.35,20.35,0,0,0,2.6-2.31c.81-.76,1.77-1.34,2.62-2.06a18,18,0,0,0,2.41-2.52,1.3,1.3,0,0,0,0-1.75,1.26,1.26,0,0,0-1.75,0Z" transform="translate(-6.35 -6.3)"/></g><g id="Layer_2" data-name="Layer 2"><path class="cls-3" d="M247.54,289.32c5.4,4.66,18.53,6.64,24.23,1.72,1.37-1,2.66-3.06.35-3.87-3.85-1.44-8.51-3.27-12.67-3.4C255.76,284.23,245.79,283.56,247.54,289.32Z" transform="translate(-6.35 -6.3)"/><path class="cls-3" d="M199.24,283.29c4.85,4.29,12.64,1.48,18.56,2.43,12.1,2,7.22-6.15-.21-8.6C212.42,276.19,200.09,276.56,199.24,283.29Z" transform="translate(-6.35 -6.3)"/><polygon class="cls-4" points="286.19 471.46 273.57 497.91 285.81 504.05 289.05 497.36 289.54 504.05 301.72 507.45 310.29 480.4 286.19 471.46"/><polygon class="cls-4" points="376.57 477.09 372.58 506.8 382.67 509.48 384.97 503.83 386.94 509.72 396.08 510.58 397.86 481.44 376.57 477.09"/><polygon class="cls-4" points="713.82 405.69 718.33 383.46 739.72 390.27 739.95 398.23 728.47 399.16 736.19 406.71 732.7 412.67 727.32 412.18 713.82 405.69"/><polygon class="cls-4" points="734.46 368.78 739.68 349.1 757.55 351.78 757.75 360.63 751.78 360.09 757.75 365.81 757.21 371.53 753.72 372.1 734.46 368.78"/><path class="cls-5" d="M375.79,229.14c17.15,2.5,21.89,13.74,30.17-7.14,11.93-16.48,21.05-38.52,38.63-50,14-6.82,27.44-17.59,41.6-23.87,29.73-12.27,60.45-23.37,92-30.45,33.92-1,69.36-8.59,103.11-1.87,13.72,2.19,28,6.48,41.16,10.09-15-16.12-41-21.86-62.17-24.69,25.75-1.06,49.39,12.62,73.58,17.78-20.35-14.54-46.21-24.06-69.75-32.38,22.72-1,47.47-1.16,68.77,5.48-3.19-6.85-14.13-9.09-20.8-11.51-22.9-9-48.86-11.5-73.27-8.68,28.94-7.53,59.16-15.67,89.24-16,3.56-4.94-25.52-7.9-29.69-7.36a168.36,168.36,0,0,0-65.91,5.93c19-5.93,39.35-13,58.39-18.66,2.72-2,22.95-3.06,20.08-6.47-19.85.27-42.37-1.55-62.55.82,19.12-3.36,37.31-14.91,55.84-19.48,4.07-.2,10.71.48,14.82.56,3.28-4-5.66-4.21-7.9-4.88a353,353,0,0,0-77.26,8.89c-11,4.64-24.87,10.14-36.16,14-44.44,16.2-88,39.38-123.08,71.45-24.28,21.59-50.29,44.67-70.78,70C393.44,188.82,383,209.48,375.79,229.14Z" transform="translate(-6.35 -6.3)"/><path class="cls-5" d="M358.38,223c-8.6-13.83-20.45-26.42-31.81-37.9-11.37-7.8-24.43-16.44-35.76-24.33-36-30.14-89.55-49.09-133.93-26.5-12.6,7-24.44,16.64-35.35,26-11,8.89-23.26,18.41-32.39,29.26-18.5,17.57-39.21,35.75-55.07,55.81C30,251.23-1.75,289,8.31,292.26c8.89-5.21,17.89-11.91,26.09-18.11,2.56-.67,11.65-14,11.07-5.39-6.33,12.41-14.5,24.69-19,37.9-1.42,4.18,2.5,1,3.46-.74,8.58-11.64,18.59-23,27.86-34-9,22.36-20.6,44.9-31,66.68-6.69,17.93,17.88-15.67,21.57-18.15,11.35-14.13,25.1-28.3,37.36-41.61-14.29,21.73-25.41,48.77-35.35,72.6-1.37,1.89-4,5.52-.37,6.58,10.39-10,18.42-25.3,26.13-37.53a235.4,235.4,0,0,0,15.23-19.83c-4.82,9.2-48.61,108.51-23.13,99.3,4.81-9.63,9.14-22.49,16.26-31.07,7-14.22,13.9-30.93,22.93-44.07,23.62-36.06,51.12-70.36,78.93-103.18,15.36-22.13,41-38.19,68.15-39.89,22.72-.91,43.36,13.1,61.37,25.4C348.41,228.41,329.76,239.39,358.38,223Z" transform="translate(-6.35 -6.3)"/></g><g id="Layer_4" data-name="Layer 4"><path class="cls-6" d="M368.26,241.92c3-5,6.07-14.81,13.18-14.57,8-.61,22.33-3.83,24.52,6.92l1.07,7.16Z" transform="translate(-6.35 -6.3)"/><path class="cls-6" d="M334.35,235.42c-8.57-18.45,22.41-26.67,32.1-13.82" transform="translate(-6.35 -6.3)"/><path class="cls-6" d="M346.94,235.42" transform="translate(-6.35 -6.3)"/></g><g id="Layer_1-2" data-name="Layer 1"><path class="cls-7" d="M119.62,371.58c-1.58-12.28,8.06-22.8,14.71-32.05,4.87-9.38,16.79-14.93,27-15.8a105.06,105.06,0,0,1,29.19,9.88c11.1,1.62,16.06,6.69,21.95,15.8,9.32,13.21,5.38,32.25-10.54,38-9.14,3.18-19.23,2.82-25.68-5.27-7.42-3.73-17-4.26-25.2-4.38C140.25,383.48,126,383.61,119.62,371.58Z" transform="translate(-6.35 -6.3)"/><path class="cls-8" d="M142.4,361.12" transform="translate(-6.35 -6.3)"/><path class="cls-9" d="M142,362.58c5.19,7.75,22.27,3.17,19.21-7.25C155.23,339.86,137.09,347.21,142,362.58Z" transform="translate(-6.35 -6.3)"/><path class="cls-9" d="M158.75,377.08" transform="translate(-6.35 -6.3)"/><path class="cls-9" d="M183.33,368.8c5.2,10.92,20.61,5.78,17-6.26C194.79,347.44,181.87,356.14,183.33,368.8Z" transform="translate(-6.35 -6.3)"/><path class="cls-2" d="M183.82,314.89a23.9,23.9,0,0,1,12.54-1.54c4.25.63,7.9,2.56,11.54,4.79s7.32,4.53,10.19,7.79a55.83,55.83,0,0,1,6.75,10.38c.38.7,1.45.08,1.07-.62A57.21,57.21,0,0,0,219,325.06c-3-3.44-6.91-5.85-10.81-8.23a30.64,30.64,0,0,0-12-4.75,25.05,25.05,0,0,0-12.7,1.62c-.73.3-.41,1.49.33,1.19Z" transform="translate(-6.35 -6.3)"/><path class="cls-2" d="M204.68,304.1c3.49,0,7-.32,10.47.19A21.9,21.9,0,0,1,224,308a25.88,25.88,0,0,1,3.77,2.9,11.63,11.63,0,0,1,2.63,4.45c1.21,3.26,2.32,6.57,3.37,9.88.23.75,1.43.43,1.18-.33-1.12-3.58-2.27-7.2-3.66-10.69-1.29-3.2-3.52-5.13-6.3-7a23.47,23.47,0,0,0-9.28-4.05c-3.64-.59-7.35-.21-11-.26a.62.62,0,0,0,0,1.23Z" transform="translate(-6.35 -6.3)"/><path class="cls-2" d="M216.38,292A73.22,73.22,0,0,1,227,295.08c3.47,1.22,6.92,2.38,10.36,3.73A33.58,33.58,0,0,1,246.7,304c2.91,2.42,4.27,5.66,5.47,9.17.25.75,1.44.42,1.18-.33-1.12-3.32-2.4-6.6-5-9.05a30.61,30.61,0,0,0-9.21-5.55c-3.5-1.48-7.14-2.67-10.74-4a79,79,0,0,0-11.67-3.46c-.78-.15-1.11,1-.33,1.18Z" transform="translate(-6.35 -6.3)"/><path class="cls-4" d="M255.9,289l1,2.4.79,1.3a7.51,7.51,0,0,0,1.07.78,7.87,7.87,0,0,0,1.6-.2c.25-.12,1.61-1.11,1.61-1.11l1.19-2,.21-2L262.13,286l-2.23-1-2.14.29-1.16,1.39-.49,1.15Z" transform="translate(-6.35 -6.3)"/><path class="cls-4" d="M208.05,282.34l-.11-1.48.11-1,.4-1,.48-.83.8-.6,1.11-.28,1.22.13,1,.4a9.93,9.93,0,0,1,1.07.57,10.9,10.9,0,0,1,.6,1.18,3.62,3.62,0,0,1,.29,1.25c-.06.35-.08,1.9-.11,2a9.17,9.17,0,0,1-.24,1.27,6.08,6.08,0,0,1-1,.91c-.16.08-1.34.49-1.34.49l-1.36.16h-1.13L209,285s-.64-.82-.66-.88l-.28-1Z" transform="translate(-6.35 -6.3)"/><path class="cls-2" d="M212.77,269.52a8.34,8.34,0,0,0,5-.56,55.53,55.53,0,0,1,5.63-1.89c3.89-1,8.54-1.77,12.52-.9,3.57.77,5.7,4.18,9.43,4.28,4,.1,7.8-1.51,11.79-1.4,4.42.12,8.39,2.46,12.11,4.64a.62.62,0,0,0,.81-.33.61.61,0,0,0-.19-.74c-3.15-1.84-6.41-3.76-10-4.49-3.79-.77-7.37.24-11.11.81-2,.31-4.28.62-6.1-.46-1.61-1-2.88-2.23-4.64-3-3.48-1.41-7.68-.94-11.29-.37a38,38,0,0,0-6.49,1.62c-2.26.77-4.67,2.21-7.11,1.59a.61.61,0,0,0-.71.5.62.62,0,0,0,.39.69Z" transform="translate(-6.35 -6.3)"/><path class="cls-2" d="M269.13,273.61a3,3,0,0,0,2.46.55,2.62,2.62,0,0,0,1.11-.57c.17-.14.33-.31.49-.44h0l.13-.09h.12a.62.62,0,0,0,.69-.54.63.63,0,0,0-.54-.7h-.15a1.87,1.87,0,0,0-1.25.59l-.22.2-.09.09h0l-.21.14-.1.05c-.09,0,.13-.05,0,0l-.22.07h-.75l-.24-.08c-.09,0,.12.07,0,0l-.09-.05-.1-.06h-.05a.63.63,0,0,0-.88,0,.62.62,0,0,0,0,.84Z" transform="translate(-6.35 -6.3)"/><path class="cls-2" d="M220.48,274a4.52,4.52,0,0,0,2.42,0c.93-.33,1.38-1.18,2.16-1.7,1.18-.8,2.65-.47,3.95-.29a25.72,25.72,0,0,0,3.51.08c2.34,0,4.19,1.19,6.28,2.06a7.39,7.39,0,0,0,5.92.16c.72-.3.41-1.5-.32-1.19-4.27,1.78-7.66-2.27-11.86-2.27a27.2,27.2,0,0,1-3.72-.11,9.93,9.93,0,0,0-2.72-.13,3.89,3.89,0,0,0-2.15,1,8,8,0,0,1-1.21,1.12,2.73,2.73,0,0,1-2,.1c-.77-.18-1.11,1-.33,1.19Z" transform="translate(-6.35 -6.3)"/><path class="cls-2" d="M244.6,274.34c.88-.18,1.73-.11,2.62-.37a13.62,13.62,0,0,1,3-.59,6.54,6.54,0,0,1,3.13.32c.76.39,1.2,1.22,2,1.66s1.65.67,2.42,1.18a8.4,8.4,0,0,0,2.16,1.13,7.1,7.1,0,0,0,4.87-.22c.72-.29.41-1.49-.33-1.18A6,6,0,0,1,259,276a15.09,15.09,0,0,0-2.16-1.27,4.35,4.35,0,0,1-1.45-.75c-.34-.31-.61-.67-1-1-1.26-1-3.24-1-4.76-.78a14.45,14.45,0,0,0-2.6.53c-.93.28-1.84.23-2.78.43-.77.15-.45,1.34.33,1.18Z" transform="translate(-6.35 -6.3)"/><path class="cls-3" d="M256.64,285.53" transform="translate(-6.35 -6.3)"/></g></svg>