<svg id="Layer_1" data-name="Layer 1" xmlns="http://www.w3.org/2000/svg" viewBox="0 0 598.48 620.6"><defs><style>.cls-1,.cls-4,.cls-5,.cls-6{fill:#fff;}.cls-1,.cls-3,.cls-7{stroke:#000;}.cls-1,.cls-3,.cls-5,.cls-6,.cls-7{stroke-miterlimit:10;}.cls-1{opacity:0.29;}.cls-2{fill:#8cc63f;}.cls-3{fill:#b3b3b3;}.cls-5,.cls-6{stroke:#fff;}.cls-6{stroke-width:0.25px;}</style></defs><path class="cls-1" d="M251.59,220.86c1.17.68,2.39,1.28,3.53,2a1.57,1.57,0,0,1,.5,2.13,1.37,1.37,0,0,1-.34.38c.77.25,1.54.5,2.31.77a1.67,1.67,0,0,1,1,1.09c2.17.51,4.34,1,6.5,1.59-.41-1.1-.81-2.19-1.19-3.28a1.54,1.54,0,0,1-2.49-.77c-.6-2.46-1.06-4.94-1.5-7.43a1.72,1.72,0,0,1-.46-.74c-1-3.15-1.49-6.44-2.24-9.65a1.61,1.61,0,0,1-.7-.64c-.52-.87-1-1.76-1.52-2.64-.19.92-.43,1.83-.7,2.73a1.48,1.48,0,0,1-1,1,1.54,1.54,0,0,1-1.08,1.1,1.56,1.56,0,0,1-1.19-.19l0,0a28.63,28.63,0,0,0,.88,4.19,1.57,1.57,0,0,1-1.13,1.87,1.38,1.38,0,0,1-.53,0,24.1,24.1,0,0,1-.48,3.61c.09.6.18,1.2.26,1.8C250.53,220.15,251,220.54,251.59,220.86Z" transform="translate(-35.9 -19.03)"/><path class="cls-1" d="M266.55,232.41c-2.33-.65-4.68-1.24-7-1.8a1.25,1.25,0,0,1-.8.2c-2.73-.31-5.47-.44-8.21-.61a1.64,1.64,0,0,1,0,.54,1.41,1.41,0,0,1,.37.4,34.33,34.33,0,0,0,9,1.8c2.39.26,4.77.4,7.15.53Z" transform="translate(-35.9 -19.03)"/><path class="cls-2" d="M634,31.22c-7.58-24.9-31.8-3.93-31.8-3.93C608,41.85,486.4,126.12,472.38,150.45c-6.92,12-52.74,43-98.58,67.84a1.65,1.65,0,0,1-.78.53c-.39.1-.77.22-1.14.34-1.57,1-3.12,2-4.75,2.89a1.56,1.56,0,0,1-.45.14,1.39,1.39,0,0,1-.51.16L365,223l-.21.23a1.59,1.59,0,0,1-.26.32l-.32.23a1.64,1.64,0,0,1-.61.17,1.14,1.14,0,0,0-.06.25.15.15,0,0,0,0,.07v.13a.52.52,0,0,1-.53.5.51.51,0,0,1-.5-.53h0a.53.53,0,0,1-.19-.5c-3.06,1.39-6.05,3-9,4.5a1.46,1.46,0,0,1-1.67-.18c-.44.4-.86.81-1.31,1.2-1.49,1.31-3.61-.92-2.12-2.23a1.34,1.34,0,0,1,.38-1.6l5.12-4.52a1.51,1.51,0,0,1-.81-.44,1.56,1.56,0,0,1,.06-2.19c1.7-1.46,3.46-2.86,5.21-4.28-.5.19-1,.38-1.49.55a42.13,42.13,0,0,1-7.65,1.89c-1.64,6.81-3.32,13-5.45,14.12-20.88,10.83-39.41,19.94-51,25.19-7.91,3.6-11.25-2.36-11.25-2.36-5.38-3.89-9.56-10-12.86-16.82-3.38-.17-6.71-.41-10.07-.78A35,35,0,0,1,249,233.7l-1.11-.14c.71,5.09.49,10,2.08,15,.85,2.67,1.86,5.24,2.51,8,.48,2,.38,4.86,1.39,6.68a3.38,3.38,0,0,1,.42,2.24c.56,1.24,1.12,2.48,1.59,3.77a39.58,39.58,0,0,0,1.35,3.74,3.73,3.73,0,0,1,.3.91,5.43,5.43,0,0,1,1.14,2.86,2.75,2.75,0,0,1,0,3.57,44.89,44.89,0,0,0-7,13.05,3.39,3.39,0,0,1-1.75,2.05,14.31,14.31,0,0,1-1.92,6.12,8.42,8.42,0,0,1-.72,1,3,3,0,0,1,.58,2.88,3.25,3.25,0,0,1-3.34,3.11l-.23,0a12.63,12.63,0,0,0-2.18,1.44,48.07,48.07,0,0,0-5.12,5c-1.57,1.83-4.25,4.68-5.35,6.79-1.25,2.42-.08,5.41,0,8a3,3,0,0,1-1.64,3c.2,8.58,2.12,16.81,2.08,25.43a3.17,3.17,0,0,1,0,3.36c-4.38,7.55-9.49,14.59-14.33,21.89a3.58,3.58,0,0,1-1.08,1.08,30,30,0,0,1-4.19,5.77,21.15,21.15,0,0,1-1.94,2.86,3,3,0,0,1-1.65.91,32.3,32.3,0,0,1-3,4,2.91,2.91,0,0,1-1.61.91c-.1.13-.2.25-.29.38a4.18,4.18,0,0,1-1.28,1.2c-.39.54-.81,1.08-1.27,1.62a2.7,2.7,0,0,1-.72.58,11.08,11.08,0,0,1-1.83,2.31,3.85,3.85,0,0,1-1.36.8c-.08.23-.17.45-.27.68-.31.7-.72,1.35-1.08,2a1.48,1.48,0,0,1-1.7.66,5.71,5.71,0,0,1-1.66,2.16s0,0,0,.06a1.11,1.11,0,0,1,0,.6,4.49,4.49,0,0,1-.36.77c-.11.17-.24.32-.36.48l0,.07v0c0,.19,0,.37-.07.55l0,.11,0,0c-.05.14-.11.27-.17.4a.41.41,0,0,1,0,.09l0,.05-.26.34-.15.12c-3.91,8.77-40.06,42.46-40.06,42.46C69.91,529.89,81.62,567.25,51.6,573.66s-7.77,21.41-7.77,21.41l18.84,27.25c-8.91,25.5,33.56,15.29,33.56,15.29,15.07,13.78,137.26-73.05,125.45-73.87-5.23-.37,28.1-50.72,36.35-51.53s53.75-48,53.75-48c2-.43,3-2.45,3.5-4,0,.11,0,.19,0,.31,0-.15,0-.26.06-.39a8.53,8.53,0,0,0,.34-1.57c.25-.42.36,1.61,1.32-1.76.87-3,1.61-7.12,2.44-10.17a9.85,9.85,0,0,1,1.66-3.1.47.47,0,0,1-.05-.1,7.23,7.23,0,0,1,.2-3.33c.2-.93.41-1.81.52-2.76a24,24,0,0,1,.5-3.15c.22-.91.47-1.8.64-2.71-.57-.89-.91-1.55-.31-1.47a1,1,0,0,0,.45-.09,1.31,1.31,0,0,1-.12-.27c-.46-1.49.24-2.67.91-3.89a1.59,1.59,0,0,1-.22-.76,8.29,8.29,0,0,1,.87-3.59l.1-.14A76.91,76.91,0,0,1,325.8,411a1.26,1.26,0,0,1,.62-.85c-.15-1.72-.24-3.16,0-3.22a1.63,1.63,0,0,1,.5.28,3.14,3.14,0,0,1,0-.81,1.54,1.54,0,0,1,.2-.76,1.4,1.4,0,0,1,.54-.54,1.54,1.54,0,0,1,.76-.2,1.4,1.4,0,0,1,.61.14h0l-.16-.07.17.07a1.6,1.6,0,0,1,1.28-.26,1.46,1.46,0,0,1,.77.54,1.5,1.5,0,0,1,.26.54l0,.06v-.05a.53.53,0,0,0,0,.12l0-.07h0a2.72,2.72,0,0,1,.17.62,46.44,46.44,0,0,1,5,7.65c1.17,2.08,2.44,4.1,3.49,6.24a1.8,1.8,0,0,1,.53-.17c2.08-.59.74,1.57,1.49,3.57.12.33.27.66.4,1a35,35,0,0,1,6.07,8,1.26,1.26,0,0,1,.35.17,20.22,20.22,0,0,1,3.84,4.31c1.13,1.48,2.47,2.79,3.5,4.35A12.81,12.81,0,0,1,357,443a1.44,1.44,0,0,1,1,.7,10.74,10.74,0,0,0,.81,1.29l.21.28,0,0,.45.56c.24.28.46.57.69.85l.25.32a1.36,1.36,0,0,1,1.49.36c2.1,2.69,4.87,4.76,7.35,7.07s5.22,4.28,7.32,6.93a1.9,1.9,0,0,1,.41.93,41.78,41.78,0,0,1,6.89,5.15,1.59,1.59,0,0,1,1,.18,8.78,8.78,0,0,1,1,.7c5.12-6.1,10.18-12.3,15.52-18.24,8.37-9.31,17.88-17.51,26.35-26.74a173.6,173.6,0,0,0,20.13-26.7,66.08,66.08,0,0,1-25.56-25.21c-7.89-13.79-12.28-47.32-19-61.22C385.77,273.73,519.45,161,519.45,161,526.86,152.92,641.6,56.12,634,31.22Z" transform="translate(-35.9 -19.03)"/><path d="M276.07,425.52a136.35,136.35,0,0,1-39.74,55.85,128.64,128.64,0,0,1-16,11.42c-1.65,1-.14,3.59,1.51,2.59a137.38,137.38,0,0,0,48.72-50.87A140,140,0,0,0,279,426.32c.69-1.81-2.21-2.59-2.89-.8Z" transform="translate(-35.9 -19.03)"/><path d="M54.36,600.41a85.16,85.16,0,0,0,25.69-7.27,88.92,88.92,0,0,0,20.61-13.65c12.79-11.17,22.75-25.2,32.27-39.14C144.15,523.9,155,506.9,170.16,493.7c16.06-14,36.49-21.33,53.48-34a142.67,142.67,0,0,0,39.22-45q1.81-3.27,3.45-6.64c.85-1.72-1.74-3.25-2.59-1.51A141.93,141.93,0,0,1,227.32,453c-8.1,6.77-17.1,12.14-26.29,17.26s-18.31,10-26.67,16.2C158,498.64,146.24,515.34,135,532,125.49,546,116,560.25,104,572.24s-26.25,20.57-42.77,24q-3.42.72-6.89,1.15c-1.89.24-1.92,3.24,0,3Z" transform="translate(-35.9 -19.03)"/><path d="M216.54,495.18c-11.17,5.51-22.69,11.27-31.42,20.38-4.8,5-7.92,11-11.51,16.82-3.69,6-8.35,11.31-13,16.59s-9,10.77-13.28,16.4a155.94,155.94,0,0,1-13.42,16,123.69,123.69,0,0,1-30.42,22.23A157.35,157.35,0,0,1,63.55,617.9c-1.88.41-1.08,3.31.8,2.9,24.64-5.35,48.55-16,67.33-33.1a117.56,117.56,0,0,0,13.42-14.53c4.54-5.76,8.77-11.75,13.52-17.34,4.52-5.33,9.32-10.42,13.53-16s7.2-12.25,11.47-17.93c8.58-11.41,21.94-18,34.43-24.13,1.73-.85.21-3.44-1.51-2.59Z" transform="translate(-35.9 -19.03)"/><path d="M220.11,493a3.26,3.26,0,0,1-.54.51l.31-.24a6.71,6.71,0,0,1-1.35.77c-.22.11-.45.19-.67.31a2.36,2.36,0,0,0-.54.4,3.07,3.07,0,0,1-.26.25l.31-.23-.12.06.36-.15-.08,0a1.51,1.51,0,0,0-.9.69,1.59,1.59,0,0,0-.15,1.15,1.49,1.49,0,0,0,.69.9,1.72,1.72,0,0,0,1.16.15,1.66,1.66,0,0,0,.48-.19,2.12,2.12,0,0,0,.42-.32c.1-.08.18-.18.28-.27l-.31.24a3.49,3.49,0,0,1,.75-.37q.38-.17.72-.36a5.53,5.53,0,0,0,1.56-1.19,1.59,1.59,0,0,0,.44-1.07,1.5,1.5,0,0,0-1.5-1.5,1.56,1.56,0,0,0-1.06.44Z" transform="translate(-35.9 -19.03)"/><path d="M300.46,323.39c4.06-5.43,9.13-10.83,16.06-12.23,6.58-1.33,13.09,2.3,17.4,7a38.58,38.58,0,0,1,6.17,9.7,3,3,0,0,0,5.18-3c-3.39-7.22-8.57-14.15-16-17.57A23,23,0,0,0,317.17,305a24.51,24.51,0,0,0-11.7,4.67,49.32,49.32,0,0,0-10.19,10.66c-1,1.3-.21,3.35,1.07,4.11a3.09,3.09,0,0,0,4.11-1.08Z" transform="translate(-35.9 -19.03)"/><path d="M279.51,320a36.52,36.52,0,0,1-3.06-5.73,16.32,16.32,0,0,0-4.8-5.85c-4.07-3-9.79-3.69-14.7-3.41-10.21.58-20,6.13-24.54,15.5a29.49,29.49,0,0,0-2.52,15.59c.47,5.83,1.21,11.63,1.76,17.45a21.72,21.72,0,0,1-.11,7.24c-.6,2.46-2.22,4.49-3.64,6.54L217.71,382a132.64,132.64,0,0,1-11.55,14.74c-4.41,4.8-9,9.43-13.56,14.11-2.69,2.78,1.55,7,4.24,4.24,7.73-8,15.77-15.75,22.32-24.76,3.32-4.56,6.46-9.25,9.67-13.88q2.49-3.57,5-7.15a21.42,21.42,0,0,0,3.54-7c1.28-5.27.1-11-.44-16.27-.28-2.77-.58-5.53-.85-8.3a38.73,38.73,0,0,1-.16-8.54c1.13-8.69,8.12-15.42,16.44-17.54,4.49-1.14,10.22-1.38,14.47.75a9.86,9.86,0,0,1,4.48,4.82,42.36,42.36,0,0,0,4,6.94c1,1.28,3.19,1.05,4.24,0a3.08,3.08,0,0,0,0-4.24Z" transform="translate(-35.9 -19.03)"/><path d="M247.4,234.09a33.49,33.49,0,0,0,1.1,8.45c.75,3.22,1.3,6.48,2.08,9.7a161,161,0,0,0,5.6,18.09c1.06,2.91,2.18,5.8,3.3,8.68.58,1.48,1.15,3,1.73,4.43.48,1.22,1.06,2.41,2.53,2.53,2.7.22,5.51-1.73,7.48-3.34,2.54-2.08,4.78-4.55,7.12-6.85l8.78-8.69c2.76-2.73,5.76-5.35,8-8.52,1.13-1.57-1.47-3.07-2.59-1.51a59.34,59.34,0,0,1-6.69,7l-7,6.95c-2.38,2.35-4.75,4.71-7.13,7.05-1.82,1.79-3.8,3.74-6.28,4.55a6.84,6.84,0,0,1-.74.21l-.38.08c-.4,0-.38.09,0,.29a8.26,8.26,0,0,1-.65-1.6c-.55-1.41-1.1-2.81-1.64-4.21-1-2.62-2-5.25-3-7.89a166.38,166.38,0,0,1-5.17-16.33c-.87-3.41-1.47-6.87-2.24-10.3a35.43,35.43,0,0,1-1.26-8.81c0-1.93-3-1.93-3,0Z" transform="translate(-35.9 -19.03)"/><path d="M319.08,272.45c15.62-7.57,22-24.81,27.61-40,.67-1.82-2.23-2.6-2.9-.8-5.35,14.5-11.33,31-26.22,38.24-1.74.84-.22,3.43,1.51,2.59Z" transform="translate(-35.9 -19.03)"/><path d="M319.28,273c5.66,5.36,13.29,7.86,20.8,9.27,1.78.34,3.49.83,5.24.25a29.92,29.92,0,0,0,4.21-1.76,26,26,0,0,0,6.65-4.94c8-8.28,10-20.71,10.14-31.79a117.29,117.29,0,0,0-1.57-19.44c-.3-1.9-3.19-1.09-2.89.8,1.66,10.57,2.37,21.74.06,32.27a35,35,0,0,1-6,13.93,23.14,23.14,0,0,1-5.31,5.05,25.88,25.88,0,0,1-3.47,2c-.56.26-1.13.49-1.71.71l-1,.35a2.58,2.58,0,0,1-.66.19,30.58,30.58,0,0,1-5.9-1.13,56.86,56.86,0,0,1-5.9-1.7,29.34,29.34,0,0,1-10.51-6.16c-1.41-1.33-3.53.79-2.13,2.12Z" transform="translate(-35.9 -19.03)"/><path d="M311.63,276.7c3.57-2.23,7.88-4.89,12.27-3.58,2,.6,3.3,2.27,5.12,3.18a27.46,27.46,0,0,0,6.15,1.86c4.06.94,8.27,1.68,12.07,3.46a21.85,21.85,0,0,1,5.39,3.59c1.63,1.46,3.53,3.05,4.41,5.1.76,1.77,3.35.24,2.59-1.51a14,14,0,0,0-3.25-4.18A34.49,34.49,0,0,0,352,280.9a30.52,30.52,0,0,0-9.89-4.2c-3.54-.92-7.24-1.42-10.7-2.63-1.81-.64-3-2.05-4.68-3a10.52,10.52,0,0,0-5.06-1.29c-4.27-.05-8.06,2.12-11.57,4.31-1.63,1-.13,3.61,1.52,2.59Z" transform="translate(-35.9 -19.03)"/><path d="M261.48,293.38a18,18,0,0,1,2.21-5.07,16.55,16.55,0,0,1,3.53-3.46,70.31,70.31,0,0,0,8-6.55,26.46,26.46,0,0,1,4.14-3.7,35.63,35.63,0,0,0,4.52-3.31c2.9-2.71,5.18-6.14,7.65-9.25a7.72,7.72,0,0,1,4.68-3.28,19.92,19.92,0,0,1,5.92.08c1.92.22,1.9-2.78,0-3-3.58-.39-7.53-.59-10.52,1.76a26.59,26.59,0,0,0-4.16,4.81c-1.3,1.65-2.57,3.35-4,4.94-2.68,3.07-6.37,4.76-9.23,7.63-1.37,1.36-2.65,2.8-4.15,4s-2.93,2.16-4.38,3.26a21.42,21.42,0,0,0-4.38,4.23,20.7,20.7,0,0,0-2.73,6.1c-.59,1.84,2.31,2.63,2.89.79Z" transform="translate(-35.9 -19.03)"/><path d="M315,459.36c8.17-14.39,8-31.24,10.93-47.07A79.51,79.51,0,0,1,329.5,399l-2.21.89a2.67,2.67,0,0,1,1,1.49,1.57,1.57,0,0,1,0,.78,1.14,1.14,0,0,1-.18.5c0-.08-.25.07.08-.05-.13.05.38-.09.54-.07s.52.38.66.39c0,0-.06.05-.06-.17a23.38,23.38,0,0,1,.24-3.76l-2.74.36c11.68,20.08,24.67,39.72,41.66,55.76a154.94,154.94,0,0,0,15.12,12.54c1.56,1.14,3.06-1.46,1.51-2.59-18.52-13.49-33.12-31.27-45.46-50.43-3.56-5.51-6.94-11.13-10.24-16.8-.61-1-2.51-.95-2.74.36-.33,1.84-.91,4.39.06,6.15a2.12,2.12,0,0,0,3.38.53c2.37-2.24,1-5.9-1.24-7.58-.85-.63-1.9.09-2.2.9-5.68,15.13-4.92,31.6-9.13,47.07a54.38,54.38,0,0,1-5.1,12.62,1.5,1.5,0,0,0,2.59,1.51Z" transform="translate(-35.9 -19.03)"/><path d="M258.26,284.24l.29-.39-.24.31a13.46,13.46,0,0,1,2.39-2.38l-.31.23c.27-.2.54-.4.82-.59a1.5,1.5,0,0,0-1.51-2.59,16.25,16.25,0,0,0-2.2,1.75,15.55,15.55,0,0,0-1.83,2.14,1.56,1.56,0,0,0-.15,1.16,1.54,1.54,0,0,0,.69.89,1.52,1.52,0,0,0,1.16.16l.36-.16a1.5,1.5,0,0,0,.53-.53Z" transform="translate(-35.9 -19.03)"/><path d="M254.67,292.74c.37-1.25.75-2.51,1.19-3.74.11-.29.22-.59.34-.88s.13-.34.2-.5l.06-.14c.27-.62.57-1.23.9-1.82a1.5,1.5,0,0,0-2.59-1.51,37.88,37.88,0,0,0-3,7.79,1.5,1.5,0,1,0,2.89.8Z" transform="translate(-35.9 -19.03)"/><path d="M54.07,601.25C58.41,607,65.13,610.67,69,616.82a1.52,1.52,0,0,0,2.74-.36q1.91-9.48,4.15-18.88l-2.51.66q6,5.24,12.21,10.24a123.46,123.46,0,0,0,12.47,9.1,1.52,1.52,0,0,0,2.26-1.3c0-5.46-2.52-10.53-2-16,.24-2.7.87-5.37,1-8.09a44.36,44.36,0,0,0-.89-8.67c-.33-1.9-3.22-1.1-2.9.79a38.38,38.38,0,0,1,.77,8.34c-.15,2.72-.79,5.38-1,8.1-.38,5.34,2.09,10.27,2.07,15.56l2.26-1.3c-8.65-5.32-16.45-12.2-24.07-18.86a1.52,1.52,0,0,0-2.51.66q-2.24,9.4-4.16,18.88l2.75-.36c-3.92-6.2-10.59-9.77-14.94-15.57-1.15-1.52-3.75,0-2.59,1.52Z" transform="translate(-35.9 -19.03)"/><path d="M96.84,583a204.71,204.71,0,0,0,22,21.63,1.52,1.52,0,0,0,2.56-1.06,124.22,124.22,0,0,0-2.78-44.26c-.47-1.87-3.36-1.07-2.89.8a121.82,121.82,0,0,1,2.67,43.46l2.56-1.06a204.71,204.71,0,0,1-22-21.63c-1.27-1.46-3.39.67-2.12,2.12Z" transform="translate(-35.9 -19.03)"/><path d="M117.32,561.62Q128,573.19,139,584.36a1.5,1.5,0,0,0,2.12-2.12q-11.06-11.18-21.71-22.74c-1.32-1.42-3.43.7-2.13,2.12Z" transform="translate(-35.9 -19.03)"/><path d="M141.48,583.69a33.11,33.11,0,0,0,.66-11.94c-.26-2-.68-3.91-1-5.87a48,48,0,0,1-.36-6c-.2-8.39-1.51-16.77-2.45-25.09-.21-1.9-3.22-1.92-3,0,.92,8.17,2.2,16.4,2.44,24.63.06,1.91,0,3.81.27,5.71s.6,3.76.91,5.64a30.68,30.68,0,0,1-.39,12.11c-.44,1.88,2.45,2.68,2.89.8Z" transform="translate(-35.9 -19.03)"/><path d="M135.59,535.15a258.11,258.11,0,0,1,19.3,25.59c1.06,1.6,3.66.1,2.59-1.52A264.56,264.56,0,0,0,137.71,533c-1.25-1.46-3.37.67-2.12,2.12Z" transform="translate(-35.9 -19.03)"/><path d="M157.69,559.71a23.82,23.82,0,0,1,.34-6.47,33.21,33.21,0,0,0-.16-6.76c-.42-4.56.08-9.06-.07-13.62-.14-4.4-1.09-8.72-1.27-13.12a29.08,29.08,0,0,1,.49-6.52,21.71,21.71,0,0,0,.54-6.27c-.2-1.9-3.2-1.92-3,0a24.06,24.06,0,0,1-.63,6.6,29.71,29.71,0,0,0-.38,6.66c.23,4.39,1.18,8.72,1.27,13.12.09,4.57-.35,9.07.1,13.65a30.81,30.81,0,0,1,.05,6.72,24.28,24.28,0,0,0-.18,6.81c.31,1.9,3.2,1.09,2.9-.8Z" transform="translate(-35.9 -19.03)"/><path d="M154.63,508q11,11.13,21.21,23.07a1.52,1.52,0,0,0,2.51-.66c1.16-3.29.77-6.73.52-10.13-.26-3.58-.06-7.15-.09-10.73a55.3,55.3,0,0,0-1.34-10.58,23.23,23.23,0,0,1,0-10.49,1.5,1.5,0,0,0-2.89-.8,24.91,24.91,0,0,0-.29,10.28c.55,3.59,1.45,7,1.54,10.63s-.17,7.2,0,10.8c.2,3.42.82,6.9-.35,10.22l2.5-.66q-10.16-11.94-21.2-23.07a1.5,1.5,0,0,0-2.13,2.12Z" transform="translate(-35.9 -19.03)"/><path d="M175.79,489.78a267.33,267.33,0,0,0,27.34,21.85c1.59,1.11,3.09-1.49,1.52-2.59a260.61,260.61,0,0,1-26.74-21.38c-1.42-1.3-3.55.81-2.12,2.12Z" transform="translate(-35.9 -19.03)"/><path d="M205.38,510c-.56-3.16.09-6.33.73-9.42a62.89,62.89,0,0,0,1.34-9.66c.31-6.59-.37-13.22-.8-19.79-.12-1.92-3.12-1.94-3,0,.44,6.73,1.15,13.53.77,20.28-.36,6.47-3.08,12.87-1.94,19.39.34,1.89,3.23,1.09,2.9-.8Z" transform="translate(-35.9 -19.03)"/><path d="M204.62,472.57Q214,482.85,224,492.49a1.5,1.5,0,0,0,2.5-.66c.69-2.75.39-5.62,1.15-8.35.4-1.4.93-2.76,1.22-4.19a25.72,25.72,0,0,0,.46-4.37,174.51,174.51,0,0,0-.48-18.58c-.15-1.91-3.15-1.93-3,0,.45,6,.64,12.07.49,18.11a22.71,22.71,0,0,1-.41,4.27c-.29,1.35-.8,2.64-1.17,4-.76,2.73-.47,5.6-1.15,8.34l2.51-.66q-10-9.63-19.4-19.92c-1.3-1.43-3.42.69-2.12,2.12Z" transform="translate(-35.9 -19.03)"/><path d="M226.16,457.27l5,4.37a45.56,45.56,0,0,1,4.54,4.24c1.31,1.51,2.37,3.23,3.63,4.78,1.38,1.71,2.93,3.27,4.47,4.83,1.35,1.38,3.47-.74,2.12-2.12-1.5-1.52-3-3-4.36-4.7s-2.39-3.36-3.74-4.91a45.17,45.17,0,0,0-4.4-4.13l-5.15-4.49c-1.45-1.26-3.58.85-2.12,2.13Z" transform="translate(-35.9 -19.03)"/><path d="M244.58,439.11c-.08,5.4.74,10.74,1.33,16.09.3,2.7.53,5.4.76,8.11s.54,5.18-.16,7.7a1.5,1.5,0,0,0,2.89.8,21.12,21.12,0,0,0,.36-7.52c-.24-2.87-.49-5.74-.8-8.6-.59-5.52-1.47-11-1.38-16.58,0-1.93-3-1.93-3,0Z" transform="translate(-35.9 -19.03)"/><path d="M247.81,438.54l0-1.14a1.15,1.15,0,0,0-.13-.58,1.36,1.36,0,0,0-.79-.79,1.15,1.15,0,0,0-.58-.13l-.4.05a1.59,1.59,0,0,0-.66.39l-.24.3a1.57,1.57,0,0,0-.2.76l0,1.14a1.06,1.06,0,0,0,.13.58,1,1,0,0,0,.31.48,1.08,1.08,0,0,0,.48.31,1.06,1.06,0,0,0,.58.13l.4-.05a1.49,1.49,0,0,0,.66-.39l.23-.3a1.45,1.45,0,0,0,.21-.76Z" transform="translate(-35.9 -19.03)"/><path d="M245.49,439.6c1.06,1.35,2.4,2.42,3.58,3.66a38.81,38.81,0,0,1,3.28,4.36c2.18,3,4.51,6,7,8.76,1.28,1.46,3.39-.67,2.12-2.12a106.12,106.12,0,0,1-6.86-8.67,39.9,39.9,0,0,0-3.29-4.34c-1.2-1.29-2.59-2.38-3.68-3.77a1.5,1.5,0,0,0-2.12,0,1.54,1.54,0,0,0,0,2.12Z" transform="translate(-35.9 -19.03)"/><path d="M258.58,419.53c1.06,5.69.5,11.58,1,17.33s1.52,11.68,1.47,17.57a1.5,1.5,0,0,0,3,0c.05-6.06-1-12-1.51-18.05s0-11.83-1.09-17.65c-.35-1.9-3.24-1.09-2.89.8Z" transform="translate(-35.9 -19.03)"/><path d="M259.42,418.86a55,55,0,0,0,15.87,9.67c1.07.42,2.17-.83,1.85-1.85l-2-6.41c-.58-1.84-3.48-1-2.9.79l2,6.42,1.85-1.84a50.52,50.52,0,0,1-14.55-8.91c-1.45-1.26-3.58.85-2.12,2.13Z" transform="translate(-35.9 -19.03)"/><path class="cls-3" d="M279.17,179.32" transform="translate(-35.9 -19.03)"/><path class="cls-4" d="M316.89,270.88s18.89-9.53,27.38-40.83,10.67-27.58,11.22-33,18.69,56.36-3.26,84.31c0,0-17.78-1.78-19.43-3.37,0,0-12.88-5-13.88-6Z" transform="translate(-35.9 -19.03)"/><path class="cls-4" d="M264,284.92s27.42-25,27.47-27.06c0,0-13.84-.58-23.82-22.86s-12.63-38.82-12.63-38.82S237.7,229.68,264,284.92Z" transform="translate(-35.9 -19.03)"/><polygon class="cls-5" points="21.17 581.53 36.7 577.82 34.13 597.31 21.17 581.53"/><path class="cls-5" d="M74.69,595.88l22.38,17.53s-2.92-13.93-1.89-13.9,1.4-14.37.38-14.4S74.69,595.88,74.69,595.88Z" transform="translate(-35.9 -19.03)"/><path class="cls-5" d="M99.74,581.72l19,18.89s1.83-28.22-2.06-36.55Z" transform="translate(-35.9 -19.03)"/><polygon class="cls-5" points="83.82 540.7 103.99 563.13 100.04 517.74 83.82 540.7"/><path class="cls-5" d="M155.26,556.84l-17.39-23.79,16.26-22.55s-.37,16.8.56,19.22S155.26,556.84,155.26,556.84Z" transform="translate(-35.9 -19.03)"/><path class="cls-5" d="M175.85,526.79,157.6,506.53s15.61-17.14,16.61-16.09S175.85,526.79,175.85,526.79Z" transform="translate(-35.9 -19.03)"/><path class="cls-5" d="M178.41,487.47l24.17,20.19s1.08-14.21,1.84-17.36-.92-17.61-.92-17.61Z" transform="translate(-35.9 -19.03)"/><path class="cls-5" d="M228.64,455.86l17.82,18.56s.53-11.9,0-13.33-2-20.25-2-20.25Z" transform="translate(-35.9 -19.03)"/><polygon class="cls-4" points="222.99 402.12 211.24 418.27 225.2 435.11 222.99 402.12"/><path class="cls-4" d="M222.65,491.2,207,475.36s-.66,24.91-1.18,25.3S223.22,492.24,222.65,491.2Z" transform="translate(-35.9 -19.03)"/><path class="cls-6" d="M176.8,490,198,506.47S179.4,520.84,179.31,524,176.8,490,176.8,490Z" transform="translate(-35.9 -19.03)"/><path class="cls-4" d="M176.77,490.91" transform="translate(-35.9 -19.03)"/><polygon class="cls-6" points="102.57 519.35 117.48 539.3 105.79 553.4 102.57 519.35"/><path class="cls-6" d="M135.3,580.5l-15.45-16.36s3.81,28.4,1.76,28.35Z" transform="translate(-35.9 -19.03)"/><path class="cls-6" d="M98.6,585.19l13.59,13.22L98.6,606.29s-.9-8.17-.36-7.69S98.6,585.19,98.6,585.19Z" transform="translate(-35.9 -19.03)"/><polygon class="cls-6" points="39.24 580.72 53.3 592.15 36.11 597.07 39.24 580.72"/><path d="M52.55,598.05c-.21.12-.42.22-.64.32l.36-.15a6.11,6.11,0,0,1-1.56.42l.4,0-.32,0a1.17,1.17,0,0,0-.58.13,1.14,1.14,0,0,0-.48.31,1.56,1.56,0,0,0-.44,1.06,1.54,1.54,0,0,0,.44,1.06,1.47,1.47,0,0,0,1.06.44,7.45,7.45,0,0,0,3.28-1,1.49,1.49,0,0,0,.53-2,1.5,1.5,0,0,0-.89-.69,1.61,1.61,0,0,0-1.16.15Z" transform="translate(-35.9 -19.03)"/><path d="M52.43,597.83l-2.67,1a1.5,1.5,0,0,0,.79,2.89,13.82,13.82,0,0,0,3.77-1.5c1.71-1,.21-3.35-1.52-2.59-1.29.56-2.59,1.1-3.9,1.6-1.06.41-1.67,2.17-.36,2.75a18,18,0,0,0,3,.89,4.05,4.05,0,0,1,2.29,1.5c1.4,1.68,2.63,3.49,4,5.2s2.79,3.41,4.29,5,2.95,3.7,5.16,3.78a1.53,1.53,0,0,0,1.5-1.5,4.11,4.11,0,0,0-1.13-2.74c-.68-.86-1.37-1.72-2.08-2.55a25.24,25.24,0,0,0-4.73-4.39c-1.59-1.11-3.09,1.49-1.51,2.59A21.22,21.22,0,0,1,63,613.28c.55.63,1.08,1.28,1.61,1.93.34.43,1.16,1.15,1.13,1.72l1.5-1.5c-.29,0-.55-.35-.74-.53-.4-.38-.78-.78-1.17-1.17q-1.08-1.14-2.13-2.31c-1.43-1.6-2.79-3.26-4.11-5a51.72,51.72,0,0,0-3.63-4.68,6.54,6.54,0,0,0-2.57-1.59c-.92-.31-1.94-.36-2.83-.75l-.36,2.74q2.34-.9,4.63-1.91l-1.52-2.59a11.08,11.08,0,0,1-3,1.2l.79,2.89,2.68-1a1.55,1.55,0,0,0,1-1.85,1.51,1.51,0,0,0-1.84-1Z" transform="translate(-35.9 -19.03)"/><path d="M48.5,602.17c2.13,1.81,4.23,3.67,6.28,5.57a1.5,1.5,0,1,0,2.12-2.12c-2-1.9-4.15-3.76-6.28-5.57a1.5,1.5,0,1,0-2.12,2.12Z" transform="translate(-35.9 -19.03)"/><path d="M53.51,606.55a89.43,89.43,0,0,1,8.7,11.52l1.3-2.26c.37,0,.12,0-.08-.14a3.81,3.81,0,0,1-.36-.33,8.66,8.66,0,0,1-.81-.9c-.53-.7-1-1.46-1.43-2.2a25.86,25.86,0,0,0-3.3-4.14c-2.4-2.47-5.17-4.65-7-7.65A1.5,1.5,0,0,0,48,602c2,3.39,5.1,5.81,7.77,8.63A30.29,30.29,0,0,1,59,615c.93,1.44,2.51,3.82,4.47,3.78a1.51,1.51,0,0,0,1.29-2.26,95.37,95.37,0,0,0-9.16-12.12c-1.29-1.45-3.41.68-2.13,2.12Z" transform="translate(-35.9 -19.03)"/><path d="M63.06,617.92c-.3.28-.6.16,0,.28l.66.38c.17.15.06.09-.05-.08s-.17-.28-.26-.42c-.19-.32-.39-.64-.6-1-.38-.59-.78-1.18-1.19-1.75Q60.35,613.6,59,611.9a10.64,10.64,0,0,1-1.13-1.47c-.34-.6-.58-1.24-.92-1.83a12.07,12.07,0,0,0-1.22-1.71,4.86,4.86,0,0,1-1-1.26,1.56,1.56,0,0,0-1.85-1,1.52,1.52,0,0,0-1.05,1.85c.6,1.6,2,2.67,2.75,4.18A13.2,13.2,0,0,0,56,613c.57.72,1.18,1.4,1.74,2.12a48.4,48.4,0,0,1,3,4.29c.52.82,1,1.77,2.08,1.78A3.77,3.77,0,0,0,65.19,620c1.43-1.3-.7-3.42-2.13-2.12Z" transform="translate(-35.9 -19.03)"/><path d="M51.62,606.12a7.32,7.32,0,0,0,1.73,3.71c.81,1,1.44,2.1,2.27,3.08,1.52,1.8,3.3,3.37,4.39,5.49l2.59-1.52A23.15,23.15,0,0,0,60.51,614a1.51,1.51,0,0,0-2.12,0,1.54,1.54,0,0,0,0,2.12,16.17,16.17,0,0,1,1.81,2.63l2.59-1.51a12.27,12.27,0,0,0-1.38-1.92l-2.12,2.13c.42.47.83.95,1.2,1.45a1.56,1.56,0,0,0,2.06.54,1.51,1.51,0,0,0,.53-2.05c-.53-.71-1.08-1.4-1.67-2.07a1.5,1.5,0,1,0-2.12,2.13,8.42,8.42,0,0,1,.91,1.3c1,1.69,3.48.2,2.59-1.51A19.7,19.7,0,0,0,60.51,614l-2.12,2.12A17.8,17.8,0,0,1,60,618.4a1.5,1.5,0,0,0,2.59-1.52,29.2,29.2,0,0,0-4.47-5.64c-.75-.86-1.32-1.79-2-2.71a15.62,15.62,0,0,1-1.1-1.47,5,5,0,0,1-.52-1.74,1.51,1.51,0,0,0-1.84-1.05,1.54,1.54,0,0,0-1.05,1.85Z" transform="translate(-35.9 -19.03)"/><polygon class="cls-4" points="32.55 598.81 25.82 600.18 16.52 581.92 32.55 598.81"/><path class="cls-2" d="M223.72,419.1q3.39-4.46,7.09-8.67c1.15-1.31,2.29-2.65,3.54-3.86a7.19,7.19,0,0,1,3.81-2.17,1.51,1.51,0,0,0,1.05-1.84,1.54,1.54,0,0,0-1.85-1.05c-3.65.61-6.18,4-8.48,6.58q-4,4.61-7.75,9.5a1.51,1.51,0,0,0,.54,2.05,1.53,1.53,0,0,0,2.05-.54Z" transform="translate(-35.9 -19.03)"/><path d="M211.49,428.79A53.49,53.49,0,0,1,217.25,418a20.41,20.41,0,0,1,3.62-3.75,15.81,15.81,0,0,1,2.22-1.47c.37-.2.74-.38,1.12-.55l.54-.22.26-.09q.41-.12.06,0l-.66-.38c-.11-.1-.06-.3-.18-.27a4.71,4.71,0,0,0-.2.73c-.12.39-.24.78-.37,1.16-.29.84-.61,1.66-1,2.47a29.22,29.22,0,0,1-2.69,4.58,1.51,1.51,0,0,0,.54,2.05,1.53,1.53,0,0,0,2.05-.54,29.9,29.9,0,0,0,3.77-7.19,8.91,8.91,0,0,0,.88-3.73,2.19,2.19,0,0,0-2.91-1.78c-4.84,1.35-8.68,5.66-11.21,9.79a69.94,69.94,0,0,0-4.21,8.5,1.54,1.54,0,0,0,.54,2.05,1.51,1.51,0,0,0,2.05-.54Z" transform="translate(-35.9 -19.03)"/><polygon class="cls-5" points="211.84 422.98 223.59 437.64 214.01 449.74 211.84 422.98"/><path class="cls-5" d="M229.56,460l14,14.78-16.4,13.71s-.32-4.2.75-5.55,1.57-8.66,1.57-8.66l.06-14.28" transform="translate(-35.9 -19.03)"/><path d="M312.24,327.26c4.65,5.32,9.84,11.26,10.64,18.58a1.54,1.54,0,0,0,1.5,1.5,1.51,1.51,0,0,0,1.5-1.5c-.9-8.23-6.27-14.69-11.52-20.7-1.28-1.45-3.39.67-2.12,2.12Z" transform="translate(-35.9 -19.03)"/><path d="M326.75,328c-7.45.65-13.13,5.92-17.8,11.33-1.26,1.45.86,3.58,2.12,2.12,4.06-4.7,9.12-9.88,15.68-10.45a1.54,1.54,0,0,0,1.5-1.5,1.52,1.52,0,0,0-1.5-1.5Z" transform="translate(-35.9 -19.03)"/><path d="M260.3,324.25a19.27,19.27,0,0,0-13.14,10.08,1.54,1.54,0,0,0,.54,2.05,1.52,1.52,0,0,0,2.05-.53,16.37,16.37,0,0,1,11.35-8.71,1.5,1.5,0,1,0-.8-2.89Z" transform="translate(-35.9 -19.03)"/><path d="M247.63,324.76a24.56,24.56,0,0,1,11.5,13.89c.58,1.83,3.48,1.05,2.89-.8a27.61,27.61,0,0,0-12.88-15.68c-1.69-.93-3.21,1.66-1.51,2.59Z" transform="translate(-35.9 -19.03)"/><path class="cls-4" d="M265.24,431c.12.62.23,1.25.32,1.88,0-.3,0,.16,0,.18s0,.29,0,.44c0,.31.06.63.09.94a31,31,0,0,1,0,3.73,1.5,1.5,0,0,0,1.5,1.5,1.52,1.52,0,0,0,1.5-1.5,32.84,32.84,0,0,0-.62-8,1.5,1.5,0,0,0-1.84-1,1.53,1.53,0,0,0-1.05,1.84Z" transform="translate(-35.9 -19.03)"/><path d="M264.79,430.44a16.59,16.59,0,0,0,1.36,3.42,1.51,1.51,0,0,0,2.05.54,1.53,1.53,0,0,0,.54-2c.13.28-.14-.25,0,0v-.15q0,.19,0,0s.1-.35,0-.12l.07-.13c-.08.11-.07.1.05,0l-1.81.24c-.17-.1-.19-.29-.29-.42s.07.08,0,.05,0,.26,0,.07-.08.28-.1.34-.15.39-.22.59c-.3.77-.62,1.55-1,2.31s-.74,1.64-1.13,2.44a3.87,3.87,0,0,0-.51,2.9,2.32,2.32,0,0,0,2.48,1.64,4.1,4.1,0,0,0,2.32-1.56c1.17-1.31,2.22-3.06,1.66-4.88s-2.43-2.68-4.18-3.16a1.5,1.5,0,0,0-.8,2.89c.34.09.67.19,1,.31l.28.11c-.13-.06-.11-.05.05,0l.38.21c.14.1.16.11,0,0l.2.19c.21.19,0-.09.11.15,0,0,.09.25.07.12,0,0,0,.47,0,.22a3.36,3.36,0,0,1-1,1.67c-.19.21-.6.57-.69.72-.31.16-.18.17.4,0a.68.68,0,0,1,.42.27c.09.16,0,.31.08.17s.12-.31.18-.43.2-.42.3-.63c.2-.42.4-.84.59-1.27.4-.9.79-1.82,1.17-2.74.64-1.59,1.52-3.82-.39-4.94a1.53,1.53,0,0,0-1.82.23,3.43,3.43,0,0,0-.64,4l2.59-1.51a13.28,13.28,0,0,1-1.06-2.7,1.5,1.5,0,0,0-2.89.79Z" transform="translate(-35.9 -19.03)"/><path d="M217.72,469.82a4.31,4.31,0,0,0-.08,3.94,1.5,1.5,0,0,0,2.59,0c1.08-2.26,2.07-4.57,3-6.9l-2.89-.8a70.14,70.14,0,0,0-.94,12.7l2.79-.75a52.51,52.51,0,0,0-5.87-7.41c-1.33-1.41-3.45.72-2.12,2.12a47.85,47.85,0,0,1,5.4,6.8,1.52,1.52,0,0,0,2.8-.76,65,65,0,0,1,.83-11.9,1.5,1.5,0,0,0-2.89-.8q-1.23,3.13-2.69,6.19h2.59a1.08,1.08,0,0,1,.08-.91,1.5,1.5,0,0,0-2.59-1.52Z" transform="translate(-35.9 -19.03)"/><path d="M164.48,542.72a4.37,4.37,0,0,1,.38-2.64A6.13,6.13,0,0,1,167,538c1.75-1.25,3.29-3.3,3.08-5.55a4.81,4.81,0,0,0-1.44-2.78,19.76,19.76,0,0,1-2-2.83q-2.1-3.43-4.22-6.85c-.85-1.38-3.42-.47-2.74,1.16a31,31,0,0,1,1.67,6.37c.2,1,.4,2,.66,3.05s.62,2-.05,3c-1.07,1.61,1.53,3.12,2.59,1.51,1.53-2.33.42-4.73-.08-7.2a39.65,39.65,0,0,0-1.9-7.52l-2.74,1.15,3.89,6.31c.59,1,1.16,1.93,1.84,2.83.52.7,1.64,1.48,1.52,2.45-.27,2-2.7,2.76-3.9,4.1a7,7,0,0,0-1.75,5.5,1.56,1.56,0,0,0,1.5,1.5,1.5,1.5,0,0,0,1.5-1.5Z" transform="translate(-35.9 -19.03)"/><path class="cls-7" d="M262.93,405.33S310,378.1,309.85,395c0,0-35.36,36.24-31.4,35.25" transform="translate(-35.9 -19.03)"/><path class="cls-4" d="M266.28,408.22c-.11-.15-.2-.3-.3-.45l-5,9.82,12.8,8.83C274.71,425.52,267.68,411.09,266.28,408.22Z" transform="translate(-35.9 -19.03)"/><path class="cls-5" d="M270.36,405.33s10.92-.74,13.24-2.74l-5.5,21.47Z" transform="translate(-35.9 -19.03)"/><path class="cls-5" d="M286.23,416.52s10.06-8.59,10.14-7.79-6.82-10.12-6.82-10.12S285,413.9,286.23,416.52Z" transform="translate(-35.9 -19.03)"/><path class="cls-5" d="M299.39,403.46s3.94-4.76,3.14-5.42l2.35-6.06-11.59,1.1Z" transform="translate(-35.9 -19.03)"/><path d="M251.54,294.06l-2,5.13a1.52,1.52,0,0,0,1,1.84,1.54,1.54,0,0,0,1.85-1l2-5.12a1.5,1.5,0,0,0-1-1.85,1.55,1.55,0,0,0-1.85,1.05Z" transform="translate(-35.9 -19.03)"/><path d="M249.56,298.75c-.49,1.95-1.65,3.7-1.49,5.79a1.5,1.5,0,0,0,3,0,4.8,4.8,0,0,1,0-1l-.06.4c.23-1.54,1-2.9,1.42-4.39a1.5,1.5,0,0,0-2.9-.8Z" transform="translate(-35.9 -19.03)"/><path d="M249.85,304.27s.13-.31,0-.06,0,0,0-.06.13-.26.2-.38a6,6,0,0,1,.48-.75l.12-.17c.16-.21-.17.21,0,.07l.27-.33.57-.67c.44-.51.87-1,1.25-1.56a8.38,8.38,0,0,0,1-1.87,1.52,1.52,0,0,0-1-1.85,1.56,1.56,0,0,0-1.85,1.05c-.11.29.12-.23,0-.07s-.06.13-.1.2-.13.25-.2.38-.32.5-.49.75l-.13.17c.06-.1.2-.26.05-.07l-.27.32c-.19.23-.38.46-.58.68a11.22,11.22,0,0,0-2.19,3.42,1.51,1.51,0,0,0,1,1.85,1.54,1.54,0,0,0,1.84-1.05Z" transform="translate(-35.9 -19.03)"/><path d="M249.62,305.26a9.8,9.8,0,0,0,1.43-1.65,8.88,8.88,0,0,0,1-1.93,1.5,1.5,0,0,0-2.74-1.16c-.69,1.07-1.42,2.12-2.19,3.13a1.51,1.51,0,0,0,.54,2.06,1.54,1.54,0,0,0,1.15.15l.36-.15a1.64,1.64,0,0,0,.54-.54c.77-1,1.5-2.06,2.19-3.13l-2.74-1.16-.06.14.15-.35a7.45,7.45,0,0,1-1,1.7l.24-.3a8.36,8.36,0,0,1-1,1.06,1.52,1.52,0,0,0-.44,1.06,1.54,1.54,0,0,0,.44,1.07,1.49,1.49,0,0,0,1.06.43,1.62,1.62,0,0,0,1.06-.43Z" transform="translate(-35.9 -19.03)"/><path d="M251.49,292.2c-2.15,4.89-4,9.88-4.45,15.25-.15,1.66,2.72,2.07,3,.4a11.48,11.48,0,0,1,1.52-4.4,1.51,1.51,0,0,0-.54-2.05,1.53,1.53,0,0,0-2.05.54,16.17,16.17,0,0,0-1.3,2.09l2.74,1.16A15.33,15.33,0,0,1,252,302a1.5,1.5,0,1,0-2.59-1.52,26.83,26.83,0,0,1-1.92,2.57,1.53,1.53,0,0,0,0,2.12,1.51,1.51,0,0,0,2.12,0A33.28,33.28,0,0,0,252,302l-2.59-1.52a18.11,18.11,0,0,0-2,3.94c-.58,1.6,2,2.66,2.74,1.16a15.62,15.62,0,0,1,1.3-2.1l-2.59-1.51a13.56,13.56,0,0,0-1.82,5.11l2.94.4a44.46,44.46,0,0,1,4-13.74,1.56,1.56,0,0,0-.54-2,1.5,1.5,0,0,0-2,.54Z" transform="translate(-35.9 -19.03)"/><path d="M255.55,283l0,.07.16-.36c-.33.74-.87,1.36-1.25,2.07s-.76,1.63-1.12,2.45a1.65,1.65,0,0,0-.16,1.15,1.5,1.5,0,0,0,1.85,1.05,1.46,1.46,0,0,0,.9-.69c.37-.84.71-1.72,1.16-2.52.21-.37.45-.71.68-1.05a7.82,7.82,0,0,0,.71-1.38,1.5,1.5,0,0,0-2.21-1.69,1.77,1.77,0,0,0-.69.9Z" transform="translate(-35.9 -19.03)"/><path d="M252.14,290.72a5.6,5.6,0,0,0-1.48,2.77,1.51,1.51,0,0,0,.87,1.76,1.48,1.48,0,0,0,1.87-.61,31.21,31.21,0,0,0,1.72-4,1.49,1.49,0,0,0-.69-1.69,1.51,1.51,0,0,0-1.81.23,7.79,7.79,0,0,0-1.56,2.7A1.5,1.5,0,0,0,253.8,293l1.73-3.24a1.5,1.5,0,1,0-2.59-1.51l-1.73,3.24,2.74,1.15c.05-.15.11-.31.17-.46l-.15.36a6.61,6.61,0,0,1,.74-1.26l-.23.3c.08-.11.17-.21.26-.32l-2.51-1.45c-.21.6-.44,1.19-.68,1.78l.15-.36c-.28.64-.57,1.27-.89,1.9l2.75,1.15a3.53,3.53,0,0,1,.25-.84l-.15.36a4.48,4.48,0,0,1,.52-.9l-.23.31a3.57,3.57,0,0,1,.31-.37,1.5,1.5,0,1,0-2.12-2.12Z" transform="translate(-35.9 -19.03)"/><path d="M251.16,291.68c-.16.67-.35,1.31-.57,2l2.89.79.37-1.14a1.49,1.49,0,0,0-.86-1.77,1.54,1.54,0,0,0-1.88.62,11.74,11.74,0,0,0-1.27,3.74,1.51,1.51,0,0,0,.87,1.77,1.49,1.49,0,0,0,1.87-.62l.19-.43a1.54,1.54,0,0,0-.53-2.05,1.52,1.52,0,0,0-2.06.54,22.14,22.14,0,0,0-.83,2.74c-.33.8-.89,1.5-1.29,2.25a20.1,20.1,0,0,0-1.7,6.29,1.57,1.57,0,0,0,1,1.85,1.53,1.53,0,0,0,1.85-1.05,17.57,17.57,0,0,1,1.5-5.77c.41-.74.9-1.43,1.25-2.2a6.77,6.77,0,0,0,.48-1.44,3.72,3.72,0,0,1,.28-1.16l-2.59-1.51-.19.43,2.74,1.15a10,10,0,0,1,1-3L251,292.49l-.37,1.15a1.5,1.5,0,1,0,2.89.79,16.71,16.71,0,0,0,.57-1.95c.44-1.88-2.45-2.68-2.89-.8Z" transform="translate(-35.9 -19.03)"/><path d="M246.55,305.33v.06l.06-.4a9.85,9.85,0,0,1-.47,1.69,9.05,9.05,0,0,0-.45,2.05,1.47,1.47,0,0,0,.44,1.06,1.5,1.5,0,0,0,1.06.44,1.56,1.56,0,0,0,1.06-.44,1.71,1.71,0,0,0,.44-1.06c0-.06,0-.12,0-.18l-.05.4a9.46,9.46,0,0,1,.44-1.64c.09-.26.18-.53.25-.8a7.91,7.91,0,0,0,.22-1.18,1.47,1.47,0,0,0-.44-1.06,1.5,1.5,0,0,0-2.12,0l-.23.3a1.48,1.48,0,0,0-.21.76Z" transform="translate(-35.9 -19.03)"/><path d="M250.57,306.17a58.64,58.64,0,0,1,2.08-5.5,20.46,20.46,0,0,0,2-4.71c.36-1.76.29-3.49.91-5.2s1.41-3.56,2.22-5.29-1.78-3.26-2.59-1.51-1.58,3.53-2.28,5.34a14.87,14.87,0,0,0-.82,2.71c-.16.91-.14,1.85-.27,2.76-.25,1.85-1.32,3.4-2.05,5.07s-1.41,3.68-2.07,5.53,2.25,2.61,2.89.8Z" transform="translate(-35.9 -19.03)"/><path d="M160.12,551.46c1.62-2.42,3.58-4.55,5.41-6.82a75.85,75.85,0,0,0,5.3-7.08,1.5,1.5,0,0,0-2.35-1.82l-3.56,3.89,2.35,1.82c1.49-2.3,3.06-4.56,4.7-6.76l-2.75-.36a2.47,2.47,0,0,1-.13,1.47c-.52,1.89,2.26,2.6,2.89.8s1.11-3.72,2.38-5.13-.82-3.57-2.12-2.12c-1.65,1.83-2.35,4.17-3.15,6.45l2.89.8a5.5,5.5,0,0,0,.14-3.06,1.52,1.52,0,0,0-2.74-.36q-2.46,3.3-4.7,6.75a1.51,1.51,0,0,0,2.36,1.82l3.56-3.89L168.24,536c-3.13,5-7.46,9-10.71,13.9-1.08,1.61,1.52,3.12,2.59,1.52Z" transform="translate(-35.9 -19.03)"/><path d="M158.37,535.92l.08.16-.6-1.43a2,2,0,0,1,.13.53l-.21-1.6a1.51,1.51,0,0,1,0,.37l.22-1.6a2.11,2.11,0,0,1-.09.36l.61-1.43-.08.16h10.37c-.1-.2-.2-.4-.29-.61l.61,1.44a8.92,8.92,0,0,1-.52-1.95l.22,1.59,0-.21-.21,1.6,0-.2-.61,1.43.08-.1L166,536.58l.1-.07-1.44.61.13,0-1.6.21h.13l-1.59-.22a.92.92,0,0,1,.27.08l-1.43-.61.12.07-1.21-.94c.27.22.47.52.74.75a7.21,7.21,0,0,0,4.71,1.91c1.75,0,3.06-.81,4.54-1.55l-1.44.6a3,3,0,0,1,.57-.14l-1.59.21a7.27,7.27,0,0,1,1,.07l-1.6-.21a5.17,5.17,0,0,1,1.29.31l-1.43-.61a3.24,3.24,0,0,1,.47.28l-1.22-.94a1.6,1.6,0,0,1,.27.25l8.48-8.48a52.3,52.3,0,0,0-9.35-7.69,5.8,5.8,0,0,0-5.34-.3,6,6,0,0,0-3.48,3.89,7.45,7.45,0,0,0,0,4.36,6.12,6.12,0,0,0,7.38,4.19,7.05,7.05,0,0,0,4-3c.2-.29.35-.6.56-.88l-.94,1.21a1.94,1.94,0,0,1,.2-.21l-1.22.94.16-.1-1.43.61a1,1,0,0,1,.34-.11l-1.6.22a1.61,1.61,0,0,1,.38,0l-1.6-.21a4.82,4.82,0,0,1,.75.18,6,6,0,0,0,6.78-8.81,6.73,6.73,0,0,0-3.59-2.76l-.35-.13,1.43.6a6.3,6.3,0,0,1-1.46-.86l1.21.94a7.66,7.66,0,0,1-1.06-1.07l.94,1.21a6.55,6.55,0,0,1-.77-1.3l.6,1.44-.07-.18A6.61,6.61,0,0,0,164,516.7a6,6,0,0,0-8.21,2.15,5.78,5.78,0,0,0-.6,4.62,12.11,12.11,0,0,0,7.91,7.73l3.19-11.57a7.2,7.2,0,0,0-8.68,3.12c-.16.25-.29.52-.47.75l.93-1.21-.09.1,1.21-.94a.61.61,0,0,1-.22.13l1.44-.6-.14,0,7.38,4.19a1.24,1.24,0,0,1-.09-.39l.21,1.6a1.79,1.79,0,0,1,0-.4l-.22,1.6a1.59,1.59,0,0,1,.1-.39l-8.81,3.59c1.07.69,2.12,1.43,3.13,2.21l-1.22-.94a46.87,46.87,0,0,1,5,4.53,6,6,0,0,0,8.48-8.48c-1.74-1.87-4-2.36-6.45-2.62a7.2,7.2,0,0,0-3,.31A18,18,0,0,0,162.3,527l1.43-.61a1,1,0,0,1-.3.1l1.6-.21a.81.81,0,0,1-.31,0l1.6.22-.16,0,1.44.61-.16-.09,1.21.94c-.24-.2-.41-.45-.63-.66a7,7,0,0,0-3-1.73,6.48,6.48,0,0,0-7.33,2.81c-1.67,3-.73,6.29.68,9.13a5.94,5.94,0,0,0,5.19,3,5.83,5.83,0,0,0,3-.82,6,6,0,0,0,2.16-2.15,8.53,8.53,0,0,0,1-3.82,7.87,7.87,0,0,0-1-3.82,6.06,6.06,0,0,0-3.58-2.75,6.14,6.14,0,0,0-4.63.6,6,6,0,0,0-2.75,3.59,6.57,6.57,0,0,0,.6,4.62Z" transform="translate(-35.9 -19.03)"/><path d="M159.29,535.6l.12.25-.6-1.43a3.9,3.9,0,0,1,.24.89l-.21-1.59a4.86,4.86,0,0,1,0,1.32l.21-1.6a9.71,9.71,0,0,1-.7,2.3l.6-1.43a2.12,2.12,0,0,1-.27.49l.94-1.21-.17.16,1.22-.94-.13.08,1.43-.6-.14,0,1.6-.21h-.07l1.6.22h-.07l1.44.6-.06,0,1.21.94,0,0,1.54,2.64,0-.05.22,1.6v0l-.21,1.59,0,0-1.54,2.64,0,0a4.38,4.38,0,0,0,1.24-1.93,5.39,5.39,0,0,0,0-4.62,4.38,4.38,0,0,0-1.24-1.93l-1.21-.94a6,6,0,0,0-3-.82l-1.59.21a6,6,0,0,0-2.65,1.55,1.9,1.9,0,0,0-.51.64,4.47,4.47,0,0,0-1.07,2,9.55,9.55,0,0,0-.23,1.69l.21,1.59c.1.26.2.52.32.77a4.52,4.52,0,0,0,1.24,1.93,2.25,2.25,0,0,0,.64.51,2.18,2.18,0,0,0,.67.5l1.43.6.86.12a2,2,0,0,0,.87.1l1.59-.22.14,0,1.43-.61a.21.21,0,0,0,.1-.06,7.37,7.37,0,0,0,2.35-2.33,2.52,2.52,0,0,0,.24-.42,23,23,0,0,0,1-2.34,12.17,12.17,0,0,0,.65-3.63,5.15,5.15,0,0,0,0-.56,18.3,18.3,0,0,0-.27-2,9,9,0,0,0-.94-2.4,5.8,5.8,0,0,0-6-2.86,4.38,4.38,0,0,0-2.23.71l-1.21.94a6,6,0,0,0-1.55,2.65l-.21,1.59a6,6,0,0,0,.82,3Z" transform="translate(-35.9 -19.03)"/><path d="M164.31,544l-.19-.77a1.33,1.33,0,0,1-.05-.19,4.69,4.69,0,0,0-.34-.8,4.41,4.41,0,0,0-.5-.64,3.33,3.33,0,0,0-2.23-.9,3.44,3.44,0,0,0-1.51.41,2.68,2.68,0,0,0-.79.63,8,8,0,0,0-.83,1.11,8.53,8.53,0,0,0-1,4l.1.8a2.39,2.39,0,0,0,.54,1,2.85,2.85,0,0,0,1.56,1.07,3.56,3.56,0,0,0,1.59,0,2.2,2.2,0,0,0,1-.54,2.25,2.25,0,0,0,.78-.84,3.83,3.83,0,0,0,.61-1.74c.1-.65.2-1.3.24-2a17.48,17.48,0,0,0-.21-3.31,2.27,2.27,0,0,0-.53-1,2.34,2.34,0,0,0-.85-.77,3.1,3.1,0,0,0-2.31-.3,3,3,0,0,0-1.79,1.38l-.3.71a2.9,2.9,0,0,0,0,1.6v.09l-.11-.8a13.17,13.17,0,0,1,0,3.32l.11-.8a5.18,5.18,0,0,1-.21,1l.3-.71a1,1,0,0,1-.14.24l5.59,1.52a6.3,6.3,0,0,1,0-.75l-.1.8a5.34,5.34,0,0,1,.35-1.36l-.3.72a3.59,3.59,0,0,1,.44-.76l-.47.6a2.91,2.91,0,0,1,.24-.27l-.61.47,0,0-1.51.41h.06l-1.51-.41,0,0-.6-.47,0,0-.47-.61,0,0-.3-.71c.1.32.17.65.25,1a3,3,0,0,0,3.7,2.1A3.09,3.09,0,0,0,164,546.3a3.15,3.15,0,0,0,.3-2.31Z" transform="translate(-35.9 -19.03)"/><path d="M160.11,544.83c3.86,0,3.87-6,0-6s-3.87,6,0,6Z" transform="translate(-35.9 -19.03)"/><path d="M160.87,515.11a4.26,4.26,0,0,0-.93-.25,8.7,8.7,0,0,0-1.69-.14l1.51,5.59a5.77,5.77,0,0,1,.55-.29l-.72.3a7,7,0,0,1,1-.26,3.26,3.26,0,0,0,2.46-3.18,4.12,4.12,0,0,0-1.15-2.73,8.79,8.79,0,0,0-1.37-1.06l.6.47a3.17,3.17,0,0,1-.48-.49l.46.61a3.25,3.25,0,0,1-.38-.65l.3.72a3.17,3.17,0,0,1-.2-.73l.1.8a1.49,1.49,0,0,0,0-.21,2.28,2.28,0,0,0-.25-1.15,2.38,2.38,0,0,0-.62-1,3.1,3.1,0,0,0-2.13-.88,3.06,3.06,0,0,0-2.12.88,3,3,0,0,0-.88,2.12,6,6,0,0,0,.9,2.93,5.75,5.75,0,0,0,1,1.17c.41.35.85.63,1.27.95l-.61-.47a1.52,1.52,0,0,1,.31.31l-.47-.61a1.83,1.83,0,0,1,.13.24l-.3-.72a1.42,1.42,0,0,1,0,.2l-.1-.8v.13l.11-.8,0,.1.3-.72,0,0,.47-.6,0,0,.6-.47,0,0,.71-.31c-.27.1-.58.11-.85.2a6.88,6.88,0,0,0-1.51.69l-.61.47a2.22,2.22,0,0,0-.62,1,1.42,1.42,0,0,0-.21.75,2.23,2.23,0,0,0,.06,1.2,3.59,3.59,0,0,0,.77,1.32,2.16,2.16,0,0,0,1,.62,2.22,2.22,0,0,0,1.16.26,4.43,4.43,0,0,1,.89,0l-.8-.11a5.19,5.19,0,0,1,.94.24,3.28,3.28,0,0,0,2.31-.3,3,3,0,0,0,1.08-4.1l-.47-.61a3,3,0,0,0-1.33-.77Z" transform="translate(-35.9 -19.03)"/><path d="M221.11,474a4.46,4.46,0,0,0-.71,2.68,22.41,22.41,0,0,0,.41,2.43l-.11-.8a3.86,3.86,0,0,1,0,.9l.11-.8c-.23,1.35-.59,2.64-.69,4a16.53,16.53,0,0,0,.3,4.15,3,3,0,0,0,1.38,1.79,3,3,0,0,0,4.41-3.39c-.05-.25-.09-.5-.13-.76l.11.8a13.67,13.67,0,0,1,0-3.26l-.11.8c.13-1,.44-2,.57-2.95a6.72,6.72,0,0,0,0-2.19c-.08-.47-.21-.92-.28-1.38l.11.8a3.31,3.31,0,0,1,0-.63l-.1.8a1.09,1.09,0,0,1,.07-.3c-.23.48-.26.58-.09.32a3,3,0,0,0-5.18-3Z" transform="translate(-35.9 -19.03)"/><path d="M225.46,476.23c1.76-2.28,2.14-5,2.34-7.77l.57-8.07a3,3,0,0,0-3-3,3.08,3.08,0,0,0-3,3l-.53,7.5c-.05.6-.08,1.2-.14,1.8,0,.08-.13.95,0,.28-.06.3-.11.61-.19.91a2.23,2.23,0,0,1-.25.78l.13-.28c-.07.15-.13.29-.21.43a8.86,8.86,0,0,1-.89,1.39,3,3,0,0,0,1.08,4.1,3.09,3.09,0,0,0,4.1-1.07Z" transform="translate(-35.9 -19.03)"/><path d="M222.3,459.2l-3.92,3.43a5.66,5.66,0,0,1-1.54,1.17c.44-.21-.5.18,0,.05-.52.14-1.08.11-1.6.26a6.15,6.15,0,0,0-2.35,1.47c-.21.19-.41.39-.61.6s-.28.25-.07.07a3.18,3.18,0,0,1-.4.23h0l-.59.19-.9.28A9.34,9.34,0,0,0,207.9,468c-2.05,1.41-1.92,4.8.71,5.49.67.17-.06-.16.53.18a4.28,4.28,0,0,1,.57.37,5.12,5.12,0,0,0,.45.4c.21.2.42.4.62.61a30.71,30.71,0,0,1,2.63,2.84c.61.79,1.18,1.9,1.8,2.81a16.43,16.43,0,0,0,1.4,1.72c.07.07.52.47.22.21l.16.25c-.09-.27-.09-.24,0,.11a3,3,0,1,0,5.78-1.59c-.38-1.58-1.59-2.64-2.42-3.76s-1.7-2.74-2.71-4c-1.93-2.38-4.38-5.14-7.44-5.95l.71,5.48c.13-.08,1-.52.66-.39l.89-.28a13.35,13.35,0,0,0,2.46-1,9.59,9.59,0,0,0,2-1.57l.2-.2c.27-.24.28-.25,0-.05a.47.47,0,0,1-.34.08c.25,0,.5-.06.74-.09a9.47,9.47,0,0,0,4.78-2.62c1.41-1.22,2.82-2.46,4.22-3.7a3,3,0,0,0,0-4.24,3.06,3.06,0,0,0-4.24,0Z" transform="translate(-35.9 -19.03)"/><path d="M219.3,473.16a2.74,2.74,0,0,1-.21-.42l.3.72a4.69,4.69,0,0,1-.32-1.15l.11.79a4.83,4.83,0,0,1,0-1.26l-.1.79a4.62,4.62,0,0,1,.29-1.09l-.3.72.05-.12a2.28,2.28,0,0,0,.36-1.12,2.23,2.23,0,0,0-.06-1.2,2.27,2.27,0,0,0-.53-1A2.31,2.31,0,0,0,218,468a3,3,0,0,0-2.32-.3l-.71.3a3.1,3.1,0,0,0-1.08,1.08,7.83,7.83,0,0,0-.61,1.7,7.56,7.56,0,0,0,.8,5.38,3.09,3.09,0,0,0,1.79,1.38,2.3,2.3,0,0,0,1.19.05,2.24,2.24,0,0,0,1.12-.35,3.08,3.08,0,0,0,1.38-1.8,3.21,3.21,0,0,0-.3-2.31Z" transform="translate(-35.9 -19.03)"/><path d="M268,447.33c0-.38,0-.45,0-.21a4.05,4.05,0,0,1,.12-.5,10.84,10.84,0,0,1,.37-1.14c-.09.23.25-.56.25-.55.14-.33.3-.64.45-1,.72-1.51,1.44-3,2.3-4.44a21.85,21.85,0,0,0,2.25-4.48c.5-1.51.88-3.06,1.31-4.59a3,3,0,0,0-2.9-3.8,2.88,2.88,0,0,1-2.14-.93,3,3,0,0,0-4.25,4.25,9.39,9.39,0,0,0,6.39,2.68l-2.89-3.8c-.44,1.59-.83,3.21-1.36,4.76a29.12,29.12,0,0,1-2.14,3.84c-1.67,3-3.54,6.38-3.77,9.87a3,3,0,0,0,3,3,3.07,3.07,0,0,0,3-3Z" transform="translate(-35.9 -19.03)"/><path d="M263.07,430.69c-.15.81-.27,1.61-.47,2.41s-.43,1.49-.61,2.24a8.74,8.74,0,0,0,.51,6.1,3,3,0,0,0,4.11,1.07,3.07,3.07,0,0,0,1.07-4.1l-.12-.25.3.71a4.52,4.52,0,0,1-.28-1.08l.11.8a6.78,6.78,0,0,1,0-1.56l-.1.79a21,21,0,0,1,.66-2.68c.26-.94.4-1.9.59-2.85a3.2,3.2,0,0,0-.3-2.31,3,3,0,0,0-5.49.71Z" transform="translate(-35.9 -19.03)"/><path d="M260.56,425.49a36.19,36.19,0,0,1,3.57,3.65l1.32-5a5.12,5.12,0,0,0-3.56,2.87,7.54,7.54,0,0,0-.68,2.85,11,11,0,0,0,.14,1.9,3.29,3.29,0,0,0,.88,2.12,3.08,3.08,0,0,0,2.12.88,3,3,0,0,0,2.12-.88,2.83,2.83,0,0,0,.88-2.12,9.42,9.42,0,0,1-.1-2.37l-.1.8a3.69,3.69,0,0,1,.2-.81l-.3.72a3.54,3.54,0,0,1,.42-.73L267,430a3.33,3.33,0,0,1,.42-.42l-.61.47a2.5,2.5,0,0,1,.5-.29l-.71.3a2.3,2.3,0,0,1,.45-.12,2.94,2.94,0,0,0,2.1-2.09,3.11,3.11,0,0,0-.78-2.92,35.15,35.15,0,0,0-3.57-3.65,3.19,3.19,0,0,0-2.12-.88,3,3,0,0,0-2.12.88,3,3,0,0,0,0,4.24Z" transform="translate(-35.9 -19.03)"/></svg>
