<svg id="Layer_1" data-name="Layer 1" xmlns="http://www.w3.org/2000/svg" viewBox="0 0 567.41 616.91"><defs><style>.cls-1,.cls-2,.cls-4,.cls-9{stroke:#000;}.cls-1,.cls-2,.cls-4,.cls-6,.cls-7,.cls-9{stroke-miterlimit:10;}.cls-2,.cls-5,.cls-6,.cls-7{fill:#fff;}.cls-2{opacity:0.29;}.cls-3{fill:#8cc63f;}.cls-4{fill:#b3b3b3;}.cls-6,.cls-7{stroke:#fff;}.cls-7{stroke-width:0.25px;}.cls-8{fill:#e4ffb4;}.cls-9{stroke-width:3px;}</style></defs><path class="cls-1" d="M459.53,225.68" transform="translate(-17.71 -24.98)"/><path class="cls-2" d="M218,231.55c1.15.64,2.35,1.18,3.48,1.86a1.51,1.51,0,0,1,.54,2.05,1.18,1.18,0,0,1-.32.38c.75.23,1.51.45,2.26.7a1.58,1.58,0,0,1,1,1c2.13.43,4.25.88,6.36,1.37-.43-1.05-.85-2.1-1.24-3.16a1.49,1.49,0,0,1-2.44-.68c-.64-2.37-1.16-4.77-1.65-7.18a1.72,1.72,0,0,1-.46-.71c-1.06-3-1.62-6.21-2.43-9.32a1.63,1.63,0,0,1-.7-.6c-.52-.83-1-1.68-1.54-2.52-.16.89-.37,1.79-.6,2.67a80.16,80.16,0,0,0-2,2.1,1.49,1.49,0,0,1-1.15-.15l0,0a28.5,28.5,0,0,0,1,4.06,1.52,1.52,0,0,1-1,1.84,1.17,1.17,0,0,1-.52.05,23.09,23.09,0,0,1-.37,3.53l.3,1.73C216.92,230.9,217.43,231.25,218,231.55Z" transform="translate(-17.71 -24.98)"/><path class="cls-2" d="M232.8,242.39c-2.28-.57-4.58-1.08-6.88-1.56a1.33,1.33,0,0,1-.78.21c-2.66-.23-5.33-.28-8-.39a1.57,1.57,0,0,1,0,.53,1.34,1.34,0,0,1,.37.38,33.14,33.14,0,0,0,8.79,1.52c2.33.19,4.64.27,7,.33Z" transform="translate(-17.71 -24.98)"/><path class="cls-3" d="M584.7,36.48c-8-24-31-3-31-3,6,14-110,99-123,123-6.42,11.85-50.15,43.14-94.05,68.45a1.55,1.55,0,0,1-.75.53c-.37.11-.73.23-1.1.36-1.49,1-3,2-4.54,2.93a1.42,1.42,0,0,1-.42.15,1.55,1.55,0,0,1-.5.17l-1.12.62a2.2,2.2,0,0,1-.2.23,2.34,2.34,0,0,1-.24.31l-.3.23a1.62,1.62,0,0,1-.6.19,2,2,0,0,0-.05.24.13.13,0,0,0,0,.06v.14a.51.51,0,0,1-.5.5.51.51,0,0,1-.5-.5h0a.54.54,0,0,1-.19-.49c-2.94,1.44-5.81,3-8.68,4.6a1.4,1.4,0,0,1-1.62-.13c-.41.4-.82.81-1.24,1.2-1.41,1.32-3.53-.8-2.12-2.11a1.31,1.31,0,0,1,.33-1.56c1.62-1.51,3.25-3,4.86-4.53a1.41,1.41,0,0,1-.8-.41,1.52,1.52,0,0,1,0-2.12c1.62-1.46,3.29-2.87,4.95-4.3-.48.2-1,.4-1.43.58a41.4,41.4,0,0,1-7.38,2c-1.42,6.66-2.9,12.73-4.94,13.86-20,11.06-37.77,20.39-48.86,25.78-7.6,3.7-11-2-11-2-5.32-3.64-9.54-9.48-12.93-16-3.28-.07-6.52-.22-9.8-.49a34.55,34.55,0,0,1-9.15-1.87l-.58-.06a1.14,1.14,0,0,1-.33.36,1.07,1.07,0,0,1-.32.2h0a4.56,4.56,0,0,1,0,.52c0,.18,0,.37-.08.56a1,1,0,0,1,0,.17l-.08.17a2,2,0,0,1,.19.35c.84,2.36,1.55,4.76,2.22,7.17a1.49,1.49,0,0,1-.55,1.58v.32a14.19,14.19,0,0,0,.13,2.18,2,2,0,0,1,.55.5c2,2.85,1.75,6.55,2.81,9.75a1.32,1.32,0,0,1-.13,1.1l.07.08a1.62,1.62,0,0,1,1.06,1.44.75.75,0,0,1,0,.11s0,0,0,.07l.09.35a5.44,5.44,0,0,0,.23.68v0a.58.58,0,0,1,.05.09l.12.26c.11.23.22.45.32.67a10,10,0,0,1,.9,2.59l0,.09a38.1,38.1,0,0,0,1.86,3.93c.61,1.23,1,2.53,1.56,3.79.9,2.12,2.26,4.81.89,7.06a7.67,7.67,0,0,1-2.42,2c-1,.69-.85,1.71-1.07,2.77-.52,2.46-2.23,4.46-2.72,7h0a1.55,1.55,0,0,1,.23,1.65,5.13,5.13,0,0,1-.47,1.45,8,8,0,0,1-.75,1.17,2.3,2.3,0,0,1,.06.28,4.54,4.54,0,0,1-.56,2.19c-.15.28-.33.56-.51.83a1.3,1.3,0,0,1,0,.21,13.06,13.06,0,0,1-1,1.9l0,.06c0,.13,0,.24,0,.36a1.5,1.5,0,0,1-.16,1.1,3.37,3.37,0,0,0-.19.32,1.34,1.34,0,0,1,.12.3,1.22,1.22,0,0,1,0,.6,1.16,1.16,0,0,1-.18.56,6,6,0,0,1-.72,1c-.18.22-.38.44-.57.66l-.06,0a1.5,1.5,0,0,1-.25.19h0a2,2,0,0,1-.34.14h-.06a1.15,1.15,0,0,1-.26,0h0a18.08,18.08,0,0,1-2.31,1.86,1.54,1.54,0,0,1-1,.17c-.58.45-1.18.86-1.79,1.26l-.92.61-.45.31-.19.15,0,0h0a2.17,2.17,0,0,0-.48.38l-.49.38-.08.07c-1.08,1.55-2.19,3.08-3.29,4.62a1.49,1.49,0,0,1-.08.53c-.79,2.44-1.85,4.78-2.7,7.2l-.09.26a1.71,1.71,0,0,1,.07.87c-.26,1.28-.67,2.51-1,3.75,0,0,0,0,0,.07a1.34,1.34,0,0,1,.88,1.34,31.21,31.21,0,0,0,.75,6.24,14.66,14.66,0,0,1,.38,3.43,16.88,16.88,0,0,0-.07,2.93v.07a1.37,1.37,0,0,1,.16.72c0,.94-.08,1.88-.14,2.81a1.75,1.75,0,0,1,.68.17,1.5,1.5,0,0,1,.58,1.91.35.35,0,0,1,0,.06c.06-.1,0,0,0,0v.15c0,.17,0,.34,0,.52s0,.66.06,1c.06.73.17,1.45.25,2.17a8.54,8.54,0,0,1-.5,4.67l0,0a21.8,21.8,0,0,1-1,4.29,14.49,14.49,0,0,1-1.27,2.81,20.58,20.58,0,0,0-1.45,2.37,1.3,1.3,0,0,1-1,.7l0,.05c-3,3.06-6.22,6.35-7.77,10.42-1.34,3.51-3.86,6.06-6.13,9-1.22,1.57-2.33,3.24-3.61,4.75s-2.63,2.82-3.86,4.3a34.65,34.65,0,0,0-3.42,4.66,16.79,16.79,0,0,1-3,4,25.37,25.37,0,0,0-3.68,3.57c-.5.73-.74,1.59-1.23,2.32A19.6,19.6,0,0,1,164,421.9a1.86,1.86,0,0,1-.35.29C157.4,432.65,126.53,463,126.53,463c-77.17,72.5-64.83,108.5-93.83,115.5s-7,21-7,21l19,26c-8,25,33,14,33,14,15,13,131.5-74.5,120-75-5.1-.22,26-50,34-51s51-48,51-48l0,0a13.6,13.6,0,0,1,1.08-2.2,11.37,11.37,0,0,1,.84-1.18c.25-.5.5-1,.74-1.54,1.32-2.93,2.31-6.23,3.52-9.23a.89.89,0,0,1,.08-.17c-.34-3.39,1.38-8.07,1.91-10.36,1-4.27,1.82-8.32,2.5-12.65a17.28,17.28,0,0,1,1.36-4.79,12.4,12.4,0,0,1,.17-2.27,24,24,0,0,1,.49-3.59,11.2,11.2,0,0,0,.63-2.4,3,3,0,0,1,.28-1.29,1.94,1.94,0,0,1,0-.24l.09-.28a.71.71,0,0,1,0-.21,6.27,6.27,0,0,1,.19-1.3c.07-.47.05-1,.1-1.42a17.57,17.57,0,0,1,.49-2.9.92.92,0,0,1,.63-.64l.05-.07a1.29,1.29,0,0,0,.16-.17c.11-.16.2-.33.31-.49h0a.45.45,0,0,1,.21-.26.46.46,0,0,1,.38-.05.5.5,0,0,1,.3.23.77.77,0,0,1,.1.18,2.2,2.2,0,0,1,.09.21.59.59,0,0,1,0,.14l.06.13a.38.38,0,0,1,.06.23.86.86,0,0,1,.13.23c.14.39.22.79.37,1.17l-.1-.24v0a1,1,0,0,1,.13.45l0,.09a2.27,2.27,0,0,1,.05.35v.05a.89.89,0,0,1,.14.45c0,.35.23.67.25,1v.07c.19.5.47,1,.71,1.46a19.07,19.07,0,0,0,1.27,2.46c.51.76,1,1.56,1.56,2.3a14.25,14.25,0,0,0,1.34,2.11,1.17,1.17,0,0,1,.25.42c2.4,2,4.92,4.53,5.76,7.51.68.74,1.35,1.48,2,2.27a3.79,3.79,0,0,1,.62,1.12,21.1,21.1,0,0,1,1.44,2.1c1.48,1.11,3.26,2.72,3.67,4.62,2.53,2.66,5.1,5.27,7.39,8.2l.05,0h0l.48.6a2.89,2.89,0,0,1,.39.73,18.33,18.33,0,0,1,2.56,2.5,3,3,0,0,1,.33.54l1.86,1.5a2.51,2.51,0,0,1,1,.79,2.83,2.83,0,0,1,.54.42l.21.21.87.7a2.92,2.92,0,0,1,.52.54,35.29,35.29,0,0,1,3.54,2.82,7.2,7.2,0,0,1,1.22,1.43c1.11.58,2.23,1.1,3.08,1.63a27.34,27.34,0,0,1,7,5.77l.2.14c1.08.59,2.23,1.15,3.35,1.69a152.07,152.07,0,0,0,15.15-17.65c7.23-10,14.44-20,21.11-30.37,5.7-8.85,11.28-18.1,14.67-28.13a64.52,64.52,0,0,1-17-18.6c-8-13.19-13.15-45.67-20-59-18-35,109-148,109-148C483.7,157.48,592.7,60.48,584.7,36.48Z" transform="translate(-17.71 -24.98)"/><path d="M36.42,605.39c11.15-1.69,22.21-4.94,31.93-10.77s17.34-14,24.2-22.65c12.6-16,22.18-34.09,33.94-50.7a138.06,138.06,0,0,1,19.61-22.74c8.48-7.69,18.36-13.41,28.2-19.16,9.39-5.48,18.51-11.25,26.78-18.35a139.75,139.75,0,0,0,21.06-22.62,137.64,137.64,0,0,0,15.43-26.34c2-4.57,3.68-9.27,5.44-13.95,1.61-4.3,3.46-8.76,6.53-12.25a17.39,17.39,0,0,1,5.13-4l-2.21-.9c2.45,9.65,1.37,19.94-.4,29.61a130.28,130.28,0,0,1-7.19,24.79A132.38,132.38,0,0,1,217,478.13a126.84,126.84,0,0,1-22.48,18.39c-1.62,1-.12,3.64,1.51,2.59a134.27,134.27,0,0,0,58.41-85.31c2.23-10.93,3.66-22.68.88-33.64a1.52,1.52,0,0,0-2.21-.9c-8.61,4.42-11.7,14.37-14.78,22.84a135.25,135.25,0,0,1-13.6,27.29,139.3,139.3,0,0,1-44.63,43c-9.84,6-20.13,11.34-29.33,18.33a117.15,117.15,0,0,0-21.34,21.51c-12.48,16-22,34-33.75,50.5-6.23,8.73-13.11,17.26-21.45,24.06C65.44,594,54.8,598.45,43.77,601c-2.7.61-5.42,1.11-8.15,1.53-1.9.29-1.09,3.18.8,2.89Z" transform="translate(-17.71 -24.98)"/><path d="M191,498.94c-10.76,5.67-21.9,11.6-30.15,20.76-4.46,4.94-7.31,10.74-10.6,16.45-3.47,6-7.91,11.32-12.33,16.63s-8.61,10.85-12.65,16.51A147.11,147.11,0,0,1,112.75,585,120.18,120.18,0,0,1,84,607.14a153,153,0,0,1-38.57,15c-1.87.46-1.08,3.36.8,2.9,23.83-5.84,46.85-16.85,64.67-34a116.34,116.34,0,0,0,12.48-14.22c4.24-5.66,8.15-11.57,12.57-17.09,4.29-5.34,8.89-10.45,12.88-16s6.77-12.2,10.81-17.89c8-11.29,20.82-18,32.79-24.3,1.71-.9.19-3.49-1.52-2.59Z" transform="translate(-17.71 -24.98)"/><path d="M194.36,496.73a3.78,3.78,0,0,1-.58.55l.3-.23a6.73,6.73,0,0,1-1.27.75c-.21.11-.43.19-.63.31a2.61,2.61,0,0,0-.52.41,2.39,2.39,0,0,1-.22.23l.3-.23-.1.06.36-.16-.08,0a1.55,1.55,0,0,0-.9.69,1.61,1.61,0,0,0-.15,1.16,1.59,1.59,0,0,0,.69.9,1.72,1.72,0,0,0,1.16.15,2,2,0,0,0,.48-.2,2.34,2.34,0,0,0,.43-.33c.1-.09.18-.2.28-.29l-.3.24a4.44,4.44,0,0,1,.72-.37L195,500a5.65,5.65,0,0,0,1.47-1.19,1.63,1.63,0,0,0,.44-1.06,1.5,1.5,0,0,0-.44-1.06,1.47,1.47,0,0,0-1.06-.44,1.4,1.4,0,0,0-1.06.44Z" transform="translate(-17.71 -24.98)"/><path d="M268.11,330c4.7-6.64,11.46-13.77,20.4-12.51,8.6,1.21,14.42,8.43,18.09,15.73a3,3,0,0,0,5.18-3c-3.49-6.94-8.67-13.5-15.94-16.7a22.77,22.77,0,0,0-12.31-1.9,23.61,23.61,0,0,0-11,4.86A47.37,47.37,0,0,0,262.93,327a3,3,0,0,0,5.18,3Z" transform="translate(-17.71 -24.98)"/><path d="M247.75,327.11a36.14,36.14,0,0,1-3.14-5.49,16,16,0,0,0-4.85-5.62c-4-2.82-9.68-3.36-14.47-2.94-9.86.85-19.21,6.4-23.41,15.59a28.29,28.29,0,0,0-2.15,15.07c.58,5.67,1.46,11.32,2.16,17A21.8,21.8,0,0,1,202,368c-.57,2.52-2.21,4.62-3.6,6.74L189,389.07a129.88,129.88,0,0,1-10.69,14.42c-4.17,4.78-8.53,9.39-12.82,14.06a3,3,0,0,0,4.25,4.24c7.31-8,14.94-15.71,21.08-24.64,3.06-4.45,6-9,8.92-13.54l4.61-7.06a21.08,21.08,0,0,0,3.44-7.14c1.08-5.08-.14-10.43-.79-15.5-.7-5.36-1.87-10.93-1.47-16.35.62-8.32,7.25-15.3,15.19-17.61,4.43-1.29,10-1.69,14.28.24a9.53,9.53,0,0,1,4.5,4.62,39.79,39.79,0,0,0,4,6.55,3,3,0,0,0,4.24,0,3.08,3.08,0,0,0,0-4.25Z" transform="translate(-17.71 -24.98)"/><path d="M214.2,244.48a33.2,33.2,0,0,0,1.34,8.46c.8,3.07,1.41,6.18,2.23,9.24a156.94,156.94,0,0,0,5.91,17.4c1.09,2.73,2.22,5.44,3.36,8.15l1.82,4.35c.53,1.26,1.13,2.45,2.69,2.48,2.69.05,5.36-1.91,7.27-3.6,2.42-2.14,4.57-4.61,6.8-6.94l8.15-8.49c2.59-2.7,5.41-5.3,7.52-8.39,1.09-1.6-1.51-3.11-2.59-1.52a56.35,56.35,0,0,1-6.2,6.9l-6.45,6.73c-2.27,2.35-4.53,4.72-6.79,7.07-1.72,1.79-3.51,3.7-5.82,4.71a7.08,7.08,0,0,1-1.55.56c-.25-.07-.61-1.45-.72-1.7L229.52,286c-1.05-2.51-2.1-5-3.1-7.55a161.9,161.9,0,0,1-5.4-15.72c-.9-3.23-1.56-6.51-2.39-9.76a34.53,34.53,0,0,1-1.43-8.44,1.5,1.5,0,0,0-3,0Z" transform="translate(-17.71 -24.98)"/><path d="M284.86,280c15-7.77,20.76-24.66,25.84-39.61.62-1.84-2.28-2.62-2.89-.8-4.83,14.21-10.2,30.43-24.47,37.82-1.71.89-.19,3.48,1.52,2.59Z" transform="translate(-17.71 -24.98)"/><path d="M285,280.46c5.62,5,13,7.29,20.36,8.48,1.78.29,3.52.76,5.25.14a28.19,28.19,0,0,0,4-1.82,25.09,25.09,0,0,0,6.32-4.94c7.62-8.27,9.27-20.38,9.09-31.18a114.86,114.86,0,0,0-2-18.86c-.35-1.9-3.24-1.1-2.89.79,1.87,10.17,2.86,21,.93,31.19a34.64,34.64,0,0,1-5.42,13.7,22.29,22.29,0,0,1-5,5.11,23.85,23.85,0,0,1-3.17,1.95,9.75,9.75,0,0,1-3.69,1.41,28.2,28.2,0,0,1-5.74-.95,51.08,51.08,0,0,1-5.56-1.46,28.51,28.51,0,0,1-10.38-5.69c-1.43-1.28-3.56.83-2.12,2.13Z" transform="translate(-17.71 -24.98)"/><path d="M277.72,284.33c3.4-2.25,7.53-5,11.8-3.82,2,.52,3.27,2.09,5.05,2.95a26.79,26.79,0,0,0,6.18,1.68c4,.82,8.15,1.45,11.91,3.13a21.63,21.63,0,0,1,5.41,3.5c1.51,1.32,3.23,2.71,4.09,4.55s3.39.23,2.59-1.51a13.11,13.11,0,0,0-3.11-3.84,34.83,34.83,0,0,0-4.32-3.55,29.24,29.24,0,0,0-9.71-3.91c-3.52-.84-7.2-1.24-10.66-2.33-1.78-.57-3-1.91-4.62-2.76a10.25,10.25,0,0,0-4.77-1.16c-4.23,0-7.93,2.22-11.35,4.48-1.6,1.05-.1,3.65,1.51,2.59Z" transform="translate(-17.71 -24.98)"/><path d="M229.47,301.82a13.49,13.49,0,0,1,5.61-8.67,64.06,64.06,0,0,0,7.54-6.61,24.48,24.48,0,0,1,4-3.67,28.41,28.41,0,0,0,4.34-3.46,92.72,92.72,0,0,0,6.93-8.94,7.4,7.4,0,0,1,4.52-3.22,19.84,19.84,0,0,1,5.55,0c1.93.16,1.92-2.84,0-3-3.43-.29-7.21-.4-10.06,1.84a22.14,22.14,0,0,0-3.74,4.44c-1.24,1.67-2.45,3.38-3.76,5a20.36,20.36,0,0,1-4.23,4.06,29.46,29.46,0,0,0-4.64,3.76c-1.33,1.38-2.55,2.84-4,4.1s-2.75,2.17-4.12,3.26a21.83,21.83,0,0,0-4.08,4,19.09,19.09,0,0,0-2.76,6.34,1.5,1.5,0,0,0,2.89.8Z" transform="translate(-17.71 -24.98)"/><path d="M285.84,461.37c7-18.87,9-39,12.43-58.71l-1.85,1c-.32-.07-.38-.56-.38-.27a3.85,3.85,0,0,1,0,.55,6.77,6.77,0,0,1-.32,1.58c-.08.27-.22.11-.16.36q-.1.15,0,0c.48-.7,1.25-.54,2.32.46.1-.14,0,.27,0,0,.14-1.22.17-2.45.36-3.67l-1.85,1c2,.7,2.84,3.15,3.41,5,.34,1.12.61,2.25.89,3.39a13.45,13.45,0,0,0,1.94,3.59,46.76,46.76,0,0,0,4.88,7c2,2.18,3.5,4.87,5.25,7.24A159.66,159.66,0,0,0,336,455.26,163.39,163.39,0,0,0,351,467c1.59,1.1,3.09-1.5,1.51-2.59a156.08,156.08,0,0,1-37.17-36c-.86-1.16-1.7-2.34-2.53-3.52A41,41,0,0,0,310.1,421a47.62,47.62,0,0,1-5.06-7.15c-.36-.6-.78-1.18-1.11-1.78a6.88,6.88,0,0,1-.56-1.77,32.89,32.89,0,0,0-1.21-4c-1-2.43-2.38-4.58-4.94-5.46a1.51,1.51,0,0,0-1.85,1.05c-.24,1.57-.86,3.76-.32,5.35s2.51,1.38,3.22,0c.92-1.76,1.59-5.76-1-6.41a1.52,1.52,0,0,0-1.85,1.05c-3.41,19.7-5.44,39.84-12.42,58.71-.67,1.81,2.23,2.59,2.89.8Z" transform="translate(-17.71 -24.98)"/><path d="M219.91,300.15a4.37,4.37,0,0,1,.13,3,21.43,21.43,0,0,1-1.48,3.58c-1.36,2.81-2.7,5.67-2.74,8.86a1.5,1.5,0,0,0,3,0c0-3,1.54-5.65,2.78-8.29,1.16-2.46,2.3-5.3,1.2-8A1.56,1.56,0,0,0,221,298.3a1.52,1.52,0,0,0-1,1.85Z" transform="translate(-17.71 -24.98)"/><path d="M222.84,301.37c1.11-4.14,2.34-8.55,6-11.16a1.54,1.54,0,0,0,.54-2,1.51,1.51,0,0,0-2.05-.54,15.28,15.28,0,0,0-5,5.85,39.4,39.4,0,0,0-2.43,7.1,1.5,1.5,0,0,0,2.89.8Z" transform="translate(-17.71 -24.98)"/><path d="M36,606.52c4.29,5.41,10.81,8.66,14.68,14.44.64,1,2.5,1,2.74-.36Q55,611.34,57,602.15l-2.51.66q5.93,4.91,12,9.56A119.33,119.33,0,0,0,78.92,621a1.52,1.52,0,0,0,2.26-1.3c-.12-5.26-2.7-10.09-2.39-15.39.15-2.68.7-5.33.73-8a42.67,42.67,0,0,0-1.08-8.42c-.37-1.9-3.27-1.09-2.9.8a36.16,36.16,0,0,1,1,8.09c-.08,2.68-.65,5.33-.75,8-.19,5.15,2.3,9.83,2.42,14.92l2.25-1.29c-8.53-4.95-16.28-11.42-23.87-17.7a1.51,1.51,0,0,0-2.5.66q-1.94,9.2-3.55,18.45l2.74-.36c-4-6-10.69-9.42-15.15-15-1.2-1.52-3.31.62-2.12,2.12Z" transform="translate(-17.71 -24.98)"/><path d="M76.83,587.35A198.78,198.78,0,0,0,98.72,607.8a1.52,1.52,0,0,0,2.56-1.06,121,121,0,0,0-3.83-42.94,1.5,1.5,0,0,0-2.89.8,118.61,118.61,0,0,1,3.72,42.14l2.56-1.06A198.78,198.78,0,0,1,79,585.23c-1.31-1.42-3.43.7-2.12,2.12Z" transform="translate(-17.71 -24.98)"/><path d="M96.19,566.1q10.65,11,21.68,21.54c1.4,1.34,3.52-.78,2.13-2.12Q109,574.95,98.31,564c-1.35-1.39-3.47.74-2.12,2.12Z" transform="translate(-17.71 -24.98)"/><path d="M120.32,587a32.9,32.9,0,0,0,.35-11.58c-.29-2-.77-3.9-1.11-5.86a50.17,50.17,0,0,1-.51-6.12c-.46-8.12-1.94-16.22-3.06-24.27-.27-1.91-3.16-1.1-2.9.79,1.09,7.79,2.51,15.62,3,23.48.1,1.92.16,3.83.43,5.74s.72,3.75,1.06,5.62a29.35,29.35,0,0,1-.12,11.4c-.39,1.89,2.5,2.69,2.9.8Z" transform="translate(-17.71 -24.98)"/><path d="M113.26,539.92a249.9,249.9,0,0,1,19.41,24.35c1.1,1.57,3.7.07,2.59-1.52a255.2,255.2,0,0,0-19.88-25c-1.29-1.44-3.41.69-2.12,2.12Z" transform="translate(-17.71 -24.98)"/><path d="M135.47,563.24c-.41-2.21,0-4.44.18-6.65a31.39,31.39,0,0,0-.35-6.2c-.52-4.35-.17-8.66-.41-13s-1.23-8.37-1.55-12.59a27.53,27.53,0,0,1,.21-6.35A22.58,22.58,0,0,0,134,512a1.54,1.54,0,0,0-1.5-1.5A1.52,1.52,0,0,0,131,512a23.87,23.87,0,0,1-.46,6.58,29.07,29.07,0,0,0-.17,6.46c.36,4.29,1.39,8.51,1.57,12.82s-.11,8.66.44,13a30.36,30.36,0,0,1,.21,6.67,22.76,22.76,0,0,0,0,6.49c.35,1.9,3.24,1.1,2.89-.79Z" transform="translate(-17.71 -24.98)"/><path d="M131.07,513q11,10.54,21.19,21.88a1.52,1.52,0,0,0,2.51-.66c1-3.23.59-6.53.26-9.83-.35-3.5-.24-7-.36-10.51a54.29,54.29,0,0,0-1.57-10.23,22.47,22.47,0,0,1-.31-10.15c.44-1.88-2.45-2.68-2.9-.8a24.42,24.42,0,0,0,0,9.93c.62,3.47,1.6,6.74,1.78,10.29s0,7.05.33,10.57c.28,3.31,1,6.68-.07,9.93l2.51-.66q-10.19-11.34-21.2-21.88c-1.4-1.33-3.52.79-2.12,2.12Z" transform="translate(-17.71 -24.98)"/><path d="M151.16,494.8a258.85,258.85,0,0,0,27.12,20.54c1.62,1.07,3.13-1.53,1.52-2.59a253.5,253.5,0,0,1-26.52-20.07c-1.45-1.26-3.59.85-2.12,2.12Z" transform="translate(-17.71 -24.98)"/><path d="M180.53,513.67c-.64-3.16-.05-6.36.51-9.49a58.57,58.57,0,0,0,1-9.23c.11-6.37-.71-12.74-1.28-19.07-.18-1.91-3.18-1.93-3,0,.58,6.48,1.44,13,1.27,19.55-.17,6.35-2.68,12.7-1.4,19,.38,1.89,3.27,1.09,2.89-.8Z" transform="translate(-17.71 -24.98)"/><path d="M178.73,477.34q9.36,9.75,19.36,18.86a1.51,1.51,0,0,0,2.5-.66c.63-2.84.26-5.77,1-8.58a30.57,30.57,0,0,0,1.3-8.17A171.07,171.07,0,0,0,202,461c-.19-1.9-3.2-1.92-3,0,.58,5.77.92,11.56.94,17.35a25.55,25.55,0,0,1-.19,3.91,35.91,35.91,0,0,1-1,3.93c-.77,2.82-.4,5.74-1,8.57l2.51-.66q-10-9.12-19.36-18.87c-1.34-1.39-3.46.73-2.12,2.13Z" transform="translate(-17.71 -24.98)"/><path d="M199.26,461.91l5,4.12a44.08,44.08,0,0,1,4.51,4c1.32,1.44,2.39,3.07,3.65,4.55a62.35,62.35,0,0,0,4.47,4.58c1.39,1.34,3.51-.78,2.12-2.12s-3-2.88-4.36-4.45-2.4-3.21-3.76-4.68a41.63,41.63,0,0,0-4.38-3.9l-5.12-4.23a1.55,1.55,0,0,0-2.12,0,1.52,1.52,0,0,0,0,2.12Z" transform="translate(-17.71 -24.98)"/><path d="M216.71,443.76c.06,5.22,1,10.36,1.69,15.52.36,2.56.65,5.13.94,7.7s.71,5.18.07,7.72c-.47,1.87,2.42,2.67,2.9.79a21.1,21.1,0,0,0,.14-7.56c-.3-2.7-.61-5.4-1-8.09-.71-5.35-1.71-10.67-1.77-16.08a1.5,1.5,0,0,0-3,0Z" transform="translate(-17.71 -24.98)"/><path d="M219.92,443.2v-1.11a1.17,1.17,0,0,0-.13-.58,1.14,1.14,0,0,0-.31-.48,1.24,1.24,0,0,0-.48-.31,1.15,1.15,0,0,0-.58-.13l-.4.06a1.57,1.57,0,0,0-.66.38l-.24.31a1.5,1.5,0,0,0-.2.75v1.11a1.15,1.15,0,0,0,.13.58,1,1,0,0,0,.31.48,1.08,1.08,0,0,0,.48.31,1.06,1.06,0,0,0,.58.13l.4-.05a1.49,1.49,0,0,0,.66-.39l.23-.3a1.45,1.45,0,0,0,.21-.76Z" transform="translate(-17.71 -24.98)"/><path d="M217.6,444.25a47,47,0,0,0,3.58,3.48,37.89,37.89,0,0,1,3.17,4c2.24,3,4.6,5.79,7.11,8.5,1.32,1.42,3.44-.71,2.13-2.12a103.39,103.39,0,0,1-7-8.37,37.41,37.41,0,0,0-3.19-4c-1.21-1.22-2.59-2.25-3.68-3.58a1.51,1.51,0,0,0-2.12,0,1.53,1.53,0,0,0,0,2.12Z" transform="translate(-17.71 -24.98)"/><path d="M229.8,424.39c1.18,5.53.79,11.28,1.46,16.88s1.77,11.25,1.87,17c0,1.93,3,1.93,3,0-.11-5.87-1.27-11.62-1.93-17.44s-.3-11.55-1.5-17.2c-.41-1.89-3.3-1.09-2.9.8Z" transform="translate(-17.71 -24.98)"/><path d="M230.6,423.74a53.15,53.15,0,0,0,15.67,9,1.51,1.51,0,0,0,1.85-1.84c-1.3-3.78-2.47-7.65-4-11.34-1.34-3.19-3.77-6.19-4.24-9.69a1.56,1.56,0,0,0-1.5-1.5,1.5,1.5,0,0,0-1.5,1.5c.5,3.77,2.63,6.76,4.19,10.14,1.71,3.73,2.83,7.81,4.17,11.68l1.84-1.84a49.47,49.47,0,0,1-14.35-8.25c-1.48-1.22-3.61.89-2.12,2.12Z" transform="translate(-17.71 -24.98)"/><path d="M238.47,409.8c5.5,1.46,10.4-1.7,15.63-2.75a1.52,1.52,0,0,0,1.05-1.85,1.54,1.54,0,0,0-1.85-1c-4.56.91-9.25,4-14,2.74a1.51,1.51,0,0,0-.8,2.9Z" transform="translate(-17.71 -24.98)"/><path d="M254.63,402.68a26.89,26.89,0,0,1-5.17-4.36,42.48,42.48,0,0,0-5.39-4.82A1.53,1.53,0,0,0,242,394a1.55,1.55,0,0,0,.54,2.06,24.32,24.32,0,0,1,2.55,2.14c.84.8,1.65,1.63,2.47,2.45a28.72,28.72,0,0,0,5.55,4.59,1.5,1.5,0,1,0,1.51-2.59Z" transform="translate(-17.71 -24.98)"/><path d="M244.77,395.21A34.6,34.6,0,0,1,254,393a1.55,1.55,0,0,0,1.5-1.5A1.52,1.52,0,0,0,254,390a36.76,36.76,0,0,0-10,2.34,1.54,1.54,0,0,0-1,1.85,1.51,1.51,0,0,0,1.84,1Z" transform="translate(-17.71 -24.98)"/><path class="cls-4" d="M243.7,190.48" transform="translate(-17.71 -24.98)"/><path class="cls-5" d="M282.7,278.48s18.11-9.74,25.55-40.37,9.67-27.07,10.06-32.35,19.61,54.28-1,82c0,0-17.33-1.28-19-2.78,0,0-12.64-4.5-13.64-5.5Z" transform="translate(-17.71 -24.98)"/><path class="cls-5" d="M231.7,293.48s26-25,26-27c0,0-13.47-.2-23.73-21.6s-13.27-37.4-13.27-37.4S204.7,240.48,231.7,293.48Z" transform="translate(-17.71 -24.98)"/><polygon class="cls-6" points="20.99 580.5 35.99 576.5 33.99 595.5 20.99 580.5"/><path class="cls-6" d="M55.7,600.48l22.19,16.46s-3.19-13.46-2.19-13.46,1-14,0-14S55.7,600.48,55.7,600.48Z" transform="translate(-17.71 -24.98)"/><path class="cls-6" d="M79.68,586.08l19,17.87s1.06-27.47-2.94-35.47Z" transform="translate(-17.71 -24.98)"/><polygon class="cls-6" points="80.83 539.23 100.99 560.5 95.99 516.5 80.83 539.23"/><path class="cls-6" d="M133,560.48l-17.5-22.67,15.22-22.33s.07,16.33,1,18.67S133,560.48,133,560.48Z" transform="translate(-17.71 -24.98)"/><path class="cls-6" d="M152.22,530.76,134,511.54s14.73-17.06,15.73-16.06S152.22,530.76,152.22,530.76Z" transform="translate(-17.71 -24.98)"/><path class="cls-6" d="M153.7,492.48l24,19s.69-13.83,1.34-16.92-1.34-17.08-1.34-17.08Z" transform="translate(-17.71 -24.98)"/><path class="cls-6" d="M180.7,475.48l18,17s-.43-5,0-5.87c1-2.13,1.1-23.78,0-24.13Z" transform="translate(-17.71 -24.98)"/><path class="cls-6" d="M201.7,460.48l17.79,17.58s.21-11.58-.33-12.95-2.46-19.63-2.46-19.63Z" transform="translate(-17.71 -24.98)"/><polygon class="cls-5" points="212.49 401 201.49 417 215.49 433 212.49 401"/><path class="cls-5" d="M245.2,430l-12.67-8.25L237.2,412S246.2,429,245.2,430Z" transform="translate(-17.71 -24.98)"/><path class="cls-5" d="M196.78,495,181.2,480s0,24.22-.5,24.61S197.36,496,196.78,495Z" transform="translate(-17.71 -24.98)"/><path class="cls-7" d="M152.2,495l21,15.47S155.51,524.88,155.51,528,152.2,495,152.2,495Z" transform="translate(-17.71 -24.98)"/><path class="cls-5" d="M152.2,495.87" transform="translate(-17.71 -24.98)"/><path class="cls-7" d="M134,515.81,152.2,534l-17,22s-1-31-2-32S134,515.81,134,515.81Z" transform="translate(-17.71 -24.98)"/><polygon class="cls-7" points="98.49 518 113.49 537 102.49 551 98.49 518"/><path class="cls-7" d="M114.2,584l-15.43-15.5S103.2,596,101.2,596Z" transform="translate(-17.71 -24.98)"/><path class="cls-7" d="M78.66,589.48,92.2,602l-13,8s-1.09-7.92-.54-7.46S78.66,589.48,78.66,589.48Z" transform="translate(-17.71 -24.98)"/><polygon class="cls-7" points="38.53 579.25 52.49 590 35.91 595.22 38.53 579.25"/><path class="cls-8" d="M191.47,385.19l1.23-1.71c.62-.87,1.19-1.69,1.74-2.49A26.4,26.4,0,0,0,191.47,385.19Z" transform="translate(-17.71 -24.98)"/><path d="M316.52,432.93l-.09-.1.12.15a1,1,0,0,1-.08-.14l.08.18a8.41,8.41,0,0,1-.28-1c-.11-.34-.22-.69-.35-1a.76.76,0,0,0-.34-.45.78.78,0,0,0-.58-.07.74.74,0,0,0-.52.92c.15.41.29.83.41,1.26a2.62,2.62,0,0,0,.57,1.32.81.81,0,0,0,.53.22.77.77,0,0,0,.53-.22.75.75,0,0,0,0-1.06Z" transform="translate(-17.71 -24.98)"/><path d="M34.26,603.1a6.18,6.18,0,0,1-.77.39l.36-.15a6,6,0,0,1-1.49.41l.4-.06-.17,0a1.27,1.27,0,0,0-.58.13,1.11,1.11,0,0,0-.48.31,1.52,1.52,0,0,0-.44,1.06,1.46,1.46,0,0,0,.44,1.06,1.38,1.38,0,0,0,1.06.44,7.65,7.65,0,0,0,1.65-.32,7.83,7.83,0,0,0,1.53-.7,1.53,1.53,0,0,0,.69-.89A1.5,1.5,0,0,0,35.41,603a1.54,1.54,0,0,0-1.15.15Z" transform="translate(-17.71 -24.98)"/><path d="M34.14,602.9,31.58,604a1.55,1.55,0,0,0-1,1.85,1.53,1.53,0,0,0,1.84,1A13.57,13.57,0,0,0,36,605.33a1.5,1.5,0,0,0-1.51-2.59c-1.24.58-2.48,1.13-3.74,1.66a1.51,1.51,0,0,0,0,2.89,21.12,21.12,0,0,0,2.84.73,4.15,4.15,0,0,1,2.18,1.55c1.35,1.62,2.61,3.3,4,4.91s2.8,3.22,4.3,4.75c1.33,1.36,2.87,3.38,5,3.4a1.53,1.53,0,0,0,1.5-1.5,4,4,0,0,0-1.16-2.68c-.67-.82-1.37-1.63-2.08-2.43a24.81,24.81,0,0,0-4.71-4.15c-1.62-1.07-3.12,1.53-1.52,2.59a20.33,20.33,0,0,1,3.7,3.23c.55.6,1.08,1.22,1.61,1.84.32.37,1.17,1.08,1.16,1.6l1.5-1.5c-.6,0-1.4-1.1-1.79-1.48-.74-.73-1.47-1.47-2.18-2.23q-2.19-2.34-4.21-4.82A36.17,36.17,0,0,0,37,606.49a6.46,6.46,0,0,0-2.6-1.37,21,21,0,0,1-2.83-.72v2.89q2.25-.93,4.45-2l-1.51-2.59A10.69,10.69,0,0,1,31.58,604l.79,2.9,2.57-1.09A1.55,1.55,0,0,0,36,604a1.5,1.5,0,0,0-1.85-1.05Z" transform="translate(-17.71 -24.98)"/><path d="M30.36,607.27c2.11,1.7,4.2,3.46,6.24,5.25a1.5,1.5,0,1,0,2.12-2.12q-3.06-2.7-6.24-5.25a1.63,1.63,0,0,0-1.06-.44,1.5,1.5,0,0,0-1.06,2.56Z" transform="translate(-17.71 -24.98)"/><path d="M35.34,611.4a87.87,87.87,0,0,1,8.75,11l1.29-2.26c.26.1.3.11.13,0l-.28-.19a2.85,2.85,0,0,1-.32-.27,8.29,8.29,0,0,1-.85-.93c-.46-.57-.84-1.19-1.25-1.8a24.8,24.8,0,0,0-3.37-4.07c-2.4-2.35-5.19-4.41-7-7.29-1-1.64-3.62-.13-2.59,1.51,2,3.26,5.13,5.54,7.8,8.24a28.92,28.92,0,0,1,3.28,4.2,13.29,13.29,0,0,0,1.77,2.18,4,4,0,0,0,2.67,1.41,1.51,1.51,0,0,0,1.3-2.25,90.94,90.94,0,0,0-9.22-11.56c-1.32-1.42-3.44.71-2.12,2.12Z" transform="translate(-17.71 -24.98)"/><path d="M45,622.14a1,1,0,0,1-.65.31h.8l-.11,0,.66.39c.16.13.07.12,0-.06l-.33-.49-.52-.78c-.4-.58-.81-1.16-1.23-1.72-.86-1.14-1.75-2.26-2.68-3.33a10.08,10.08,0,0,1-1.07-1.28c-.35-.56-.61-1.19-.95-1.76a11.38,11.38,0,0,0-1.28-1.73,5,5,0,0,1-1-1.18,1.53,1.53,0,0,0-1.84-1,1.5,1.5,0,0,0-1,1.84c.62,1.55,2,2.55,2.77,4a13.93,13.93,0,0,0,1.4,2.28c.56.67,1.15,1.3,1.71,2a47.35,47.35,0,0,1,3,4c.5.75.93,1.69,1.94,1.78a3.44,3.44,0,0,0,2.57-1.11c1.39-1.34-.73-3.46-2.12-2.12Z" transform="translate(-17.71 -24.98)"/><path d="M33.49,611a7.13,7.13,0,0,0,1.7,3.51c.82,1,1.49,2,2.33,3,1.53,1.72,3.33,3.21,4.44,5.24l2.59-1.52a23.28,23.28,0,0,0-2.1-2.73,1.52,1.52,0,0,0-2.13,0,1.54,1.54,0,0,0,0,2.12,14.45,14.45,0,0,1,1.83,2.5l2.59-1.52a12.34,12.34,0,0,0-1.39-1.84l-2.12,2.12c.51.54,1,1.1,1.44,1.67a1.51,1.51,0,0,0,2.13,0,1.55,1.55,0,0,0,0-2.12c-.46-.57-.94-1.13-1.45-1.67-1.32-1.41-3.42.7-2.12,2.12a7.38,7.38,0,0,1,.92,1.24,1.5,1.5,0,0,0,2.59-1.52,19.24,19.24,0,0,0-2.29-3.1l-2.13,2.12A16.09,16.09,0,0,1,42,622.73a1.5,1.5,0,0,0,2.59-1.52A28.92,28.92,0,0,0,40,615.79c-.79-.85-1.38-1.77-2.1-2.68a9.22,9.22,0,0,1-1-1.37,4.34,4.34,0,0,1-.49-1.54,1.52,1.52,0,0,0-1.85-1.05,1.54,1.54,0,0,0-1,1.85Z" transform="translate(-17.71 -24.98)"/><polygon class="cls-5" points="32.49 597 25.99 598.5 16.49 581 32.49 597"/><path class="cls-3" d="M196,425q3.19-4.45,6.7-8.67c1.07-1.28,2.12-2.59,3.29-3.78a6.93,6.93,0,0,1,3.62-2.21,1.5,1.5,0,1,0-.8-2.89c-3.53.68-5.88,3.94-8,6.53q-3.85,4.62-7.36,9.5A1.5,1.5,0,1,0,196,425Z" transform="translate(-17.71 -24.98)"/><path d="M184.5,434.32A50.41,50.41,0,0,1,189.69,424,19.9,19.9,0,0,1,193,420.4a14.08,14.08,0,0,1,2-1.47,11.56,11.56,0,0,1,1.09-.6,4.2,4.2,0,0,1,.94-.45l-.66-.38c-.09-.08-.07-.33-.16-.31a4.27,4.27,0,0,0-.14.59c-.12.45-.24.89-.38,1.32a23.5,23.5,0,0,1-.86,2.35,27,27,0,0,1-2.49,4.53c-1.09,1.6,1.51,3.11,2.59,1.51a29.55,29.55,0,0,0,3.47-7,9,9,0,0,0,.79-3.74,2.18,2.18,0,0,0-3.12-1.65c-4.66,1.74-8.15,5.66-10.56,9.89a74,74,0,0,0-3.92,8.54,1.51,1.51,0,0,0,1,1.85,1.54,1.54,0,0,0,1.84-1.05Z" transform="translate(-17.71 -24.98)"/><path class="cls-6" d="M239.7,407.48s6,0,6-1l6-2-8-8Z" transform="translate(-17.71 -24.98)"/><path class="cls-6" d="M245.79,394.79l7.63,7.19.46-9S245.89,394.1,245.79,394.79Z" transform="translate(-17.71 -24.98)"/><path class="cls-6" d="M245.7,391.68s8.36-2.14,8.18-1.67-1.18-7.53-1.18-7.53S245.7,389.87,245.7,391.68Z" transform="translate(-17.71 -24.98)"/><path class="cls-6" d="M239.7,410.48s10.58-1,12.79-3l-4.79,21Z" transform="translate(-17.71 -24.98)"/><polygon class="cls-6" points="214.99 400.5 227.99 407.5 217.99 428.5 214.99 400.5"/><polygon class="cls-6" points="202.2 421.56 213.99 435.5 204.99 447.5 202.2 421.56"/><path class="cls-6" d="M202.7,464.48l14,14-15.59,13.75s-.41-4.08.59-5.42,1.3-8.45,1.3-8.45l-.3-13.88" transform="translate(-17.71 -24.98)"/><path d="M217.58,301c2.8-.71,5.59-1.42,8.4-2,1.38-.3,2.75-.58,4.14-.83.69-.12,1.38-.24,2.07-.34l.79-.12.78-.1a53.13,53.13,0,0,1,8.27-.34c.76,0,1.51.09,2.27.16l.91.1c-.64-.08.13,0,.38.07a36.34,36.34,0,0,1,4.25,1,4.5,4.5,0,1,0,2.4-8.68c-12.27-3.57-25-.62-37.05,2.46a4.5,4.5,0,0,0,2.39,8.67Z" transform="translate(-17.71 -24.98)"/><path d="M271,310.6c6.92-.47,13.89-.93,20.82-.27l1.13.12s1.45.2.61.07c.82.13,1.64.26,2.45.42a46,46,0,0,1,5.05,1.27c3.56,1.13,7,3,10.9,2.49,2.32-.31,4.61-1.85,4.5-4.5-.1-2.18-2-4.83-4.5-4.5a12.59,12.59,0,0,1-1.36.09c-1.18,0,.56.21-.6-.06a21.1,21.1,0,0,1-2.43-.72c-1.66-.59-3.29-1.24-5-1.74a57.69,57.69,0,0,0-10.76-1.94c-6.93-.66-13.9-.2-20.82.27-2.35.16-4.62,1.95-4.5,4.5.1,2.3,2,4.67,4.5,4.5Z" transform="translate(-17.71 -24.98)"/><path class="cls-9" d="M212.46,341.32,238,336S222.05,309.14,212.46,341.32Z" transform="translate(-17.71 -24.98)"/><path class="cls-9" d="M272,335.19l28.37,6.35S290.38,304.27,272,335.19Z" transform="translate(-17.71 -24.98)"/></svg>
