<svg id="Layer_1" data-name="Layer 1" xmlns="http://www.w3.org/2000/svg" viewBox="0 0 567.41 616.91"><defs><style>.cls-1,.cls-4,.cls-5,.cls-6{fill:#fff;}.cls-1,.cls-3{stroke:#000;}.cls-1,.cls-3,.cls-5,.cls-6{stroke-miterlimit:10;}.cls-1{opacity:0.29;}.cls-2{fill:#8cc63f;}.cls-3{fill:#b3b3b3;}.cls-5,.cls-6{stroke:#fff;}.cls-6{stroke-width:0.25px;}.cls-7{fill:#e4ffb4;}</style></defs><path class="cls-1" d="M246.44,230.72c1.16.64,2.36,1.18,3.49,1.86a1.53,1.53,0,0,1,.54,2,1.32,1.32,0,0,1-.32.38c.75.23,1.51.45,2.26.69a1.62,1.62,0,0,1,1,1c2.12.43,4.24.88,6.36,1.37-.43-1.05-.85-2.11-1.25-3.16a1.48,1.48,0,0,1-2.43-.68c-.65-2.37-1.16-4.78-1.65-7.18a1.62,1.62,0,0,1-.46-.71c-1.06-3-1.62-6.21-2.43-9.32a1.52,1.52,0,0,1-.7-.6c-.52-.83-1-1.68-1.55-2.52-.16.89-.36,1.79-.6,2.66a1.43,1.43,0,0,1-1,1,1.49,1.49,0,0,1-1,1.1,1.57,1.57,0,0,1-1.16-.15l0,0a28.5,28.5,0,0,0,1,4.06,1.52,1.52,0,0,1-1,1.84,1.13,1.13,0,0,1-.51,0,24.13,24.13,0,0,1-.37,3.52l.3,1.74C245.4,230.07,245.91,230.42,246.44,230.72Z" transform="translate(-46.18 -24.15)"/><path class="cls-1" d="M261.28,241.56q-3.42-.85-6.89-1.57a1.22,1.22,0,0,1-.77.22c-2.66-.23-5.33-.28-8-.39a1.88,1.88,0,0,1,0,.53,1.34,1.34,0,0,1,.37.38,33.48,33.48,0,0,0,8.79,1.52c2.33.19,4.64.26,7,.33C261.6,242.24,261.44,241.9,261.28,241.56Z" transform="translate(-46.18 -24.15)"/><path class="cls-2" d="M613.17,35.65c-8-24-31-3-31-3,6,14-110,99-123,123-6.41,11.85-50.14,43.14-94,68.45a1.51,1.51,0,0,1-.75.52l-1.1.37c-1.49,1-3,2-4.54,2.93a1.14,1.14,0,0,1-.43.14,1.29,1.29,0,0,1-.5.18c-.36.21-.74.41-1.12.61a1.16,1.16,0,0,1-.2.24,1.66,1.66,0,0,1-.23.31l-.31.23a1.52,1.52,0,0,1-.59.19l-.06.24v.19a.51.51,0,0,1-.5.5.5.5,0,0,1-.5-.5h0a.54.54,0,0,1-.19-.49c-2.95,1.43-5.81,3-8.68,4.6a1.4,1.4,0,0,1-1.62-.13c-.42.4-.82.81-1.24,1.2-1.41,1.31-3.54-.8-2.13-2.11a1.3,1.3,0,0,1,.34-1.56l4.86-4.53a1.47,1.47,0,0,1-.8-.41,1.51,1.51,0,0,1,0-2.12c1.61-1.47,3.29-2.87,5-4.3-.48.2-1,.4-1.44.58a41.78,41.78,0,0,1-7.38,2c-1.42,6.66-2.89,12.73-4.93,13.86-20,11.06-37.78,20.38-48.87,25.78-7.6,3.7-11-2-11-2-5.32-3.64-9.53-9.48-12.92-16-3.29-.07-6.52-.22-9.81-.49a34.87,34.87,0,0,1-9.14-1.87l-.58-.06a1.14,1.14,0,0,1-.33.36,1.22,1.22,0,0,1-.32.2h0a3,3,0,0,1,0,.52c0,.18,0,.37-.07.56a1.54,1.54,0,0,1-.05.17c0,.06,0,.11-.07.17a1.45,1.45,0,0,1,.18.35c.84,2.36,1.55,4.76,2.23,7.17a1.49,1.49,0,0,1-.55,1.58v.32a14.19,14.19,0,0,0,.13,2.18,1.84,1.84,0,0,1,.54.5c2,2.84,1.76,6.55,2.82,9.75a1.32,1.32,0,0,1-.13,1.1l.06.08a1.63,1.63,0,0,1,1.07,1.44v.11a.64.64,0,0,1,0,.07c0,.11.05.23.09.35a5.44,5.44,0,0,0,.23.68v0l0,.1.13.26c.1.23.21.45.32.67a9.84,9.84,0,0,1,.9,2.59.79.79,0,0,1,0,.09,35.17,35.17,0,0,0,1.86,3.93c.61,1.23,1,2.53,1.55,3.79.91,2.12,2.26,4.81.9,7.06a7.67,7.67,0,0,1-2.42,2c-1,.69-.85,1.71-1.08,2.77-.52,2.46-2.22,4.46-2.71,7h0a1.54,1.54,0,0,1,.23,1.64,5.09,5.09,0,0,1-.47,1.46,8.66,8.66,0,0,1-.76,1.17,1.27,1.27,0,0,1,.06.28,4.27,4.27,0,0,1-.56,2.18,7.15,7.15,0,0,1-.5.84.72.72,0,0,1-.05.21,13.53,13.53,0,0,1-1,1.9l0,.06c0,.12,0,.24,0,.36a1.5,1.5,0,0,1-.16,1.1,3.37,3.37,0,0,0-.19.32,1.34,1.34,0,0,1,.12.3,1.11,1.11,0,0,1,0,.6,1.09,1.09,0,0,1-.18.55,5.63,5.63,0,0,1-.71,1c-.18.22-.38.44-.58.66l-.05,0L244,315h0a1,1,0,0,1-.33.14h-.07a1.07,1.07,0,0,1-.25,0h0a18,18,0,0,1-2.3,1.86,1.54,1.54,0,0,1-1,.17c-.58.45-1.19.86-1.79,1.26l-.92.61-.45.31-.2.14,0,0,0,0a3.4,3.4,0,0,0-.47.38l-.49.39-.09.07c-1.08,1.55-2.18,3.08-3.29,4.61a1.49,1.49,0,0,1-.07.54c-.79,2.44-1.86,4.78-2.7,7.2l-.09.26a1.71,1.71,0,0,1,.07.87c-.27,1.28-.67,2.51-1,3.75a.64.64,0,0,1,0,.07,1.34,1.34,0,0,1,.89,1.34,30.5,30.5,0,0,0,.75,6.24,14.66,14.66,0,0,1,.38,3.43,16,16,0,0,0-.07,2.93v.07a1.47,1.47,0,0,1,.16.72c0,.94-.08,1.87-.14,2.81a1.63,1.63,0,0,1,.68.17,1.5,1.5,0,0,1,.58,1.91v.06c.06-.1,0,0,0,0v.15c0,.17,0,.34,0,.52s0,.66.06,1c.06.73.17,1.45.24,2.17a8.36,8.36,0,0,1-.5,4.67l0,0a21.14,21.14,0,0,1-1,4.29,14.46,14.46,0,0,1-1.26,2.81,20.58,20.58,0,0,0-1.45,2.37,1.3,1.3,0,0,1-1,.7l0,.05c-3,3.05-6.22,6.35-7.78,10.42-1.34,3.51-3.85,6.06-6.12,9-1.22,1.57-2.33,3.24-3.62,4.75s-2.62,2.82-3.86,4.3a35.46,35.46,0,0,0-3.41,4.66,16.79,16.79,0,0,1-3,4,24.87,24.87,0,0,0-3.68,3.57c-.5.72-.74,1.59-1.23,2.32a19.48,19.48,0,0,1-1.54,1.86,1.6,1.6,0,0,1-.35.3C185.87,431.82,155,462.15,155,462.15c-77.17,72.5-64.84,108.5-93.84,115.5s-7,21-7,21l19,26c-8,25,33,14,33,14,15,13,131.5-74.5,120-75-5.09-.22,26-50,34-51s51-48,51-48l0,0a14.53,14.53,0,0,1,1.07-2.21,12.49,12.49,0,0,1,.85-1.17c.25-.5.5-1,.74-1.54,1.32-2.93,2.31-6.23,3.52-9.23,0-.06.05-.12.07-.17-.34-3.39,1.39-8.07,1.91-10.36,1-4.27,1.83-8.32,2.51-12.65a17,17,0,0,1,1.36-4.79,13.52,13.52,0,0,1,.16-2.28,24.09,24.09,0,0,1,.5-3.58,11.2,11.2,0,0,0,.63-2.4,3,3,0,0,1,.28-1.29.65.65,0,0,1,0-.24,2.29,2.29,0,0,1,.09-.28.71.71,0,0,1,0-.21,6.27,6.27,0,0,1,.19-1.3c.07-.47.05-1,.1-1.42a15.94,15.94,0,0,1,.49-2.91.89.89,0,0,1,.63-.63s0,0,.05-.07l.15-.17.32-.49a0,0,0,0,0,0,0A.58.58,0,0,1,327,405a.55.55,0,0,1,.38-.05.58.58,0,0,1,.3.23,1.62,1.62,0,0,1,.1.18,1.43,1.43,0,0,1,.08.22.58.58,0,0,1,0,.14l.06.13a.38.38,0,0,1,.06.23.63.63,0,0,1,.12.23c.15.38.22.79.38,1.17l-.1-.24v0a1,1,0,0,1,.13.45l0,.09a2.11,2.11,0,0,1,.05.35v.05a1,1,0,0,1,.14.45c0,.35.23.67.25,1,0,0,0,.05,0,.07.2.5.48,1,.72,1.46a20.35,20.35,0,0,0,1.26,2.46c.52.76,1,1.56,1.57,2.3a15.06,15.06,0,0,0,1.33,2.11.94.94,0,0,1,.25.42c2.41,2.05,4.92,4.53,5.77,7.51.68.74,1.35,1.48,2,2.27a3.54,3.54,0,0,1,.61,1.12,18.67,18.67,0,0,1,1.45,2.1c1.48,1.1,3.26,2.71,3.66,4.62,2.54,2.66,5.1,5.27,7.4,8.2l.05,0h0c.16.2.32.39.48.6a2.73,2.73,0,0,1,.39.73,17.73,17.73,0,0,1,2.55,2.5,2.52,2.52,0,0,1,.33.54c.63.49,1.25,1,1.87,1.5a88.43,88.43,0,0,1,1.55,1.21l.22.21c.29.24.57.47.87.7a3.29,3.29,0,0,1,.52.54,35.29,35.29,0,0,1,3.54,2.82,6.87,6.87,0,0,1,1.21,1.43c1.12.57,2.24,1.1,3.08,1.63a27,27,0,0,1,7,5.77l.21.13c1.08.6,2.23,1.16,3.35,1.7a152.07,152.07,0,0,0,15.15-17.65c7.23-10,14.43-20,21.1-30.37,5.71-8.85,11.29-18.1,14.67-28.13a64.66,64.66,0,0,1-17-18.6c-8-13.19-13.14-45.67-20-59-18-35,109-148,109-148C512.17,156.65,621.17,59.65,613.17,35.65Z" transform="translate(-46.18 -24.15)"/><path d="M64.9,604.56c11.14-1.69,22.21-4.95,31.93-10.77s17.34-13.95,24.2-22.65c12.6-16,22.18-34.09,33.93-50.7a138.6,138.6,0,0,1,19.62-22.74c8.47-7.69,18.36-13.41,28.2-19.16,9.39-5.48,18.51-11.25,26.78-18.35a139.75,139.75,0,0,0,21.06-22.62,137.64,137.64,0,0,0,15.43-26.34c2-4.57,3.68-9.27,5.44-14,1.61-4.3,3.45-8.76,6.53-12.25a17.22,17.22,0,0,1,5.12-4l-2.2-.9c2.45,9.65,1.37,19.94-.41,29.61a128.84,128.84,0,0,1-7.19,24.79,132.46,132.46,0,0,1-27.82,42.78A126.84,126.84,0,0,1,223,495.69c-1.62,1-.12,3.64,1.51,2.59A134.31,134.31,0,0,0,283,413c2.23-10.93,3.66-22.69.88-33.64a1.51,1.51,0,0,0-2.2-.9c-8.61,4.42-11.7,14.37-14.78,22.84a135.29,135.29,0,0,1-13.61,27.29,139.19,139.19,0,0,1-44.63,43c-9.83,6-20.12,11.34-29.32,18.33A116.52,116.52,0,0,0,158,511.43c-12.48,16-22,34-33.76,50.5-6.22,8.73-13.1,17.26-21.45,24.06-8.82,7.2-19.46,11.63-30.5,14.15-2.69.61-5.41,1.11-8.14,1.53-1.9.29-1.1,3.18.8,2.89Z" transform="translate(-46.18 -24.15)"/><path d="M219.43,498.11c-10.76,5.67-21.9,11.6-30.15,20.75-4.46,4.95-7.31,10.75-10.61,16.46-3.46,6-7.9,11.32-12.33,16.63s-8.61,10.85-12.65,16.51a146.76,146.76,0,0,1-12.46,15.68,120.23,120.23,0,0,1-28.72,22.17,153,153,0,0,1-38.56,15c-1.88.46-1.08,3.36.79,2.9,23.83-5.84,46.85-16.85,64.67-33.95A116.43,116.43,0,0,0,151.9,576c4.24-5.66,8.14-11.57,12.57-17.09,4.29-5.35,8.89-10.45,12.88-16s6.77-12.2,10.81-17.89c8-11.3,20.82-18,32.79-24.3,1.7-.9.19-3.49-1.52-2.59Z" transform="translate(-46.18 -24.15)"/><path d="M222.84,495.89a3.82,3.82,0,0,1-.58.56l.3-.23a7.06,7.06,0,0,1-1.27.75c-.21.11-.44.19-.64.31a2.48,2.48,0,0,0-.51.41,1.67,1.67,0,0,1-.23.23l.31-.23-.1.05.35-.15-.07,0a1.5,1.5,0,0,0-1.05,1.85,1.5,1.5,0,0,0,.69.89,1.66,1.66,0,0,0,1.16.16,2,2,0,0,0,.48-.2,2.73,2.73,0,0,0,.43-.33,3.83,3.83,0,0,1,.28-.29l-.3.24a4.34,4.34,0,0,1,.71-.37c.23-.11.46-.23.68-.36A5.62,5.62,0,0,0,225,498a1.63,1.63,0,0,0,.44-1.06,1.59,1.59,0,0,0-.44-1.07,1.51,1.51,0,0,0-1.06-.43,1.43,1.43,0,0,0-1.06.43Z" transform="translate(-46.18 -24.15)"/><path d="M296.59,329.2c4.7-6.63,11.46-13.76,20.4-12.5,8.6,1.21,14.42,8.43,18.08,15.72a3,3,0,1,0,5.18-3c-3.48-6.95-8.66-13.5-15.93-16.7A22.68,22.68,0,0,0,312,310.8,23.57,23.57,0,0,0,301,315.66a47.12,47.12,0,0,0-9.55,10.52,3,3,0,0,0,1.08,4.1,3.06,3.06,0,0,0,4.1-1.08Z" transform="translate(-46.18 -24.15)"/><path d="M276.23,326.28a34.19,34.19,0,0,1-3.14-5.5,16.09,16.09,0,0,0-4.85-5.61c-4.05-2.82-9.68-3.36-14.47-2.95-9.86.86-19.21,6.41-23.41,15.6a28.18,28.18,0,0,0-2.15,15.07c.58,5.67,1.46,11.31,2.16,17a21.8,21.8,0,0,1,.09,7.34c-.58,2.51-2.22,4.62-3.61,6.74q-4.68,7.15-9.35,14.3a129.88,129.88,0,0,1-10.69,14.42c-4.17,4.78-8.53,9.39-12.82,14.06a3,3,0,1,0,4.24,4.24c7.31-7.95,15-15.71,21.09-24.64,3.06-4.45,6-9,8.91-13.54l4.62-7.06a21.27,21.27,0,0,0,3.44-7.14c1.07-5.08-.14-10.43-.8-15.5-.69-5.36-1.87-10.93-1.46-16.35.62-8.33,7.25-15.3,15.18-17.61,4.44-1.29,10-1.69,14.29.24A9.57,9.57,0,0,1,268,324a39.79,39.79,0,0,0,4,6.55,3,3,0,0,0,4.24,0,3.08,3.08,0,0,0,0-4.25Z" transform="translate(-46.18 -24.15)"/><path d="M247.9,342.3a15.35,15.35,0,0,1,5.54-5.14,3.41,3.41,0,0,1,3.44-.31c1.37.69,2.74,1.42,4.1,2.12,1.72.89,3.24-1.7,1.52-2.59s-3.14-1.72-4.76-2.43a6.14,6.14,0,0,0-5.33.37,18.13,18.13,0,0,0-7.1,6.47c-1.05,1.62,1.54,3.13,2.59,1.51Z" transform="translate(-46.18 -24.15)"/><path d="M307.64,339.11c1.05-2.24,3.41-3.22,5.75-3.53a2.07,2.07,0,0,1,1.45.19,8.11,8.11,0,0,1,1.37.94,9.7,9.7,0,0,1,2.28,2.9c.9,1.72,3.49.2,2.59-1.51a11.83,11.83,0,0,0-3-3.71c-1.39-1.13-2.84-2-4.7-1.81-3.32.38-6.83,1.8-8.34,5a1.56,1.56,0,0,0,.54,2.06,1.51,1.51,0,0,0,2.05-.54Z" transform="translate(-46.18 -24.15)"/><path d="M242.67,243.65a33.65,33.65,0,0,0,1.35,8.46c.8,3.07,1.41,6.18,2.23,9.24a156.94,156.94,0,0,0,5.91,17.4c1.09,2.73,2.22,5.44,3.35,8.15l1.83,4.35c.53,1.26,1.12,2.45,2.69,2.48,2.68,0,5.36-1.92,7.26-3.6,2.42-2.14,4.58-4.61,6.81-6.94l8.15-8.49c2.58-2.7,5.4-5.3,7.51-8.4,1.09-1.6-1.51-3.1-2.59-1.51a55.46,55.46,0,0,1-6.19,6.9l-6.46,6.72c-2.26,2.36-4.52,4.73-6.79,7.08-1.71,1.79-3.51,3.69-5.81,4.71a8.09,8.09,0,0,1-1.55.56c-.25-.08-.62-1.45-.72-1.7L258,285.12c-1.05-2.51-2.1-5-3.1-7.55a159.26,159.26,0,0,1-5.4-15.72c-.91-3.23-1.56-6.51-2.39-9.76a34.54,34.54,0,0,1-1.44-8.44,1.5,1.5,0,0,0-3,0Z" transform="translate(-46.18 -24.15)"/><path d="M313.34,279.18c15-7.77,20.76-24.66,25.84-39.62.62-1.83-2.28-2.61-2.9-.79-4.82,14.21-10.19,30.43-24.46,37.82-1.71.89-.2,3.48,1.52,2.59Z" transform="translate(-46.18 -24.15)"/><path d="M313.5,279.63c5.62,5,13,7.29,20.35,8.48,1.78.29,3.53.76,5.26.13a28.14,28.14,0,0,0,4-1.81,25.26,25.26,0,0,0,6.32-4.95c7.62-8.26,9.27-20.37,9.09-31.17a115.09,115.09,0,0,0-2-18.87c-.35-1.89-3.25-1.09-2.9.8,1.88,10.17,2.87,20.95.94,31.18a34.64,34.64,0,0,1-5.43,13.71,22.25,22.25,0,0,1-5,5.11,24,24,0,0,1-3.17,1.94,9.66,9.66,0,0,1-3.69,1.42,28.91,28.91,0,0,1-5.74-1,52.82,52.82,0,0,1-5.56-1.46,28.66,28.66,0,0,1-10.38-5.69c-1.43-1.28-3.56.83-2.12,2.13Z" transform="translate(-46.18 -24.15)"/><path d="M306.2,283.49c3.39-2.24,7.52-5,11.8-3.81,1.95.52,3.27,2.09,5.05,2.94a26.24,26.24,0,0,0,6.17,1.69c4,.82,8.16,1.45,11.92,3.12a22.13,22.13,0,0,1,5.41,3.51c1.5,1.32,3.23,2.7,4.08,4.55s3.4.23,2.59-1.51a12.8,12.8,0,0,0-3.11-3.84,34,34,0,0,0-4.31-3.55,29.12,29.12,0,0,0-9.71-3.91c-3.53-.84-7.2-1.24-10.66-2.34-1.78-.56-3-1.9-4.62-2.75a10.28,10.28,0,0,0-4.77-1.16c-4.23,0-7.94,2.22-11.35,4.47-1.61,1.06-.11,3.66,1.51,2.59Z" transform="translate(-46.18 -24.15)"/><path d="M258,301a13.49,13.49,0,0,1,5.61-8.67,65.71,65.71,0,0,0,7.54-6.61,24.83,24.83,0,0,1,4-3.67,28.49,28.49,0,0,0,4.35-3.46c2.6-2.7,4.68-5.95,6.93-8.94a7.34,7.34,0,0,1,4.52-3.22,19.47,19.47,0,0,1,5.55,0c1.92.16,1.91-2.84,0-3-3.43-.29-7.21-.4-10.07,1.84a21.82,21.82,0,0,0-3.73,4.44c-1.24,1.67-2.45,3.38-3.76,5a20.36,20.36,0,0,1-4.23,4.06,30,30,0,0,0-4.65,3.76c-1.32,1.37-2.55,2.84-4,4.1s-2.75,2.17-4.13,3.26a22.13,22.13,0,0,0-4.08,4,19.28,19.28,0,0,0-2.75,6.34,1.5,1.5,0,0,0,2.89.8Z" transform="translate(-46.18 -24.15)"/><path d="M314.32,460.53c7-18.86,9-39,12.42-58.71l-1.84,1.05c-.32-.08-.38-.56-.39-.27,0-.19,0,.32,0,.55a6.37,6.37,0,0,1-.33,1.58c-.08.27-.21.11-.15.36s-.06.09,0,0c.47-.7,1.25-.54,2.32.46.1-.14,0,.27,0,0,.14-1.22.16-2.45.35-3.68l-1.84,1.05c2,.69,2.84,3.15,3.4,5,.35,1.12.62,2.25.9,3.39a13.41,13.41,0,0,0,1.93,3.59,45.51,45.51,0,0,0,4.89,7c2,2.19,3.5,4.88,5.25,7.25a159.62,159.62,0,0,0,23.2,25.39,163.64,163.64,0,0,0,15,11.7c1.6,1.1,3.1-1.5,1.52-2.59a156.08,156.08,0,0,1-37.17-36c-.86-1.16-1.7-2.34-2.53-3.52a39.3,39.3,0,0,0-2.76-3.87,47.86,47.86,0,0,1-5.05-7.16c-.37-.59-.78-1.17-1.11-1.78a7.11,7.11,0,0,1-.57-1.76,32.89,32.89,0,0,0-1.21-4c-.95-2.43-2.37-4.58-4.93-5.46a1.51,1.51,0,0,0-1.85,1c-.24,1.57-.86,3.76-.32,5.35s2.51,1.38,3.22,0c.92-1.76,1.58-5.77-1.05-6.41a1.52,1.52,0,0,0-1.85,1c-3.41,19.69-5.44,39.84-12.42,58.71-.68,1.81,2.22,2.59,2.89.79Z" transform="translate(-46.18 -24.15)"/><path d="M248.38,299.32a4.26,4.26,0,0,1,.13,3,21.39,21.39,0,0,1-1.47,3.58c-1.37,2.81-2.7,5.67-2.74,8.86a1.5,1.5,0,0,0,3,0c0-3,1.54-5.65,2.78-8.29,1.16-2.46,2.3-5.3,1.2-8a1.56,1.56,0,0,0-1.85-1,1.51,1.51,0,0,0-1.05,1.85Z" transform="translate(-46.18 -24.15)"/><path d="M251.32,300.54c1.11-4.14,2.34-8.56,6-11.16a1.54,1.54,0,0,0,.54-2.05,1.53,1.53,0,0,0-2.06-.54,15.27,15.27,0,0,0-5,5.85,39.43,39.43,0,0,0-2.44,7.1,1.51,1.51,0,0,0,2.9.8Z" transform="translate(-46.18 -24.15)"/><path d="M64.45,605.69c4.3,5.41,10.82,8.66,14.68,14.44.65,1,2.51,1,2.75-.36q1.61-9.25,3.55-18.45l-2.51.66q5.91,4.9,12,9.56a119.46,119.46,0,0,0,12.46,8.61,1.51,1.51,0,0,0,2.25-1.3c-.12-5.26-2.69-10.09-2.39-15.39.15-2.68.71-5.33.73-8a41.22,41.22,0,0,0-1.08-8.41c-.37-1.9-3.26-1.09-2.89.79a36.3,36.3,0,0,1,1,8.1c-.07,2.68-.64,5.32-.74,8-.2,5.15,2.3,9.83,2.41,14.92l2.26-1.29c-8.54-4.95-16.29-11.42-23.87-17.7a1.52,1.52,0,0,0-2.51.66Q80.6,609.71,79,619l2.74-.36c-4-6-10.68-9.42-15.14-15-1.2-1.52-3.31.62-2.13,2.12Z" transform="translate(-46.18 -24.15)"/><path d="M105.31,586.52A199.58,199.58,0,0,0,127.19,607a1.52,1.52,0,0,0,2.56-1.06A120.78,120.78,0,0,0,125.93,563a1.51,1.51,0,0,0-2.9.8,118.15,118.15,0,0,1,3.72,42.14l2.56-1.06a199.58,199.58,0,0,1-21.88-20.45c-1.31-1.42-3.43.7-2.12,2.12Z" transform="translate(-46.18 -24.15)"/><path d="M124.67,565.27q10.65,11,21.68,21.54c1.4,1.34,3.52-.78,2.12-2.12q-11-10.58-21.68-21.54c-1.35-1.39-3.47.74-2.12,2.12Z" transform="translate(-46.18 -24.15)"/><path d="M148.79,586.14a32.67,32.67,0,0,0,.36-11.58c-.29-2-.78-3.9-1.12-5.86a54.5,54.5,0,0,1-.51-6.12c-.45-8.13-1.93-16.22-3.06-24.28-.26-1.9-3.15-1.09-2.89.8,1.09,7.79,2.51,15.62,3,23.48.11,1.92.16,3.83.43,5.74s.72,3.75,1.07,5.62a29.35,29.35,0,0,1-.12,11.4c-.39,1.89,2.5,2.69,2.89.8Z" transform="translate(-46.18 -24.15)"/><path d="M141.74,539.09a249.9,249.9,0,0,1,19.41,24.35c1.1,1.57,3.7.07,2.59-1.52A255.2,255.2,0,0,0,143.86,537c-1.3-1.44-3.41.69-2.12,2.12Z" transform="translate(-46.18 -24.15)"/><path d="M164,562.41c-.41-2.21,0-4.44.18-6.65a31.39,31.39,0,0,0-.35-6.2c-.52-4.35-.18-8.66-.41-13s-1.23-8.37-1.56-12.59a28.1,28.1,0,0,1,.22-6.35,22.58,22.58,0,0,0,.43-6.45,1.54,1.54,0,0,0-1.5-1.5,1.51,1.51,0,0,0-1.5,1.5,23.87,23.87,0,0,1-.46,6.58,29.07,29.07,0,0,0-.17,6.46c.36,4.29,1.39,8.5,1.56,12.82s-.1,8.66.45,13a29.76,29.76,0,0,1,.2,6.67,23.51,23.51,0,0,0,0,6.49c.35,1.9,3.25,1.1,2.9-.79Z" transform="translate(-46.18 -24.15)"/><path d="M159.54,512.17q11,10.55,21.2,21.88a1.52,1.52,0,0,0,2.51-.66c1-3.23.59-6.53.26-9.83-.35-3.5-.24-7-.37-10.52a54.3,54.3,0,0,0-1.56-10.22,22.47,22.47,0,0,1-.32-10.15c.45-1.88-2.45-2.68-2.89-.8a24.25,24.25,0,0,0-.05,9.93c.62,3.47,1.6,6.74,1.78,10.29s0,7,.33,10.56c.28,3.32,1,6.69-.07,9.94l2.5-.66q-10.19-11.34-21.2-21.88c-1.39-1.33-3.52.78-2.12,2.12Z" transform="translate(-46.18 -24.15)"/><path d="M179.63,494a260,260,0,0,0,27.13,20.54c1.62,1.07,3.12-1.53,1.52-2.59a251.18,251.18,0,0,1-26.52-20.08c-1.46-1.25-3.59.86-2.13,2.13Z" transform="translate(-46.18 -24.15)"/><path d="M209,512.84c-.64-3.16-.06-6.37.5-9.5a57.16,57.16,0,0,0,1-9.22c.12-6.37-.7-12.74-1.28-19.07-.17-1.91-3.17-1.93-3,0,.59,6.48,1.45,13,1.27,19.55-.16,6.34-2.68,12.7-1.4,19,.39,1.89,3.28,1.09,2.9-.8Z" transform="translate(-46.18 -24.15)"/><path d="M207.21,476.5q9.36,9.75,19.35,18.87a1.52,1.52,0,0,0,2.51-.66c.62-2.84.26-5.77,1-8.58a31,31,0,0,0,1.3-8.17,170.93,170.93,0,0,0-.94-17.81c-.2-1.9-3.2-1.92-3,0,.58,5.77.92,11.56.94,17.35a26.88,26.88,0,0,1-.19,3.91,33.82,33.82,0,0,1-1,3.93c-.76,2.82-.39,5.74-1,8.57l2.5-.66q-10-9.12-19.35-18.87c-1.34-1.39-3.46.73-2.12,2.12Z" transform="translate(-46.18 -24.15)"/><path d="M227.74,461.08l5,4.12a45.17,45.17,0,0,1,4.51,4c1.31,1.43,2.39,3.07,3.65,4.55s2.93,3.11,4.46,4.58,3.52-.78,2.13-2.12-3-2.88-4.36-4.45-2.41-3.21-3.76-4.68a42.66,42.66,0,0,0-4.38-3.9L229.86,459a1.55,1.55,0,0,0-2.12,0,1.51,1.51,0,0,0,0,2.12Z" transform="translate(-46.18 -24.15)"/><path d="M245.19,442.93c.06,5.22,1,10.36,1.69,15.52.36,2.56.65,5.13.94,7.7s.71,5.18.07,7.71c-.47,1.88,2.42,2.68,2.89.8a21.1,21.1,0,0,0,.14-7.56c-.3-2.7-.6-5.4-1-8.1-.72-5.34-1.71-10.66-1.77-16.07,0-1.93-3-1.93-3,0Z" transform="translate(-46.18 -24.15)"/><path d="M248.4,442.37v-1.11a1.29,1.29,0,0,0-.13-.58,1.24,1.24,0,0,0-.31-.48,1.72,1.72,0,0,0-1.06-.44l-.4.06a1.45,1.45,0,0,0-.66.38l-.24.3a1.57,1.57,0,0,0-.2.76v1.11a1.06,1.06,0,0,0,.13.58,1.36,1.36,0,0,0,.79.79,1.06,1.06,0,0,0,.58.13l.4-.05a1.49,1.49,0,0,0,.66-.39l.23-.3a1.45,1.45,0,0,0,.21-.76Z" transform="translate(-46.18 -24.15)"/><path d="M246.07,443.42a47.15,47.15,0,0,0,3.59,3.48,37.89,37.89,0,0,1,3.17,4q3.34,4.42,7.11,8.5c1.32,1.42,3.43-.71,2.12-2.12a103.27,103.27,0,0,1-7-8.37,38.79,38.79,0,0,0-3.2-4c-1.2-1.22-2.58-2.25-3.67-3.58a1.52,1.52,0,0,0-2.13,0,1.54,1.54,0,0,0,0,2.12Z" transform="translate(-46.18 -24.15)"/><path d="M258.28,423.55c1.18,5.54.79,11.29,1.46,16.89s1.76,11.25,1.86,17c0,1.92,3,1.93,3,0-.1-5.87-1.26-11.62-1.92-17.44s-.3-11.55-1.51-17.2c-.4-1.89-3.29-1.09-2.89.79Z" transform="translate(-46.18 -24.15)"/><path d="M259.07,422.91a53.78,53.78,0,0,0,15.68,9,1.52,1.52,0,0,0,1.85-1.85c-1.31-3.77-2.47-7.64-4-11.33-1.34-3.2-3.78-6.19-4.25-9.69a1.54,1.54,0,0,0-1.5-1.5,1.51,1.51,0,0,0-1.5,1.5c.51,3.77,2.64,6.76,4.19,10.14a123.81,123.81,0,0,1,4.17,11.68l1.85-1.84a49.47,49.47,0,0,1-14.35-8.25c-1.48-1.22-3.62.89-2.13,2.12Z" transform="translate(-46.18 -24.15)"/><path d="M267,409c5.5,1.46,10.4-1.7,15.63-2.75a1.5,1.5,0,1,0-.8-2.89c-4.57.91-9.25,4-14,2.74a1.51,1.51,0,0,0-.8,2.9Z" transform="translate(-46.18 -24.15)"/><path d="M283.11,401.85a27.25,27.25,0,0,1-5.18-4.36,41.15,41.15,0,0,0-5.39-4.82,1.51,1.51,0,0,0-2.05.53,1.54,1.54,0,0,0,.54,2.06,24.32,24.32,0,0,1,2.55,2.14c.84.8,1.65,1.63,2.47,2.45a28.72,28.72,0,0,0,5.55,4.59,1.5,1.5,0,0,0,1.51-2.59Z" transform="translate(-46.18 -24.15)"/><path d="M273.25,394.38a34.62,34.62,0,0,1,9.17-2.24,1.54,1.54,0,0,0,1.5-1.5,1.51,1.51,0,0,0-1.5-1.5,36.39,36.39,0,0,0-10,2.34,1.54,1.54,0,0,0-1,1.85,1.52,1.52,0,0,0,1.84,1.05Z" transform="translate(-46.18 -24.15)"/><path class="cls-3" d="M272.17,189.65" transform="translate(-46.18 -24.15)"/><path class="cls-4" d="M311.17,277.65s18.12-9.74,25.56-40.37,9.67-27.07,10.06-32.35,19.61,54.28-1,82c0,0-17.33-1.28-19-2.78,0,0-12.65-4.5-13.65-5.5Z" transform="translate(-46.18 -24.15)"/><path class="cls-4" d="M260.17,292.65s26-25,26-27c0,0-13.46-.2-23.73-21.6s-13.27-37.4-13.27-37.4S233.17,239.65,260.17,292.65Z" transform="translate(-46.18 -24.15)"/><polygon class="cls-5" points="20.99 580.5 35.99 576.5 33.99 595.5 20.99 580.5"/><path class="cls-5" d="M84.17,599.65l22.2,16.46s-3.2-13.46-2.2-13.46,1-14,0-14S84.17,599.65,84.17,599.65Z" transform="translate(-46.18 -24.15)"/><path class="cls-5" d="M108.15,585.25l19,17.87s1-27.47-3-35.47Z" transform="translate(-46.18 -24.15)"/><polygon class="cls-5" points="80.83 539.23 100.99 560.5 95.99 516.5 80.83 539.23"/><path class="cls-5" d="M161.46,559.65,144,537l15.22-22.33s.08,16.33,1,18.67S161.46,559.65,161.46,559.65Z" transform="translate(-46.18 -24.15)"/><path class="cls-5" d="M180.69,529.93l-18.25-19.22s14.73-17.06,15.73-16.06S180.69,529.93,180.69,529.93Z" transform="translate(-46.18 -24.15)"/><path class="cls-5" d="M182.17,491.65l24,19s.69-13.83,1.35-16.92-1.35-17.08-1.35-17.08Z" transform="translate(-46.18 -24.15)"/><path class="cls-5" d="M209.17,474.65l18,17s-.42-5,0-5.87c1-2.13,1.11-23.78,0-24.13Z" transform="translate(-46.18 -24.15)"/><path class="cls-5" d="M230.17,459.65,248,477.23s.2-11.58-.34-13-2.46-19.63-2.46-19.63Z" transform="translate(-46.18 -24.15)"/><polygon class="cls-4" points="212.49 401 201.49 417 215.49 433 212.49 401"/><path class="cls-4" d="M273.67,429.15,261,420.9l4.67-9.75S274.67,428.15,273.67,429.15Z" transform="translate(-46.18 -24.15)"/><path class="cls-4" d="M225.26,494.14l-15.59-15s0,24.22-.5,24.61S225.84,495.14,225.26,494.14Z" transform="translate(-46.18 -24.15)"/><path class="cls-6" d="M180.67,494.15l21,15.47S184,524.05,184,527.14,180.67,494.15,180.67,494.15Z" transform="translate(-46.18 -24.15)"/><path class="cls-4" d="M180.67,495" transform="translate(-46.18 -24.15)"/><path class="cls-6" d="M162.44,515l18.23,18.17-17,22s-1-31-2-32S162.44,515,162.44,515Z" transform="translate(-46.18 -24.15)"/><polygon class="cls-6" points="98.49 518 113.49 537 102.49 551 98.49 518"/><path class="cls-6" d="M142.67,583.15l-15.42-15.5s4.42,27.5,2.42,27.5Z" transform="translate(-46.18 -24.15)"/><path class="cls-6" d="M107.13,588.65l13.54,12.5-13,8s-1.08-7.92-.54-7.46S107.13,588.65,107.13,588.65Z" transform="translate(-46.18 -24.15)"/><polygon class="cls-6" points="38.53 579.25 52.49 590 35.91 595.22 38.53 579.25"/><path class="cls-7" d="M220,384.36c.42-.58.83-1.15,1.22-1.71.63-.87,1.2-1.69,1.75-2.49A26.4,26.4,0,0,0,220,384.36Z" transform="translate(-46.18 -24.15)"/><path d="M345,432.09l-.09-.09.12.15A1,1,0,0,1,345,432l.07.17c-.12-.3-.18-.65-.28-1s-.21-.69-.34-1a.82.82,0,0,0-.34-.45.78.78,0,0,0-.58-.07.76.76,0,0,0-.53.92,13.24,13.24,0,0,1,.41,1.26,2.55,2.55,0,0,0,.58,1.32.78.78,0,0,0,.53.21.8.8,0,0,0,.53-.21.77.77,0,0,0,0-1.07Z" transform="translate(-46.18 -24.15)"/><path d="M62.73,602.27a5.45,5.45,0,0,1-.76.39l.36-.15a6.46,6.46,0,0,1-1.49.41l.4-.06-.18,0a1.25,1.25,0,0,0-.57.13,1.21,1.21,0,0,0-.49.31,1.56,1.56,0,0,0-.44,1.06,1.54,1.54,0,0,0,.44,1.06,1.41,1.41,0,0,0,1.06.44,7.43,7.43,0,0,0,3.19-1,1.5,1.5,0,0,0,.54-2.05,1.55,1.55,0,0,0-.9-.69,1.57,1.57,0,0,0-1.16.15Z" transform="translate(-46.18 -24.15)"/><path d="M62.62,602.07l-2.57,1.08A1.57,1.57,0,0,0,59,605a1.52,1.52,0,0,0,1.85,1,13.36,13.36,0,0,0,3.63-1.54A1.5,1.5,0,0,0,63,601.9c-1.24.58-2.48,1.14-3.74,1.67a1.51,1.51,0,0,0,0,2.89,21,21,0,0,0,2.83.73,4.14,4.14,0,0,1,2.19,1.55c1.35,1.61,2.61,3.3,4,4.91s2.8,3.22,4.3,4.74c1.33,1.37,2.87,3.38,5,3.41a1.54,1.54,0,0,0,1.5-1.5,4,4,0,0,0-1.16-2.68c-.67-.82-1.37-1.64-2.08-2.43A25.22,25.22,0,0,0,71,611c-1.62-1.06-3.12,1.54-1.52,2.6a20.27,20.27,0,0,1,3.69,3.23c.56.6,1.09,1.21,1.62,1.83.32.38,1.17,1.09,1.16,1.61l1.5-1.5c-.6,0-1.4-1.1-1.79-1.48-.74-.73-1.47-1.47-2.18-2.23q-2.19-2.34-4.21-4.82a35.43,35.43,0,0,0-3.84-4.61,6.35,6.35,0,0,0-2.59-1.37,21.48,21.48,0,0,1-2.84-.72v2.89q2.25-.93,4.46-2L63,601.9a10.47,10.47,0,0,1-2.92,1.25l.8,2.89L63.42,605a1.55,1.55,0,0,0,1-1.84,1.51,1.51,0,0,0-1.85-1Z" transform="translate(-46.18 -24.15)"/><path d="M58.83,606.44Q62,609,65.08,611.69a1.5,1.5,0,1,0,2.12-2.12q-3.08-2.7-6.25-5.25a1.61,1.61,0,0,0-1.06-.44,1.53,1.53,0,0,0-1.06.44,1.52,1.52,0,0,0,0,2.12Z" transform="translate(-46.18 -24.15)"/><path d="M63.82,610.57a87.79,87.79,0,0,1,8.74,10.95l1.3-2.26c.26.1.3.1.13,0l-.29-.19a4,4,0,0,1-.31-.27,8.39,8.39,0,0,1-.86-.93c-.45-.57-.84-1.2-1.24-1.8A25.31,25.31,0,0,0,67.92,612c-2.4-2.36-5.19-4.41-7-7.29-1-1.64-3.62-.13-2.59,1.51,2,3.26,5.12,5.54,7.8,8.24a28.92,28.92,0,0,1,3.28,4.2,13.76,13.76,0,0,0,1.76,2.18,4,4,0,0,0,2.68,1.41A1.51,1.51,0,0,0,75.15,620a93.22,93.22,0,0,0-9.21-11.56c-1.32-1.41-3.44.72-2.12,2.13Z" transform="translate(-46.18 -24.15)"/><path d="M73.44,621.31a1,1,0,0,1-.64.31h.79l-.1,0,.66.39c.16.13.07.12-.05-.06l-.32-.49-.52-.78c-.4-.59-.81-1.16-1.24-1.73-.85-1.13-1.74-2.25-2.68-3.32a11.8,11.8,0,0,1-1.06-1.28c-.36-.56-.61-1.19-1-1.76a12.09,12.09,0,0,0-1.28-1.73,5,5,0,0,1-1-1.18,1.54,1.54,0,0,0-1.85-1,1.5,1.5,0,0,0-1,1.84c.62,1.55,2,2.55,2.77,4a13.28,13.28,0,0,0,1.4,2.28c.55.67,1.15,1.3,1.7,2a45.41,45.41,0,0,1,3,4c.5.75.93,1.69,1.94,1.78a3.42,3.42,0,0,0,2.56-1.11c1.4-1.34-.72-3.46-2.12-2.12Z" transform="translate(-46.18 -24.15)"/><path d="M62,610.16a7.12,7.12,0,0,0,1.7,3.52c.82,1,1.49,2,2.33,3,1.53,1.72,3.33,3.21,4.44,5.24L73,620.38a22.32,22.32,0,0,0-2.11-2.73,1.51,1.51,0,0,0-2.12,0,1.53,1.53,0,0,0,0,2.12,15,15,0,0,1,1.83,2.5l2.59-1.52a11.85,11.85,0,0,0-1.39-1.84L69.71,621c.5.54,1,1.1,1.44,1.67a1.5,1.5,0,0,0,2.12,0,1.53,1.53,0,0,0,0-2.12c-.46-.58-.94-1.13-1.44-1.67-1.32-1.41-3.42.7-2.12,2.12a8,8,0,0,1,.92,1.24,1.5,1.5,0,0,0,2.59-1.52,18.72,18.72,0,0,0-2.3-3.1l-2.12,2.12a18,18,0,0,1,1.64,2.13A1.5,1.5,0,0,0,73,620.38,29,29,0,0,0,68.5,615c-.79-.85-1.38-1.77-2.09-2.68a10,10,0,0,1-1.06-1.37,4.79,4.79,0,0,1-.49-1.54,1.51,1.51,0,0,0-1.84-1A1.53,1.53,0,0,0,62,610.16Z" transform="translate(-46.18 -24.15)"/><polygon class="cls-4" points="32.49 597 25.99 598.5 16.49 581 32.49 597"/><path class="cls-2" d="M224.47,424.12q3.19-4.46,6.7-8.67c1.06-1.28,2.12-2.59,3.29-3.78a6.93,6.93,0,0,1,3.62-2.21,1.5,1.5,0,1,0-.8-2.89c-3.53.68-5.88,3.94-8.05,6.53-2.56,3.08-5,6.25-7.35,9.5a1.5,1.5,0,0,0,.54,2,1.52,1.52,0,0,0,2.05-.53Z" transform="translate(-46.18 -24.15)"/><path d="M213,433.49a50.89,50.89,0,0,1,5.18-10.29,20.65,20.65,0,0,1,3.29-3.63,14.17,14.17,0,0,1,2.05-1.47,10.43,10.43,0,0,1,1.09-.6,4,4,0,0,1,.94-.45l-.66-.38c-.1-.08-.07-.33-.16-.31a3,3,0,0,0-.14.59c-.12.45-.24.89-.38,1.32a23.5,23.5,0,0,1-.86,2.35,27,27,0,0,1-2.5,4.53c-1.08,1.6,1.52,3.1,2.59,1.51a29.18,29.18,0,0,0,3.47-7,9.05,9.05,0,0,0,.8-3.74,2.18,2.18,0,0,0-3.12-1.65c-4.67,1.74-8.15,5.66-10.56,9.89a74,74,0,0,0-3.92,8.54,1.51,1.51,0,0,0,1,1.85,1.54,1.54,0,0,0,1.84-1.05Z" transform="translate(-46.18 -24.15)"/><path class="cls-5" d="M268.17,406.65s6,0,6-1l6-2-8-8Z" transform="translate(-46.18 -24.15)"/><path class="cls-5" d="M274.27,394l7.63,7.19.45-9S274.37,393.27,274.27,394Z" transform="translate(-46.18 -24.15)"/><path class="cls-5" d="M274.17,390.85s8.36-2.14,8.18-1.67-1.18-7.53-1.18-7.53S274.17,389,274.17,390.85Z" transform="translate(-46.18 -24.15)"/><path class="cls-5" d="M268.17,409.65s10.59-1,12.8-3l-4.8,21Z" transform="translate(-46.18 -24.15)"/><polygon class="cls-5" points="214.99 400.5 227.99 407.5 217.99 428.5 214.99 400.5"/><polygon class="cls-5" points="202.2 421.56 213.99 435.5 204.99 447.5 202.2 421.56"/><path class="cls-5" d="M231.17,463.65l14,14L229.59,491.4s-.42-4.08.58-5.42,1.31-8.46,1.31-8.46l-.31-13.87" transform="translate(-46.18 -24.15)"/></svg>