<svg id="Layer_1" data-name="Layer 1" xmlns="http://www.w3.org/2000/svg" viewBox="0 0 824.48 867.95"><defs><style>.cls-1,.cls-3{fill:#22b573;}.cls-1{opacity:0.94;isolation:isolate;}.cls-2{fill:#00a473;}.cls-4,.cls-5,.cls-6{stroke:#000;stroke-miterlimit:10;}.cls-5{fill:none;}.cls-6,.cls-7{fill:#fff;}</style></defs><g id="Layer_1-2" data-name="Layer 1"><path class="cls-1" d="M656.88,363.41,668,285.85s4.8-31.65,13.43-37.4,34.55-9,46,1c10.32,9,35.18,18.55,37.28,19.13a1,1,0,0,0,.25.06c75.84,12.41,84.67-48,84.47-62.74a1.09,1.09,0,0,0-2-.62c-9.65,13.9-55.79,74.09-102.69,28.9-52.74-50.82-82.87-19.3-82.87-19.3S640.22,229.35,623,300.31,598,338.67,596.11,362.64,551,400.82,546.24,402.92c-3.52,1.56-15.59-2-17.26-3.84-2-2.27-50.82-56.58-58.49-63.29s-62.34-29.73-71-32.44c-8.26-2.6-71.89-59.26-77.3-64.09a1.09,1.09,0,0,0-.86-.26L195.62,254.12a1.1,1.1,0,0,0-.92,1.42l14.76,47a1.1,1.1,0,0,1-.28,1.1c-41.59,41.8-24.47,52.34-28.29,72.41C177.26,395.12,283,457.53,294.5,464.25a16.23,16.23,0,0,0,2.14,1c6.74,2.16,74.49,34.15,82.86,39.67a1.09,1.09,0,0,1,.34,1.45C361.66,539,389,587,389,587c8.19,11.85-6.11,79.07-7.56,85.77a1.06,1.06,0,0,0,.17.85c7.07,9.2-34.3,90.82-36.62,95.38a1.16,1.16,0,0,1-.28.34c-1.81,1.53-3.77,6.58-5.63,13.13a1.09,1.09,0,0,0,1.83,1.06,34.16,34.16,0,0,1,7-5.55c6.38-3.84,12.16,6.15,5.81,9.93a22.87,22.87,0,0,0-3.71,2.78,1.09,1.09,0,0,0-.32.56c-1,4.2-2,8.94-2.78,13.69a1.09,1.09,0,0,0,2.06.66l0-.06c3.33-6.61,6.64-13.3,11.63-18.83s13.1,2.66,8.14,8.13a54.4,54.4,0,0,0-7.6,12,1,1,0,0,0-.1.29l-.24,1.23a1.1,1.1,0,0,0,2,.86c1.61-2.16,3.22-4.26,4.75-6.31a6.1,6.1,0,0,1,6.31-2.3,1.07,1.07,0,0,0,1.07-.32l1.59-1.89a1.08,1.08,0,0,0,.06-1.32,5.86,5.86,0,0,1-.79-1.63,1.18,1.18,0,0,1,0-.2l-.17-1.31a.81.81,0,0,1,0-.22,5.9,5.9,0,0,1,5.75-5.65l.65,0a1.1,1.1,0,0,0,1.23-.94c1.22-10.26,27.88-75.47,45.1-91.84,14.12-13.43-3.58-15.83-12.15-16.24a1.09,1.09,0,0,1-.68-1.89c12.83-11.5,25.38-72.47,26.21-76.59a1.28,1.28,0,0,1,.19-.41c21-28.76,28.63-70.77,28.63-70.77-3.63,22.67,32.18,75.34,36.09,81a1,1,0,0,0,.82.47c14.17.17,14.84,88.85,14.87,97.21a1.12,1.12,0,0,0,.4.9c11.49,9.12-37,99.44-40.48,105.82a1.12,1.12,0,0,1-.58.49c-7.11,2.83-13.25,23.18-17.15,39.88.48-1,.95-1.92,1.34-2.88,2.08-5.15,3.27-10.71,4.73-16.05,1.63-5.95,9.6-4.83,11.08-.16a1.1,1.1,0,0,0,1.84.48c1.88-2,3.69-3.83,5.34-5.49a1.09,1.09,0,0,1,1.79,1.17c-3.57,9.08-5,22.32-5.51,33l.47-.11c.35-1.62.67-3.21,1-4.73a202.31,202.31,0,0,1,5.61-20.25c1.82-5.4,8.85-4.83,10.87-1a1.09,1.09,0,0,0,1.75.17c.81-.88,1.61-1.73,2.38-2.55a1,1,0,0,0,.19-.27c1.72-3.54,3.42-7.09,5-10.67,3-6.77,12.89-.91,9.93,5.8-4.37,9.93-9.69,19.45-13.83,29.48-.92,2.22-1.76,4.48-2.52,6.76a1.14,1.14,0,0,0-.05.55c.23,1.39.51,2.73.81,4a1.07,1.07,0,0,0,.91.82l.59.09a6.53,6.53,0,0,1,1.16.37,1.09,1.09,0,0,0,1.52-.76c3.8-19.27,22.78-43.21,26.91-48.24a1.1,1.1,0,0,0-.15-1.53c-9.83-8.6,19.43-84.45,28.75-106.83,7.94-19-10.41-19-17-18.48a1.09,1.09,0,0,1-1-1.67c39.1-63.24,21.42-94.58,18.39-99.13a1.07,1.07,0,0,1,0-1.2c19.25-30-14.49-96.49-20.58-108a1.08,1.08,0,0,1,.76-1.58c11.65-2.07,65.15-44.95,70.78-49.5a6.61,6.61,0,0,1,.89-.6c2.81-1.58,6.51-2.85,10.48-9,11.11-17.12,24.34-52.55,27-59.66a7.78,7.78,0,0,0,.31-1.24" transform="translate(-24.95 -18.58)"/><path class="cls-2" d="M163.73,533.48c-.35.9-.68,1.8-1,2.67a5.87,5.87,0,0,1,1.92,1.92,11.85,11.85,0,0,1,1.63,4.12l2.39-4.46A6.19,6.19,0,0,1,163.73,533.48Z" transform="translate(-24.95 -18.58)"/><path class="cls-2" d="M341,310.86l27.81-14.39s-37.4-48.9-55.62,5.76,33.56,46-22.06,54.66c-55,8.53-83.74,15.19-100.14,88.6l-.55,2.5A274.61,274.61,0,0,0,171.3,472.1a7.32,7.32,0,0,1,3.21,5.9c.29,5.22-2.8,8.33-5.46,12.36a5.57,5.57,0,0,1-4.33,2.63c-2.18,6.06-4.32,12.36-7.89,17.74A38.85,38.85,0,0,0,150,529.51a28.38,28.38,0,0,0,1.71,11.9c8.72-23.2,25.83-64.73,34.87-59.86,0,0-11.32,23.27-19.74,43.88,4.44-7,9-14,13.76-20.84a6,6,0,0,1,8.05-1.69,45.16,45.16,0,0,0,3.3-7.38,5.62,5.62,0,0,1,5.69-4c1.42-1.27,2.56-1.8,3.32-1.36l-1,1.92a5,5,0,0,1,3.07,6.38.78.78,0,0,0-.05.14c-2.06,6.25-5.76,11.6-8.63,17.49-.52,1.08-1,2.18-1.52,3.27a6.33,6.33,0,0,1,7.83,1.42c7.93-12.67,14.56-22.85,15.55-21,4.79,9,24-33.57,13.42-45.07s1-51.79,55.62-63.29,69.05-13.43,65.21-28.77S341,310.86,341,310.86Z" transform="translate(-24.95 -18.58)"/><path class="cls-3" d="M148.39,329.07c-43.78.13-68.23,81.74-70,87.87a2.28,2.28,0,0,0-.08.74c.27,11.74-28.29,26.66-31.39,28.25a2.26,2.26,0,0,0-.52.35C32.89,458,28.46,477.63,27.39,494l.08-.21c2.47-5.46,6.24-9.33,9.77-14,3.13-4.16,3.91-9.89,8.41-13,3.72-2.58,8-1.92,11.68.43,2.08,1.36,3.78,3.23,5.84,4.59,2.41,1.59,4.79.77,7.49.43,7.34-1,7.24,10.55,0,11.51h0a2.42,2.42,0,0,0-2.06,1.76,63.18,63.18,0,0,0-1.65,24,2.51,2.51,0,0,0,1.88,2.2,5,5,0,0,1,2.69,1.57c.47.51.92,1,1.36,1.56a2.42,2.42,0,0,0,4.28-1.29c3.41-31,15.3-47.26,18.52-51.16a2.49,2.49,0,0,1,1.84-.86c8.09-.5,16-25.24,17.76-31.33a2.53,2.53,0,0,0-.25-2.1c-7.24-11,23.29-72.38,38.45-67.53a2.83,2.83,0,0,0,1.12.14l24.92-2.84a2.44,2.44,0,0,0,1.78-1.11l36.21-57.09a2.38,2.38,0,0,0-.07-2.7c-9.82-13-61.15,26.62-67.54,31.64A2.42,2.42,0,0,1,148.39,329.07Z" transform="translate(-24.95 -18.58)"/><path class="cls-3" d="M53.83,479a17.15,17.15,0,0,1-1.92-1.58l-.32-.23a7.39,7.39,0,0,0-.38.74c-.5,1-.9,1.86-1.35,2.79a31.31,31.31,0,0,1-3,5.31l-.13.18c-1,9.89.29,20.74,1.92,29.34a5.9,5.9,0,0,1,3.33,0c1.92-11.88,8-23.34,13.23-31.37a13.55,13.55,0,0,1-6.56-1.66A33.25,33.25,0,0,1,53.83,479Z" transform="translate(-24.95 -18.58)"/><path class="cls-3" d="M194.31,254.28s-131,56.78-158.4,5.66a10.43,10.43,0,0,0-5.07-4.63,9.32,9.32,0,0,1-3.24-2.26c-2-2.25-3.2-6.11-.8-12.68,5.44-14.86,63-39.79,63-39.79S-6.11,115.23,36.08,25.09c0,0,4.8-10.55,15.35-4.79,0,0,59.45-1.92,61.37,8.63,0,0,15.34-5.76,20.14,11.5,0,0,35.48,26.86,36.44,23l5.75-2.88s7.67-1.92,6.71,3.84c0,0,5.45,6,7.68,5.75,0,0,9.59,1.92,10.54,0,0,0,4.8,0,3.84,2.88,0,0,8.63,9.59,9.59,7.67,0,0,12.47,3.84,16.3,0s6.71,2.88,6.71,2.88,4.8,6.71,4.8,5.75,34.52,28.77,30.68,49.87c0,0,12.47,31.64,10.55,51.78-3.75,4.19,33.48,32.54,39.32,47.95C330,260.51,194.31,254.28,194.31,254.28Z" transform="translate(-24.95 -18.58)"/><path class="cls-4" d="M173.62,171.65S142.53,263.87,34.17,256.2c0,0-41.24-13.43,55.62-55.62,0,0-98.78-99.73-47-157.27,0,0,11.5-12.46,31.64-2.88,0,0,15.65-1.91,25.09,5.28s15.19,22.53,15.19,22.53,21.09,22.06,20.14,24,25.89,46,24,49.86C158.83,142.08,175.93,167.66,173.62,171.65Z" transform="translate(-24.95 -18.58)"/><path class="cls-4" d="M186.64,73s-5.75-2.88-17.26,13.42,14.38,19.18,14.38,19.18,19.18-2.87,23-12.46S201,74,201,74,191.43,73,186.64,73Z" transform="translate(-24.95 -18.58)"/><path class="cls-5" d="M207.68,83.42s11.56-1.75,6.77,11.67" transform="translate(-24.95 -18.58)"/><path class="cls-5" d="M109,34.68S128.14,20.3,131,46.19" transform="translate(-24.95 -18.58)"/><path class="cls-6" d="M165.54,168.93l-1.92-7.67L154,163.18s2.88-17.26-2.87-14.38a45.82,45.82,0,0,1-11.51,3.83s9.59-20.14,1.92-21.1-12.47,4.8-12.47,4.8,11.51-18.64,1.92-19.87S116.64,121,116.64,121s7.67-20.14,1.91-20.14-15.34,5.75-15.34,5.75S114.72,89.15,109,89.24s-22.43,5.85-22.43,5.85,9-24,3.26-21.09S75.4,80.71,75.4,80.71s12.47-23,4.8-20.14S62.94,71.12,62.94,71.12s11.5-17.26,6.71-22.05-16.3,12.46-16.3,12.46L52.07,48.22,48.55,61.53l-6.71-5.75L46.63,75,38,70.16l4.8,13.43L33.21,97l7.67,1.92S31.29,110.44,38,110.44a11.14,11.14,0,0,0,9.59-5.76s-3.83,17.26-1,17.26,11.51-6.71,11.51-6.71-6.71,24-1,21.1,14.39-4.8,14.39-4.8-3.84,24.94-1,23,11.5-6.71,11.5-6.71-3.83,28.76,0,20.13l8.63-5.75L84,192s-45.26-55.34-52.36-83.29-.79-55,6.6-59.69,11.24-11.41,29.46-8.54,8.63-3.83,24.93,2.88,18.22,24.93,22.06,24.93,20.68,25.9,20.68,25.9l14.8,29.72,16.23,35.65,2.95,5.59Z" transform="translate(-24.95 -18.58)"/><path class="cls-6" d="M169.38,171.81l-6.71-5.75,1,10.54S155,168,154,168.93s3.84,12.47,3.84,12.47l-10.55-8.63L155,192,145.4,181.4l3.84,17.26-14.38-5.75,3.83,14.38-11.51-8.63-1,19.18-10.55-9.59-4.8,22.06-5.75-11.51L99.63,237c-.26,2.94-7-14.33-7-14.33l-7.67,24-3.84-16.3-7.67,15.34-3.83-14.39-5.76,17.27L59.1,238,53,248.53,50.47,238s-6.71,12.46-8.63,9.59-7.67-17.26-7.67-17.26l-1.92,15.34s1.92,9.59,7.67,7.67c0,0,10.55,2.88,13.43,1.92s22.37.43,24.6-1.7,18.55-2.2,22.86-7,19.66-13.43,19.66-13.43,26.85-17.26,29.73-24c0,0,15.34-15.24,19.18-27.75S169.38,171.81,169.38,171.81Z" transform="translate(-24.95 -18.58)"/><path class="cls-6" d="M39.92,244.69l7.67-28.77,7.67,14.39,8.47-19.57,6.88,14.77,5.9-18.93,6.56,10.3,6.72-15.34,6.71,5.75,4.79-13.42,5.76,5.75S50.47,239.9,39.92,244.69Z" transform="translate(-24.95 -18.58)"/></g><g id="nails"><path class="cls-7" d="M36.72,458.05l18.55,6.72,32.12,11.5s-12.54,47.44-11.11,60.42c0,0-21.49-35-2.87-64.25,0,0-23.4,26.37-21,58.49,0,0-14.48-44.9-1.27-61s-26.89,27-22.59,52.41C28.54,522.3,20.56,482.43,36.72,458.05Z" transform="translate(-24.95 -18.58)"/><path class="cls-7" d="M216.37,499.77s-46.51,63.77-44.59,64.73c0,0,20.13-74.8,29.72-74.8,0,0-10.55,1.92-43.15,68.09,0,0-2.88-18.22,28.29-76.24,0,0-10.07-10.07-40.28,74.8,0,0-18.62-18.84,25.45-84.94Z" transform="translate(-24.95 -18.58)"/><path class="cls-7" d="M383.22,788.41S354,832,355.89,841.63c0,0,6-48.9,10.69-55.16s-25.07,36-24.11,48.45c0,0,5.15-49.48,12.17-56.87,0,0-27.52,40.57-25.12,50.64,0,0,7.19-60.9,15.34-59.46S383.22,788.41,383.22,788.41Z" transform="translate(-24.95 -18.58)"/><path class="cls-7" d="M538.57,823.89s-35.6,46.17-27.16,62.64c0,0-17.43-33.39,6.06-59.76,0,0-36,36.92-32.6,56.58,0,0-6.49-38,9-57.12,0,0-34.39,47-34.39,52.8,0,0,10.55-62.33,22.53-63.77Z" transform="translate(-24.95 -18.58)"/></g></svg>
