<svg xmlns="http://www.w3.org/2000/svg" viewBox="0 0 859.76 905.11"><defs><style>.cls-1,.cls-3{fill:#22b573;}.cls-1{opacity:0.94;}.cls-2{fill:#00a473;}.cls-4,.cls-5,.cls-6{stroke:#000;stroke-miterlimit:10;}.cls-5{fill:none;}.cls-6,.cls-7{fill:#fff;}</style></defs><g id="Layer_1" data-name="Layer 1"><path class="cls-1" d="M1429.5,324.5s-54,86-109,33-82-15-82-15-27,10-45,84-26,40-28,65-50,37-52,42-19-1-18-4-53-59-61-66-65-31-74-33.83-81-67.17-81-67.17l-133,16,16,51c-44,44-26,55-30,76s120,93,120,93c4-14,88,42,88,42-20,34,9,85,9,85,9,13-8,90-8,90,9,8-38,100-38,100-2.37,1.7-5,9.38-7.38,18.78a36.22,36.22,0,0,1,10.52-9.63c6.66-4,12.69,6.42,6.06,10.36a23.59,23.59,0,0,0-4.12,3.14c-1.67,6.77-3.1,14.94-4.24,22.42,1.12-2.41,2.26-4.81,3.45-7.18,3.47-6.89,6.93-13.87,12.13-19.63s13.66,2.77,8.49,8.48c-3.3,3.66-5.74,8.16-8,12.64-.41,2.09-.79,4.2-1.15,6.29,2.64-3.65,5.34-7.16,7.87-10.53a6.35,6.35,0,0,1,7.24-2.2l2.71-3.21a6,6,0,0,1-1.39-2.47l-.21-1.59a6.15,6.15,0,0,1,6-6,7.47,7.47,0,0,1,2,.28c-1.81-4.4,28.07-79,47-97s-17-17-17-17c15-2,31-82,31-82,22-30,30-74,30-74-4,25,38,85,38,85,16-2,16,102,16,102,14,8-42,111-42,111-7.58,2.33-14.14,24-18.29,41.73.51-1,1-2,1.4-3,2.17-5.37,3.41-11.17,4.94-16.74,1.94-7.09,12.51-4.55,11.76,2.14,4.93-5.27,9.53-9.81,12.55-12.72-6.3,8.48-8.46,26.77-9.15,40.85l.49-.11c.36-1.69.7-3.35,1-4.94a210,210,0,0,1,5.85-21.11c2.13-6.33,11.12-4.8,11.86.51,1.34-1.49,2.65-2.89,3.9-4.21,1.82-3.75,3.62-7.5,5.29-11.29,3.11-7.06,13.45-.95,10.36,6.05-4.56,10.36-10.11,20.28-14.42,30.74-1,2.41-1.91,4.86-2.73,7.33.3,1.85.67,3.62,1.08,5.3a9.1,9.1,0,0,1,1.38.15,6.62,6.62,0,0,1,2.51,1.14c3.59-22.79,29.17-52.85,29.17-52.85-13-5,19-88,29-112s-20-19-20-19c46-73,20-106,20-106,23-34-22-115-22-115,7,4,76-52,76-52,12,5,40-73,40-73l12-84s5-33,14-39,38-10,48,1,39,20,39,20C1437.5,405.5,1429.5,324.5,1429.5,324.5Z" transform="translate(-569.91 -132.71)"/><path class="cls-2" d="M714.61,669.65c-.36.94-.71,1.88-1.05,2.79a6.05,6.05,0,0,1,2,2,12.34,12.34,0,0,1,1.7,4.3l2.49-4.65A6.46,6.46,0,0,1,714.61,669.65Z" transform="translate(-569.91 -132.71)"/><path class="cls-2" d="M899.5,437.5l29-15s-39-51-58,6,35,48-23,57c-57.36,8.9-87.33,15.84-104.43,92.4l-.57,2.6a287.35,287.35,0,0,0-20,25.15,7.62,7.62,0,0,1,3.35,6.15c.3,5.44-2.92,8.69-5.69,12.89a5.79,5.79,0,0,1-4.52,2.74c-2.27,6.32-4.5,12.89-8.23,18.5a40.53,40.53,0,0,0-7.08,19.58,29.59,29.59,0,0,0,1.79,12.41c9.09-24.19,26.93-67.5,36.36-62.42,0,0-11.8,24.27-20.58,45.76,4.63-7.35,9.34-14.64,14.34-21.73a6.27,6.27,0,0,1,8.4-1.76,48,48,0,0,0,3.44-7.7,5.86,5.86,0,0,1,5.93-4.15c1.48-1.33,2.67-1.88,3.47-1.42l-1,2a5.22,5.22,0,0,1,3.14,6.8c-2.14,6.52-6,12.1-9,18.24-.54,1.13-1.06,2.27-1.58,3.41a6.62,6.62,0,0,1,8.17,1.48c8.26-13.21,15.18-23.83,16.21-21.89,5,9.39,25-35,14-47s1-54,58-66,72-14,68-30S899.5,437.5,899.5,437.5Z" transform="translate(-569.91 -132.71)"/><path class="cls-3" d="M699.5,456.5c-48-1-74,92-74,92,1,13-33,30-33,30-14.28,12.24-18.94,32.81-20.07,50l.09-.21c2.57-5.7,6.5-9.73,10.18-14.63,3.27-4.34,4.08-10.32,8.77-13.58,3.88-2.69,8.38-2,12.19.45,2.16,1.41,3.94,3.36,6.08,4.78,2.52,1.66,5,.81,7.82.45,7.65-1,7.55,11,0,12l-1.69.2A65.88,65.88,0,0,0,614,646.81a5.22,5.22,0,0,1,4.45,1.73,39.15,39.15,0,0,1,5.28,7.23c2.76-42.45,20.76-61.27,20.76-61.27,10,2,20-34,20-34-10-9,24-78,40-71l27.79-3.16L771.5,424.5C763.5,405.5,699.5,456.5,699.5,456.5Z" transform="translate(-569.91 -132.71)"/><path class="cls-3" d="M600,612.86a17.4,17.4,0,0,1-2-1.65,3.88,3.88,0,0,0-.33-.23,6.26,6.26,0,0,0-.4.77c-.52,1-.94,1.94-1.4,2.91a33.16,33.16,0,0,1-3.15,5.53l-.14.19c-1,10.31.3,21.63,2,30.6a6.06,6.06,0,0,1,3.48,0c2-12.39,8.33-24.34,13.79-32.72a14.1,14.1,0,0,1-6.84-1.73A34.33,34.33,0,0,1,600,612.86Z" transform="translate(-569.91 -132.71)"/><path class="cls-3" d="M746.5,378.5s-143,62-167,2c0,0-13.35-1-7.68-16.5s65.68-41.5,65.68-41.5-100-89-56-183c0,0,5-11,16-5,0,0,62-2,64,9,0,0,16-6,21,12,0,0,37,28,38,24l6-3s8-2,7,4c0,0,7,8,8,6,0,0,10,2,11,0,0,0,5,0,4,3,0,0,9,10,10,8,0,0,13,4,17,0s7,3,7,3,5,7,5,6,36,30,32,52c0,0,13,33,11,54-3.91,4.37,34.91,33.93,41,50C888,385,746.5,378.5,746.5,378.5Z" transform="translate(-569.91 -132.71)"/><path class="cls-4" d="M724.92,292.33S692.5,388.5,579.5,380.5c0,0-43-14,58-58,0,0-103-104-49-164,0,0,12-13,33-3,0,0,16.32-2,26.16,5.5s15.84,23.5,15.84,23.5,22,23,21,25,27,48,25,52C709.5,261.5,727.33,288.17,724.92,292.33Z" transform="translate(-569.91 -132.71)"/><path class="cls-4" d="M738.5,189.5s-6-3-18,14,15,20,15,20,20-3,24-13-6-20-6-20S743.5,189.5,738.5,189.5Z" transform="translate(-569.91 -132.71)"/><path class="cls-5" d="M760.44,200.33s12.06-1.83,7.06,12.17" transform="translate(-569.91 -132.71)"/><path class="cls-5" d="M657.5,149.5s20-15,23,12" transform="translate(-569.91 -132.71)"/><path class="cls-6" d="M716.5,289.5l-2-8-10,2s3-18-3-15a47.75,47.75,0,0,1-12,4s10-21,2-22-13,5-13,5,12-19.44,2-20.72-15,4.72-15,4.72,8-21,2-21-16,6-16,6,12-18.2,6-18.1-23.39,6.1-23.39,6.1,9.39-25,3.39-22-15,7-15,7,13-24,5-21-18,11-18,11,12-18,7-23-17,13-17,13l-1.33-13.88L594.5,177.5l-7-6,5,20-9-5,5,14-10,14,8,2s-10,12-3,12a11.61,11.61,0,0,0,10-6s-4,18-1,18,12-7,12-7-7,25-1,22,15-5,15-5-4,26-1,24,12-7,12-7-4,30,0,21l9-6-7,31s-47.2-57.71-54.6-86.85-.83-57.35,6.88-62.25,11.72-11.9,30.72-8.9,9-4,26,3,19,26,23,26,21.57,27,21.57,27l15.43,31,16.93,37.17,3.07,5.83Z" transform="translate(-569.91 -132.71)"/><path class="cls-6" d="M720.5,292.5l-7-6,1,11s-9-9-10-8,4,13,4,13l-11-9,8,20-10-11,4,18-15-6,4,15-12-9-1,20-11-10-5,23-6-12-5.73,18.94c-.27,3.06-7.27-14.94-7.27-14.94l-8,25-4-17-8,16-4-15-6,18-5-11-6.39,11-2.61-11s-7,13-9,10-8-18-8-18l-2,16s2,10,8,8c0,0,11,3,14,2s23.33.45,25.66-1.77,19.34-2.3,23.84-7.26,20.5-14,20.5-14,28-18,31-25c0,0,16-15.89,20-28.94S720.5,292.5,720.5,292.5Z" transform="translate(-569.91 -132.71)"/><path class="cls-6" d="M585.5,368.5l8-30,8,15,8.83-20.4,7.17,15.4,6.16-19.74,6.84,10.74,7-16,7,6,5-14,6,6S596.5,363.5,585.5,368.5Z" transform="translate(-569.91 -132.71)"/></g><g id="nails"><path class="cls-7" d="M582.16,591l19.35,7L635,610s-13.08,49.47-11.58,63c0,0-22.41-36.5-3-67,0,0-24.4,27.5-21.91,61,0,0-15.1-46.83-1.32-63.66S569.15,631.47,573.63,658C573.63,658,565.31,616.42,582.16,591Z" transform="translate(-569.91 -132.71)"/><path class="cls-7" d="M769.5,634.5S721,701,723,702c0,0,21-78,31-78,0,0-11,2-45,71,0,0-3-19,29.5-79.5,0,0-10.5-10.5-42,78,0,0-19.42-19.64,26.54-88.57Z" transform="translate(-569.91 -132.71)"/><path class="cls-7" d="M943.5,935.5S913,981,915,991c0,0,6.3-51,11.15-57.52S900,971,901,984c0,0,5.37-51.6,12.69-59.3,0,0-28.69,42.3-26.19,52.8,0,0,7.5-63.5,16-62S943.5,935.5,943.5,935.5Z" transform="translate(-569.91 -132.71)"/><path class="cls-7" d="M1105.5,972.5s-37.13,48.14-28.32,65.32c0,0-18.18-34.82,6.32-62.32,0,0-37.5,38.5-34,59,0,0-6.77-39.62,9.36-59.56,0,0-35.86,49.06-35.86,55.06,0,0,11-65,23.5-66.5Z" transform="translate(-569.91 -132.71)"/></g></svg>
