<svg xmlns="http://www.w3.org/2000/svg" viewBox="0 0 1232.12 553.14"><defs><style>.cls-1{fill:#fff3c4;}.cls-1,.cls-4,.cls-5{stroke:#000;stroke-miterlimit:10;}.cls-2{font-size:66.9px;}.cls-2,.cls-6{font-family:CCMonsterMash;}.cls-3{letter-spacing:-0.02em;}.cls-4{fill:#745549;}.cls-5{fill:#e9ebb9;}.cls-6{font-size:25px;}.cls-7{letter-spacing:-0.1em;}</style></defs><g id="Layer_1" data-name="Layer 1"><rect class="cls-1" x="304.62" y="13.64" width="927" height="539" rx="99.5"/><text class="cls-2" transform="translate(377.18 138.72)"><tspan class="cls-3">L</tspan><tspan x="25.42" y="0">YD</tspan></text><rect class="cls-1" x="517.62" y="93.64" width="43" height="43"/><polygon class="cls-4" points="575.12 93.64 575.12 136.64 1134.62 136.64 1134.62 96.81 575.12 93.64"/><path class="cls-5" d="M617.5,96.5s11.33-26,18.17,0,0,61.5,0,61.5l-7.57-6.67L622.33,158l-4.83-9.85L613,158Z" transform="translate(-19.88 -7.86)"/><polygon class="cls-5" points="517.62 98.36 555.45 136.64 560.62 136.64 560.62 131.92 522 93.64 517.62 93.64 517.62 98.36"/><polygon class="cls-5" points="517.62 132.25 517.62 136.64 522.12 136.64 560.62 97.7 560.62 93.64 556.23 93.64 517.62 132.25"/><text class="cls-6" transform="translate(499.41 85.77)"><tspan class="cls-7">T</tspan><tspan x="8.55" y="0">il/fra</tspan></text></g><g id="Layer_2" data-name="Layer 2"><path class="cls-1" d="M226.55,122.52l15-12-31-8.78c7-10.78-24-36.22-24-36.22l24-36-39-21-29.64,45c-9.63-18-45.36,6-45.36,6l-37-43-39,30,27,44c-15,42,15,51,15,51l-34,19,21,1-8,18h18v21l31-22c8,15,57,8,57,8l12,32,33-11-11-28c17-4,19-34,19-34h26l-7-9,15-7Zm-53,24-9-3-5,14-9-9-4.5,12-8.5-8-4,8-11-8-6,8-6-11-11,6v-10l-13-4,8-12-14-6.5,4-12.5-4-8,10-9,9-12.5,15,4.5,9-9,10,9,6-9,1,14,8-8v13l9-6v12l11-1-6,9,11.5,4-8.5,8,11,6-11,3Z" transform="translate(-19.88 -7.86)"/></g></svg>