<svg xmlns="http://www.w3.org/2000/svg" xmlns:xlink="http://www.w3.org/1999/xlink" viewBox="0 0 1920 1090"><defs><style>.cls-1{fill:url(#linear-gradient);}.cls-2{fill:#c80000;}.cls-3{fill:url(#linear-gradient-2);}.cls-4{opacity:0.23;fill:url(#radial-gradient);}.cls-5{fill:url(#linear-gradient-3);}.cls-6{fill:#c7d383;}.cls-7{fill:#ff0;}.cls-8{fill:red;}.cls-9{fill:#facac1;}.cls-10,.cls-13,.cls-18{fill:#231f20;}.cls-11,.cls-19,.cls-31,.cls-34,.cls-35{fill:#fff;}.cls-11,.cls-13,.cls-18,.cls-21{stroke:#231f20;}.cls-11,.cls-13,.cls-18,.cls-21,.cls-30,.cls-31,.cls-32,.cls-33,.cls-34,.cls-35,.cls-36,.cls-37,.cls-38{stroke-miterlimit:10;}.cls-11,.cls-18,.cls-35{stroke-width:0.25px;}.cls-12{fill:#f7b0b2;}.cls-14{fill:#3c8652;}.cls-15{fill:#b4fff9;}.cls-16{fill:#e1fff9;}.cls-17{fill:#ca0000;}.cls-20,.cls-21{fill:#fac6bd;}.cls-22{fill:url(#linear-gradient-4);}.cls-23{font-size:74.38px;fill:#c90500;}.cls-23,.cls-39{font-family:CCMonsterMash;}.cls-24{letter-spacing:-0.04em;}.cls-25{letter-spacing:0em;}.cls-26{fill:url(#linear-gradient-33);}.cls-27{fill:#8cc63f;}.cls-28,.cls-36{fill:#e4ffb4;}.cls-29{fill:#00833f;}.cls-30{fill:none;}.cls-30,.cls-36{stroke:#a7d400;}.cls-31,.cls-32,.cls-33,.cls-37,.cls-38{stroke:#000;}.cls-31{opacity:0.29;}.cls-33{fill:#b3b3b3;}.cls-34,.cls-35{stroke:#fff;}.cls-37{fill:#fff5d1;}.cls-37,.cls-38{stroke-width:2px;}.cls-38{fill:#fff5d2;}.cls-39{font-size:70.44px;}</style><linearGradient id="linear-gradient" x1="310" y1="900.5" x2="986" y2="900.5" gradientTransform="translate(1860.5 -309.5) rotate(90)" gradientUnits="userSpaceOnUse"><stop offset="0" stop-color="#a6c8de"/><stop offset="0.12" stop-color="#acbdcf"/><stop offset="0.35" stop-color="#bc9fa8"/><stop offset="0.68" stop-color="#d56e68"/><stop offset="1" stop-color="#f13822"/></linearGradient><linearGradient id="linear-gradient-2" x1="960" y1="1080" x2="960" y2="675" gradientUnits="userSpaceOnUse"><stop offset="0" stop-color="#e5b58c"/><stop offset="0.38" stop-color="#e5b38a"/><stop offset="0.52" stop-color="#e6ac85"/><stop offset="0.61" stop-color="#e7a17b"/><stop offset="0.69" stop-color="#e9906c"/><stop offset="0.76" stop-color="#eb7a59"/><stop offset="0.82" stop-color="#ee5f43"/><stop offset="0.84" stop-color="#ef5036"/><stop offset="0.93" stop-color="#f0462d"/><stop offset="1" stop-color="#f13822"/></linearGradient><radialGradient id="radial-gradient" cx="968.04" cy="924.93" r="465.05" gradientTransform="translate(0 476.9) scale(1 0.48)" gradientUnits="userSpaceOnUse"><stop offset="0" stop-color="#f50"/><stop offset="0.19" stop-color="#fd5400"/><stop offset="0.26" stop-color="#f65200"/><stop offset="0.31" stop-color="#eb4e00"/><stop offset="0.35" stop-color="#da4900"/><stop offset="0.38" stop-color="#c44100"/><stop offset="0.41" stop-color="#a83800"/><stop offset="0.44" stop-color="#882d00"/><stop offset="0.47" stop-color="#622100"/><stop offset="0.49" stop-color="#371300"/><stop offset="0.51" stop-color="#090300"/><stop offset="0.51" stop-color="#020100"/><stop offset="0.8" stop-color="#f0422a"/></radialGradient><linearGradient id="linear-gradient-3" x1="979.01" y1="57.38" x2="979.01" y2="1036.57" gradientUnits="userSpaceOnUse"><stop offset="0" stop-color="#e6e6e6"/><stop offset="0.16" stop-color="#e6e5e3"/><stop offset="0.25" stop-color="#e7e3db"/><stop offset="0.34" stop-color="#e9dfcc"/><stop offset="0.41" stop-color="#ecd9b8"/><stop offset="0.48" stop-color="#f0d29d"/><stop offset="0.54" stop-color="#f4c97c"/><stop offset="0.6" stop-color="#f9be56"/><stop offset="0.65" stop-color="#ffb22a"/><stop offset="0.67" stop-color="#ffa027"/><stop offset="0.71" stop-color="#ff7e22"/><stop offset="0.76" stop-color="#ff611d"/><stop offset="0.8" stop-color="#ff4b19"/><stop offset="0.86" stop-color="#ff3b17"/><stop offset="0.92" stop-color="#ff3215"/><stop offset="1" stop-color="#ff2f15"/></linearGradient><linearGradient id="linear-gradient-4" x1="753.9" y1="245.07" x2="1413.62" y2="245.07" gradientUnits="userSpaceOnUse"><stop offset="0" stop-color="#a6c8de"/><stop offset="0.2" stop-color="#b3afbd"/><stop offset="0.64" stop-color="#d46f6a"/><stop offset="1" stop-color="#f13822"/></linearGradient><linearGradient id="linear-gradient-33" x1="966.73" y1="550.86" x2="968.37" y2="910.91" gradientUnits="userSpaceOnUse"><stop offset="0" stop-color="#e9e1d2"/><stop offset="0.11" stop-color="#e9e0cf"/><stop offset="0.2" stop-color="#ebdcc4"/><stop offset="0.29" stop-color="#edd6b3"/><stop offset="0.37" stop-color="#f0cd9b"/><stop offset="0.44" stop-color="#f3c27b"/><stop offset="0.52" stop-color="#f8b555"/><stop offset="0.54" stop-color="#f9b14b"/><stop offset="0.54" stop-color="#f9ae4a"/><stop offset="0.69" stop-color="#f57b39"/><stop offset="0.83" stop-color="#f3572c"/><stop offset="0.93" stop-color="#f24025"/><stop offset="1" stop-color="#f13822"/></linearGradient></defs><g id="Layer_1" data-name="Layer 1"><rect class="cls-1" x="0.5" y="0.5" width="1919" height="676"/><path class="cls-2" d="M1919,1V676H1V1H1919m1-1H0V677H1920V0Z"/><rect class="cls-3" y="675" width="1920" height="405"/><path class="cls-4" d="M762,776s-338,164,6,282c0,0,222.67,72,422.33,0,0,0,297.67-122-.33-261C1190,797,1010,730,762,776Z"/><path class="cls-5" d="M1195,941s-134-331-16-464c0,0,146.06,60,143.53-76,0,0,88.47-58,45.47-119,0,0,41.06-120-45.47-149S1226,30,1062,68c0,0-154-30-211,26,0,0-146-10-167,44,0,0-132,75-99,124,0,0-29,128,33,117,0,0-23,166,100,97,0,0,234,243,29,450.5,0,0,21,78.5,69,76.5s79,43,122,24,105,29,136,0S1203,962,1195,941Z"/><path d="M613.54,951"/><path class="cls-6" d="M1492.43,938.5a30.6,30.6,0,0,1,2.31-3.53s.18-.23.06-.08,0,0,.06-.08l.34-.42.69-.81c.47-.54,1-1.05,1.47-1.55a1.5,1.5,0,0,0-2.12-2.12,31.32,31.32,0,0,0-5.4,7.08,1.5,1.5,0,1,0,2.59,1.51Z"/><path class="cls-6" d="M1507,906.42a26.4,26.4,0,0,0,2.85-8.35,1.55,1.55,0,0,0-1-1.85,1.51,1.51,0,0,0-1.84,1,25.34,25.34,0,0,1-1,4c-.1.32-.21.64-.33,1l-.21.54-.07.17c-.29.66-.61,1.3-1,1.94a1.5,1.5,0,1,0,2.59,1.51Z"/><path class="cls-6" d="M1477.35,897.87c0-.13-.07-.27-.09-.41-.08-.4,0,.17,0-.14a5.62,5.62,0,0,1,0-.71c0-.12,0-.24,0-.36s0-.33,0-.07c0-.26.09-.51.15-.76s.15-.5.24-.74c0-.06.19-.4,0-.09a3.18,3.18,0,0,1,.16-.32,5.76,5.76,0,0,1,.38-.69l.24-.35c0-.06.27-.34,0-.08a9.85,9.85,0,0,1,1-1.09c.06,0,.41-.31.12-.1l.29-.21c.2-.13.4-.26.61-.37l.32-.17.22-.09-.08,0c.24-.06.48-.17.73-.23l.35-.08c.06,0,.46-.07.07,0a7.94,7.94,0,0,1,.85,0,1.5,1.5,0,0,0,0-3c-5.45,0-9.85,5.65-8.54,10.9a1.52,1.52,0,0,0,1.84,1.05,1.54,1.54,0,0,0,1-1.85Z"/><path class="cls-6" d="M1500.32,871.11a16.6,16.6,0,0,0,2.73-12.5,1.5,1.5,0,0,0-2.89.8,13.64,13.64,0,0,1-2.43,10.18,1.5,1.5,0,1,0,2.59,1.52Z"/><path class="cls-6" d="M1458.53,870.38c0-.2,0-.12.06-.4-.08.2.13-.19.14-.2-.17.22.33-.29.15-.15a3.23,3.23,0,0,1,.44-.27,5,5,0,0,1,2-.54c1.88-.11,4,0,5.61-1.11,1.93-1.32,2.21-3.48,2.23-5.64a4.7,4.7,0,0,1,.37-2.33,2.68,2.68,0,0,1,.49-.69s.41-.25.23-.13c.18,0,.21,0,.08,0l.11,0a1.5,1.5,0,0,0,.79-2.9c-2.42-.63-4.31,1.43-4.85,3.61a17.72,17.72,0,0,0-.24,3.49,2.51,2.51,0,0,1-.88,2.08,5,5,0,0,1-2.54.54,15.67,15.67,0,0,0-3.13.31c-2.08.51-4.07,2-4.06,4.31a1.5,1.5,0,0,0,3,0Z"/><path class="cls-6" d="M1562.68,873.35l7.57-9.13a1.53,1.53,0,0,0,0-2.12,1.51,1.51,0,0,0-2.12,0l-7.57,9.13a1.53,1.53,0,0,0,0,2.12,1.51,1.51,0,0,0,2.12,0Z"/><path class="cls-6" d="M1560.78,869.21l-2.4-2.09a1.52,1.52,0,0,0-2.12,0,1.62,1.62,0,0,0-.18.19c-.15.18.2-.1.07-.06a1,1,0,0,0-.18.1c-.23.14.31-.07,0,0,0,0-.42.11-.42.1s.39,0,0,0h-.23a18.72,18.72,0,0,1-2.12-.15,5.75,5.75,0,0,0-2.15.13,3.05,3.05,0,0,0-2,2,1.5,1.5,0,0,0,1.05,1.84,1.54,1.54,0,0,0,1.84-1c-.15.38-.07.18,0,.09s0,0-.08.08c.19-.23,0,.1-.09,0s.11-.08.13-.08c.25,0-.35.09-.09,0l.19,0a1.06,1.06,0,0,0,.19,0s-.39,0-.11,0a14.08,14.08,0,0,1,2,.11c1.5.15,3.24.13,4.32-1.11h-2.12l2.4,2.09a1.53,1.53,0,0,0,2.12,0,1.51,1.51,0,0,0,0-2.12Z"/><path class="cls-6" d="M1560,874.72a10.31,10.31,0,0,0,8.33,2.45l-1.9-1.45c0,.14,0,.18,0,0,0,.24-.07,0,0,0-.13,0,0,.21,0,0-.11.1-.12.11,0,0h0s-.27.13-.12.07-.13,0-.15,0l-.29.06c-.25.05.2,0-.06,0a5.33,5.33,0,0,1-2.59-.42l-8.48-3a1.5,1.5,0,0,0-1.84,1.05,1.52,1.52,0,0,0,1,1.84l5.07,1.78a36.37,36.37,0,0,0,4.62,1.56c2.36.47,5.75,0,5.79-3.06a1.54,1.54,0,0,0-1.9-1.45,7,7,0,0,1-5.41-1.68,1.54,1.54,0,0,0-2.12,0,1.51,1.51,0,0,0,0,2.13Z"/><path class="cls-6" d="M1555.42,868.79a2.49,2.49,0,0,0-1.12,0,.6.6,0,0,0-.19.06,2.38,2.38,0,0,0-.49.22,2.88,2.88,0,0,0-1,1,3,3,0,0,0-.36,1.43,2.5,2.5,0,0,0,.7,1.67l.3.23a1.12,1.12,0,0,0,.56.18.68.68,0,0,0,.4,0,1.09,1.09,0,0,0,.55-.18,1.74,1.74,0,0,0,.54-.54,1.09,1.09,0,0,0,.18-.55,1,1,0,0,0,0-.6l-.41-2.47a1.26,1.26,0,0,0-.27-.51,1.31,1.31,0,0,0-.42-.39,1.61,1.61,0,0,0-1.16-.15,1.54,1.54,0,0,0-.89.69l-.16.36a1.55,1.55,0,0,0,0,.8l.42,2.47,2.51-1.46L1555,871l.23.31a1.43,1.43,0,0,1-.12-.21l.16.36a.79.79,0,0,1-.06-.22l0,.4a1.6,1.6,0,0,1,0-.31l0,.4a1,1,0,0,1,.09-.34l-.15.36a1.35,1.35,0,0,1,.19-.33l-.24.31a1.25,1.25,0,0,1,.23-.23l-.31.23a2,2,0,0,1,.25-.14l-.36.15a.9.9,0,0,1,.22-.06l-.4.05h.24l-.4-.05h.06a1,1,0,0,0,.6,0,1.12,1.12,0,0,0,.55-.18,1.53,1.53,0,0,0,.69-.89,1.51,1.51,0,0,0-.15-1.16,1.49,1.49,0,0,0-.9-.69Z"/><path class="cls-6" d="M1554.26,871.59l2.67,1.34a1.59,1.59,0,0,0,1.15.15,1.5,1.5,0,0,0,1.05-1.85,1.5,1.5,0,0,0-.69-.89l-2.67-1.34a1.59,1.59,0,0,0-1.15-.15,1.5,1.5,0,0,0-1,1.85,1.47,1.47,0,0,0,.69.89Z"/><path class="cls-6" d="M1559,873.17a1.5,1.5,0,0,0,0-3,1.5,1.5,0,0,0,0,3Z"/><path class="cls-6" d="M1527.6,920.83a6.82,6.82,0,0,1,5.93-5,6.71,6.71,0,0,0,2.5-.57,3.64,3.64,0,0,0,1.72-2.43c.49-2,.87-4.06,1.3-6.08a1.54,1.54,0,0,0-1-1.85,1.52,1.52,0,0,0-1.85,1.05c-.43,2-.82,4.07-1.31,6.09-.16.65-.35.68-1,.76a13.82,13.82,0,0,0-2.47.4,9.89,9.89,0,0,0-6.66,6.84,1.51,1.51,0,0,0,2.9.8Z"/><path class="cls-6" d="M1528.16,914.59a3,3,0,0,1-1.44,2.14l2.21.9L1526,907a1.51,1.51,0,0,0-2.74-.36,53.91,53.91,0,0,1-5.84,9.55l2.35.3a8.46,8.46,0,0,1-1.24-6.61l-2.89-.8a16.86,16.86,0,0,0-.14,5.58,9.73,9.73,0,0,0,1.73,4.82c2.41,2.86,6,.44,7.81-1.81l-1.82.24c3.31,2.27,7.63,2.08,11.19.52,3.94-1.74,6.84-5.11,9.56-8.33l-2.51-.66a19.81,19.81,0,0,1-.15,7.16c-.17.84.41,2,1.45,1.9a15,15,0,0,0,10.34-5.93c1.17-1.54-1.43-3-2.59-1.51a11.71,11.71,0,0,1-7.75,4.44l1.44,1.9a23.68,23.68,0,0,0,.15-8.76,1.51,1.51,0,0,0-2.51-.66c-3.87,4.59-10.55,11.84-17.1,7.34a1.5,1.5,0,0,0-1.82.23,6.89,6.89,0,0,1-2.21,2c-1,.47-1.32,0-1.66-.95a13,13,0,0,1-.52-6.74c.35-1.88-2.45-2.7-2.89-.8a11.47,11.47,0,0,0,1.54,8.93,1.52,1.52,0,0,0,2.36.3,56.88,56.88,0,0,0,6.31-10.16l-2.74-.36,2.9,10.66a1.51,1.51,0,0,0,2.2.89,5.94,5.94,0,0,0,2.81-3.93c.39-1.88-2.5-2.69-2.89-.8Z"/><path class="cls-6" d="M1579.33,900l.35-.48c.17-.23-.09.11,0,0l.18-.23c.25-.31.52-.61.79-.9a18.26,18.26,0,0,1,1.69-1.6l.42-.33c-.25.2,0,0,0,0l.24-.18c.32-.23.65-.45,1-.67a19.32,19.32,0,0,1,2.1-1.13l-1.82-2.35c-.37.36-.75.71-1.15,1-.19.17-.39.33-.6.5l-.3.24c.25-.2-.09.06-.11.08a23.3,23.3,0,0,1-2.6,1.71,1.52,1.52,0,0,0-.54,2.06,1.54,1.54,0,0,0,2,.54,28,28,0,0,0,5.38-4.06,1.51,1.51,0,0,0-1.82-2.36,20,20,0,0,0-7.9,6.65,1.51,1.51,0,0,0,.54,2,1.53,1.53,0,0,0,2-.54Z"/><path class="cls-7" d="M1456.8,869.79a4.24,4.24,0,0,0,1.47-1.59,11.46,11.46,0,0,1,.75-1.38l-.24.31a2.67,2.67,0,0,1,.45-.44l-.3.23a2.43,2.43,0,0,1,.44-.26l-.36.15a1.66,1.66,0,0,1,.42-.12l-.4,0h.32l-.4-.06a1.41,1.41,0,0,1,.22.06l-.36-.15a1,1,0,0,1,.2.11l-.31-.24.14.13a1.52,1.52,0,0,0,2.13,0,1.54,1.54,0,0,0,0-2.12,2.4,2.4,0,0,0-1.07-.64,2.69,2.69,0,0,0-1.26,0,3.57,3.57,0,0,0-1.67.89c-.79.69-1,1.72-1.63,2.53l.23-.3a2.27,2.27,0,0,1-.41.41l.31-.24-.18.12a1.55,1.55,0,0,0-.69.9,1.49,1.49,0,0,0,.15,1.15,1.52,1.52,0,0,0,2,.54Z"/><path class="cls-7" d="M1464.75,865.75l2.68-3.06a1.5,1.5,0,0,0-1.82-2.36l-1.94.87,2.2.89s-.06-.2,0-.23c0,.18,0,.22,0,.1a.41.41,0,0,0,0-.11c0-.16,0-.32,0-.48s0-.35,0-.53,0-.2,0-.23l0,.16,0-.18a6.62,6.62,0,0,1,.26-1,.6.6,0,0,1,.09-.22c-.07.08-.1.2,0,0s.17-.35.27-.52l-2.74-.36c0,.12,0,.25.08.37.06.31,0-.32,0,0s0,.43,0,.65a1.58,1.58,0,0,0,0,.37c0-.23,0-.28,0-.17s0,.09,0,.14c0,.21-.1.42-.16.63l-.12.36c-.1.27.14-.3,0,0a6.36,6.36,0,0,1-.3.58c-.08.14-.35.4-.37.55q.21-.27.06-.09l-.09.11-.23.24c-.07.08-.47.36-.48.44l.08-.06-.07,0-.32.2-.24.14a1.45,1.45,0,0,0-.33.16l.14-.06-.13,0-.35.11-.28.07-.18,0c.23,0,.26,0,.09,0a1.7,1.7,0,0,1-.31,0c.23,0,.26,0,.09,0s-.13,0,.08,0l-.09,0a.7.7,0,0,1,.29.3c-.08-.13-.06-.08,0,.15,0-.11,0-.1,0,0s0,.16,0,0c-.05.28-.05.34,0,.18a1,1,0,0,1-.66.67,1.5,1.5,0,1,0-.8-2.89,2.24,2.24,0,0,0-.77,3.8,3.72,3.72,0,0,0,3.77.33,7.3,7.3,0,0,0,4.33-4.6,6.54,6.54,0,0,0,.13-3.64,1.51,1.51,0,0,0-2.74-.36,8,8,0,0,0-.9,5.49,1.41,1.41,0,0,0,.87,1,1.55,1.55,0,0,0,1.33-.07l1.94-.87-1.81-2.35-2.68,3a1.5,1.5,0,0,0,2.12,2.13Z"/><path class="cls-7" d="M1499.94,867.08a3.63,3.63,0,0,0-.59-4.41,1.5,1.5,0,0,0-2.51,1.46l.56,2.15,2.75-1.16q-.36-.76-.69-1.53c-.12-.26-.23-.51-.34-.77q-.06-.15,0,.06l-.1-.24-.15-.35c-.42-1-.82-2.08-1.2-3.14l-2.51,1.46.27.28.11.12c-.11-.14-.14-.17-.07-.08a6,6,0,0,1,.37.6c0,.07.23.37,0,0a1.66,1.66,0,0,1,.12.31l.09.32c0,.08.1.57,0,.13a1.63,1.63,0,0,0,.44,1.07,1.51,1.51,0,0,0,1.06.43c.72,0,1.61-.66,1.5-1.5a6.33,6.33,0,0,0-1.84-3.84,1.5,1.5,0,0,0-2.5,1.46q1.21,3.4,2.75,6.68a1.49,1.49,0,0,0,1.87.62,1.51,1.51,0,0,0,.87-1.77l-.57-2.14-2.5,1.46a1.8,1.8,0,0,0,.19.2c-.14-.18-.16-.21-.07-.07l0,.08c.17.24-.06-.28,0,0,0,0,.07.43,0,.16s0,.08,0,.13c0,.35,0-.16,0,0s0,.18-.07.27,0,.06.06-.14l-.09.16a1.5,1.5,0,0,0,.54,2.05,1.52,1.52,0,0,0,2-.53Z"/><path class="cls-7" d="M1500.84,863.75l.32-1a1.22,1.22,0,0,0,0-.6,1.34,1.34,0,0,0-.57-1,1.14,1.14,0,0,0-.51-.27l-.4,0a1.5,1.5,0,0,0-.75.2l-.31.24a1.57,1.57,0,0,0-.38.66l-.33,1a1.82,1.82,0,0,0,.15,1.16,1.31,1.31,0,0,0,.39.42,1.26,1.26,0,0,0,.51.27l.4.05a1.57,1.57,0,0,0,.76-.2l.3-.24a1.53,1.53,0,0,0,.39-.66Z"/><path class="cls-7" d="M1497.51,866.92l-.34,1.34a1.18,1.18,0,0,0,0,.59,1.34,1.34,0,0,0,.57,1,1.14,1.14,0,0,0,.51.27l.4,0a1.41,1.41,0,0,0,.75-.2l.31-.24a1.45,1.45,0,0,0,.38-.66l.34-1.33a1.12,1.12,0,0,0,0-.6,1.09,1.09,0,0,0-.18-.55,1.54,1.54,0,0,0-.89-.69l-.4-.06a1.45,1.45,0,0,0-.76.21l-.3.23a1.49,1.49,0,0,0-.39.66Z"/><path class="cls-8" d="M1495.83,864.67V865a1.27,1.27,0,0,0,.13.58,1.24,1.24,0,0,0,.31.48,1.72,1.72,0,0,0,1.06.44l.4,0a1.39,1.39,0,0,0,.66-.39l.24-.3a1.57,1.57,0,0,0,.2-.76v-.33a1.06,1.06,0,0,0-.13-.58,1.36,1.36,0,0,0-.79-.79,1.06,1.06,0,0,0-.58-.13l-.4.05a1.49,1.49,0,0,0-.66.39l-.23.3a1.45,1.45,0,0,0-.21.76Z"/><path class="cls-8" d="M1495.94,867.39l.33,1.66a1.14,1.14,0,0,0,.27.51,1.12,1.12,0,0,0,.42.39,1.16,1.16,0,0,0,.56.18,1.22,1.22,0,0,0,.6,0,1.55,1.55,0,0,0,.9-.69l.15-.36a1.51,1.51,0,0,0,0-.79l-.34-1.67a1.06,1.06,0,0,0-.27-.51,1.13,1.13,0,0,0-.42-.39,1.77,1.77,0,0,0-1.15-.15,1.53,1.53,0,0,0-.9.69l-.15.36a1.55,1.55,0,0,0,0,.8Z"/><path class="cls-8" d="M1458.67,866.18a6.51,6.51,0,0,1,1.59,0l-.4,0a6.8,6.8,0,0,1,1.26.3l.4.05a1,1,0,0,0,.57-.13,1.58,1.58,0,0,0,.72-.61,3.65,3.65,0,0,0,.55-1.14,3.88,3.88,0,0,0,.14-1.27,1.68,1.68,0,0,0-.44-1.06,1.56,1.56,0,0,0-1.06-.44,1.54,1.54,0,0,0-1.06.44,1.47,1.47,0,0,0-.44,1.06,2.79,2.79,0,0,1,0,.5l0-.4a2.26,2.26,0,0,1-.17.63l.15-.36a2.78,2.78,0,0,1-.3.53l1.7-.69a7.33,7.33,0,0,0-3.25-.36,1.06,1.06,0,0,0-.58.13,1,1,0,0,0-.48.31,1.5,1.5,0,0,0-.44,1.06,1.52,1.52,0,0,0,.44,1.06,1.46,1.46,0,0,0,1.06.44Z"/><path class="cls-9" d="M704,149.11a18.15,18.15,0,0,0,11.7,6l-.17.23c4.56-.91,9-2,13.08-4.56,5.57-3.43,11.51-6.94,16.36-11.35,4.43-4,7-9.75,8.95-15.32,1.88-5.28,3.42-11.15,2.67-16.8l-1.11-4c-5.09-13-15.64-23.45-29.5-26.5-2-.51-6.54-1.84-8.59-1.91-.81-2.91-3.69-4.76-6.56-5.19-5.21.52-15.81,5.41-17.34,10.73-6.3-2.19-13.85-2.66-20.09-5.1l-8.29,37.24a29,29,0,0,0,8.29,9.42c2,1.61,5.08,2.81,5.61,5.5,2.23,3.26,4.11,7.85,7.67,9.87,2.82,1.32,5.92,3.33,8.8,4.54,2.5.64,5.73,1.33,8,2.58C701.5,144.87,703.12,147.94,704,149.11Z"/><path class="cls-10" d="M703.75,145.16a14.75,14.75,0,0,0,1.88,0,5,5,0,0,1,1.74.16.63.63,0,0,0,.33-1.21c-1.29-.39-2.63-.07-4-.17a.63.63,0,0,0-.63.62.65.65,0,0,0,.63.63Z"/><path class="cls-10" d="M679.08,127.56c5,1.88,10.27,2.27,15.42,3.44a19.08,19.08,0,0,1,3.37,1.34,28.29,28.29,0,0,0,3.39,1.18,47.5,47.5,0,0,0,7.48,1.54c1.59.2,1.57-2.3,0-2.5a43.55,43.55,0,0,1-7.23-1.57c-2.32-.69-4.41-2-6.78-2.5-5-1-10.17-1.53-15-3.34-1.51-.56-2.16,1.85-.66,2.41Z"/><path class="cls-10" d="M736.87,115.48a13.54,13.54,0,0,1-2.45,4.62,50.75,50.75,0,0,1-3.36,4.12c-1.12,1.27-2.21,2.82-3.75,3.57-1.36.66-2.73,1.37-3.08,3-.65,3,2.71,6,5.44,6.24,3.49.3,6.33-1.93,9.28-3.36a14.58,14.58,0,0,0,4.11-3.6,29.94,29.94,0,0,0,3.7-4.78A1.25,1.25,0,0,0,744.6,124a27.8,27.8,0,0,1-3.55,4.53c-.63.68-1.25,1.4-1.94,2a10.78,10.78,0,0,1-2.35,1.37,21.37,21.37,0,0,1-4.79,2.31,4.7,4.7,0,0,1-2.75.14,4.88,4.88,0,0,1-1.94-1.52c-.46-.57-.94-1.36-.34-2a10.39,10.39,0,0,1,2.23-1.2,19.07,19.07,0,0,0,3.9-3.92c2.41-2.74,5.34-5.93,6.21-9.57.38-1.56-2-2.23-2.41-.67Z"/><path class="cls-10" d="M693,80.4c0,2.14,2.24,2.88,3.93,2.06a31.08,31.08,0,0,0,2.67-1.79c1-.63,2-1.25,3.11-1.79,2.11-1,4.61-1.32,6.9-1.76s4.91-1.31,7.25-1c1.59.21,1.57-2.29,0-2.5a18.43,18.43,0,0,0-5.57.64c-2,.39-4.11.77-6.15,1.2a17.06,17.06,0,0,0-5.08,2c-.81.47-1.62.94-2.4,1.45-.38.25-.73.53-1.1.79a8.16,8.16,0,0,0-1.06.67,1.25,1.25,0,0,0-2.5,0Z"/><path class="cls-11" d="M720.34,98.69c.09,3.59,3.78,9.16,7.54,9.62.85.17,2,0,1.56-1.17a21.52,21.52,0,0,0-3-5.88C725,100.05,721.9,96.09,720.34,98.69Z"/><path class="cls-11" d="M706.27,78.63c0,3.26,3.72,5.22,5.37,7.75,3.33,5.19,4.73.61,3.14-3C713.38,81.15,709.07,76.68,706.27,78.63Z"/><path class="cls-12" d="M646.43,78.75c4.05-4.74,11.23-4.69,16.92-5.34,5.15-1.35,11.26,1.23,15,4.74a53.28,53.28,0,0,1,6.18,14.23c3.14,4.69,2.92,8.25,1.52,13.53-1.79,7.93-10.22,12.9-17.73,8.89-4.28-2.34-7.56-6.22-6.71-11.36-1.12-4.06-4.15-7.78-6.89-10.9C649,90.46,644.09,85.19,646.43,78.75Z"/><path class="cls-13" d="M657.32,84.05c-1.14,4.56,6.34,9.38,9.2,4.72C670.3,81.31,661.42,77,657.32,84.05Z"/><path class="cls-13" d="M669,101.58c-2.33,5.63,4.8,9.65,8.06,4.22C680.83,98.65,673.22,96.76,669,101.58Z"/><path class="cls-10" d="M689.12,83.83a12.2,12.2,0,0,1,6.6,9,25.49,25.49,0,0,1,.76,6.44,25.14,25.14,0,0,1-1.65,6.76c-.27.76.94,1.09,1.2.33a26.31,26.31,0,0,0,1.7-7.09,27.22,27.22,0,0,0-.89-7.18,13.26,13.26,0,0,0-7.09-9.34c-.72-.35-1.36.73-.63,1.08Z"/><path class="cls-10" d="M700.13,87.93c1,1.15,2.17,2.21,3.1,3.45A10.16,10.16,0,0,1,705,95.74a7.7,7.7,0,0,1-.42,5.12c-.81,1.58-1.7,3.14-2.6,4.68a.63.63,0,0,0,1.08.63,54.85,54.85,0,0,0,2.93-5.38,8.67,8.67,0,0,0,.26-5.07A11.31,11.31,0,0,0,704.48,91,48.17,48.17,0,0,0,701,87c-.54-.6-1.42.29-.89.89Z"/><path class="cls-10" d="M708.55,88.15a60.27,60.27,0,0,1,4.39,9.76,18.79,18.79,0,0,1,1.3,4.93,9.2,9.2,0,0,1-1.51,5.48c-.39.71.69,1.34,1.08.63a10.74,10.74,0,0,0,1.72-5.3,16.19,16.19,0,0,0-1.12-5.36c-.65-1.84-1.45-3.62-2.2-5.42a40.51,40.51,0,0,0-2.58-5.35.63.63,0,0,0-1.08.63Z"/><path class="cls-10" d="M715.72,79.2a4.6,4.6,0,0,0,2,1.8,25.12,25.12,0,0,1,3.2,1.89,18.06,18.06,0,0,1,3,2.72,6.73,6.73,0,0,1,1.51,4c.3,2.36,2.69,3.55,4.34,4.94,2.17,1.83,2.82,4.35,3.38,7,.16.78,1.37.45,1.2-.33-.49-2.39-1.07-4.86-2.76-6.71a22.77,22.77,0,0,0-2.83-2.35A10.65,10.65,0,0,1,727.45,91a3.68,3.68,0,0,1-.8-2.36c-.28-2.48-1.87-4.22-3.7-5.78a20.5,20.5,0,0,0-3-2.11c-1.07-.62-2.55-1-3.18-2.18-.39-.7-1.47-.07-1.08.63Z"/><path class="cls-10" d="M733.18,101.46a1.72,1.72,0,0,0,.56,1.18,1.8,1.8,0,0,0,.62.37,3.4,3.4,0,0,0,.7.11l-.17,0,.2,0-.15-.06a.3.3,0,0,1,.11.06l-.13-.1s0,0,.05,0a.63.63,0,0,0,.89-.88,1.05,1.05,0,0,0-.55-.31c-.2,0-.39,0-.58-.06l.16,0-.24-.07.15.06a.89.89,0,0,1-.25-.14l.13.09a1.34,1.34,0,0,1-.21-.2l.1.12a1.28,1.28,0,0,1-.15-.25l.07.15a.84.84,0,0,1-.07-.26l0,.16s0,0,0-.06a.65.65,0,0,0-.18-.44.68.68,0,0,0-.44-.19.61.61,0,0,0-.44.19.6.6,0,0,0-.19.44Z"/><path class="cls-10" d="M716.65,83.6a2.3,2.3,0,0,0,1.18,1.1c.53.19,1.14,0,1.61.35a5.72,5.72,0,0,1,1,1.28c.34.46.76.84,1.13,1.27a8.28,8.28,0,0,1,1.2,2.85,4,4,0,0,0,2.08,2.41c.73.33,1.36-.75.63-1.08a3.26,3.26,0,0,1-1.72-2.32,7,7,0,0,0-1.3-2.75,13.94,13.94,0,0,1-1-1.14,8.56,8.56,0,0,0-1-1.31,2.39,2.39,0,0,0-1.44-.67,2.76,2.76,0,0,1-.76-.07,1.16,1.16,0,0,1-.5-.55c-.39-.71-1.47-.08-1.08.63Z"/><path class="cls-10" d="M724.79,92.81c.17.13.3.32.46.46a3.45,3.45,0,0,0,.59.41,6.29,6.29,0,0,1,1.1.82,3.32,3.32,0,0,1,.84,1.06c.17.44,0,1,.09,1.45.06.23.18.44.25.67a5.55,5.55,0,0,1,.13.71,3.86,3.86,0,0,0,2.17,3c.72.34,1.35-.74.63-1.08a2.68,2.68,0,0,1-1.49-1.7c-.13-.46-.13-.93-.28-1.38a3,3,0,0,1-.23-.65,6.44,6.44,0,0,1,0-.76,3.59,3.59,0,0,0-1.41-2.33,7.72,7.72,0,0,0-1.14-.83c-.42-.26-.71-.62-1.11-.91-.66-.47-1.28.62-.63,1.08Z"/><path class="cls-11" d="M724.82,100.82"/><path class="cls-10" d="M708.31,82.87a4,4,0,0,1,4.94,1.21.64.64,0,0,0,.86.23.63.63,0,0,0,.22-.86,5.23,5.23,0,0,0-6.65-1.66c-.71.38-.08,1.46.63,1.08Z"/><path class="cls-10" d="M711.84,85.17a5.12,5.12,0,0,0-2-6,.62.62,0,0,0-.85.22.64.64,0,0,0,.22.86,3.88,3.88,0,0,1,1.42,4.6.62.62,0,1,0,1.2.33Z"/><path class="cls-10" d="M722.22,103.08a4.72,4.72,0,0,1,4.23,1.91.65.65,0,0,0,.86.22.62.62,0,0,0,.22-.85,6,6,0,0,0-5.31-2.53.64.64,0,0,0-.62.62.63.63,0,0,0,.62.63Z"/><path class="cls-10" d="M725,105.89A6.79,6.79,0,0,0,724.1,99a.62.62,0,0,0-.88,0,.63.63,0,0,0,0,.88,5.47,5.47,0,0,1,.72,5.36.66.66,0,0,0,.22.86.64.64,0,0,0,.86-.22Z"/><path class="cls-6" d="M1561.56,878.17c3.21,0,3.22-5,0-5s-3.23,5,0,5Z"/><path class="cls-6" d="M1516,945.22a11.15,11.15,0,0,1,.49-3.62,11.92,11.92,0,0,1,.59-1.6,13.74,13.74,0,0,1,1-1.72,1.25,1.25,0,0,0-.45-1.71,1.27,1.27,0,0,0-1.71.45,14.8,14.8,0,0,0-2.38,8.2,1.26,1.26,0,0,0,1.25,1.25,1.28,1.28,0,0,0,1.25-1.25Z"/><path class="cls-6" d="M1515.32,941.89a6.87,6.87,0,0,0,0,1.92,7.22,7.22,0,0,0,.55,1.82,1.26,1.26,0,0,0,1.71.45,1.28,1.28,0,0,0,.58-.75l0-.33a1.24,1.24,0,0,0-.17-.63l0,0,.12.3a6.62,6.62,0,0,1-.41-1.51l0,.34a5.82,5.82,0,0,1,0-1.56,1.26,1.26,0,0,0-1.25-1.25,1.24,1.24,0,0,0-.89.37l-.19.25a1.15,1.15,0,0,0-.17.63Z"/><path class="cls-6" d="M1536.25,943.79a11.32,11.32,0,0,0,.49-3.42c0-1.23-.14-2.72-1.5-3.18a3.36,3.36,0,0,0-.76-.13,3.16,3.16,0,0,1-.32,0c.17,0-.08,0-.13,0a1.6,1.6,0,0,1-.75-.46c.1.1-.06-.09-.08-.12s-.12-.28-.06-.12c0,0-.09-.33-.07-.2s0-.22,0-.22,0-.18,0,0a1.71,1.71,0,0,1,.09-.3c0-.08,0-.08,0,0l.06-.11c.16-.19-.07.06.13-.14,1.15-1.12-.62-2.89-1.77-1.76a3.51,3.51,0,0,0,1,5.59,4.21,4.21,0,0,0,1.66.43h.13c-.1,0-.1,0,0,0s.09,0,0,0l-.26-.33a4.71,4.71,0,0,1,.09.58,9,9,0,0,1-.37,3.34,1.25,1.25,0,1,0,2.41.67Z"/><path class="cls-6" d="M1561.6,942.16a79,79,0,0,0,4.19-9l-2.41-.67c-.27,1.33.06,3.06,1.61,3.42a2,2,0,0,0,2.26-2.78,1.25,1.25,0,0,0-2.16,1.26.83.83,0,0,1,.12-.88c-.1.15,0,0,.09,0h0l.14,0a1.6,1.6,0,0,1,.35.12l.06.08c-.06-.11-.07-.13,0,0s0-.15,0-.18c0,.26,0-.11,0-.14,0-.26,0,.15,0-.13a1.25,1.25,0,0,0-2.41-.67,71.39,71.39,0,0,1-3.94,8.4,1.25,1.25,0,0,0,2.16,1.27Z"/><path class="cls-6" d="M1564.87,933.3a11.58,11.58,0,0,0-2,5.63c-.1,1.06-.11,2.35,1,2.83a1.83,1.83,0,0,0,1.61-.14c.15-.07.29-.17.43-.25l.22-.13c-.21.12.14,0-.17,0l-1.25-1.25a4.6,4.6,0,0,1-.26,2,1.27,1.27,0,0,0,.87,1.54,1.29,1.29,0,0,0,1.54-.88,6.75,6.75,0,0,0,.35-2.64,1.26,1.26,0,0,0-1.25-1.25,2.75,2.75,0,0,0-1.18.36l-.35.22-.17.09c-.13.07-.11.06.06,0a.87.87,0,0,1,.78.22.56.56,0,0,1,.19.4c.06-.09,0-.43,0-.54s0-.38,0-.57l0-.28c0,.1,0,.07,0-.09a9.28,9.28,0,0,1,1.65-4,1.26,1.26,0,0,0-.45-1.71,1.28,1.28,0,0,0-1.71.45Z"/><path class="cls-14" d="M1522.53,914.08a6,6,0,0,1,1.12-1.52l-2.08-1.21a12.84,12.84,0,0,0-.67,5.67,1.27,1.27,0,0,0,2.14.88,21.38,21.38,0,0,0,2.36-2.49l-2.13-.89a4.79,4.79,0,0,1-.08,1.73l2.41.66-.06.15-.44.45c-.82.14-1.22,0-1.22-.48l0,.29.06.59.15,1.28.28,2.55a1.28,1.28,0,0,0,.77,1.14,1.24,1.24,0,0,0,1.36-.26c1.53-1.79,2-4,2.37-6.28l-2.45-.33a1.54,1.54,0,0,0,1.36,1.51,1.85,1.85,0,0,0,1.76-1c.86-1.37-1.3-2.62-2.16-1.26-.12.18-.1.16,0,0l.64-.18.3.1.45.45-.06-.09.17.63V916a1.28,1.28,0,0,0-1.09-1.23,1.23,1.23,0,0,0-1.37.9c-.28,1.75-.53,3.77-1.72,5.17l2.13.89-.51-4.61c-.1-.82-.34-1.71-1.25-2a1.55,1.55,0,0,0-2,1.08,1.25,1.25,0,1,0,2.41.66,6.62,6.62,0,0,0,.17-2.39,1.28,1.28,0,0,0-.77-1.14,1.23,1.23,0,0,0-1.36.26,20.69,20.69,0,0,1-2.37,2.49l2.13.89a11.08,11.08,0,0,1,.58-5c.43-1.22-1.25-2-2.09-1.22a8.36,8.36,0,0,0-1.52,2,1.25,1.25,0,1,0,2.16,1.26Z"/><path class="cls-14" d="M1528.86,916.33a5.61,5.61,0,0,0,.31,1.95,1.34,1.34,0,0,0,.88.88,1.31,1.31,0,0,0,1.21-.32,5.58,5.58,0,0,0,1.87-2.84l-1.54.87a.7.7,0,0,1-.45-.49,1.29,1.29,0,0,0,.87.87,1.23,1.23,0,0,0,1.22-.32,16.93,16.93,0,0,1,1.32-1.49c.22-.22.44-.43.68-.63s.33-.23.4-.35a.81.81,0,0,1-1.09-.06c.08.08.09.09,0,0s.09.16.11.2a2.63,2.63,0,0,0,.33.49,2.16,2.16,0,0,0,.88.57,1.57,1.57,0,0,0,2-1l-2.46-.33-.14,1.68,2.46-.33c-.46-1.8-.87-3.6-1.21-5.42a1.25,1.25,0,0,0-1.54-.87,1.27,1.27,0,0,0-.87,1.53c.34,1.82.75,3.63,1.21,5.42a1.25,1.25,0,0,0,2.45-.33l.14-1.68a1.23,1.23,0,0,0-1.08-1.23,1.26,1.26,0,0,0-1.37.9c.28-.55.64-.78,1.11-.7.17.08.19.09.07,0a.45.45,0,0,1,.18.15c.06.09.07.08,0,0a2.66,2.66,0,0,0-.51-.73,1.7,1.7,0,0,0-2.29-.18,15.58,15.58,0,0,0-2.62,2.64l2.09.56a2,2,0,0,0-1.3-1.26,1.26,1.26,0,0,0-1.53.87c0,.12-.07.23-.11.34s0,0,0,.08-.21.37-.32.56,0,0,0,.07-.13.15-.19.22a4.8,4.8,0,0,1-.53.47l2.09.55a3,3,0,0,1-.22-1.29,1.26,1.26,0,0,0-1.25-1.25,1.28,1.28,0,0,0-1.25,1.25Z"/><path class="cls-14" d="M1541.88,914.11l1.19-1.18-2-1.51c-.25.35-.5.7-.77,1,0,0-.16.22,0,0s0,0,0,0l-.19.23-.43.53c-.56.68-1.14,1.33-1.74,2a1.25,1.25,0,1,0,1.76,1.77,39.21,39.21,0,0,0,3.58-4.35,1.26,1.26,0,0,0-2-1.52l-1.18,1.18a1.25,1.25,0,0,0,1.76,1.77Z"/><path class="cls-14" d="M1476.64,895.81c-.09-.09-.06-.06.07.1l-.06-.11c.08.2.09.24,0,.12l0-.13c-.06-.2,0,.34,0,0s-.07.21,0,0a.5.5,0,0,1,0-.13c0-.12,0-.09-.06.11a.7.7,0,0,0,.09-.17c.1-.19-.2.25,0,0s-.26.18,0,0,.08,0-.12,0l.19-.06c.14,0,.12,0,0,0l.19,0a7.09,7.09,0,0,0,.91-.12,3.58,3.58,0,0,0,1.52-.85,6.77,6.77,0,0,0,1-1.19,3.84,3.84,0,0,0,.73-1.42,1.88,1.88,0,0,0-.82-2,1.67,1.67,0,0,0-2.11.23A1.25,1.25,0,0,0,1480,892c.15-.16,0-.1-.36.19a.82.82,0,0,1-.44,0q-.29-.13-.15-.06c.08,0,0,0-.13-.1a.77.77,0,0,1-.19-.34c0-.21,0-.24,0-.09v-.15c0,.14,0,.12,0,0,0,.17-.24.41-.34.56l-.18.24c0,.08-.18.34,0,.06a1.9,1.9,0,0,1-.4.45l-.19.17c-.1.09-.08.07.06,0l-.14.09a1.2,1.2,0,0,1-.21.12c.17-.07.19-.08.06,0l-.12,0-.13,0c-.14,0-.13,0,0,0a1.75,1.75,0,0,1-.33,0,2.79,2.79,0,0,0-1.49.47,2.72,2.72,0,0,0-1,1.32,2.67,2.67,0,0,0,.53,2.69,1.25,1.25,0,0,0,1.77,0,1.29,1.29,0,0,0,0-1.77Z"/><path class="cls-14" d="M1491.67,935.47l-.69,1.32a.86.86,0,0,0-.14.46.94.94,0,0,0,0,.5.93.93,0,0,0,.22.43,1.07,1.07,0,0,0,.35.32,1.31,1.31,0,0,0,1,.13,1.26,1.26,0,0,0,.74-.58l.69-1.32a1,1,0,0,0,.15-.47,1,1,0,0,0,0-.5,1,1,0,0,0-.23-.42.9.9,0,0,0-.35-.32,1.24,1.24,0,0,0-1-.13,1.28,1.28,0,0,0-.75.58Z"/><path class="cls-14" d="M1553.56,872.22a.3.3,0,0,1-.14.18l1.84.74a12.8,12.8,0,0,1-.17-1.75c0-.27,0-.54,0-.81a.64.64,0,0,0,.06-.18c.07.07-.31.28-.28.22s.23.07.3.24a3.51,3.51,0,0,1,.14,1.37,1.26,1.26,0,0,0,1.88,1.08c-.35,0-.4,0-.14.07l-.87-.87.58,2.55a1.26,1.26,0,0,0,2.28.3c.67-1.18,1.28-2.41,2-3.55l-.45.45.13-.1-.63.17c-.23,0-.07-.06,0,.12s.18.29.25.44a6,6,0,0,1,.32,1,6.19,6.19,0,0,0,1.21,2.61c1.13,1.26,3.64,1.42,4.44-.32a1.26,1.26,0,0,0-2-1.51c-.73.63-2-.82-2.44-1.27a3,3,0,0,1-.92-1.34c-.07-.36,0-.53.34-.62a11,11,0,0,0,2-.46,5.4,5.4,0,0,0,1.55-1.08,12,12,0,0,0,2.17-3.23,1.28,1.28,0,0,0-.45-1.71,1.26,1.26,0,0,0-1.71.45c-.6,1.19-1.34,2.8-2.67,3.34-.78.32-1.62.17-2.37.62a2.84,2.84,0,0,0-1.3,2.22c-.18,1.8,1.22,3.31,2.49,4.4,1.48,1.27,3.53,1.84,5.13.44l-2-1.51c0,.1-.09.15,0,0s0,0,0,0-.27,0-.2,0c-.16,0-.16,0-.24-.11a1.69,1.69,0,0,1-.36-.55,21.38,21.38,0,0,0-1.06-3c-.69-1.13-2.28-2.2-3.37-.91a10.9,10.9,0,0,0-1,1.78l-1.07,1.9,2.28.3a15.51,15.51,0,0,0-.65-2.71c-.44-1-1.76-1-2.59-.54l1.88,1.08a4.93,4.93,0,0,0-.68-2.94,2.72,2.72,0,0,0-2.59-1.13c-2.58.4-2,3.84-1.7,5.65a1.25,1.25,0,0,0,1.83.74,3.17,3.17,0,0,0,1.29-1.66,1.26,1.26,0,0,0-.87-1.54,1.28,1.28,0,0,0-1.54.87Z"/><path class="cls-14" d="M1562.87,938.55l.29-1a7.75,7.75,0,0,1,.27-.94l-.13.3a1.62,1.62,0,0,1,.1-.18l-.19.25a.36.36,0,0,1,.11-.1l-.26.19.09,0-1.83-.75a13.07,13.07,0,0,1,.57,1.94,16.56,16.56,0,0,0,.43,1.88,1.46,1.46,0,0,0,2,1,1.64,1.64,0,0,0,1-1.36l.33-2.16a1.34,1.34,0,0,0-.13-1,1.21,1.21,0,0,0-.74-.57,1.24,1.24,0,0,0-1.54.87l-.2,1.31-.1.61a2.6,2.6,0,0,1-.12.63l.13-.3,0,.06.19-.25a.27.27,0,0,1-.08.07l.26-.2,0,0,.3-.13,0,0,.33,0h0l.33,0h0l.3.12,0,0,.25.2,0,0,.19.26a.41.41,0,0,1-.05-.09l.13.3a17.8,17.8,0,0,1-.44-1.92,11.49,11.49,0,0,0-.56-1.9,1.31,1.31,0,0,0-.73-.81,1.28,1.28,0,0,0-1.11.06,2.15,2.15,0,0,0-1,1.56l-.41,1.51a1.25,1.25,0,1,0,2.41.66Z"/><path class="cls-15" d="M1706.33,864.07c1.1-.3,2.2-.56,3.32-.79.55-.11,1.11-.21,1.67-.3l.91-.15a3.18,3.18,0,0,1,.38,0,48.26,48.26,0,0,1,6.8-.34l-2.16-3.76c-.11.19-.24.38-.36.57s-.18.25,0,0c-.07.09-.15.17-.23.26a8.54,8.54,0,0,1-1.09,1,2.5,2.5,0,0,0,0,3.53,2.57,2.57,0,0,0,3.54,0,10,10,0,0,0,2.48-2.87,2.52,2.52,0,0,0-2.16-3.76,50.82,50.82,0,0,0-14.41,1.8,2.5,2.5,0,1,0,1.33,4.82Z"/><path class="cls-16" d="M1713.86,869.59a26,26,0,0,1,3.89-2.09l-1.79.76a26.18,26.18,0,0,1,6.19-1.69l-2,.26a26.84,26.84,0,0,1,6.82,0l-2-.27a25.27,25.27,0,0,1,5.07,1.27l-3.31-12.53c-.25.29-.51.58-.78.84a5.22,5.22,0,0,1-.43.39c-.44.37-.19.18.76-.58-.68.23-1.34.81-2,1.1l1.79-.76a12.19,12.19,0,0,1-2.28.61l2-.27c-3.4.41-7-.15-10.38-.37l-10.89-.71a7.16,7.16,0,0,0-5.89,3,7.56,7.56,0,0,0-1.35,6.54c.85,4,4.15,6.81,7.81,8.24,2.74,1.06,5.82.91,8.71.91h7.92c2.3,0,4.64.12,6.92-.1,3.85-.37,7.23-1.58,9.66-4.74,3.19-4.12,2.27-9.55-1.5-13a23.6,23.6,0,0,0-15.83-6,28.09,28.09,0,0,0-9.13,1.58,43.8,43.8,0,0,0-4.79,2c-1.18.58-2.26,1.36-3.45,1.9l1.79-.76-.33.07,2-.27-.37-.05,2,.27a10.8,10.8,0,0,0-6.63.14l9.5,7.23a2.48,2.48,0,0,1,0-.72l-.27,2a3.2,3.2,0,0,1,.19-.69l-.76,1.79a3,3,0,0,1,.34-.64q-1.18,1.41-.57.81c.43-.39.17-.19-.77.61a4.5,4.5,0,0,1,.73-.36l-1.79.76a10.83,10.83,0,0,1,1.7-.42l-2,.27c2.66-.3,5.39-.22,8.07-.29a59.2,59.2,0,0,1,7.65,0l-2-.27a9.76,9.76,0,0,1,2.32.59l-1.79-.75c.08,0,1.06.47,1.05.58,0-.09-1.53-1.29-.44-.27.54.5,1,1,1.59,1.53s.93.8,1.37,1.22a6.32,6.32,0,0,0,.75.79c-.4-.1-1.06-1.68-.44-.38l-.76-1.79a2.64,2.64,0,0,1,.17.61l-.26-2a2.29,2.29,0,0,1,0,.64l.27-2a2.46,2.46,0,0,1-.17.62l.75-1.79-.14.27a3.75,3.75,0,0,1,1.33-1.46c1.06-.82.28-.26,0-.11l1.79-.75a7.57,7.57,0,0,1-1.57.42l2-.27a20.9,20.9,0,0,1-5.24-.16l2,.27c-3.83-.56-7.57-1.47-11.43-1.87a38.25,38.25,0,0,0-5-.21,47.53,47.53,0,0,1-4.92.11l2,.27a8.55,8.55,0,0,1-1.66-.4l1.79.76a4.12,4.12,0,0,1-.66-.34c1,.86,1.33,1.09.91.67s-.18-.12.67.9a3.37,3.37,0,0,1-.3-.56l.76,1.79a3.93,3.93,0,0,1-.25-.89l.26,2a2.9,2.9,0,0,1,0-.59l-.27,2a2.62,2.62,0,0,1,.12-.57l-.75,1.79c.31-.65.08-.4-.71.77-1.07.73-1.28.92-.6.57l-1.79.76a6,6,0,0,1,1.09-.27l-2,.27c2.25-.25,4.55-.22,6.81-.31,3.91-.16,7.68-3.34,7.5-7.5-.18-3.93-3.3-7.67-7.5-7.5-3.87.15-8.15-.16-11.69,1.6-5.13,2.55-6.52,9.14-3.79,13.94,2.36,4.17,7,6,11.58,5.9a63,63,0,0,1,9.61.19l-2-.27c4.88.7,9.85,2.33,14.83,2,3.14-.23,6.23-1.06,8.53-3.35a10,10,0,0,0,1.61-11.83c-1.1-2.1-2.88-3.48-4.54-5.07a17.29,17.29,0,0,0-7.38-4.73,26,26,0,0,0-7.62-.58l-6.82.18c-3.58.09-7.06.14-10.36,1.73-3.62,1.75-6.42,6-6.1,10.07a7.66,7.66,0,0,0,3,5.89c1.71,1.32,4.4,2.22,6.54,1.34a4.77,4.77,0,0,1,1.12-.31l-2,.27a2.91,2.91,0,0,1,.78,0l-2-.27a12.72,12.72,0,0,0,5.1.21,10,10,0,0,0,3.09-1.36,35.25,35.25,0,0,1,3.86-2l-1.79.76a25.13,25.13,0,0,1,6.24-1.77l-2,.27a20,20,0,0,1,4.89,0l-2-.26a18.26,18.26,0,0,1,4.19,1.12l-1.79-.75a23,23,0,0,1,2.58,1.4c.47.33.23.13-.73-.59a14.59,14.59,0,0,1,1.17,1c-.73-1.08-.9-1.3-.53-.64l-.75-1.79.1.34-.27-2v.35l.27-2-.08.34.76-1.79c-.25.5-.17.46.24-.13s.52-.63.15-.23l1-.76a4.71,4.71,0,0,1-.59.32l1.8-.76a8.42,8.42,0,0,1-2,.52l2-.27a89.84,89.84,0,0,1-9.57.12,92.12,92.12,0,0,1-10.11-.1l2,.27a9.11,9.11,0,0,1-2-.54l1.79.76c-.69-.34-1.61-1.3.08.21-.52-.55-.35-.3.52.73a3.36,3.36,0,0,1-.3-.6l.75,1.79a3,3,0,0,1-.17-.65l-7.23,9.49,16.33,1.06a23.11,23.11,0,0,0,8.49-.6,17.29,17.29,0,0,0,8-5.11,7.5,7.5,0,0,0-3.31-12.53,32.06,32.06,0,0,0-27.74,3.28c-3.28,2.13-5,6.74-2.69,10.26,2.11,3.28,6.74,5,10.26,2.69Z"/><path class="cls-17" d="M684.85,137.78a39.21,39.21,0,0,0,8.85,4.94,39.87,39.87,0,0,0,4.67,1.54c.81.22,2.86.67,2.44,1.92-.62,1.84,2.27,2.62,2.89.8a4.11,4.11,0,0,0-2.1-4.71c-1.57-.89-3.49-1.15-5.19-1.73a36.68,36.68,0,0,1-10-5.35,1.5,1.5,0,1,0-1.51,2.59Z"/><path class="cls-17" d="M700.86,147.51c.47,3.05,3.86,4.49,6.35,5.6a48.28,48.28,0,0,0,4.64,1.79c.4.12,3.85,1,2.93,1.8l1.82-.24c-.29-.21-.2-.76-.32-1.08a2.18,2.18,0,0,0-.93-1.14,2.68,2.68,0,0,0-2.94.45c-.28.24-.52.74-.84.91.39-.21.19,0,0-.39a3.7,3.7,0,0,0-.44-.6,3,3,0,0,0-3.16-1.2c-1.52.35-1.32,2.45,0,2.89a7.33,7.33,0,0,0,3,.38l-.4-2.94c-1.89.37-2.72-2.47-4.61-1.82-.44,0-.46.05-.06.19s.38.19.11-.15a3.29,3.29,0,0,0-.94-1.13,5.31,5.31,0,0,0-2.31-1c.14.39.15.39,0,0l-.15-.65c-.11-.5-.23-1-.34-1.51a5.58,5.58,0,0,0-1-2.47,2.6,2.6,0,0,0-4.19.16l2.8.76c-.17-2.91-3-3.38-5.33-3l1.85,1a4.42,4.42,0,0,0-4.09-3,4.18,4.18,0,0,0-.5,0c.64.62.8.65.49.1a2.29,2.29,0,0,0-.9-.9,3.27,3.27,0,0,0-1.29-.35q-.3,0-.6,0-.58-.08,0,.72a1.5,1.5,0,0,0-1-1.84,16.38,16.38,0,0,0-4.07-.27l1.5,1.5.32-2.9c.21-1.92-2.79-1.9-3,0l-.32,2.9a1.5,1.5,0,0,0,1.5,1.5,13.28,13.28,0,0,1,3.27.16l-1-1.84a2.11,2.11,0,0,0,.67,2.33,3.05,3.05,0,0,0,1.21.63c.2.06,1.21.26,1.37.12s-.26-.59-.17-.16a1.5,1.5,0,0,0,.31.55,2.12,2.12,0,0,0,1.24.73c.8.16,1.82-.19,2.22.81a1.56,1.56,0,0,0,1.85,1c.18,0,1.51-.27,1.53.08a1.51,1.51,0,0,0,2.79.76c-.54.74-.69,0-.44,1,.1.41.19.84.28,1.26a8.37,8.37,0,0,0,.69,2.45,2.58,2.58,0,0,0,1.71,1.16,2.3,2.3,0,0,1,1.73,1.22,2.23,2.23,0,0,0,2,1.07l.4,0c.43-.07.45-.09.07-.08.27.2.48.52.74.73a5.18,5.18,0,0,0,4.48,1c1.64-.32,1.29-3.08-.4-2.95a5.17,5.17,0,0,1-2.24-.27v2.89c-.27-.05-.23,0,.12.29a6.55,6.55,0,0,0,.39.53,4.13,4.13,0,0,0,1,1,2.63,2.63,0,0,0,2.65.18,3.82,3.82,0,0,0,1-.81l.4-.47q-1-1.1-.75-.12a3.35,3.35,0,0,0,1.54,2.16,1.5,1.5,0,0,0,1.81-.24,3.31,3.31,0,0,0,.44-4.28c-.92-1.48-2.71-1.92-4.26-2.4a40.17,40.17,0,0,1-5.6-2.2c-1.43-.69-3.46-1.46-3.73-3.23s-3.18-1.09-2.89.8Z"/><path class="cls-17" d="M686.34,137.18l.11-.34a1.08,1.08,0,0,0,0-.59,1.22,1.22,0,0,0-.17-.56,1.13,1.13,0,0,0-.39-.42,1.06,1.06,0,0,0-.51-.27l-.4-.06a1.58,1.58,0,0,0-.76.21l-.3.23a1.47,1.47,0,0,0-.39.67l-.11.33a1.11,1.11,0,0,0,0,.6,1,1,0,0,0,.17.55,1.24,1.24,0,0,0,.39.43,1,1,0,0,0,.51.26l.4.06a1.48,1.48,0,0,0,.76-.21l.3-.23a1.59,1.59,0,0,0,.39-.66Z"/><path class="cls-17" d="M717.22,156.61h.45a1,1,0,0,0,.57-.13,1.11,1.11,0,0,0,.49-.31,1.17,1.17,0,0,0,.31-.48,1.27,1.27,0,0,0,.13-.58l-.06-.4a1.57,1.57,0,0,0-.38-.66l-.31-.23a1.42,1.42,0,0,0-.75-.21h-.45a1.17,1.17,0,0,0-.58.13,1.14,1.14,0,0,0-.48.31,1.24,1.24,0,0,0-.31.48,1.15,1.15,0,0,0-.13.58l.06.4a1.57,1.57,0,0,0,.38.66l.31.24a1.5,1.5,0,0,0,.75.2Z"/><path class="cls-9" d="M620.9,487.13c3.53-2.75,7.11-6.68,10.8-9.25,4.68-3,10.33-6.94,15.83-8.13,8,.26,17.2.31,25.19.75-.28,1.45-1.52,3.2-1.72,4.62-2.55.9-5.46,2.57-6.13,5.4-1.08,2.53,1.16,1,2.19.45s3.22-1.8,4.33-2.3l.9,2.31c1.41,2.22,4.15,4.86,6.84,5.35,3.27,1,7.94.64,8.86-3.31-.17-3.58-3.94-5.73-6.75-7.24-5.15-1.53-5.71-.23-2.27-5,5.66-1.92,13.6-2,18.9-5.1,2-1.65,5.94-8.78,7.38-11A49.83,49.83,0,0,0,710,448c3.37-6.79,6-16.36,7.89-23.73,4.07-18.86,8-40.62,7-60.07-1.39-6.38-1.37-20.17-3.39-29.3-8,6.3-18.44,2.7-27.43-.25a215.4,215.4,0,0,1-20.9-7.73c-5.58-2.49-10.81-5.54-14.81-10.12a33.6,33.6,0,0,1-7.81-6.43c-5.88-4.57-13-9.82-18.76-14.63-11.06-10.37-6.7-8-15.17,2.65,2,2.53,13.68,11.89,16.56,14,3.19,3.65,2.8,6.09,7.77,8.71,5,1.26,8.94,7.81,12.35,11.22,3.42,3.21,10.43,11.36.16,7.86-7.66-1.19-17.75-3.07-25.08-5.62-4.87-1.79-16.55-4.5-20.32-8.14-7.15,12.59-6.66,7.59,9,13.18,6.18,2.05,14.71,4.73,20.76,7.06,1.05.73,10.26,2.32,10.28,4.15a44.27,44.27,0,0,0,2.19,4.68c-1.35,3-1.67,7.17-2.26,10.39-2.09,8.95-2.18,18.39-3,27.5-1.62,4.15-2.06,9.05-2.76,13.37,0,2.06.8,4.35,1.1,6.37-8.25,2.75-9.54,7.77-13.81,14.33-2.11,3-5.69,5.8-7.62,8.95-2.24,3.32-4.24,7.39-7.13,10.24,0,.05-3.16,2.48-3.16,2.48a4.37,4.37,0,0,1-1.56,2.23c-3.26,2.61-7,5.26-9,9.06a149.89,149.89,0,0,0-8.83,19.33l-.32,1.57,9,5.31,4.17-6.71c2.2-2.73,6.68-7.84,8.91-10.44,4-3.22,9.48-8.28,12.43-12.45,3.4-4.44,7.69-10.4,13.31-11.85,2.18.79,4.92-.55,7.11-.83A25.77,25.77,0,0,0,643,452c-2.55,5.87-9.42,8.27-14.17,11.77-2.31,1.84-3.81,5.09-5.66,7.31-3.75,3.22-7.08,7.5-11.29,10.24-2.47,4.19-5.47,8.52-6.69,13.29-2.4,1.25,7.13,5.09,7.25,5.75C614.19,497,618.82,490.31,620.9,487.13Zm63.56-4.31c-1.84,3.23-11-2.75-6.67-4.61C680.18,478.35,684.93,479.83,684.46,482.82Z"/><path class="cls-10" d="M655.94,356.64l-.36-.11c-.13,0-.11,0,0,0l-.17-.07-.66-.33-1.23-.62a9.63,9.63,0,0,1-1.15-.68,2.83,2.83,0,0,1-.28-.2c-.11-.08-.1-.07,0,0l-.13-.11c-.18-.15-.36-.3-.52-.46a1.25,1.25,0,0,0-1.77,1.77,11.1,11.1,0,0,0,2.55,1.8,17.35,17.35,0,0,0,3,1.37,1.26,1.26,0,0,0,.67-2.42Z"/><path class="cls-10" d="M670.47,475.17a3.38,3.38,0,0,0,0,1.84c.13.55.34,1.08.42,1.64a.63.63,0,0,0,.77.44.65.65,0,0,0,.44-.77,11.88,11.88,0,0,0-.4-1.53c0-.12-.06-.24-.08-.36s0-.25,0-.11c0-.05,0-.11,0-.16a2.54,2.54,0,0,1,0-.39c0,.14,0,0,0,0l.06-.21a.63.63,0,0,0-.44-.77.64.64,0,0,0-.77.43Z"/><path class="cls-10" d="M652.44,440c-1,.52-2,1.06-3,1.56l-.35.17-.16.07c.13-.05.12-.05,0,0l-.69.25a7,7,0,0,0-.87.42l-.2.09c.15-.06.16-.06,0,0l-.38.1a1.26,1.26,0,0,0-.88,1.54,1.29,1.29,0,0,0,1.54.87,7,7,0,0,0,1.64-.69c-.28.13.13,0,.18-.05l.41-.15c.31-.13.61-.26.91-.41,1-.51,2-1.07,3.07-1.61a1.25,1.25,0,0,0,.45-1.71,1.28,1.28,0,0,0-1.71-.45Z"/><path class="cls-10" d="M708.39,372.58a11.39,11.39,0,0,0,3.72.33,5.66,5.66,0,0,0,3.07-.74c1.87-1.25,2.28-3.58,3.08-5.53a14.26,14.26,0,0,0,.88-3.35,11.13,11.13,0,0,0,.31-3.76,5.86,5.86,0,0,0-1.8-2.75l-2.71-2.91c-1.1-1.18-2.87.59-1.77,1.76l2.15,2.31a7.88,7.88,0,0,1,1.63,1.88c.31.78-.1,2-.22,2.81a13.15,13.15,0,0,1-.67,2.82c-.31.8-.62,1.6-.91,2.41a4.63,4.63,0,0,1-1.12,2.05,2.86,2.86,0,0,1-1.92.5,9.27,9.27,0,0,1-3.06-.24,1.25,1.25,0,0,0-.66,2.41Z"/><polygon class="cls-18" points="624.46 289.18 614.95 280.11 610.62 284.46 613.02 286.78 610.1 286.05 606.94 290.77 617.28 298.2 624.46 289.18"/><polygon class="cls-18" points="608.19 326.46 596.08 320.61 593.53 324.53 595.61 326.3 592.83 326.32 591.18 330.09 603.35 334.92 608.19 326.46"/><polygon class="cls-18" points="592.2 480.9 601.04 485.93 595.15 494.1 591.73 493.08 592.93 488.06 588.63 490.29 586.58 487.97 587.54 485.75 592.2 480.9"/><polygon class="cls-18" points="605.04 494.86 612.7 499.83 609.06 507.07 605.26 505.92 606.32 503.45 603.05 505.2 600.69 504.17 600.93 502.6 605.04 494.86"/><path class="cls-19" d="M718.26,359.68c-3.47,7-8.92,7.41-1.18,13.86,5.36,7.39,13.46,14.35,15.93,23.46,1,6.91,3.66,14.15,4.36,21.06,1.07,14.39,1.51,29,.12,43.46-4.31,14.59-6,30.76-13.61,44.2-2.85,5.54-6.67,11-10.06,16.13,9-4.14,15-14.43,19.24-23-3.15,11.13-12.29,19.29-17.86,28.88,9-6.64,16.71-16.33,23.54-25.2-2.75,9.81-6.14,20.39-12,28.54,3.37-.4,5.86-4.75,7.82-7.25a69.43,69.43,0,0,0,13.94-30c-.83,13.39-1.59,27.41-5.65,40.27,1.63,2.22,7-9.76,7.29-11.62a75.42,75.42,0,0,0,6.68-28.92c-.1,8.92.06,18.6-.21,27.49.45,1.44-1.9,10.22,0,9.47,2.66-8.5,6.58-17.85,8.39-26.78-1.28,8.61,1.12,18,.47,26.52-.48,1.76-1.69,4.5-2.3,6.22,1.21,1.94,2.59-1.83,3.19-2.69a158.71,158.71,0,0,0,7-34.17c-.47-5.31-.86-12-.94-17.35-.69-21.2-4.48-43-13.25-62.44-5.8-13.37-12-27.68-19.92-39.95A178.41,178.41,0,0,0,718.26,359.68Z"/><path class="cls-19" d="M723.33,353.13c7.12-1.73,14.12-5,20.6-8.26,4.91-3.76,10.42-8.12,15.36-11.84,17.88-11.14,33.44-31.3,30-53.37-1.22-6.35-3.68-12.75-6.15-18.71-2.26-5.92-4.59-12.49-7.94-17.89-4.9-10.34-9.75-21.71-16.09-31.27-2-2.57-13.62-21.38-16.41-17.54a128,128,0,0,0,4.07,13.65c-.07,1.18,4.34,6.92.75,5.47-4.4-4.43-8.49-9.63-13.5-13.4-1.58-1.19-.79.92-.16,1.57,3.76,5.29,7.19,11.13,10.61,16.64-8.27-7-16.25-15.06-24.08-22.55-6.71-5.35,4.18,9.82,4.73,11.71,4.44,6.82,8.55,14.66,12.51,21.75-7.27-9.13-17.24-17.65-26-25.22-.62-.85-1.8-2.47-2.76-1.08,2.8,5.82,8.21,11.39,12.33,16.38a106.42,106.42,0,0,0,6.32,9.26c-3.24-3.34-39.45-35.88-39.09-23.74,3.44,3.4,8.31,7,11,11.28,5.08,5,11.24,10.24,15.59,15.93C727.07,247,737.84,263.52,748,280c7.28,9.64,10.55,22.79,7.47,34.61-2.79,9.82-11.64,16.65-19.4,22.6C722.39,348.12,720.32,338.63,723.33,353.13Z"/><path class="cls-20" d="M713.86,354.69c1.73,1.94,5.46,4.65,4.37,7.65-.86,3.49-1.49,10.05-6.38,9.49l-3.2-.55Z"/><path class="cls-20" d="M721.37,341.14c9.06-1.07,8.26,13.29,1.41,15.62"/><path class="cls-20" d="M719.61,346.51"/><path class="cls-21" d="M694.63,241.77"/><path class="cls-13" d="M685.54,246.51"/><path class="cls-2" d="M667.09,326.46a6.35,6.35,0,0,0,4.41,3.89,22.55,22.55,0,0,0,5.44.37,4,4,0,0,1,1.85.33c.7.42.93,1.39,1.38,2.06a7.05,7.05,0,0,0,4.82,3c1.81.3,3.64.14,5.45.35s3.71,1.39,5.49,2.12a7.74,7.74,0,0,0,6.52.08c.37-.19.27-.18.51-.13a11.44,11.44,0,0,1,1.74.82,13.37,13.37,0,0,0,3.53.9,13.12,13.12,0,0,0,4-.19c1.21-.23,2.32-.95,3.52-1.13a18.24,18.24,0,0,1,2.66.14,5.22,5.22,0,0,0,3.65-1.39c2.39-2.16-1.16-5.69-3.54-3.53.11-.11,0-.09-.11-.08a9.83,9.83,0,0,1-1.21-.08,8.38,8.38,0,0,0-2.78.12c-2,.46-3.5,1.39-5.61,1.2s-3.55-1.55-5.5-1.78c-1.31-.15-2.1.4-3.31.75a3.15,3.15,0,0,1-1.91-.19c-1.71-.57-3.26-1.57-5-2.12a18.13,18.13,0,0,0-5.14-.6c-1.18,0-2.75,0-3.49-.75a18.54,18.54,0,0,1-1.19-2,6.13,6.13,0,0,0-2.16-1.95,12,12,0,0,0-6-.93,8.78,8.78,0,0,1-2.2-.16,2.32,2.32,0,0,1-.82-.31c-.06,0-.34-.37-.25-.13a2.57,2.57,0,0,0-3.07-1.75,2.52,2.52,0,0,0-1.75,3.08Z"/><path class="cls-22" d="M771.67,230.06a36.7,36.7,0,0,1-11.6-2.3l1.64-1.49-1.94-1.19,1.79-2.31-3.35.08.3-2.16-3,1.86-1.48-1.41Q758.28,208,763.42,195c1.71-4.31,3.42-8.62,5.43-12.79l2.3-1.56-2.6-1,2.3-2.53-1-1.19,5.28-1.63-2.6-1.86,1.93-1.56-1.63-1.86a93.13,93.13,0,0,1,15.1-1.34,49.89,49.89,0,0,1,7.51.45c7,1.11,8.33,8.33,8.33,14.27C803.73,199.79,792.42,230.06,771.67,230.06Zm14.43-49.9a8.64,8.64,0,0,0-1.49.15,76,76,0,0,0-4.09,8.48c-1.86,4.24-3.64,8.55-5.35,12.86s-3.35,8.85-5,13.32c1.11,1.11,1.78,1.71,3.42,1.71,4.16,0,6.69-3.43,8.77-6.55,3.8-5.65,8-17.25,8-24.1C790.41,183.06,789.6,180.16,786.1,180.16Z"/><path class="cls-22" d="M838.31,189.68l-6.32,1,3.79,2.16L833,194.22l1.19,2.67a38,38,0,0,0-5-.29,57.09,57.09,0,0,0-8,.52l-2.9,5.13,10.86-.08.82,1.64-3.42,2,3,1.93L827,209.39l1.86,1.63-.9,1.64-13.08-.15-1.72,6.1a31.56,31.56,0,0,0,5.88.45,66.66,66.66,0,0,0,7.73-.45l-2.6,3.49,1.71,1.05-4.24,1.78,4.54,1.27-1.41,2.38a42.76,42.76,0,0,1-10.19,1,61.64,61.64,0,0,1-11.08-.82l2.38-3.42-2.68-1,.3-3.12-4,1.78c1.86-10.78,6.1-21.42,11-31.16l1.56,1.56,2.61-1.63-1.12-3.5,3.2-.3-1-1.93a88.85,88.85,0,0,1,12.5-.74c3.19,0,6.39.07,9.59.29l-2.38,1.94Z"/><path class="cls-22" d="M865.31,188.71l.15,2.23-4.16-1,3,5.13-2.3.15,1,2.67-1.26.38c-1.57-1.49-3.65-3.2-6-3.2-1.86,0-4.24,1.26-4.24,3.34s1.93,3.72,3.34,4.91a16.63,16.63,0,0,1,6.18,12.57c0,8.55-8.11,14.36-16.14,14.36-6,0-10.79-3.28-14.43-7.74l2.6-1-.59-2.23,3.94,1.42-2.23-4.62,2.6.67.67-2.9c1.56,1.34,5.21,4.69,7.36,4.69,1.71,0,3.13-2.31,3.13-3.87,0-3.27-5-7.36-7.14-9.37a9.39,9.39,0,0,1-3-7.21c0-4.39,2.61-10.27,6.7-12.27a23.35,23.35,0,0,1,10.26-2.76c4.54,0,8.7,1.86,12.35,4.39Z"/><path class="cls-22" d="M908,185.89c-5.43,6.69-10.26,13.83-15.09,21s-9.9,14.65-14.28,22.31l-1.71-2.6-2.53,1.34-.6-4.39-3.94,5.13-.89-1.93-2.53,2.52-.89-1c.89-7.89,2.23-15.84,3.64-23.65,1.19-6.4,2.45-12.87,4-19.19l1.48,2.6,2.38-3.27,1.19,3.87,1.71-1.71,1.12,3.42,1.64-3.57,1.56-1.34-2.9,16.73h.15l11.9-17.62,2.3-.52-.89,5.28,4.46-3.5.6,2,3.94-2.9.74,1.86Z"/><path class="cls-22" d="M956.12,189.68l-6.32,1,3.79,2.16-2.75,1.34,1.12,2.67a49.51,49.51,0,0,0-6.55-.29,87.59,87.59,0,0,0-10.85.52l-1.12,5.13,13.46-.08.82,1.64-3.42,2,3.05,1.93-2.53,1.64,1.86,1.63-.89,1.64-13.91-.15c-.22,2-.67,3.94-.82,6a36.64,36.64,0,0,0,7,.52,48,48,0,0,0,6.55-.37L942,222.1l1.71,1.05-4.24,1.78L944,226.2l-1.41,2.38a48.48,48.48,0,0,1-11.75,1.11,74.48,74.48,0,0,1-9.89-.59l-.23-2.09-2.75.67.82-5.2h-9l-3.57,6.76-1.93-2.3-1.49,1.41-.6-4.68-3.94,5.05-.52-2.52-5.06,1.71A220.11,220.11,0,0,1,904.21,206c4.39-7.44,9-14.95,14.5-21.64l1.64,3.42,3-2,1.12,5.43,4.9-5.87,2.24,2.23,3.42-2a79.8,79.8,0,0,1,9.44-.45c3.79,0,7.51.15,11.23.37l-2.38,1.94Zm-34.73,10.41h-.15A93,93,0,0,0,914,212.73h5.06Z"/><path class="cls-22" d="M976.28,214.37l5.8,13.91-3.34-1.34-.38,3.79-4-5.06-.52,4-3.05-2.16-1,2.75-5.88-12.94-.89.22A115.13,115.13,0,0,0,959,230.36l-2.16-2.53-2.9,3.94-1-4.46-1.71,1.27-.52-4.17L948,229.17l-1.12-1.41A182.78,182.78,0,0,1,952,209.09,155.59,155.59,0,0,1,958.8,191l2.16,2.3.74-2.23,2.09.08-.38-3.2,1.94-.52-.15-2.16A61.11,61.11,0,0,1,976.8,184c7.29,0,13.24,4.53,13.24,12.19C990,204.18,983.2,211.32,976.28,214.37ZM973,196.52a5.94,5.94,0,0,0-3,.74l-3.27,8c3.42,0,9.22-2.6,9.22-6.62C976,196.67,974.57,196.52,973,196.52Z"/><path class="cls-22" d="M1014.58,214.37l5.81,13.91-3.35-1.34-.37,3.79-4-5.06-.52,4-3-2.16-1,2.75-5.88-12.94-.89.22a111.13,111.13,0,0,0-4.09,12.87l-2.16-2.53-2.9,3.94-1-4.46-1.71,1.27-.52-4.17-2.75,4.76-1.12-1.41a182.78,182.78,0,0,1,5.21-18.67A153.84,153.84,0,0,1,997.11,191l2.15,2.3.75-2.23,2.08.08-.37-3.2,1.93-.52-.15-2.16a61.3,61.3,0,0,1,11.61-1.26c7.28,0,13.23,4.53,13.23,12.19C1028.34,204.18,1021.5,211.32,1014.58,214.37Zm-3.27-17.85a5.88,5.88,0,0,0-3,.74l-3.27,8c3.42,0,9.22-2.6,9.22-6.62C1014.29,196.67,1012.88,196.52,1011.31,196.52Z"/><path class="cls-22" d="M1063.82,189.68l-6.32,1,3.79,2.16-2.82,1.34,1.19,2.67a38,38,0,0,0-5-.29,57.09,57.09,0,0,0-8,.52l-2.9,5.13,10.86-.08.82,1.64-3.42,2,3,1.93-2.53,1.64,1.86,1.63-.9,1.64-13.09-.15-1.71,6.1a31.56,31.56,0,0,0,5.88.45,66.66,66.66,0,0,0,7.73-.45l-2.6,3.49,1.71,1.05-4.24,1.78,4.54,1.27-1.41,2.38a42.76,42.76,0,0,1-10.19,1,61.64,61.64,0,0,1-11.08-.82l2.38-3.42-2.68-1,.3-3.12-4,1.78c1.86-10.78,6.1-21.42,11-31.16l1.56,1.56,2.61-1.63-1.12-3.5,3.2-.3-1-1.93a88.85,88.85,0,0,1,12.5-.74c3.19,0,6.39.07,9.59.29l-2.38,1.94Z"/><path class="cls-22" d="M1099.75,228.72h-2.53c-2.9,0-8.93,0-11.6-.74l2.53-2.9h-2.24l-.67-2.31-2.9.67c1.57-10,6.62-24.32,11.31-33.31l1.93,1.63,1.94-1v-3.27h2.6l-.67-2.9a34.08,34.08,0,0,1,8.26-.67c1.26,0,2.52,0,3.79.08,8.18.37,10.93,6.47,10.93,13.9C1122.43,211.1,1114.84,228.28,1099.75,228.72Zm8.18-32.2c-1.42,0-2.83,0-4.24.08-3.27,6.09-5.58,13.61-7.29,20.37,1.56,0,3,.15,4.61.15,4.24,0,7.59-7.14,8.55-10.48a19.91,19.91,0,0,0,.9-5.51C1110.46,199.5,1110.08,196.52,1107.93,196.52Z"/><path class="cls-22" d="M1166.53,186.63c-4.83,10.41-8.62,21.79-12.27,32.72-2.82,8.41-6.69,10.34-15.32,10.34-3.34,0-9.81-.22-12.94-1.34l1.56-1.26-.59-1,1.86-1.27-.67-1.78-2.83,1,.15-2.68-3.12.67c1.63-10.63,7.58-27.07,12.49-36.74l1.86-.52.52,6.32,3.27-4.68,1.12,1.63,2.83-3.49.22,3.12,3-1.19c-4.31,8.26-10.34,21.27-11.83,30.34.45,1.05,1.79,1.19,2.76,1.19s2.75-.22,3.42-1.26l.89-2.16c1-2.38,1.86-4.76,2.83-7.21,2.75-7.14,5.5-14.58,9-21.42l.9.82.74,2.53,2.68-3,.07,5.51,3.57-5.66,1.27,2.23Z"/><path class="cls-22" d="M1229.16,190l-5.06,2.38,2.9,2.38-2.3,1.78.89,2h-11.45c-4.69,9.52-7.74,20.45-10.86,30.57l-1.79-1.64-3,3.2-1.12-4.54L1195,228.2l-1-2.08-3,3-.9-.82c3.28-10,6.18-20.08,10.27-29.75h-10.49l2.23-2.53-1.56-1.64,4.17-1.56-1.27-2.23,4.61-1.11-4.53-2,.52-1.71h34.13l-1.93,2.53Z"/><path class="cls-22" d="M1254.89,185.37c-1.26,8.25-2.38,16.51-3.27,24.84a173.74,173.74,0,0,0-1.19,17.47v.6l-2.75-1.64L1246,228.2l-2.16-4.38-2.15,5.05-1.49-2.23-2.83,2.23,1-6.39h-9l-3.57,6.76-1.93-2.3-1.49,1.41-.6-4.68-3.94,5.05-.52-2.52-5,1.71A238,238,0,0,1,1224.4,205a166.5,166.5,0,0,1,13.83-20.6l1.64,3.42,3.05-2,1.12,5.43,4.9-5.87,2.24,2.23Zm-14,14.72h-.15a93,93,0,0,0-7.21,12.64h5.06Z"/><path class="cls-22" d="M1289.85,206.64a12.11,12.11,0,0,1,3.72,8.1,6.26,6.26,0,0,1-.22,1.71c-3.28,11.31-12.94,12.13-22.91,12.94-.82.08-1.64.08-2.45.08a48.88,48.88,0,0,1-10.42-1.19l2.68-2.68-2.6-.3-.45-2.53-2.6.75c2.53-10.56,6.84-23.58,11.6-33.25l2.16,2.61,3.2-1.64-1-3.94,2.68-.15-.15-2.38a94.21,94.21,0,0,1,12.13-.82c6.84,0,12.27,3.57,12.27,10.86C1297.44,199.57,1293.79,204.26,1289.85,206.64Zm-12.57,4.68c-1.86.3-3.79.6-5.65.74l-2.38,6.18c1.34.07,2.68.15,4,.15a6.31,6.31,0,0,0,6.24-3.95,2,2,0,0,0,.15-.67C1279.66,212.59,1278.25,211.77,1277.28,211.32Zm3.72-16.58a8.49,8.49,0,0,0-3,.67,27.27,27.27,0,0,0-2.75,6.61,4.56,4.56,0,0,0,1,.08c3,0,7.59-1.41,7.59-5.13C1283.83,195.18,1282.49,194.74,1281,194.74Z"/><path class="cls-22" d="M1339,190l-5,2.38,2.9,2.38-2.31,1.78.89,2H1324c-4.69,9.52-7.73,20.45-10.86,30.57l-1.78-1.64-3,3.2-1.11-4.54-2.38,2.08-1-2.08-3,3-.89-.82c3.27-10,6.17-20.08,10.26-29.75h-10.48L1302,196l-1.56-1.64,4.16-1.56-1.26-2.23,4.61-1.11-4.54-2,.52-1.71h34.14l-1.94,2.53Z"/><path class="cls-22" d="M1369.14,189.68l-6.33,1,3.8,2.16-2.83,1.34,1.19,2.67a37.81,37.81,0,0,0-5-.29,56.89,56.89,0,0,0-8,.52l-2.9,5.13,10.85-.08.82,1.64-3.42,2,3,1.93-2.53,1.64,1.86,1.63-.89,1.64-13.09-.15-1.71,6.1a31.39,31.39,0,0,0,5.87.45,67,67,0,0,0,7.74-.45l-2.6,3.49,1.71,1.05-4.24,1.78,4.53,1.27-1.41,2.38a42.71,42.71,0,0,1-10.19,1,61.7,61.7,0,0,1-11.08-.82l2.38-3.42-2.68-1,.3-3.12-3.94,1.78c1.86-10.78,6.1-21.42,11-31.16l1.56,1.56,2.6-1.63-1.11-3.5,3.19-.3-1-1.93a88.71,88.71,0,0,1,12.49-.74c3.2,0,6.4.07,9.59.29l-2.38,1.94Z"/><path class="cls-22" d="M799.26,264.13l-2.15,1.34,1.11,1.71-1,2.16a55.92,55.92,0,0,0-12.72,1.49c-1.56,3.79-3.27,7.51-5,11.3l6.91.45,1.64,1.26L786.7,285l3.12,1.34-4.61,1.86,2.3,1.56-1.71,1,2,1.48-1.63,1.94L773.9,295c-3.57,8.18-6.24,14.8-7.8,23.72l-2.24,1.56-.29-3.12L762,318.57l-.37-2.82-3.12,2.9.07-5.28-2.9,4.68-1.78-3c2.23-10.12,6.32-20.75,10.41-30.27a122.07,122.07,0,0,1,7.14-14.8l2.31-1.27-3-.59.37-1.56L769.52,265l5.2-1.26-2.6-1.26-.74-2.09a113.19,113.19,0,0,1,22.38-1.78c1.41,0,2.75,0,4.17.07l-1,1.86,1.11.67-2.15,1.56Z"/><path class="cls-22" d="M815.55,309.13l-5.95,1.78,3.42,1.64-1.48,1.78,2.75,1.64-1.56,2H790.19l2.75-3.42-2.38-.52.38-4-3.8,2.38-1.11-.6a167.2,167.2,0,0,1,6.17-16.66c3-7.14,6.17-14.27,9.52-21.27l1.34,2.16,3.79-4.39L807,277l3-3.65.89,2.38,3.2-1.48c-2.83,6.24-5.73,12.49-8.33,18.89a93.51,93.51,0,0,0-4.91,14h13.09Z"/><path class="cls-22" d="M856.24,277.44,837,299.68l-7.28,19.64-1.71-3-1.64,1.19-.67-3.72-3.57,4.69-.89-2.16-3.35,1.93,7-19.63-4.76-21.94.67-1.12,3.13,3.43.66-5.73,2.83,3,.82-2,2.3,1.48,1.79-1.63,2.38,9.89,8.4-9.67,1.34,2.75,2.75-1.26-.22,3.64,4.83-4.31.82,2.3,3.65-2.3Z"/><path class="cls-22" d="M890.3,275.14c-5.43,6.69-10.26,13.83-15.1,21s-9.89,14.65-14.27,22.31l-1.72-2.6-2.52,1.34-.6-4.39-3.94,5.13-.89-1.93-2.53,2.53-.89-1c.89-7.88,2.23-15.84,3.64-23.65,1.19-6.4,2.45-12.87,4-19.19L857,277.3l2.38-3.28,1.19,3.87,1.71-1.71,1.12,3.42L865,276l1.56-1.34-2.9,16.74h.15l11.9-17.63,2.3-.52-.89,5.28,4.46-3.5.6,2,3.94-2.9.74,1.86Z"/><path class="cls-22" d="M953.59,274.4c-3.64,8.18-7.06,16.51-10.11,24.91a155.28,155.28,0,0,0-6,19.34l-1.64-1.71-.22-3.65-3.2,5.95L931.13,318l-.37-3.65-2.53,4.76-.81-3.34-3,2c1.56-5.43,3.12-10.85,5.13-16.06l-7.07.59c-2.38,5.06-3.42,10.57-5,15.92l-1.86.52v-4.54l-2.31,2.76v-5.66l-3.79,6.55-1.27-2.38-3.34,2.23c2-7.74,4.68-15.32,7.43-22.83a210.9,210.9,0,0,1,9.15-21.94l1.19,2.75,3.27-2.9v4.54l4.54-5.58,1.34,3.79,2.6-1.34c-2.6,4.91-6.17,11.75-7.66,17l7.07-.59a140.82,140.82,0,0,1,7.29-17l1.48,2.16,2.68-3.05-.15,6.47,4-4.83,1.19,2.52,3-3.12Z"/><path class="cls-22" d="M991,275.88c-4.84,10.41-8.63,21.79-12.27,32.73-2.83,8.4-6.7,10.33-15.33,10.33-3.34,0-9.81-.22-12.94-1.34l1.57-1.26-.6-1L953.3,314l-.67-1.79-2.83,1,.15-2.68-3.12.67c1.64-10.63,7.59-27.07,12.49-36.74l1.86-.52.52,6.32,3.28-4.68,1.11,1.64,2.83-3.5.22,3.12,3.05-1.19c-4.31,8.26-10.34,21.27-11.82,30.35.44,1,1.78,1.19,2.75,1.19s2.75-.23,3.42-1.27l.89-2.15c1-2.38,1.86-4.76,2.83-7.22a224,224,0,0,1,9-21.42l.89.82.74,2.53,2.68-3,.07,5.51,3.57-5.65,1.27,2.23Z"/><path class="cls-22" d="M1011.83,303.62l5.8,13.91-3.34-1.34-.37,3.79-4-5.05-.52,3.94-3-2.16-1,2.75-5.87-12.94-.9.23a114.32,114.32,0,0,0-4.09,12.86l-2.15-2.53-2.9,3.95-1-4.47-1.71,1.27-.52-4.17-2.75,4.76L982.38,317a183.5,183.5,0,0,1,5.21-18.67,153.84,153.84,0,0,1,6.77-18.07l2.15,2.31.75-2.24,2.08.08-.37-3.2,1.93-.52-.15-2.16a61.2,61.2,0,0,1,11.6-1.26c7.29,0,13.24,4.54,13.24,12.2C1025.59,293.43,1018.75,300.57,1011.83,303.62Zm-3.27-17.85a6,6,0,0,0-3,.75l-3.27,8c3.42,0,9.23-2.61,9.23-6.62C1011.54,285.92,1010.12,285.77,1008.56,285.77Z"/><path class="cls-22" d="M1065.61,279.23l-5.06,2.38,2.9,2.38-2.31,1.78.9,2h-11.46c-4.68,9.52-7.73,20.45-10.85,30.57l-1.79-1.64-3,3.2-1.12-4.54-2.38,2.09-1-2.09-3,3-.89-.82c3.27-10,6.17-20.08,10.26-29.75h-10.48l2.23-2.53-1.56-1.63,4.16-1.56-1.26-2.24,4.61-1.11-4.54-2,.52-1.71h34.14l-1.93,2.53Z"/><path class="cls-22" d="M1084.28,274.92c-3.35,7.51-6.4,15.09-9.37,22.75-2.83,7.29-5.66,14.65-7.89,22.17l-1.49-2-2.08,1.19.08-6.1-3.42,4.91-1.72-2.31-3.64,2.9c4.09-14.57,9.74-30.86,16.44-44.47l1,2.6,4.31-4.91.52,5.21,3.13-2.31,1,2.31Z"/><path class="cls-22" d="M1117.15,278.34l.22,2.75-5.06-1.27,2.68,4.76h-2.3v2.31c-1.64-2-3.28-3.12-5.88-3.12-.74,0-1.41.07-2.16.14-5.65.82-12.12,13.54-12.12,18.75a3.36,3.36,0,0,0,3.65,3.64c3.12,0,5.43-2.68,6.54-5.28l-3.64-.74,1.48-2-1.26-1.41,4.83-1.49-4.61-1.86,1.34-1.12h15.25l-1.12,3a7.29,7.29,0,0,0,2.83.37,46,46,0,0,1-7.07,15.25c-4,5.43-9.59,7.58-16.21,7.58a26.07,26.07,0,0,1-3.42-.22c-7.88-.89-10.93-8-10.93-15.1,0-14.87,12.86-30.64,28.33-30.64,3.72,0,8.85,1.34,10.71,5Z"/><path class="cls-22" d="M1156.42,278.93l-6.32,1,3.79,2.16-2.83,1.34,1.19,2.68a36.09,36.09,0,0,0-5-.3,58.53,58.53,0,0,0-8,.52l-2.9,5.13,10.86-.07.82,1.63-3.43,2,3.05,1.93-2.52,1.64,1.85,1.64-.89,1.63-13.09-.15-1.71,6.1a31.49,31.49,0,0,0,5.88.45,66.79,66.79,0,0,0,7.73-.45l-2.6,3.5,1.71,1-4.24,1.78,4.54,1.27-1.42,2.38a42.12,42.12,0,0,1-10.18,1,61.8,61.8,0,0,1-11.09-.81l2.38-3.42-2.67-1.05.29-3.12-3.94,1.79c1.86-10.79,6.1-21.42,11-31.17l1.56,1.57,2.6-1.64-1.11-3.5,3.2-.29-1-1.94a88.71,88.71,0,0,1,12.49-.74c3.2,0,6.4.07,9.6.3l-2.38,1.93Z"/><path class="cls-22" d="M1177.17,303.62l5.8,13.91-3.34-1.34-.38,3.79-4-5.05-.52,3.94-3-2.16-1,2.75-5.88-12.94-.89.23a114.32,114.32,0,0,0-4.09,12.86l-2.16-2.53-2.9,3.95-1-4.47-1.71,1.27-.52-4.17-2.76,4.76-1.11-1.41a186.06,186.06,0,0,1,5.2-18.67,157.49,157.49,0,0,1,6.77-18.07l2.16,2.31.74-2.24,2.09.08-.38-3.2,1.94-.52-.15-2.16a61.11,61.11,0,0,1,11.6-1.26c7.29,0,13.24,4.54,13.24,12.2C1190.93,293.43,1184.09,300.57,1177.17,303.62Zm-3.27-17.85a6,6,0,0,0-3,.75l-3.27,8c3.42,0,9.22-2.61,9.22-6.62C1176.87,285.92,1175.46,285.77,1173.9,285.77Z"/><path class="cls-22" d="M1226.41,278.93l-6.32,1,3.79,2.16-2.83,1.34,1.19,2.68a36.09,36.09,0,0,0-5-.3,58.53,58.53,0,0,0-8,.52l-2.9,5.13,10.86-.07.81,1.63-3.42,2,3.05,1.93-2.53,1.64,1.86,1.64-.89,1.63-13.09-.15-1.71,6.1a31.43,31.43,0,0,0,5.88.45,66.92,66.92,0,0,0,7.73-.45l-2.6,3.5,1.71,1-4.24,1.78,4.54,1.27-1.42,2.38a42.2,42.2,0,0,1-10.19,1,61.76,61.76,0,0,1-11.08-.81l2.38-3.42-2.68-1.05.3-3.12-3.94,1.79c1.86-10.79,6.1-21.42,11-31.17l1.56,1.57,2.6-1.64-1.11-3.5,3.19-.29-1-1.94a88.71,88.71,0,0,1,12.49-.74c3.2,0,6.4.07,9.6.3l-2.38,1.93Z"/><path class="cls-22" d="M1233.62,307.19a83.81,83.81,0,0,0-4.9,12.65l-1.57-.08-1.63,1.19-.75-2.82-1.26,1.48-.82-2.82-2.38,3.94-.37-2.23-2.68.37a56.91,56.91,0,0,1,5.36-15.47l1.48,1.34-.44,4.16,2.6-2.6.82.82,1.34-1.49.37,2.46,2.68-2.46-.15,2.9Zm24.7-49.68c-8.86,12.72-18.45,28.86-24.47,43.06l-1.71.45v-3l-1.34,1.41.07-3.34-1.11,2-2,1.63,1.19-5.65-2.6,4.31-1.19-2.53a189.09,189.09,0,0,1,16.43-39.49l3.5-.44-1.12,3.34,5.8-5.05-.89,4.9,2.9-2.52.15,2.52a26.23,26.23,0,0,1,5.65-3.79Z"/><text class="cls-23" transform="translate(756.87 228.65)">Desvrre du <tspan class="cls-24" x="429.97" y="0">t</tspan><tspan x="461.65" y="0">abte</tspan><tspan x="0" y="89.25">F</tspan><tspan class="cls-24" x="31.91" y="89.25">l</tspan><tspan class="cls-25" x="58.09" y="89.25">yv hurtigere!</tspan></text><text/><path class="cls-26" d="M788.38,916.33S909.5,838.5,881.5,793.5s-49-228-15-223,25.67-70-1.17-75.52-5.1-52.15,23.54-29.31,80.63,14.83,83.63,5.83,58-24,56-1,36,21,53,9,56-30,53-2-68,304-16,310-12,142,27,134S821.26,1041.17,788.38,916.33Z"/></g><g id="vinge"><path class="cls-27" d="M350.72,956.69c4.43,5.2,9.13,10.18,13.95,15a26.3,26.3,0,0,0,5.54,4.62c-.94-2-1.53-3.3-1.53-3.3l5.44-6.21A157,157,0,0,1,408.62,953c19.53-5.17,5.08,2.91,37.51-4.88,18.43-4.43,27.91-2.93,34.91-1.06a1.08,1.08,0,0,1,.4,0h.17a.35.35,0,0,1,.14,0H482l.06,0h.54l.19,0h0l0,0a.74.74,0,0,1,.33,0l.29,0,.18,0,.15,0,.32,0,.07,0a3.24,3.24,0,0,1,.76.11c.12,0,.25,0,.37,0l.39.08h0l.09,0h0l.07,0h0c.11,0,.21-.11.32-.15l.09,0h0a.17.17,0,0,1,.11.09.19.19,0,0,1,0,.13l0,0,.25,0h.56a.19.19,0,0,1,.17.14h0l.51-.1a.17.17,0,0,1,.21.13.18.18,0,0,1-.06.18l.31-.06a2.45,2.45,0,0,1,.38,0,.16.16,0,0,1,.16.13.24.24,0,0,1,.09.11h.05a.15.15,0,0,1,.18,0,.27.27,0,0,1,.07.08.18.18,0,0,1,.26.05.22.22,0,0,0,.05.08l.07,0a.83.83,0,0,1,.34.07,2.67,2.67,0,0,1,.26.09h0a3,3,0,0,1,.79.07.18.18,0,0,1,.13.16h0l.08,0a.19.19,0,0,1,.22-.05,7.38,7.38,0,0,0,.73.29l.28.1.3.08a10.81,10.81,0,0,1,1.46.38.17.17,0,0,1,.12.11c.29,0,.58,0,.88-.08,6.53-.72,10.25,4.32,12.44,9.71a.17.17,0,0,1,.2,0,4.9,4.9,0,0,1,.77,1.23,13,13,0,0,0,.76,1.22.18.18,0,0,1,.25.11c.06.19.12.37.19.55l.44.7c.25.44.47.89.69,1.34a13.62,13.62,0,0,1,1.15,2.66,13.28,13.28,0,0,1,.19,2.68c0,.51.05,1,.12,1.53,0,.12.05.24.08.37a8.62,8.62,0,0,1,1.16-.85l.06,0c.42-.41.88-.78,1.31-1.18a.16.16,0,0,1,.14,0c.3-.2.58-.42.88-.61l.29-.27a.13.13,0,0,1,.19,0l.22-.19a.16.16,0,0,1,0-.17,7.86,7.86,0,0,1,1.59-1.15,6.48,6.48,0,0,1,1.27-.74l.14-.09a.13.13,0,0,1,.06-.07l.21-.13.13-.09a8.77,8.77,0,0,1,.89-.61l.06,0,0,0,0,0h0a.1.1,0,0,1,0,0,.2.2,0,0,1,.08-.08L522,965a.2.2,0,0,1,0-.09,1.74,1.74,0,0,1,.33-.18.21.21,0,0,1,.08-.16c.48-.26,1-.54,1.46-.75a.18.18,0,0,1,.21,0,.14.14,0,0,1,.11,0l.08-.05a.13.13,0,0,1,.13,0c.85-.37,2.68-1.07,2.54.2a2.62,2.62,0,0,1,.64.95s.21,3,.55,6.75l.05.06a.84.84,0,0,1,.06.14.16.16,0,0,1,0,.07v0a8.28,8.28,0,0,1,.46,2.21,4.52,4.52,0,0,1,.08.63.16.16,0,0,1-.11.16,1.05,1.05,0,0,1,0,.19c.09,0,.2,0,.21.12.15,1.11.28,2.22.42,3.32.07.54.13,1.07.23,1.6.07.23.14.46.22.69l.58,1.74a9.1,9.1,0,0,1,.49,1.67.31.31,0,0,1,0,.1c.17.38.34.77.53,1.15h0l.06,0,.15.09a.13.13,0,0,1,.06.07l0,0v0a2.84,2.84,0,0,0,1.33,0l0,0a.18.18,0,0,1,.07-.24,15.51,15.51,0,0,0,1.42-1.15.17.17,0,0,1,.25,0c22.89-45.35-4-62.87-4-62.87-58-47.6-130.3-33.47-174.21-14.13a148.7,148.7,0,0,0-26.91,15.38A126.09,126.09,0,0,0,350.72,956.69Z"/><path class="cls-27" d="M414.59,890.92s8.21-38.84,9.3-1c0,0,8.41-36.23,9.18-.52,0,0,7.79-34.24,7.27-.08"/><path d="M336.25,931.47c18.7-11.21,40.51-15.85,61.62-20.18q8.22-1.68,16.43-3.39a37,37,0,0,1,4-.86c1.5-.12,3.08,0,4.58,0,2.91,0,5.85.18,8.75,0a22.21,22.21,0,0,0,4.06-.59c1-.25,2-.68,3-.86a40.9,40.9,0,0,1,8.2-.35,70.93,70.93,0,0,1,15,2.13c11.39,2.78,22.17,7.52,33.29,11.14a3,3,0,0,0,1.6-5.79c-10.06-3.27-19.82-7.44-30-10.28a87.17,87.17,0,0,0-15.77-3,61.7,61.7,0,0,0-8.27-.2c-1.34.06-2.69.16-4,.31a26.31,26.31,0,0,0-4,.93,28.74,28.74,0,0,1-7.86.51l-4.41,0a40.44,40.44,0,0,0-4.8,0c-2.95.35-5.93,1.23-8.84,1.84l-8.29,1.7c-11.17,2.29-22.32,4.53-33.28,7.68-11.78,3.38-23.44,7.64-34,14-3.31,2-.29,7.18,3,5.19Z"/><path d="M495.32,918.61a134.6,134.6,0,0,1,14.38,5.94,38,38,0,0,1,6.61,3.8,32.25,32.25,0,0,1,4.79,4.7,100.53,100.53,0,0,1,8.27,11.5c2.63,4.11,4.61,8.38,4.93,13.31a143.76,143.76,0,0,1-.48,19,3,3,0,0,0,6,0,170.72,170.72,0,0,0,.54-17.81A32.85,32.85,0,0,0,535.48,943a116.24,116.24,0,0,0-8.93-12.76,36.59,36.59,0,0,0-12-10,141,141,0,0,0-17.66-7.45,3,3,0,1,0-1.6,5.78Z"/><path class="cls-28" d="M481.88,947.14h.1"/><path class="cls-28" d="M481.74,947.12l.14,0"/><path class="cls-28" d="M536.15,981.72l1.29-3.93s-1.22.4-1.71-.48c0,0,2.27-23.68-1.29-28,0,0-9.16-15.86-10-15.37,0,0-7.43-10.21-15.13-11.65,0,0-11.27-5.76-14.2-5.85l-24.62-8.07s-20.39-6.13-32.56-4.78-20,1.72-20,1.72-9.94,1.24-12.13,2.47l-29.8,6.32-20.68,6.68s-13.53,4.13-22.06,9.55a128.64,128.64,0,0,0,17.52,26.37c4.43,5.2,9.13,10.18,13.95,15a41.18,41.18,0,0,0,3.22,3c7.5-3.12,75.27-30.87,113.85-27.6l2.44.25c11.11,1.34,20,5.3,24.67,13.15,1.91,3.2-.36,15.36,3.51,11.62,0,0,12.87-10.71,14.21-8.48s2.9,21.46,5.26,22.1C531.83,985.76,534.14,986.92,536.15,981.72Z"/><path class="cls-28" d="M483.86,947.34l.32,0"/><path class="cls-28" d="M483.55,947.3l.31,0"/><path class="cls-28" d="M482,947.15q.79.06,1.56.15"/><path class="cls-28" d="M482,947.15h0"/><polygon class="cls-19" points="418.2 877.81 423.03 878.08 423.23 856.32 418.2 877.81"/><polygon class="cls-19" points="427.31 878.35 432.34 878.36 430.94 857.76 427.31 878.35"/><polygon class="cls-19" points="436.15 878.45 440.08 878.38 440.1 859.24 436.15 878.45"/><path class="cls-29" d="M416.8,891.7c.23-.13.46-.26.7-.37l.35-.17c.08,0,.46-.22.11-.06a7.11,7.11,0,0,1,1.44-.46l.38-.08c.38-.08-.33,0,.05,0a7,7,0,0,1,.79,0l.34,0c.17,0,.15,0-.07,0l.22,0a5,5,0,0,1,.76.21,1.5,1.5,0,0,0,1.84-1,1.54,1.54,0,0,0-1-1.85c-2.5-.9-5.16,0-7.37,1.22a1.52,1.52,0,0,0-.54,2.06,1.54,1.54,0,0,0,2.05.54Z"/><path class="cls-29" d="M426.34,891.43a11.37,11.37,0,0,1,1.31-.86l.27-.14.19-.09c-.2.09-.23.1-.08,0l.29-.09.2,0c.17,0,.13,0-.1,0a2.06,2.06,0,0,1,.36,0H429c.17,0,.15,0-.07,0a3,3,0,0,1,.77.17c.57.14,1.13.29,1.69.45a1.5,1.5,0,1,0,.8-2.89,10.49,10.49,0,0,0-3.82-.69,7.46,7.46,0,0,0-3.49,1.58,1.59,1.59,0,0,0-.69.9,1.5,1.5,0,0,0,.15,1.15,1.51,1.51,0,0,0,2,.54Z"/><path class="cls-29" d="M435,890.87a5.83,5.83,0,0,1,1.42-.37l-.4,0a8.84,8.84,0,0,1,2.24,0l-.4-.06a3,3,0,0,1,.59.15,1.5,1.5,0,0,0,1.85-1.05,1.55,1.55,0,0,0-1.05-1.85,6.73,6.73,0,0,0-2.53-.21,7.8,7.8,0,0,0-2.52.47,1.65,1.65,0,0,0-.89.69,1.52,1.52,0,0,0-.15,1.16,1.5,1.5,0,0,0,1.84,1Z"/><path class="cls-30" d="M527,963.94s-1-30.42-11.19-29.55"/><path class="cls-30" d="M508.55,960s-3.48-34-14.51-32.11"/></g><g id="glen"><path class="cls-31" d="M244.76,905.84c.47,0,.94-.05,1.41,0a.54.54,0,0,1,.52.54.47.47,0,0,1,0,.17c.27-.06.54-.13.82-.18a.54.54,0,0,1,.5.14c.73-.24,1.46-.48,2.2-.7l-.94-.75a.53.53,0,0,1-.87.22c-.62-.62-1.19-1.28-1.77-1.93a.55.55,0,0,1-.26-.14c-.86-.75-1.59-1.63-2.39-2.45a.51.51,0,0,1-.32-.06c-.31-.16-.61-.34-.92-.51.11.31.2.62.29.93a.52.52,0,0,1-.13.48.53.53,0,0,1-.12.52.55.55,0,0,1-.38.16h0a10.33,10.33,0,0,0,1,1.08.54.54,0,0,1,0,.75.53.53,0,0,1-.15.11,6.9,6.9,0,0,1,.5,1.15l.4.48Z"/><path class="cls-31" d="M251.24,906.58c-.81.22-1.6.47-2.4.72a.39.39,0,0,1-.2.2c-.86.4-1.69.85-2.53,1.29a.42.42,0,0,1,.09.16.35.35,0,0,1,.18,0,11.8,11.8,0,0,0,3-1.07c.75-.35,1.48-.73,2.2-1.12Z"/><path class="cls-27" d="M556.34,885.67c0,.22.11.45.17.67a.14.14,0,0,1,.09.12c0,.17.06.35.09.53l.22.82a.14.14,0,0,1-.11.19c0,.43,0,.86.05,1.29a7.71,7.71,0,0,0,0-2.35c-.1-.42-.23-.84-.37-1.26A.14.14,0,0,1,556.34,885.67Z"/><path class="cls-27" d="M525.29,937.24c-19.91,9.88-50.24,6.75-62.9,4.37-5.11.55-9.16-2.16-12.84-5.81a32.92,32.92,0,0,1-10.42-7.1,5.88,5.88,0,0,1-1.36-.91,1.23,1.23,0,0,1-1-.59c-1-1.37-8.85-4.7-16.91-7.83-10,10.67-25.74,8.47-39.07,7.74-15-.82-29.78-3.36-43.8-8.76-.12,2.58-.08,4-.08,4A22.09,22.09,0,0,1,322,919.84c-4.78-2.67-12.06-11.78-16.51-14.69-11.69-7.63,7.66-64.74,7.66-64.74.75-3.7,17.35-52.72,10.68-58.71s-10.09,4.51-10.09,4.51c4.31,3.26-16.55,49.81-16.35,59.49.1,4.78-7.9,22.09-17,37.59a.56.56,0,0,1-.14.3l-.27.3c-.29.57-.56,1.15-.89,1.7a.4.4,0,0,1-.1.12.43.43,0,0,1-.13.14c-.07.13-.16.26-.23.39l0,.1a.61.61,0,0,1,0,.14l-.06.13a.57.57,0,0,1-.15.16l0,.08v0a.05.05,0,0,0,0,0,.19.19,0,0,1-.07.25.18.18,0,0,1-.24-.07h0A.19.19,0,0,1,278,887c-.66,1-1.26,1.95-1.87,2.94a.5.5,0,0,1-.52.25c-.06.19-.11.39-.18.58-.2.66-1.23.38-1-.28a.45.45,0,0,1-.17-.54c.23-.75.47-1.49.7-2.24a.58.58,0,0,1-.32,0,.54.54,0,0,1-.37-.65c.24-.74.51-1.47.78-2.2l-.35.43a13.4,13.4,0,0,1-1.92,1.92c.73,2.31,1.34,4.44.91,5.14-4.23,6.92-8.07,12.91-10.54,16.52-1.7,2.47-3.75,1.31-3.75,1.31a15.27,15.27,0,0,1-6.79-2.67c-1,.55-2.05,1.07-3.11,1.56a12.12,12.12,0,0,1-3.15,1c-.42.2-.84.38-1.28.54a.5.5,0,0,1-.19.1,6.17,6.17,0,0,1-.74.19l-.1.05a.45.45,0,0,1-.2,0h-.19a.41.41,0,0,1-.19,0c-69.08,1.81-94.27,23.47-94.27,23.47S78.28,993.55,109,1018.91s17.88-10.17,17.88-10.17c26.58,21.61,22.69-12.49,22.69-12.49,36.61-25.31,110.83-24.67,111.88-22.82s-4.14,20.1-4.14,20.1c-11.08,35.89-1,44.82-8.68,52.07s1.52,7.7,1.52,7.7l10.42,4.68c1.92,9.11,12.63-1.47,12.63-1.47,6.9,1.38,27.48-46,23.85-44.16-1.61.82-.75-20,1.54-21.69s7.31-23.74,7.31-23.74c7,3,15-2.39,16.37-2.78s15.55,11.56,15.55,11.56c1.79,6.73,67.92,1.77,70.26-2s46,13.42,46,13.42c19,26.31,47.59,28.43,47.59,28.43s1.49,3.21,3.57,7.42c1.5-.58,3-1.3,4.5-1.78-2.07-4.63-3.47-8-2.61-7.52s3,4.3,5.63,9a.58.58,0,0,1,.3-.23c.68-.24,1.36-.44,2-.64a.5.5,0,0,1,.36-.32c.86-.15,1.71-.32,2.55-.53l.08,0a4.83,4.83,0,0,0,.79-.39.48.48,0,0,1,.2-.07c-2.82-6.22-5.32-11.33-5.32-11.33A77.43,77.43,0,0,0,525,1023.93a2.45,2.45,0,0,1,3.43-.95c-.06-.13-.11-.25-.16-.38-.29-.61-.67-1.19-1-1.8a3.68,3.68,0,0,1-.34-.69v-.05a2.53,2.53,0,0,1-1.14-3.46c-14.12-19.11-24.56-23.28-24.56-23.28-11.53,4.12-17.55,1.42-17.55,1.42-4.4.87-32.94-30.64-32.94-30.64,2.19-12.67,4.37-4.53,6.48-6.55s30.56,10,47.65-.16,27.1,1.73,25.73,2.91c-.39.34,1,3.17,3.15,7,.51-.3,1-.61,1.5-1a31.61,31.61,0,0,1,2.7-1.72l.5-.28c-2-3.54-3.74-6.72-4.93-8.92,1.49,2.08,3.58,5,5.92,8.36.43-.27.85-.54,1.27-.83.67-.48,1.32-1,2-1.48-2-3.32-3.89-6.35-5.33-8.64,1.9,2,4.49,4.76,7.29,7.75a.33.33,0,0,1,.15-.11,12.47,12.47,0,0,0,3.26-1.93C528.83,932.16,525.29,937.24,525.29,937.24Z"/><path class="cls-27" d="M611.81,952.85a13,13,0,0,0-.87-1.12c-.68-.86-1.33-1.76-2-2.63-.34-.43-.68-.87-1-1.3l0,0c-.09.11-.2.21-.3.31l-.06.27a2.33,2.33,0,0,1-.72,1,2.29,2.29,0,0,1-1,.71,2.38,2.38,0,0,1-1.2.24,2.41,2.41,0,0,1-1.24-.2l-.06,0a3.23,3.23,0,0,1-1-.63,2.87,2.87,0,0,1-2.57.34,3,3,0,0,1-2.66,1.6,3.07,3.07,0,0,1-4.18,2.24,3.12,3.12,0,0,1-1.35-1l-.11-.1-.2.15a3.06,3.06,0,0,1-1.69.65,3,3,0,0,1-3.85,1.42,2.9,2.9,0,0,1-1.93-3,1.83,1.83,0,0,1-.35-.33,2.27,2.27,0,0,1-.69-.95l-.32.19c-.87.46-1.78.82-2.66,1.26a2.73,2.73,0,0,1-1.44.27,2.88,2.88,0,0,1-3.2.57,3.11,3.11,0,0,1-1.33-4.78,3.31,3.31,0,0,1,.35-5c-1,0-1.91-.08-2.86-.07a2.31,2.31,0,0,1-1.15-.29,2.9,2.9,0,0,1-2.94.34c-3.4-1.35-1.9-6.19,1.17-6.17l1.06-3.49a3,3,0,0,1-1.54-1.6l-.06-.19a12.83,12.83,0,0,1-2.83.63,3,3,0,0,1-2.48,0c-2.94-1.17-2.21-4.95,0-5.94l.43-1.09a10.52,10.52,0,0,1-4.52-.55,3.4,3.4,0,0,1-.85-.5,3.1,3.1,0,0,1-1.77-.19c-2.55-1-2.34-4-.79-5.41,0,0-.07-.1-.1-.16a2.83,2.83,0,0,1-1.07-1.14c-1.91.24-3.83.28-5.75.46a26.22,26.22,0,0,0-3.29.24,3,3,0,0,1-1.83-3.65,19,19,0,0,1-3,.71l-1.33.23-.11,0h0c-.21.09-.43.16-.64.26a3.09,3.09,0,0,1-2.46,0,3.1,3.1,0,0,1-5.23-1.21,3.17,3.17,0,0,1-1.29-1c-.34.18-.68.36-1,.53-.66.33-1.37.56-2,.91a3.13,3.13,0,0,1-5.69.4,8.36,8.36,0,0,1-1.9-.46,3.56,3.56,0,0,1-1.58.92c.62,2.22-1.4,5.1-4.19,4a3.23,3.23,0,0,1-1.15-.75h0a5.57,5.57,0,0,1-3.12-.85,7,7,0,0,1-.48.57c-1.05,1.13-2.15,2.22-3.16,3.39a3.14,3.14,0,0,1-3.3,1,3,3,0,0,1-4,1.85,2.91,2.91,0,0,1-1.94-2.61,4.27,4.27,0,0,1-1.16-.16.82.82,0,0,0-.3,0,11.26,11.26,0,0,1-1,2.11c-.43.59-1.1,1-1.5,1.62a19.39,19.39,0,0,1-1.36,2.33h0a3,3,0,0,1-4.1,2,3.08,3.08,0,0,1-1.29-.92,6.13,6.13,0,0,1-2.71-.17c-.17.16-.34.33-.53.49a19.4,19.4,0,0,1-2.1,1.37,3.66,3.66,0,0,1-.81.9,4.3,4.3,0,0,1-1.28.69,9,9,0,0,1-1.21.79,3,3,0,0,1-3.68-.92,9,9,0,0,1-3,.21l-.52-.06c-2.3,2.25-5.49,3.78-8.48,2.24a8.3,8.3,0,0,1-2.54-2.6,8.87,8.87,0,0,0-2.26-1.52,6.28,6.28,0,0,1-1.66-1.58,8.52,8.52,0,0,1-7.23,4.28c-2.92.1-4.49-1.79-5.32-4.37l0,0c-.07.12-.14.25-.23.38a4.71,4.71,0,0,1-1.37,1.37,48.33,48.33,0,0,0,2.83,7.81c1.43,3-.11,6.43-2.69,8.09a75.37,75.37,0,0,0,15.22,2.53c30.23-2.08,73.28-23.86,73.28-23.86,18.23-3,32.91,25.16,34.9,29.19l.18.21c.17.2.32.39.46.58,18.29,14,16.73,9.56,25.56,11.19C597.59,968.05,610.2,954.62,611.81,952.85Z"/><path d="M287.53,962.12a45.73,45.73,0,0,1-4.36,29c-.89,1.71,1.7,3.23,2.59,1.51a49,49,0,0,0,4.66-31.33c-.34-1.9-3.23-1.1-2.89.79Z"/><path d="M255,1053.62a30.41,30.41,0,0,0,9.92-14.28c1.86-5.5,2.36-11.38,2.7-17.14.41-6.94.49-14,2.56-20.67s6.57-12.42,9.39-18.88a50.13,50.13,0,0,0,3.88-24.19c-.17-1.91-3.17-1.93-3,0a48.4,48.4,0,0,1-3,21.42c-2.45,6.4-6.76,11.88-9.29,18.26-4.73,11.92-2.26,25.09-5.29,37.36a28.73,28.73,0,0,1-10,16c-1.51,1.2.63,3.31,2.12,2.12Z"/><path d="M282.49,992.53c-2.41,3.76-4.89,7.7-5.81,12.13a38,38,0,0,0-.37,7.23,47.28,47.28,0,0,1-1,7.4c-.84,4.72-.92,9.55-2.12,14.2a41.79,41.79,0,0,1-4.9,11.41,53.62,53.62,0,0,1-8.95,10.92c-1.41,1.33.72,3.45,2.12,2.12a52.08,52.08,0,0,0,13.83-21c1.47-4.4,1.83-8.91,2.38-13.48.32-2.57.89-5.09,1.25-7.65a59.18,59.18,0,0,0,.32-7.41c.07-5.39,3-10,5.8-14.4,1-1.63-1.56-3.14-2.59-1.51Z"/><path d="M283.05,991.48a2.76,2.76,0,0,1-.08.27l.15-.36a3,3,0,0,1-.26.46,1.43,1.43,0,0,0-.14.2l0,0-.15.36s0,0,0,0,0,.08,0,.12l.15-.36,0,0,.24-.31,0,0a1,1,0,0,0-.31.48,1.06,1.06,0,0,0-.13.58,1.08,1.08,0,0,0,.13.58,1.14,1.14,0,0,0,.31.48l.3.23a1.45,1.45,0,0,0,.76.21l.4-.06a1.57,1.57,0,0,0,.66-.38l0,0,.24-.31h0l0,0,.15-.36v0l0-.14-.15.36a2,2,0,0,1,.16-.24l.15-.23a6,6,0,0,0,.26-.58,2.29,2.29,0,0,0,.08-.28,1.18,1.18,0,0,0,0-.59,1.12,1.12,0,0,0-.18-.56,1,1,0,0,0-.39-.42,1.14,1.14,0,0,0-.51-.27l-.4,0a1.41,1.41,0,0,0-.75.2l-.31.24a1.45,1.45,0,0,0-.38.66Z"/><path d="M279.43,927.4c0-.22.05-.44.07-.66.05-.48-.12.71,0-.12.07-.39.14-.77.23-1.16a11.38,11.38,0,0,1,.38-1.26c0-.07.05-.15.08-.23s.05-.13-.09.21l.2-.4c.17-.33.37-.64.57-.95.3-.47-.25.23,0,0s.25-.28.38-.4a2.89,2.89,0,0,1,.33-.3c-.29.21-.35.26-.17.13l.19-.12c.15-.1.32-.18.48-.28.46-.29-.34.1,0,0s.63-.21.95-.29c.1,0,.74-.11.26-.06s.24,0,.27,0a8.51,8.51,0,0,1,1,0c.4,0,.35,0,0,0a2,2,0,0,1,.59.11c.35.08.7.18,1,.29l.57.21c.33.12-.45-.23,0,0,.72.38,1.42.75,2.1,1.2a3,3,0,0,0,4.11-1.07,3.08,3.08,0,0,0-1.08-4.11c-3.58-2.37-8-3.53-12.13-1.8a9.51,9.51,0,0,0-4.65,4.31,17.72,17.72,0,0,0-1.76,6.75,3,3,0,0,0,3,3,3.09,3.09,0,0,0,3-3Z"/><path d="M271.22,928.21c-.44-.18-1.17-.78-1.7-1.08a7.4,7.4,0,0,0-3.1-1,9.69,9.69,0,0,0-5.75,1.66,12.15,12.15,0,0,0-5.8,9.79c-.16,4.26,2.5,7.34,4.9,10.53.57.76,1.17,1.5,1.68,2.3a3,3,0,0,1,.51,2.11c-.1,2.06-.26,4.12-.39,6.18a46.72,46.72,0,0,1-.7,6.35c-.45,2.28-1,4.55-1.53,6.82a3,3,0,1,0,5.78,1.59,88.18,88.18,0,0,0,2.44-14.53c.14-2.34.45-4.73.42-7.07,0-2.56-1.27-4.44-2.75-6.41-2.14-2.84-5.7-6.16-3.8-10a6.6,6.6,0,0,1,3.29-3.05,1.89,1.89,0,0,1,1.94,0,26.31,26.31,0,0,0,3,1.6c1.5.62,3.3-.67,3.69-2.1a3.07,3.07,0,0,0-2.09-3.69Z"/><path d="M245,911a17.79,17.79,0,0,0,2.57,3.11c1.07,1.16,2.13,2.3,3.29,3.36,2.13,2,4.45,3.74,6.75,5.51a3.34,3.34,0,0,0,1.94,1,2.39,2.39,0,0,0,1.7-.94A8.62,8.62,0,0,0,263,919.2q.61-2.48,1.25-5a35.14,35.14,0,0,0,1.1-5,1.51,1.51,0,0,0-1.5-1.5,1.53,1.53,0,0,0-1.5,1.5,24.6,24.6,0,0,1-.74,3.25l-.88,3.47c-.27,1.06-.53,2.12-.81,3.18a8.24,8.24,0,0,1-.38,1.19,3.15,3.15,0,0,1-.28.51c-.12.16-.47.35,0,.21H260a13.42,13.42,0,0,1-1.65-1.28l-1.53-1.2c-1.14-.9-2.27-1.83-3.35-2.81a44.41,44.41,0,0,1-3.3-3.28,18.46,18.46,0,0,1-2.53-3A1.5,1.5,0,0,0,245,911Z"/><path d="M274.72,909.54c3.39-5.3,2.23-11.71,1.12-17.5a1.5,1.5,0,0,0-2.9.79c1,5,2.12,10.62-.81,15.19-1,1.64,1.55,3.14,2.59,1.52Z"/><path d="M273.76,910.09A13,13,0,0,0,279,910a20.59,20.59,0,0,0,2.18-.58,11.14,11.14,0,0,0,2.41-.93,7.69,7.69,0,0,0,2.39-3.5,10.49,10.49,0,0,0,.72-4c0-5.64-3.64-10.84-7.13-15-1.24-1.48-3.35.65-2.12,2.12,2.78,3.33,5.69,7.42,6.19,11.85.22,1.91-.12,4.52-1.64,5.89.19-.18-.27.15-.4.2l-.87.32c-.65.22-1.31.42-2,.58a9.74,9.74,0,0,1-4.16.17c-1.88-.39-2.69,2.51-.79,2.89Z"/><path d="M273.28,912.12c.51-1,1.13-2.45,2.34-2.79a11.05,11.05,0,0,1,2,0,9.6,9.6,0,0,0,2-.48,23,23,0,0,1,4.14-1.18,6.34,6.34,0,0,1,4,.67c1.62,1.07,3.12-1.53,1.52-2.59a9,9,0,0,0-5.19-1.11,23,23,0,0,0-5.23,1.31,5,5,0,0,1-2.19.35,4.78,4.78,0,0,0-2.56.39,7.78,7.78,0,0,0-3.41,3.89c-.88,1.71,1.71,3.23,2.59,1.51Z"/><path d="M261.56,925.22a4.4,4.4,0,0,1-.13-2.1,12.87,12.87,0,0,1,.71-1.91c.63-1.51.86-3.11,1.54-4.6a16,16,0,0,0,1.09-4.94,3.08,3.08,0,0,1,.47-1.77,5,5,0,0,1,1.69-1,1.5,1.5,0,0,0-1.51-2.6c-1.52.71-3,1.68-3.38,3.4-.46,1.89-.24,3.9-1.1,5.7s-1.08,3.55-1.81,5.28a8,8,0,0,0-.46,5.33c.45,1.88,3.34,1.09,2.89-.79Z"/><path d="M307,964.92a14.54,14.54,0,0,0-1-4.87q-.89-2.65-1.78-5.29c-1.2-3.52-2.43-7-3.74-10.52l-1,1.85c-.43.09-.13.1.17.31l.86.61c.53.37,1.06.71,1.59,1,1.08.68,2.18,1.3,3.3,1.88a53,53,0,0,0,7.37,3.11,67.7,67.7,0,0,0,15.58,3.12c1.92.17,1.91-2.83,0-3a63.62,63.62,0,0,1-15.79-3.36,46.79,46.79,0,0,1-7.13-3.26c-1.16-.66-2.3-1.36-3.4-2.13s-1.94-1.52-3.35-1.22a1.5,1.5,0,0,0-1.05,1.84c1.25,3.33,2.43,6.69,3.58,10.06l1.71,5a14.69,14.69,0,0,1,1.12,4.77,1.5,1.5,0,0,0,3,0Z"/><path d="M129,1025.24c-6.67-6.74-14.21-14.63-13.66-24.84.29-5.39,2.63-10.46,5.1-15.16s5.08-9.84,8.83-13.86c3.9-4.18,8.54-7.69,12.9-11.36s8.9-7.58,13.43-11.27a85.79,85.79,0,0,1,13.36-9.26,104.16,104.16,0,0,1,15.61-6.34c12.2-4.21,24.71-8.3,37.75-8.33a1.5,1.5,0,0,0,0-3c-12,0-23.66,3.39-35,7.21a168.74,168.74,0,0,0-16.59,6.21,75,75,0,0,0-14.47,9.14C151.54,948,147,952,142.48,955.81s-9.46,7.63-13.8,11.84-7.05,9-9.82,14.09c-2.67,4.92-5.31,10.08-6.23,15.65a24.83,24.83,0,0,0,3.26,16.73c2.88,5,6.92,9.18,10.94,13.25,1.36,1.37,3.48-.75,2.12-2.13Z"/><path d="M222.3,924.7a42.59,42.59,0,0,0,9.51,0c3.4-.51,7.12.08,10.52.42s6.83.81,10.22,1.41c.86.15,1.71.3,2.56.5.31.07.61.15.91.24,0,0,1.37.51.82,0,.31.27.37,1.83.46,2.26l.56,2.72c.39,1.89,3.28,1.09,2.9-.8a45.51,45.51,0,0,0-1.08-5.19c-.52-1.51-2.41-1.82-3.77-2.14a97.75,97.75,0,0,0-11.16-1.76,75.77,75.77,0,0,0-11.45-.83c-1.88.07-3.68.58-5.57.51s-3.62-.24-5.43-.36-1.92,2.87,0,3Z"/><path d="M259.44,926.24a17.27,17.27,0,0,1-.43-2l.05.4a6.34,6.34,0,0,1,0-1.57l-.05.4a4.61,4.61,0,0,1,.32-1.14l-.15.36c0-.06.05-.11.07-.17a1.54,1.54,0,0,0,.15-1.15,1.51,1.51,0,0,0-.68-.9,1.53,1.53,0,0,0-2.06.54,6.49,6.49,0,0,0-.64,3.12,15.28,15.28,0,0,0,.54,2.93,1.52,1.52,0,0,0,1.84,1.05,1.54,1.54,0,0,0,1.05-1.85Z"/><path d="M254.14,1054.29c2.2.86,4.7.74,6.83,1.78,1.07.52,2.68-.36,2.2-1.69-.75-2.1-1.46-4.2-2.14-6.32l-1.84,1.85a68.88,68.88,0,0,0,11,1.34,1.51,1.51,0,0,0,1.3-2.25c-1-1.62-2.64-2.69-3.48-4.41-.42-.87-.72-1.79-1.21-2.63a16.83,16.83,0,0,0-1.89-2.49,1.52,1.52,0,0,0-2.12,0,1.54,1.54,0,0,0,0,2.13,10.94,10.94,0,0,1,1.61,2.22c.43.82.71,1.7,1.14,2.52.85,1.62,2.42,2.64,3.36,4.17l1.29-2.26A62.72,62.72,0,0,1,260,1047a1.51,1.51,0,0,0-1.84,1.84q1,3.18,2.14,6.31l2.2-1.69c-2.39-1.17-5.09-1.12-7.54-2.08a1.51,1.51,0,0,0-1.85,1,1.54,1.54,0,0,0,1,1.84Z"/><path d="M263.38,1041.22a71.87,71.87,0,0,0,10.33,2.47,1.53,1.53,0,0,0,1.7-2.21,43.89,43.89,0,0,0-8.86-12.76,1.5,1.5,0,0,0-2.12,2.13,41.46,41.46,0,0,1,8.39,12.15l1.69-2.21a70.69,70.69,0,0,1-10.34-2.47,1.5,1.5,0,0,0-.79,2.9Z"/><path d="M265.62,1031.27q5.2,1.51,10.46,2.84a1.5,1.5,0,1,0,.8-2.89q-5.25-1.34-10.46-2.84a1.5,1.5,0,1,0-.8,2.89Z"/><path d="M277.91,1032.27a12.59,12.59,0,0,0-1.86-3.65c-.85-1.12-1.81-2.11-2.57-3.3-1.58-2.5-3.5-4.8-5.31-7.15a1.55,1.55,0,0,0-2.05-.54,1.53,1.53,0,0,0-.54,2.06c1.76,2.28,3.63,4.51,5.18,6.93,1.4,2.19,3.43,3.94,4.25,6.45.6,1.83,3.5,1,2.9-.8Z"/><path d="M266.29,1020.21a85.72,85.72,0,0,1,10,4,1.55,1.55,0,0,0,2.06-.54,1.52,1.52,0,0,0-.54-2,94,94,0,0,0-10.74-4.31,1.5,1.5,0,0,0-.8,2.9Z"/><path d="M278.17,1021.88a7.76,7.76,0,0,1-.88-1.72,10.64,10.64,0,0,0-1.2-1.92c-1-1.32-1.67-2.81-2.57-4.18-.8-1.2-1.78-2.26-2.59-3.45s-1.15-2.84-2.05-4.08a1.56,1.56,0,0,0-2.06-.54,1.51,1.51,0,0,0-.53,2.06c.9,1.23,1.19,2.8,2,4.08s1.91,2.37,2.72,3.66,1.6,2.85,2.59,4.17,1.39,2.82,2.4,4a1.5,1.5,0,0,0,2.12,0,1.53,1.53,0,0,0,0-2.12Z"/><path d="M267.06,1008.78q5.25,1.32,10.37,3a1.51,1.51,0,0,0,1.85-1.84,8.72,8.72,0,0,0-1.64-3.17c-.73-1-1.32-2.1-2-3.16a19.52,19.52,0,0,0-2.41-3.1,7.16,7.16,0,0,1-1.74-2.78c-.55-1.84-3.45-1.06-2.89.8a9.8,9.8,0,0,0,1.9,3.41,29.92,29.92,0,0,1,2.33,2.83c.65,1,1.21,2.11,1.89,3.12a8.22,8.22,0,0,1,1.63,2.85l1.84-1.85q-5.13-1.71-10.37-3c-1.87-.47-2.67,2.42-.8,2.89Z"/><path d="M270.07,999.65a94.75,94.75,0,0,0,12.23,1.61,1.51,1.51,0,0,0,1.5-1.5,1.54,1.54,0,0,0-1.5-1.5,88,88,0,0,1-11.44-1.5,1.5,1.5,0,1,0-.79,2.89Z"/><path d="M283.37,998.7a7.17,7.17,0,0,1-1.18-2.38,24.6,24.6,0,0,0-1.35-3.22,57.59,57.59,0,0,0-3.87-5.9,1.54,1.54,0,0,0-2.05-.54,1.5,1.5,0,0,0-.54,2.05,55.28,55.28,0,0,1,4,6.09c1,2,1.39,4.27,2.9,6a1.5,1.5,0,0,0,2.12-2.12Z"/><path d="M275.5,989.43q4.61,1.37,9.28,2.42a1.52,1.52,0,0,0,1.85-1.84c-.3-.94-.91-1.81-1.15-2.66a14.07,14.07,0,0,0-1.14-3.08,57.13,57.13,0,0,0-3.45-5.38,1.53,1.53,0,0,0-2.05-.54,1.51,1.51,0,0,0-.54,2,60.68,60.68,0,0,1,3.35,5.21,6.89,6.89,0,0,1,.6,1.22c.14.43.21.88.34,1.31.26,1,.88,1.83,1.14,2.66l1.85-1.84c-3.12-.71-6.21-1.51-9.28-2.42a1.5,1.5,0,0,0-.8,2.89Z"/><path d="M279.13,981.08a31.82,31.82,0,0,1,4.35.84,2.6,2.6,0,0,1,.42.15l.28.11.05,0c.4.17.8.34,1.21.49.7.25,1.43.43,2.15.62a1.5,1.5,0,0,0,.8-2.89c-.73-.19-1.45-.37-2.16-.62l-.57-.23-.19-.08c-.39-.16-.78-.34-1.19-.47a33.41,33.41,0,0,0-4.35-.84,1.5,1.5,0,0,0-.8,2.9Z"/><path d="M280.75,972a23.11,23.11,0,0,0,1.53,2.27l1,1.23.41.52.2.27.12.15c.59.76,1.15,1.54,1.71,2.31.27.37.55.74.79,1.12a5.7,5.7,0,0,1,.3.54c.12.22-.05-.17,0,.06s.08.24.11.37a1.5,1.5,0,1,0,2.9-.8,8,8,0,0,0-1.33-2.51c-.6-.83-1.2-1.65-1.82-2.46a43.89,43.89,0,0,1-3.32-4.58,1.51,1.51,0,0,0-2-.54,1.53,1.53,0,0,0-.54,2.05Z"/><path d="M283.31,970.26l-.19-.35a1.31,1.31,0,0,0-.39-.42,1.26,1.26,0,0,0-.51-.27,1.11,1.11,0,0,0-.6,0,1.16,1.16,0,0,0-.56.18l-.3.23a1.59,1.59,0,0,0-.39.66l-.05.4a1.48,1.48,0,0,0,.21.76l.19.34a1,1,0,0,0,.39.42,1.14,1.14,0,0,0,.51.27,1.19,1.19,0,0,0,.59,0,1.12,1.12,0,0,0,.56-.18l.31-.24a1.45,1.45,0,0,0,.38-.66l.06-.4a1.51,1.51,0,0,0-.21-.75Z"/><path d="M281.69,972.41a16.89,16.89,0,0,0,1.73.45l.48.16.1,0,.9.39a40.72,40.72,0,0,0,3.86,1.45,1.52,1.52,0,0,0,1.85-1,1.54,1.54,0,0,0-1.05-1.85c-.61-.19-1.21-.4-1.8-.62l-.89-.34-.5-.21-.21-.09a16.06,16.06,0,0,0-1.88-.76c-.6-.17-1.21-.25-1.79-.47a1.51,1.51,0,0,0-1.85,1.05,1.54,1.54,0,0,0,1.05,1.84Z"/><path d="M281.54,963.9c1.2,1.35,2.11,3.2,3.25,4.74a59.76,59.76,0,0,1,3.56,4.92,1.5,1.5,0,0,0,2.59-1.51c-1.08-1.83-2.46-3.41-3.67-5.07s-2.2-3.61-3.61-5.2a1.51,1.51,0,0,0-2.12,0,1.53,1.53,0,0,0,0,2.12Z"/><path d="M282.1,963.81a20.22,20.22,0,0,0,6.94,0,1.51,1.51,0,0,0,.66-2.51L288,959.8a1.5,1.5,0,1,0-2.12,2.12l1.74,1.53.66-2.5-.35,0c-.17,0-.16,0,.05,0l-.18,0-.71.07a14.64,14.64,0,0,1-1.48,0c-.48,0-.95,0-1.42-.06a5.34,5.34,0,0,1-.71-.07c.38.09-.05,0-.13,0l-.41-.07a1.61,1.61,0,0,0-1.16.15,1.5,1.5,0,0,0,.36,2.74Z"/><path class="cls-19" d="M520,1018.15l4.93-2.8L538,1035.68S518.8,1018.78,520,1018.15Z"/><polyline class="cls-19" points="518.72 1019.32 518.82 1019.26 527.9 1043.53 512.35 1021.67"/><polygon class="cls-19" points="505.36 1022.96 509.85 1021.18 518.36 1043.25 505.36 1022.96"/><polygon class="cls-19" points="544.69 960.54 548.1 958.5 562.9 981.13 544.69 960.54"/><polygon class="cls-19" points="542.73 961.43 539.49 963.74 557.6 989.04 542.73 961.43"/><polygon class="cls-19" points="533.8 967.25 538.5 964.3 551.7 991.58 533.8 967.25"/><path class="cls-32" d="M160.22,927.79"/><path class="cls-27" d="M173.85,922.58s.69-39.7,8.94-2.75c0,0,1.38-37.17,8.91-2.26,0,0,1.16-35.09,7.13-1.45"/><path class="cls-33" d="M245.5,888.66"/><path class="cls-19" d="M273,909s3.88-6.18.8-16.93-1.76-10-2.57-11.74,15.56,13.3,14.07,25.46c0,0-5.57,2.64-6.34,2.47a44.38,44.38,0,0,1-5.17.69Z"/><path class="cls-19" d="M259.86,922.52s3.63-12.26,3.28-12.88c0,0-4.19,2.3-11.11-2.5a59.69,59.69,0,0,1-10.64-9.2S242.24,910.92,259.86,922.52Z"/><path class="cls-19" d="M463,934.28l6.11-10.54,5.94,10s-9.21,4-12.05.54"/><path class="cls-19" d="M475,933.74l6.71-11.07,6.07,7.76S481.33,935.12,475,933.74Z"/><path class="cls-19" d="M500,924.63l-6.46-6.78-5.78,12.58S498.51,927.46,500,924.63Z"/><path class="cls-19" d="M514.57,919.74l-7.38-6.39L500,924.63S515.63,920.92,514.57,919.74Z"/><path class="cls-19" d="M523.72,916.89,519,909.65l-4.3,10.13S521.22,919.33,523.72,916.89Z"/><path class="cls-19" d="M533.41,916.55l-2.58-7.9-7.11,8.24S530.64,917.74,533.41,916.55Z"/><path class="cls-19" d="M545,918.12l-.07-8.43-11.52,6.86S543,918.45,545,918.12Z"/><path class="cls-19" d="M555.35,923.78,558.1,915,545,918.12S555.22,924.11,555.35,923.78Z"/><path class="cls-19" d="M561.41,931.54l4.21-8.63-10.27.87S558.05,929.44,561.41,931.54Z"/><path class="cls-19" d="M574.35,952.74l2.82-11.86L566,942.14l6.18-11.66-10.74,1.06s1.59,7.51,4.56,10.6"/><path class="cls-19" d="M586.8,955l-3-8.83-9.8,6.4S585,957.73,586.8,955Z"/><path class="cls-19" d="M595.34,953.72l-2.75-5.55L586.8,955S592.75,956.38,595.34,953.72Z"/><path class="cls-19" d="M605.5,950.27l-3.63-3.36-6.53,6.81s6.14-.09,10.16-3.45"/><polygon class="cls-19" points="178.87 906.3 174.93 890.85 174.96 908.7 178.87 906.3"/><polygon class="cls-19" points="184.45 905.52 188.02 904.68 182.69 886.43 184.45 905.52"/><polygon class="cls-19" points="192.92 904.61 195.98 904.24 192.67 884.02 192.92 904.61"/><polygon class="cls-34" points="255.06 1052.56 258.98 1048.7 261.69 1054.91 255.06 1052.56"/><path class="cls-34" d="M259.42,1048l9.73,1.18s-3.34-3.59-3-3.76-2.14-4.5-2.45-4.32S259.42,1048,259.42,1048Z"/><path class="cls-34" d="M264.29,1039.39l9,2.19s-4.49-8.66-7.13-10.42Z"/><polygon class="cls-34" points="266.27 1029.34 276.22 1032.37 266.96 1019.68 266.27 1029.34"/><path class="cls-34" d="M276.24,1022.15l-9.38-3.92.78-9.55s2.89,5,3.59,5.57S276.24,1022.15,276.24,1022.15Z"/><path class="cls-34" d="M277,1009.62l-9-2.73s1.55-7.84,2-7.71S277,1009.62,277,1009.62Z"/><path class="cls-34" d="M270.7,997.56l10.73,1.65s-2.21-4.39-2.55-5.46-3.41-5-3.41-5Z"/><path class="cls-34" d="M307,996.58l8.53,2.09a9.54,9.54,0,0,1-1-1.82c-.06-.83-3.82-7.52-4.23-7.43Z"/><path class="cls-34" d="M279.89,979.27l8.57,2.3a38.92,38.92,0,0,0-2.38-3.93c-.44-.36-4.2-5.62-4.2-5.62Z"/><polygon class="cls-19" points="282.63 963.64 282.04 970.5 289.16 972.98 282.63 963.64"/><path class="cls-19" d="M284.42,990.77,277,988.88s4.24,7.47,4.16,7.68S284.77,991,284.42,990.77Z"/><path class="cls-35" d="M270.68,998.59l9.18,1.09s-2.92,7.55-2.38,8.5S270.68,998.59,270.68,998.59Z"/><path class="cls-19" d="M270.83,998.86"/><path class="cls-35" d="M302.71,1007.21l8.8,2.4-1.38,9.77s-5.74-9.38-6.23-9.52S302.71,1007.21,302.71,1007.21Z"/><polygon class="cls-35" points="267.99 1019.7 275.95 1022.93 275.01 1029.17 267.99 1019.7"/><path class="cls-35" d="M274.57,1032.69l-7.48-2.07s6.19,7.7,5.57,8.05Z"/><path class="cls-35" d="M264.57,1040.62l6.37,1.48-2.61,4.75s-1.72-2.25-1.47-2.21S264.57,1040.62,264.57,1040.62Z"/><polygon class="cls-35" points="260.25 1049.1 266.44 1049.97 262.24 1054.48 260.25 1049.1"/><path class="cls-28" d="M128.46,1026.42s-12.21-12-14-20.83,8.17-31.11,12.92-34.46,33.6-34.42,59.65-40.27c0,0,25.79-7.32,30.57-7.38s12.12.65,12.12.65,7.74-2.41,28.15,2.74l1,5.22s-4.14,4-1,10.13l5.61,7.59s.7,1.23.07,7.3-2.14,16.32-2.14,16.32-72.67-4.38-111.88,22.82c0,0,4.24,34.72-22.69,12.49C126.9,1008.74,132.69,1025.85,128.46,1026.42Z"/><path class="cls-28" d="M299.77,945.17s30.07,15.48,22.81,19-14.85,5.59-16.7,2.68a21.81,21.81,0,0,0-.43-3.26c-.43-2.13-1.25-5-2.06-7.93-.52-1.86-1.17-3.57-1.74-5.21C300.75,947.86,300,945.69,299.77,945.17Z"/><path d="M310.12,952.13a5.63,5.63,0,0,1,1.61,1l2,1.55c.59.46,1.18.92,1.75,1.4a17.73,17.73,0,0,0,1.92,1.54,38.57,38.57,0,0,1,3.5,2.59,4.3,4.3,0,0,1,1.37,1.38c.15.37,0,.5-.27.72a1.55,1.55,0,0,0-.54,2.05,1.52,1.52,0,0,0,2.06.54,3.91,3.91,0,0,0,1.73-2.24,3.74,3.74,0,0,0-.62-2.95,9.24,9.24,0,0,0-2-1.92c-.82-.65-1.63-1.32-2.47-1.95-.68-.51-1.42-.87-2.06-1.44s-1.44-1.18-2.17-1.76c-1.57-1.24-3.09-2.72-5-3.41a1.52,1.52,0,0,0-1.85,1,1.54,1.54,0,0,0,1.05,1.85Z"/><path d="M310.59,950.18h0l.18.07-.06,0,.16.12-.13-.12-.13-.14a3.47,3.47,0,0,0-.29-.25.54.54,0,0,0-.24-.16.48.48,0,0,0-.29-.06.49.49,0,0,0-.29.06.54.54,0,0,0-.24.16l-.12.15a.8.8,0,0,0-.1.38l0,.2a.79.79,0,0,0,.19.33l.34.31.16.15,0,0,.18.14,0,0,.19.08h0a.61.61,0,0,0,.3,0,.71.71,0,0,0,.28-.09.51.51,0,0,0,.21-.2.47.47,0,0,0,.13-.25l0-.2a.72.72,0,0,0-.1-.38l-.12-.15a.69.69,0,0,0-.33-.19Z"/><path class="cls-29" d="M176.11,923.33a5,5,0,0,1,.6-.62c0-.05.3-.31,0,0a2.31,2.31,0,0,1,.36-.25l.38-.2c.26-.15-.28.07,0,0a3.66,3.66,0,0,1,.44-.13l.24-.05c-.18,0-.22,0-.1,0,.3,0,.59,0,.9,0s-.31-.07.08,0l.48.09a15.69,15.69,0,0,1,1.76.57,1.51,1.51,0,0,0,1.85-1,1.56,1.56,0,0,0-1-1.85,8.91,8.91,0,0,0-4.4-.73,6,6,0,0,0-3.73,2.12,1.55,1.55,0,0,0,0,2.12,1.53,1.53,0,0,0,2.13,0Z"/><path class="cls-29" d="M185,920.52a5.18,5.18,0,0,1,.67-.57c-.33.21.08-.05.14-.1l.27-.19a12.06,12.06,0,0,1,1.48-.85,2.92,2.92,0,0,1,.36-.17l.17,0a1.36,1.36,0,0,1,.44-.11c-.22,0-.24,0-.07,0h.17c.11,0,.07,0-.15,0l.2,0,.2.06-.08,0c.07,0,.31.16.36.19s.45.34.12.07a1.61,1.61,0,0,0,1.06.44,1.5,1.5,0,0,0,1.06-.44,1.52,1.52,0,0,0,0-2.12,4.21,4.21,0,0,0-4.94-.66,13,13,0,0,0-3.58,2.37,1.51,1.51,0,0,0,0,2.12,1.54,1.54,0,0,0,2.12,0Z"/><path class="cls-29" d="M194.22,918.31l.25-.44c.13-.21-.26.31,0,0l.17-.18.19-.17c-.29.31-.17.13,0,.05a2.77,2.77,0,0,1,.48-.26l-.36.15a3.29,3.29,0,0,1,.76-.21l-.4.05a3.86,3.86,0,0,1,.76,0l-.4-.05a3.17,3.17,0,0,1,.8.22l-.35-.15c.18.08.35.18.53.28l-.12-.1.11.1.22.21a1.5,1.5,0,0,0,2.12,0,1.52,1.52,0,0,0,0-2.12,4.62,4.62,0,0,0-4.18-1.32,4.5,4.5,0,0,0-3.12,2.41,1.64,1.64,0,0,0-.15,1.15,1.56,1.56,0,0,0,.69.9,1.51,1.51,0,0,0,2.05-.54Z"/><path d="M252.44,1052.11a2.33,2.33,0,0,1-.17.26l.23-.3a2.16,2.16,0,0,1-.37.37l.3-.23-.06,0a1.13,1.13,0,0,0-.42.39,1.26,1.26,0,0,0-.27.51,1.22,1.22,0,0,0,0,.6,1.16,1.16,0,0,0,.18.56l.24.3a1.47,1.47,0,0,0,.66.39l.4,0a1.42,1.42,0,0,0,.75-.21,3.73,3.73,0,0,0,.65-.54l.07-.08.3-.39.13-.2a1.82,1.82,0,0,0,.15-1.16,1.26,1.26,0,0,0-.27-.51,1.18,1.18,0,0,0-.42-.38l-.36-.15a1.36,1.36,0,0,0-.8,0l-.36.15a1.5,1.5,0,0,0-.53.53Z"/><path d="M252.28,1052.18l-.6.79a1.5,1.5,0,0,0,2.36,1.81,5.66,5.66,0,0,0,1-1.3,1.54,1.54,0,0,0-.53-2.06,1.56,1.56,0,0,0-2.06.54c-.13.2-.27.39-.42.58l-.18.26-.11.14a1.54,1.54,0,0,0-.23,1.81,1.57,1.57,0,0,0,1.69.69,4.54,4.54,0,0,0,1-.28c.18,0,.17,0,0,0h.09c-.14,0,.29.11.35.13.72.26,1.42.57,2.14.83s1.45.51,2.19.72a3.62,3.62,0,0,0,2.76.05,1.54,1.54,0,0,0,.54-2.06,3.76,3.76,0,0,0-2.35-1.4,9.71,9.71,0,0,0-2.57-.53,1.51,1.51,0,0,0-1.5,1.5,1.54,1.54,0,0,0,1.5,1.5s.48.06.22,0l.45.09a8.19,8.19,0,0,1,.81.23l.81.27a3.16,3.16,0,0,1,.43.16l-.15-.06c.22.13.14.05-.24-.25l.54-2.06a.72.72,0,0,1,.57-.09l-.27-.06L260,1054c-.37-.1-.74-.21-1.1-.33q-1-.33-2-.72a11.62,11.62,0,0,0-2-.72,3.32,3.32,0,0,0-1.47,0,8.51,8.51,0,0,1-1,.28l1.46,2.51c.41-.52.8-1,1.18-1.58l-2.59-1.52a3,3,0,0,1-.3.48c.17-.22-.19.18-.23.22l2.36,1.82.6-.78a1.51,1.51,0,0,0-.54-2.06,1.54,1.54,0,0,0-2.05.54Z"/><path d="M252.54,1055.51c1,.15,1.9.33,2.85.52a1.59,1.59,0,0,0,1.15-.15,1.52,1.52,0,0,0,.69-.9,1.49,1.49,0,0,0-.15-1.15,1.46,1.46,0,0,0-.9-.69c-.94-.2-1.89-.37-2.84-.53a1.73,1.73,0,0,0-1.16.16,1.5,1.5,0,0,0-.69.89,1.56,1.56,0,0,0,.15,1.16,1.45,1.45,0,0,0,.9.69Z"/><path d="M254.8,1055.91c.79.24,1.58.52,2.35.82l.24.1.19.08.18.08.24.1,1.19.56v-2.59l-.09,0,.76-.2h-.22q.32,0,.06,0a2.83,2.83,0,0,1-.44-.14c.33.17-.05,0-.12-.07l-.37-.19a9.81,9.81,0,0,0-1.93-.73c-.59-.16-1.18-.27-1.77-.42l-.81-.23-.2-.07a2.44,2.44,0,0,1-.43-.21,1.5,1.5,0,0,0-1.51,2.59,19.42,19.42,0,0,0,4.09,1.28l.46.14.23.08.1,0,.09,0,.21.11.48.23a3.26,3.26,0,0,0,2.92.3,1.51,1.51,0,0,0,0-2.59,35.73,35.73,0,0,0-5.1-2,1.53,1.53,0,0,0-1.85,1,1.55,1.55,0,0,0,1.05,1.85Z"/><path d="M259,1056.34c-.05.15,0,.11,0-.13a1,1,0,0,1,.32-.31l1.15-.15c.44.13,0,0-.07-.06l-.27-.13-.64-.29c-.52-.23-1-.45-1.58-.63l-.29-.1-.2-.07c.2.08.23.09.09,0s-.39-.26-.59-.37a6,6,0,0,0-.9-.39l-.26-.08.11,0c-.14-.08-.11,0,.07.09a1.59,1.59,0,0,0-1.06-.44,1.53,1.53,0,0,0-1.06.44,1.56,1.56,0,0,0-.44,1.06,1.48,1.48,0,0,0,.44,1.06,3.85,3.85,0,0,0,1.23.66l.22.07c.19,0-.25-.13-.08,0l.39.21a5.51,5.51,0,0,0,1.05.55c.3.12.61.21.91.33l.42.16c.18.08,0,0-.08,0a.94.94,0,0,1,.23.1c.28.12.55.25.82.39a1.86,1.86,0,0,0,1.94.16,2.26,2.26,0,0,0,1-1.33,1.5,1.5,0,1,0-2.89-.8Z"/><path d="M253.73,1055.86a3.3,3.3,0,0,0,.86.72,9.32,9.32,0,0,0,1,.43l-.35-.15a14.19,14.19,0,0,0,1.67.67,14.42,14.42,0,0,1,1.45.47l-.36-.15a4.37,4.37,0,0,1,.57.29l1.51-2.59a10,10,0,0,0-1.36-.57,1.51,1.51,0,0,0-1.85,1,1.55,1.55,0,0,0,1.05,1.85l.54.2-.36-.15a5.43,5.43,0,0,1,.59.3l1.51-2.59a5.67,5.67,0,0,0-1-.42l-.8,2.89c.25.08.5.16.74.26a1.47,1.47,0,0,0,1.16-.15,1.56,1.56,0,0,0,.69-.9,1.54,1.54,0,0,0-.16-1.15,1.7,1.7,0,0,0-.89-.69,6.49,6.49,0,0,0-.74-.26,1.5,1.5,0,0,0-1.84,1,1.53,1.53,0,0,0,1,1.85,3,3,0,0,1,.32.12l-.36-.15a1.77,1.77,0,0,1,.31.15,1.5,1.5,0,1,0,1.51-2.59,7.82,7.82,0,0,0-1.48-.65l-.8,2.89.51.19-.36-.15.5.23a1.5,1.5,0,0,0,1.51-2.59,20.57,20.57,0,0,0-3.2-1.2l.36.15c-.43-.19-.85-.37-1.28-.54l.36.15a2.78,2.78,0,0,1-.47-.28l.3.24a2,2,0,0,1-.32-.33,1.51,1.51,0,0,0-2.13,0,1.54,1.54,0,0,0-.44,1.06,1.76,1.76,0,0,0,.44,1.06Z"/><polygon class="cls-19" points="261.5 1055.63 259.75 1057.23 253.76 1053.5 261.5 1055.63"/><path class="cls-28" d="M149.59,996.25"/><path class="cls-28" d="M116.76,988.29a11.51,11.51,0,0,0-.93,2.24c-.35,1.16,1.12,2.51,2.2,1.7l0,0a1.53,1.53,0,0,0,.53-2.05l0,0a1.51,1.51,0,0,0-2.35-.3,5.14,5.14,0,0,0-.94,1.85c-.27.65-.53,1.32-.78,2a19.37,19.37,0,0,0-1.15,4.15c-.32,2.46-.4,5.54,1,7.72,1,1.63,3.62.13,2.59-1.52a5.16,5.16,0,0,1-.67-2.7,20.2,20.2,0,0,1,.07-3.11,15.4,15.4,0,0,1,.88-3.17c.21-.57.43-1.14.65-1.71.1-.23.19-.47.29-.7s.21-.67.22-.67l-2.36-.3,0,0,.54-2,0,0,2.2,1.69a7.5,7.5,0,0,1,.63-1.52c.92-1.7-1.66-3.22-2.59-1.52Z"/><path class="cls-28" d="M257.81,925.84l-.12,0,.36.15-.18-.1a1.5,1.5,0,0,0-2.05.54,1.47,1.47,0,0,0-.15,1.16l.15.36a1.45,1.45,0,0,0,.54.53,1.73,1.73,0,0,0,.91.27l.4-.06a1.13,1.13,0,0,0,.51-.26,1.52,1.52,0,0,0,.54-.78,1.8,1.8,0,0,0,0-.8,1.59,1.59,0,0,0-.69-.9,3.76,3.76,0,0,0-.88-.35l-.56-.17-1.19-.27a1.56,1.56,0,0,0-1.16.15,1.53,1.53,0,0,0-.69.89,1.51,1.51,0,0,0,.15,1.16,1.67,1.67,0,0,0,.9.69l.69.18a1.61,1.61,0,0,0,1.16-.15,1.56,1.56,0,0,0,.69-.9A1.59,1.59,0,0,0,257,926l-.24-.31a1.57,1.57,0,0,0-.66-.38,1.91,1.91,0,0,0-.41-.11,1.22,1.22,0,0,0-.6,0,1.16,1.16,0,0,0-.56.18,1.56,1.56,0,0,0-.69.9,1.54,1.54,0,0,0,.16,1.15,1.57,1.57,0,0,0,.89.69l.28.08a1.61,1.61,0,0,0,1.16-.15,1.55,1.55,0,0,0,.69-.9,1.52,1.52,0,0,0-.15-1.16l-.24-.3a1.51,1.51,0,0,0-.66-.38l0,0,.36.15-.25-.13L254.88,928c.25.09.51.1.76.19l-.36-.15c.22.09.43.2.66.28a3.58,3.58,0,0,1,.35.11l-.35-.15,0,0a1.14,1.14,0,0,0,.56.17,1.11,1.11,0,0,0,.6,0,1.59,1.59,0,0,0,.9-.69,1.56,1.56,0,0,0,.15-1.16,1.47,1.47,0,0,0-.69-.89,3.4,3.4,0,0,0-.57-.23l-.26-.08.36.15a5,5,0,0,0-.81-.32,3.49,3.49,0,0,1-.54-.12,1,1,0,0,0-.59,0,1.12,1.12,0,0,0-.56.18l-.3.23a1.14,1.14,0,0,0-.31.48.76.76,0,0,0-.11.38,1.22,1.22,0,0,0,0,.6,1.63,1.63,0,0,0,.69.9,3.73,3.73,0,0,0,.64.3l.8-2.89-.28-.08-.8,2.89a2.75,2.75,0,0,1,.41.11l.8-2.89c-.23-.06-.46-.11-.69-.18l-.8,2.89a13.65,13.65,0,0,1,2.17.59l-.36-.15.1,0,.76-2.79h0l.39.06-.06,0,.36.15-.06,0-1.51,2.59a.83.83,0,0,0,.16.09,4.19,4.19,0,0,0,.49.2,1.59,1.59,0,0,0,1.15-.15,1.51,1.51,0,0,0,.54-2.06,1.62,1.62,0,0,0-.89-.69Z"/><path class="cls-28" d="M255.54,925.17a14.69,14.69,0,0,0-3-.65l.4.05c-.51-.07-1-.2-1.51-.25s-.79,0-1.19-.06a1.51,1.51,0,0,0-1.5,1.5,1.54,1.54,0,0,0,1.5,1.5c.43,0,.88,0,1.31.07l-.4-.05c.59.1,1.16.21,1.75.29l-.39-.06a11.91,11.91,0,0,1,2.25.55,1.5,1.5,0,0,0,1.84-1,1.53,1.53,0,0,0-1-1.84Z"/><path class="cls-28" d="M252.42,925.2a2.64,2.64,0,0,0-.34-.41,2.33,2.33,0,0,0-1.09-.56l-.18,0a3.85,3.85,0,0,0-.58-.08,2.67,2.67,0,0,1-.4,0l.4.06-.21,0-.22,0-.23,0a2.63,2.63,0,0,0-.48.06,1.14,1.14,0,0,0-.51.27,1.34,1.34,0,0,0-.57,1,1.22,1.22,0,0,0,0,.6,1.5,1.5,0,0,0,.69.89l.36.15a1.33,1.33,0,0,0,.79,0h0l-.4,0h.09l-.4-.06a4.43,4.43,0,0,0,.73.11h.39l-.4,0a2.2,2.2,0,0,1,.52.13l-.35-.15a1,1,0,0,1,.17.1l-.3-.24.09.09-.24-.3,0,0a1.18,1.18,0,0,0,.38.42,1.26,1.26,0,0,0,.51.27,1.73,1.73,0,0,0,1.16-.16,1.5,1.5,0,0,0,.69-.89l.05-.4a1.57,1.57,0,0,0-.2-.76Z"/><path class="cls-19" d="M464.33,935.26l-8.18-13.62L447,933.41S464.26,938,464.33,935.26Z"/><path class="cls-19" d="M438.52,926.78q.11.38.18.72c.43,1.82.9,3.61,1.46,5.37,3.41.47,7,.59,7,.59l-3.63-13.78-4.75,5.74Z"/><path class="cls-29" d="M456.31,985.63c-.07-.12-.13-.24-.19-.36-.16-.3.1.32,0,0a5.67,5.67,0,0,1-.2-.67c-.07-.36,0,0,0,0a1.85,1.85,0,0,0,0-.39,5.4,5.4,0,0,1,0-.7c0-.3-.07.32,0,0,0-.11,0-.22.07-.34s.12-.59.2-.61c-.09.2-.1.23,0,.08l.09-.18.14-.25a3,3,0,0,1,.2-.29c.06-.09,0-.06-.09.1l.13-.15c.06-.06.44-.5.5-.47-.16.12-.2.15-.11.09l.12-.09.29-.18.3-.16c.34-.17,0,0,0,0a3.31,3.31,0,0,1,.65-.21,1.91,1.91,0,0,0,.39-.08c0,.06-.38,0,0,0a5.12,5.12,0,0,1,.68,0l.29,0c-.44,0,0,0,.09,0a4.88,4.88,0,0,1,.65.2,1.49,1.49,0,0,0,1.84-1,1.53,1.53,0,0,0-1-1.84,6.34,6.34,0,0,0-6.82,1.69,6.43,6.43,0,0,0-.72,7.32,1.5,1.5,0,0,0,2.6-1.51Z"/><path class="cls-29" d="M472.68,956.89a5.85,5.85,0,0,1-1.4-2.21,4.45,4.45,0,0,1,.42-2.67c.62-1.53,1.52-3.53,2.8-4.4a1.54,1.54,0,0,0,.54-2.06A1.52,1.52,0,0,0,473,945c-2.13,1.45-3.37,4-4.25,6.39a6.74,6.74,0,0,0-.32,4.16,9.38,9.38,0,0,0,2.15,3.44,1.5,1.5,0,1,0,2.12-2.12Z"/><path class="cls-30" d="M126.9,1008.74s-5.4-32.69,1.65-33.1"/><path class="cls-36" d="M149.59,996.25s-11.35-32.51,2.82-37.72"/><path class="cls-27" d="M272.87,969.31c0-.33.07-.66.11-1,0-.09,0-.18,0-.28s0-.19,0-.08,0,.07,0-.09,0-.19,0-.28c.09-.64.19-1.28.31-1.91s.2-1.16.35-1.72a3,3,0,0,1,.1-.32,1.8,1.8,0,0,1,.08-.21c-.08.18-.09.2,0,.05l.17-.28c-.12.16-.13.18,0,.06a.75.75,0,0,1,.16-.15,1.5,1.5,0,1,0-2.12-2.12c-1.08.94-1.33,2.42-1.57,3.75-.28,1.52-.49,3-.65,4.58a1.5,1.5,0,0,0,1.5,1.5,1.54,1.54,0,0,0,1.5-1.5Z"/><path d="M271,974.35a18.63,18.63,0,0,1-.22-4.22c0-.06,0-.13,0-.19,0,.18,0,.19,0,0s0-.26.07-.39a8.65,8.65,0,0,1,.25-.87c0-.1.16-.36,0-.13.08-.15.15-.31.24-.46s.13-.22.2-.33l.15-.21a.69.69,0,0,1-.48.32h-.8l-.21-.08-.54-.53c.15.2,0-.32,0,0,0,.14.08.28.11.43a3.29,3.29,0,0,1,.09.43c0,.1,0,.2.05.3q0-.19,0,0a12.7,12.7,0,0,1,0,1.85,1.51,1.51,0,0,0,1.5,1.5,1.54,1.54,0,0,0,1.5-1.5,10.38,10.38,0,0,0-.41-3.92,2,2,0,0,0-.85-1.17,1.73,1.73,0,0,0-1.73,0,3.94,3.94,0,0,0-1.29,1.59c-1.25,2.37-1.06,5-.73,7.59a1.54,1.54,0,0,0,1.5,1.5c.73,0,1.61-.66,1.5-1.5Z"/><path class="cls-19" d="M606.25,946.94l6.86,7.7,4.63,4.55s-1.58-2.08,5.3-12.66,11.29-16.93,11.29-16.93-9.31,11.46-32.27,12"/><path class="cls-19" d="M438.7,927.5a68.17,68.17,0,0,0,1.92,6.72,9.9,9.9,0,0,0,6.19-.65l-3.39-10-4.72,3.85Z"/><path class="cls-19" d="M446.81,933.57s8.42-7.71,8.55-10L463,934.28S450.7,938.18,446.81,933.57Z"/><polygon class="cls-34" points="315.31 975.05 320.55 974.92 321.14 983.15 315.31 975.05"/><polygon class="cls-34" points="283.06 971.78 289.14 974.01 288.47 979.29 283.06 971.78"/><path class="cls-34" d="M280.9,980.33l6.77,1.86-2.39,7s-.85-1.18-.77-1.77a11.1,11.1,0,0,0-1.08-2.83l-2.53-4.23"/><path d="M281.36,927.37c.6.19,1.2.38,1.79.6l.89.34c.32.13-.21-.09,0,0l.24.11.42.2a13.42,13.42,0,0,1,1.59,1c.17.11-.21-.18-.06-.05l.2.16.34.31.32.33c.08.09.41.5.16.18a1.72,1.72,0,0,0,.9.69,1.5,1.5,0,0,0,1.69-2.21,10.17,10.17,0,0,0-3.53-2.91,27.68,27.68,0,0,0-4.14-1.6,1.52,1.52,0,0,0-1.84,1,1.53,1.53,0,0,0,1.05,1.85Z"/><path d="M285.55,923.19a7.74,7.74,0,0,0-2.59,3.24,16.62,16.62,0,0,0-1.1,3.85,1.67,1.67,0,0,0,.15,1.16,1.5,1.5,0,0,0,2.74-.36c.1-.57.21-1.13.35-1.69s.36-1.09.53-1.64c0,.06-.13.29-.05.11a2,2,0,0,0,.1-.21l.18-.37a6.12,6.12,0,0,1,.43-.69s.2-.27,0-.07,0,0,.05,0a1.93,1.93,0,0,1,.27-.3,3.83,3.83,0,0,1,.29-.28l.14-.12c.24-.21-.28.2,0,0a1.59,1.59,0,0,0,.69-.9,1.5,1.5,0,0,0-.15-1.15,1.51,1.51,0,0,0-2.05-.54Z"/><path d="M265.08,934.09a7.59,7.59,0,0,0-2.38,6,1.64,1.64,0,0,0,.44,1.06,1.5,1.5,0,0,0,2.56-1.06,6.32,6.32,0,0,1,0-1.23l-.05.39a6.77,6.77,0,0,1,.45-1.64L266,938a5.71,5.71,0,0,1,.6-1.08c.07-.11.31-.36,0,0l.2-.24c.14-.15.28-.3.43-.44a1.5,1.5,0,0,0,0-2.12,1.53,1.53,0,0,0-2.12,0Z"/><path d="M262.11,938.19a7.48,7.48,0,0,1,.82,0l.41,0,.2,0c-.22,0-.26,0-.09,0a10.19,10.19,0,0,1,1.54.38l.34.13c.15.06.13,0-.08,0l.19.09a7.14,7.14,0,0,1,.73.37,8.09,8.09,0,0,1,.69.44l.17.12c.13.1.11.08-.06-.05a1.14,1.14,0,0,1,.31.27,1.55,1.55,0,0,0,2.13,0,1.53,1.53,0,0,0,0-2.12,10.52,10.52,0,0,0-7.3-2.63,1.5,1.5,0,0,0,0,3Z"/><path class="cls-19" d="M285.56,966.11c.2.22.38.44.56.67l-.23-.3a11.78,11.78,0,0,1,.95,1.46,1.59,1.59,0,0,0,.9.69,1.22,1.22,0,0,0,.6,0,1.09,1.09,0,0,0,.55-.18,1.51,1.51,0,0,0,.69-.9,1.59,1.59,0,0,0-.15-1.15,12.36,12.36,0,0,0-1.75-2.44,1.14,1.14,0,0,0-.48-.31,1.15,1.15,0,0,0-.58-.13,1.5,1.5,0,0,0-1.06.44,1.52,1.52,0,0,0-.44,1.06,1.61,1.61,0,0,0,.44,1.06Z"/><path d="M285.32,966a6.89,6.89,0,0,0,1.21.92,1.54,1.54,0,0,0,1.15.15,1.5,1.5,0,0,0,1.05-1.85,1.65,1.65,0,0,0-.69-.89l0,0,.31.24-.12-.12.23.3a.71.71,0,0,1-.08-.15l.15.36a.84.84,0,0,1-.05-.17l.06.4a.48.48,0,0,1,0-.17l-.06.4a.24.24,0,0,0,0-.08l-1.44,1.1h.07l-.4,0h0l-.36-.15.06,0-.3-.23a.6.6,0,0,1,.08.08l-.24-.31a.5.5,0,0,1,.08.14l-.15-.36a3.36,3.36,0,0,1,.14.61c0,.25.08.5.11.75l0-.4.09.78,0,.34a2.53,2.53,0,0,0,.27,1,1.82,1.82,0,0,0,1.2.93,1.78,1.78,0,0,0,1.94-.84,2.64,2.64,0,0,0,.29-.83A4.82,4.82,0,0,0,290,967a2.56,2.56,0,0,0-.21-1,2.36,2.36,0,0,0-.86-1,2.4,2.4,0,0,0-1.33-.36,4.36,4.36,0,0,0-1.08.18,1.56,1.56,0,0,0-.9.69,1.52,1.52,0,0,0-.15,1.16,1.5,1.5,0,0,0,1.85,1,4,4,0,0,1,.5-.11l-.4.05a1.37,1.37,0,0,1,.35,0l-.4-.06a.86.86,0,0,1,.23.06l-.35-.15a.7.7,0,0,1,.17.09l-.31-.23a1,1,0,0,1,.15.14l-.24-.3a.59.59,0,0,1,.1.17L287,967a1,1,0,0,1,.07.28l-.05-.4a2,2,0,0,1,0,.49l.05-.4a2.84,2.84,0,0,1-.15.64l.16-.36-.07.11.24-.31-.06.06.3-.24,0,0,.36-.15-.08,0,.4-.05h0l.4.05h-.08l.36.15-.11-.06.3.23-.06-.06.23.3a1.34,1.34,0,0,1-.06-.12l.15.36a.73.73,0,0,1-.05-.2l.05.4c-.09-.73-.15-1.47-.27-2.2a3.63,3.63,0,0,0-.31-1.08,1.84,1.84,0,0,0-1.62-1,1.54,1.54,0,0,0-1.45,1.1,2.2,2.2,0,0,0,0,1.22,2.35,2.35,0,0,0,.94,1.19l1.51-2.59a6,6,0,0,1-.52-.36l.31.24a4.32,4.32,0,0,1-.39-.34,1.56,1.56,0,0,0-1.06-.44,1.5,1.5,0,0,0-1.5,1.5,1.57,1.57,0,0,0,.44,1.07Z"/><path d="M278.17,985.33a2.53,2.53,0,0,0,1.15,2,1.53,1.53,0,0,0,1.52,0,1.49,1.49,0,0,0,.74-1.3c-.09-.95-.22-1.89-.38-2.83l-2.89.79a24.39,24.39,0,0,0,2.08,4.15l2.05-2a19.49,19.49,0,0,0-3.29-1.24,1.5,1.5,0,0,0-.8,2.89,17.73,17.73,0,0,1,2.16.74l-.36-.15.78.35a1.64,1.64,0,0,0,.95.18,1.36,1.36,0,0,0,.86-.42,1.51,1.51,0,0,0,.24-1.81,23.59,23.59,0,0,1-1.75-3.34l.15.36-.18-.45a1.64,1.64,0,0,0-.69-.9,1.52,1.52,0,0,0-1.16-.15,1.5,1.5,0,0,0-.89.69,1.63,1.63,0,0,0-.15,1.15c.07.42.13.84.19,1.26l-.06-.4c.06.39.1.79.14,1.18l2.26-1.29,0,0,.31.23a.85.85,0,0,1-.19-.19l.23.3a1.18,1.18,0,0,1-.11-.19l.16.36a.73.73,0,0,1-.06-.21l.05.4s0-.07,0-.11a1.58,1.58,0,0,0-.44-1.06,1.5,1.5,0,0,0-2.12,0,1.52,1.52,0,0,0-.44,1.06Z"/><path d="M277.06,1015.55c.26.32.07.07,0,0s.06.3,0,0c0-.07,0-.31,0-.07s0,0,0-.08,0-.1,0-.15,0-.06,0,.17a2.13,2.13,0,0,0,.08-.27c0,.12-.12.27,0,0s.07-.16.11-.23a3.22,3.22,0,0,0-.21-3.28,2.63,2.63,0,0,0-1.45-.89c-.05,0-.22,0-.25-.08.18.07.22.09.11,0l-.14-.07-.55-.28-2.43-1.25a1.5,1.5,0,0,0-1.51,2.59c.28.21-.25-.22,0,0l.19.16.4.4c.25.25.49.52.73.79s.48.53.74.78.33.24.38.38a.4.4,0,0,1-.14-.22c0-.12,0-.11,0,0l0-.19a.67.67,0,0,1,0,.2,1.5,1.5,0,0,0,1.5,1.5,1.54,1.54,0,0,0,1.5-1.5,2.77,2.77,0,0,0-.79-2c-.29-.32-.62-.61-.91-.93a14.06,14.06,0,0,0-2.09-2l-1.51,2.59,2.38,1.23c.42.21.85.43,1.29.6a1.82,1.82,0,0,0,.53.17l-.18-.08c.11.07.11.06,0,0a.57.57,0,0,1-.22-.24c.06.11.06.1,0,0s0,0,0,.06,0,.11,0,0,0-.15,0,0-.06.34,0,.11,0,.06,0,.11c-.06.33.14-.26,0,0l-.11.23a3.47,3.47,0,0,0-.28.76,3.52,3.52,0,0,0,.78,3,1.5,1.5,0,0,0,2.12,0,1.52,1.52,0,0,0,.44-1.06,1.76,1.76,0,0,0-.44-1.06Z"/></g><g id="Knap"><rect class="cls-37" x="849.02" y="370.73" width="313.76" height="116.27"/><polygon class="cls-38" points="822.04 354.68 848.71 367.42 848.71 486.58 822.04 473.84 822.04 354.68"/><polygon class="cls-38" points="1133.7 354.62 1160.37 371.02 849.93 371.02 823.27 354.62 1133.7 354.62"/><text class="cls-39" transform="translate(855.54 458.82)">Prv igen</text></g><g id="mundvige"><path class="cls-32" d="M281,958.25s9-16.42,12-11.42c0,0-4,17-3,16"/></g><g id="teeth"><path class="cls-19" d="M282.91,957.86l-.17-.09.27,3.8,5.36.32C288.48,961.46,283.84,958.45,282.91,957.86Z"/><path class="cls-34" d="M283.19,956.92s3.09-2.16,3.42-3.16l2.2,7.31Z"/><path class="cls-34" d="M289.87,957.4s1.44-4.33,1.6-4.11-3.81-1.77-3.81-1.77S289,956.85,289.87,957.4Z"/><path class="cls-34" d="M291.43,951.2s.31-2.11,0-2.16l-.39-2.21-3.23,2.39Z"/></g></svg>