<svg xmlns="http://www.w3.org/2000/svg" viewBox="0 0 1920 1083.41"><defs><style>.cls-1{fill:#fccb21;}.cls-2,.cls-3{fill:#3ff1ff;}.cls-10,.cls-11,.cls-13,.cls-14,.cls-16,.cls-3,.cls-6{stroke:#000;}.cls-10,.cls-11,.cls-13,.cls-14,.cls-16,.cls-17,.cls-18,.cls-3,.cls-6,.cls-9{stroke-miterlimit:10;}.cls-4{fill:#fffef4;}.cls-5{fill:#c60000;}.cls-6{fill:#ff1f3f;}.cls-7{fill:#e4ffb4;}.cls-8,.cls-9{fill:#8cc63f;}.cls-9{stroke:#8cc63f;}.cls-10{fill:#fff5d1;}.cls-10,.cls-11{stroke-width:2px;}.cls-11{fill:#fff5d2;}.cls-12{font-size:87.55px;}.cls-12,.cls-20{font-family:CCMonsterMash;}.cls-13,.cls-15,.cls-17,.cls-18{fill:#fff;}.cls-13{opacity:0.29;}.cls-14{fill:none;}.cls-16{fill:#b3b3b3;}.cls-17,.cls-18{stroke:#fff;}.cls-18{stroke-width:0.25px;}.cls-19{fill:#00833f;}.cls-20{font-size:135.23px;fill:#ff5a3f;}.cls-21{letter-spacing:-0.1em;}.cls-22{letter-spacing:-0.04em;}.cls-23{fill:#ffefb4;}.cls-24{opacity:0.39;}.cls-25{fill:#fcff4a;}.cls-26{fill:#ff790a;}.cls-27{fill:#fce420;opacity:0.54;}</style></defs><g id="background"><rect class="cls-1" x="155.5" y="3.91" width="1764" height="1079"/><path d="M1919,1V1079H156V1H1919m1-1H155V1080H1920V0Z" transform="translate(0 3.41)"/><rect class="cls-2" y="3.41" width="168" height="1080"/><path class="cls-3" d="M168,933.57C104.27,957,97.65,988,168.5,993.5" transform="translate(0 3.41)"/><path class="cls-3" d="M168,1065c9.93-4,20.79-8.56,32.5-13.54,81.66-34.75,21.43-54.41-32.5-57.65" transform="translate(0 3.41)"/><path class="cls-3" d="M168,706.35c-54.64,27.3-103.51,43-51.5,47.15,16.29,1.29,34.51,3.19,51.5,5.86" transform="translate(0 3.41)"/><path class="cls-3" d="M168,825.81c-44.48,21.66-74.19,35.25-41.5,33.69,11.71-.56,26.91,1.06,41.5,4.38" transform="translate(0 3.41)"/><path class="cls-3" d="M168,706.35c11.54-5.77,23.34-12.05,34.5-18.85,53.57-32.65,29.36-30.26-34.5-36.83" transform="translate(0 3.41)"/><path class="cls-3" d="M168,933.57c9.25-6.28,19.26-12.42,29.5-18.07,41.83-23.08,8.24-43-29.5-51.62" transform="translate(0 3.41)"/><path class="cls-3" d="M168,825.81c12.67-6.17,26.53-13,40.5-20.31C255.21,781,216.71,767,168,759.36" transform="translate(0 3.41)"/><path class="cls-3" d="M168,601.12a238.63,238.63,0,0,0,22.5-12.62c52.52-33.49,29.14-38-22.5-38.7" transform="translate(0 3.41)"/><path class="cls-3" d="M168,344.85A97.54,97.54,0,0,0,181.26,337c46.43-33.11,31.1-48.55-13.26-53.62" transform="translate(0 3.41)"/><path class="cls-3" d="M168,233.68c22.24-13.69,46.85-29.17,64.73-44.84,45.88-40.22-13.52-58.91-64.73-72.91" transform="translate(0 3.41)"/><path class="cls-3" d="M168,495.59c12.81-5.07,25.92-10.15,38.5-15.09,68.22-26.77,52.16-23-38.5-53.64" transform="translate(0 3.41)"/><path class="cls-3" d="M168,73.38c18.53-8.18,39.71-17.14,54.5-26.88C263.5,19.5,168,0,168,0" transform="translate(0 3.41)"/><path class="cls-3" d="M168,233.68c-44,27.08-78.66,47.16-33.5,47.82,12.36.18,23.64.8,33.5,1.92" transform="translate(0 3.41)"/><path class="cls-3" d="M168,495.59c-67.65,26.78-127,53.07-55.5,53.91,20.31.24,39.29.08,55.5.3" transform="translate(0 3.41)"/><path class="cls-3" d="M168,344.85c-61.69,30.43-171.08,18.22-48.5,64.65,18,6.82,34.18,12.52,48.5,17.36" transform="translate(0 3.41)"/><path class="cls-3" d="M168,73.38c-32.83,14.49-57.38,26.53-23.5,36.12,7.31,2.07,15.3,4.19,23.5,6.43" transform="translate(0 3.41)"/><path class="cls-3" d="M168,601.12C104.78,632.46,43.43,633,126.5,645.5c15.15,2.28,29.07,3.9,41.5,5.17" transform="translate(0 3.41)"/><path class="cls-4" d="M895.6,649.67,922.89,524.6s24.6-9.36,23.16,3-20.59,126.76-20.59,126.76S908.43,680.15,895.6,649.67Z" transform="translate(0 3.41)"/><path class="cls-4" d="M1589.92,567.45,1620.41,463s21.41-6.48,19.46,3.9S1615,573.17,1615,573.17,1599,594.06,1589.92,567.45Z" transform="translate(0 3.41)"/><path class="cls-4" d="M1141.33,856.75l16-140.49s26-13,25.79.68-8.43,141.59-8.43,141.59S1158.84,888.8,1141.33,856.75Z" transform="translate(0 3.41)"/><polyline class="cls-5" points="1042.75 637.69 915.02 531.76 1425.77 272.5 1649.69 464.77 1172.79 740.85"/><polygon class="cls-5" points="1425.77 272.5 1565.37 121.14 1806.24 317.54 1649.69 464.77 1425.77 272.5"/><path class="cls-6" d="M835.23,530" transform="translate(0 3.41)"/><path class="cls-7" d="M1458.44,324.16l-9.09-19.55s-35.52-89.09-27.68-88.6c0,0-6.3-28.51,36.77-20s325.23,33.16,325.23,33.16,65.83,54.34,35.83,72.34c0,0-18-4.65-31-40.33s16,87.33-32,34.33-28.17-30.2-28.17-30.2l-108.11,45.85" transform="translate(0 3.41)"/><path class="cls-8" d="M1469.71,317.8l-3-9.68a30.19,30.19,0,0,1-5.26-1.67c-2-.95.7-1.73-12.15-1.84h0l8.9,19.55" transform="translate(0 3.41)"/><path class="cls-9" d="M1439.55,224.83s-8.94-15.79,0-19.06S1538,215.3,1538,215.3s7.87-9.26,9.71-9.53-33.46-2.45-33.46-2.45l-54-7s-18.59-3.88-23.16-1.36c0,0-8,1.47-10.31,4.49s-5.94,4.05-5.1,16.54c0,0-2.58-.57-.37,7h0" transform="translate(0 3.41)"/><path d="M1432,221.38a1.5,1.5,0,0,0,0-3,1.5,1.5,0,0,0,0,3Z" transform="translate(0 3.41)"/><path class="cls-8" d="M1430.76,220.39a.17.17,0,0,1,.1,0l-.36-.15.13.07-.31-.24a.86.86,0,0,1,.14.13l-.24-.3a1,1,0,0,1,.14.24l-.15-.36a1.91,1.91,0,0,1,.11.41l-.06-.4a4.29,4.29,0,0,0,.07.5c0,.08.07.16.09.23s.06.15.1.22a1.79,1.79,0,0,0,.42.48l.23.21.12.1.19.15a1.22,1.22,0,0,0,.53.29,1.57,1.57,0,0,0,.86,0,2.54,2.54,0,0,0,.38-.16.65.65,0,0,0,.16-.13,1.09,1.09,0,0,0,.17-.13,1.89,1.89,0,0,0,.25-.31l0-.06c.05-.1.12-.27.16-.38a.43.43,0,0,0,0-.05,4.46,4.46,0,0,0,.07-.51v-.14a4.63,4.63,0,0,0-.07-.52.83.83,0,0,0,0-.15,1.54,1.54,0,0,0-.69-.89,1.09,1.09,0,0,0-.55-.18,1,1,0,0,0-.6,0,1.48,1.48,0,0,0-1.05,1.84,1.33,1.33,0,0,1,.05.19l-.06-.39a.66.66,0,0,1,0,.28l.06-.4,0,.12.15-.36,0,0,.23-.3,0,0,.31-.23h0l.36-.15h0l.4-.05h0l.4.06,0,0,.36.15h0l.3.23-.28-.25a3.08,3.08,0,0,1-.27-.24l.23.3a.16.16,0,0,1,0-.07l.15.36,0-.13.06.4a4.27,4.27,0,0,0-.12-.7,3.52,3.52,0,0,0-.27-.63,2.18,2.18,0,0,0-1.32-1,1.61,1.61,0,0,0-1.16.15,1.31,1.31,0,0,0-.42.39,1.13,1.13,0,0,0-.26.51l-.06.4a1.48,1.48,0,0,0,.21.76,1.5,1.5,0,0,0,.89.69Z" transform="translate(0 3.41)"/><path class="cls-8" d="M1437.17,225.82l.27.32-.24-.3c.09.11.16.23.24.35a1,1,0,0,0,.38.42,1.06,1.06,0,0,0,.51.27,1.22,1.22,0,0,0,.6,0,1.12,1.12,0,0,0,.56-.18l.3-.23a1.47,1.47,0,0,0,.39-.67l0-.39a1.51,1.51,0,0,0-.2-.76c-.08-.12-.15-.24-.24-.36s-.32-.42-.5-.62a1.14,1.14,0,0,0-.48-.31,1.17,1.17,0,0,0-.58-.13,1.15,1.15,0,0,0-.58.13,1,1,0,0,0-.48.31l-.24.3a1.57,1.57,0,0,0-.2.76l0,.4a1.49,1.49,0,0,0,.39.66Z" transform="translate(0 3.41)"/><path class="cls-8" d="M1437.22,226.14a.56.56,0,0,0,0,.08c.09.13.19.25.28.37l.12.13.37.28.07.06.08,0,.43.19a1.11,1.11,0,0,0,.6,0,1.22,1.22,0,0,0,.56-.17,1.31,1.31,0,0,0,.42-.39,1.26,1.26,0,0,0,.27-.51l0-.4a1.57,1.57,0,0,0-.2-.76l-.24-.3a1.39,1.39,0,0,0-.66-.39h0l.36.15a1,1,0,0,1-.22-.13l.3.24-.19-.19.24.3-.09-.13a1,1,0,0,0-.38-.42,1.26,1.26,0,0,0-.51-.27,1.22,1.22,0,0,0-.6,0,1.12,1.12,0,0,0-.56.18l-.3.24a1.39,1.39,0,0,0-.39.66l0,.4a1.5,1.5,0,0,0,.2.75Z" transform="translate(0 3.41)"/><path d="M1421.11,223.3c3.11.13,6.18.08,9.29.45s6.3.78,9.43,1.28c.47.07.68-.65.2-.73-3.08-.48-6.18-.86-9.27-1.25s-6.41-.37-9.65-.5c-.48,0-.48.73,0,.75Z" transform="translate(0 3.41)"/><path class="cls-8" d="M1648,226l16.69-7.72-37.93-3.51s1.8,1.69,1.52,2S1648,226,1648,226l16.69-7.72" transform="translate(0 3.41)"/></g><g id="Knap"><rect class="cls-10" x="490" y="704.41" width="390" height="144.52"/><polygon class="cls-11" points="456.48 684.45 489.62 700.29 489.62 848.41 456.48 832.57 456.48 684.45"/><polygon class="cls-11" points="843.86 684.39 877 704.77 491.14 704.77 458 684.39 843.86 684.39"/><text class="cls-12" transform="translate(498.11 813.9)">Prøv igen</text></g><g id="Layer_3" data-name="Layer 3"><path class="cls-7" d="M1508.45,138.83l-17.28,8c-33.56,10.5-2-32-2-32-19.49,3.5-16.24-12.33-16.24-12.33a35.91,35.91,0,0,1,20.07-27c18.32-8.83,55,27.33,55,27.33,10.38-3.5,113.45,168.24,113.45,168.24s31.17,87.26,25.17,122.26-116,11.51-116,11.51C1560.67,402.35,1508.45,138.83,1508.45,138.83Z" transform="translate(0 3.41)"/></g><g id="Character"><path class="cls-13" d="M1611.79,172c.17.93.4,1.84.53,2.77a1.07,1.07,0,0,1-.9,1.21.69.69,0,0,1-.35,0c.21.52.42,1,.62,1.57a1.1,1.1,0,0,1-.11,1c.71,1.37,1.41,2.75,2.08,4.14q.58-1.06,1.2-2.1a1.05,1.05,0,0,1-.71-1.65c1-1.42,2.13-2.78,3.24-4.13a1.37,1.37,0,0,1,.19-.57c1.21-1.94,2.72-3.67,4.08-5.51a1.23,1.23,0,0,1,0-.66c.23-.66.48-1.32.72-2-.57.31-1.16.6-1.75.86a71.63,71.63,0,0,0-2.06-.17,1.09,1.09,0,0,1-.43-.71s0,0,0,0a19.58,19.58,0,0,0-1.81,2.35,1.1,1.1,0,0,1-1.5.24.92.92,0,0,1-.26-.26,15.77,15.77,0,0,1-2.11,1.36c-.28.32-.56.63-.83.95C1611.69,171.16,1611.72,171.6,1611.79,172Z" transform="translate(0 3.41)"/><path class="cls-13" d="M1612.41,185.11c-.7-1.53-1.45-3-2.21-4.52a.86.86,0,0,1-.46-.34c-1.06-1.57-2.23-3.08-3.36-4.6a1.09,1.09,0,0,1-.29.23,1,1,0,0,1,0,.38,23.42,23.42,0,0,0,3.09,5.55c.93,1.38,1.92,2.7,2.92,4Z" transform="translate(0 3.41)"/><path class="cls-8" d="M1606.58,351.67a46.14,46.14,0,0,1,.31-14.67" transform="translate(0 3.41)"/><path class="cls-8" d="M1555.64,406.89c-7.79-2.42-14.08-8.2-19.51-14.16-6.33-6.93-12.84-13.77-18.72-21.09a206.18,206.18,0,0,1-17.76-25.91c-5.41-9.39-9.89-19.44-16.58-28l-.18-.25c-5.28.24-9.15.35-9.15.35-11.71-7.66-103.85,88.52-102.27,97.3s-86.73,41.67-86.73,41.67C1221,443,1175.49,478.17,1175.49,478.17s-6.53-2.79-15.3-6.29c-1.45,2.89-2.66,5.92-4.32,8.69,9.3,4.16,16,7.34,14,7.73s-10.31-2.34-20.42-5.81a1.29,1.29,0,0,1-.15.76c-.69,1.25-1.44,2.48-2.2,3.7a1,1,0,0,1-.11,1c-1.08,1.37-2.12,2.76-3.1,4.2a1.3,1.3,0,0,1-.08.17,9.45,9.45,0,0,0-.65,1.62.94.94,0,0,1-.21.38c12.56,5.51,23.16,9.79,23.16,9.79C1154,500,1141,497.93,1129.34,497c.65,2.53-1,5.66-3.84,6l.75.34c1.26.54,2.6.89,3.88,1.39a7.42,7.42,0,0,1,1.42.58l.08.05A5.09,5.09,0,0,1,1138,509c46.74,9.61,67.93,1.81,67.93,1.81,11.71-21.62,24.33-25.68,24.33-25.68,5.4-7.2,90.32,1.59,90.32,1.59,13.74,21.85-.45,12.61-.9,18.47s-59,26.12-71,64.19-42.8,33.78-42.35,30.18c.13-1-5.69-3.43-14-6.16-.37,1.13-.71,2.27-1,3.44a57.76,57.76,0,0,1-1.72,6.18c-.13.36-.25.73-.38,1.09,7.7,2.67,14.61,5,19.35,6.71-5-1.1-12.13-2.72-20.06-4.53-.29,1-.56,1.94-.79,2.94-.36,1.61-.66,3.23-1,4.85,7.48,2.26,14.34,4.27,19.56,5.75-5.53-.44-13.11-1.08-21.29-1.78a.84.84,0,0,1-.07.35,24.54,24.54,0,0,0-2.29,7.27c64.14,13.48,62.62,1.15,62.62,1.15,23.43-59,113.76-107,96.86-94.6s-16.45,56.09-16.45,56.09c2,15.75,6.79,33.09,12.78,50.13,4-2.1,8.23-3.81,12.45-5.76,2.87-1.32,5.84-2.82,8.73-4.5-1.32-2.48-.33-5.36,1.61-7.17a17.55,17.55,0,0,1-.77-6c0-.34,0-.7,0-1-4.78-4.36-8.2-10.57-5.47-16.74,1.08-2.46,3-3.68,4.91-5.41,1.39-1.27,1.87-3.07,2.79-4.7a12.41,12.41,0,0,1,3-3.5,20.26,20.26,0,0,1-2.68-1.67,17.42,17.42,0,0,1-6.73-12.34c-.54-5.85,3.07-9.22,8.14-11.18l.09,0c-.27-.13-.54-.27-.8-.42a9.23,9.23,0,0,1-4-11.78c1.68-3.92,6-5.71,9.61-7.37,4.26-1.93,8.91-3.57,13.55-2a6,6,0,0,1,4,4.22h0l2-.7s-5-18.92,2-17.34c5.57,1.26,48.24-15.67,65.29-22.58a6.71,6.71,0,0,1,2.38-3c5.8-4.21,11.2-8.73,17.29-12.29a7.36,7.36,0,0,1,3.36-3.44,43.45,43.45,0,0,1,9-6.78c5.64-6.54,11.13-13.22,16.93-19.62,15.67-17.29,36.51-29,51.42-47C1556.34,407.79,1556,407.32,1555.64,406.89Z" transform="translate(0 3.41)"/><path class="cls-8" d="M1871.13,270.22c-5.09,9.59-104.07-16.78-123.2-13.27-9.44,1.73-46.33-8.55-80-21.59a1.12,1.12,0,0,1-.62-.18c-.23-.16-.46-.3-.7-.45-1.22-.38-2.46-.74-3.65-1.21a.83.83,0,0,1-.27-.17,1,1,0,0,1-.32-.2l-.84-.34h-.22a1.31,1.31,0,0,1-.28,0l-.27-.07a1,1,0,0,1-.36-.24l-.16.07,0,0-.07.06a.38.38,0,0,1-.51-.06.36.36,0,0,1,.06-.5h0a.36.36,0,0,1,.19-.32c-2.11-1-4.28-1.88-6.43-2.76a1,1,0,0,1-.66-1l-1.22-.15c-1.35-.2-1.13-2.32.23-2.12a.9.9,0,0,1,1-.51l4.69.67a1,1,0,0,1-.14-.63,1.09,1.09,0,0,1,1.18-.95c1.54.24,3.07.54,4.6.83l-1-.54a28.37,28.37,0,0,1-4.42-3.19c-4.34,2.19-8.36,4.09-9.9,3.46-15.07-6.16-28.19-11.85-36.14-15.59-5.44-2.56-3.8-7-3.8-7-.36-4.58,1-9.53,3.11-14.33-1.43-1.86-2.79-3.72-4.11-5.66a24.91,24.91,0,0,1-3.05-5.91l-.33-.5a5.16,5.16,0,0,1-1,1,5.69,5.69,0,0,1-2.84,2.53,5.9,5.9,0,0,1-1.92,2.6,6.18,6.18,0,0,1-3.23,4.67,6,6,0,0,1-2.63,3.47,6.08,6.08,0,0,1-4.16,5.22,5.54,5.54,0,0,1-.88,1.16c0,3.28-2.06,6.59-6.27,6.59l-.34,0-.33,0c-.2,0-.38,0-.57,0a7.23,7.23,0,0,1-2.78,0c-.21,0-.43,0-.65,0h-.45a5.4,5.4,0,0,1-1.13.81,4.79,4.79,0,0,1-1.47,1.07,6.37,6.37,0,0,1-1.56.66l-.29,0a4.84,4.84,0,0,1-1.82.85,9.08,9.08,0,0,1-2.59.44,2.68,2.68,0,0,1-.3.12,4.79,4.79,0,0,1-2.5.56h-1.22a6.37,6.37,0,0,1-1.39-.16l-.11.05a5,5,0,0,1-2.5.56,24.53,24.53,0,0,1-3.73-.46,6.45,6.45,0,0,1-2.83-1.63c-1.9,1.69-4.08,2.91-6.11,4.43l.95-.74a8.59,8.59,0,0,1-3,1.59l0,0a29.54,29.54,0,0,1-5.46,5.87,6.22,6.22,0,0,1-1.15.91,7.6,7.6,0,0,1-.62.76c-.84.87-1.51,1.89-2.38,2.72a11.26,11.26,0,0,1-2.61,1.95,11.4,11.4,0,0,1-4.5,1.23,4,4,0,0,1-1.7-.17c-.16.09-.31.19-.46.29a6.22,6.22,0,0,1-4.56.71l-.77.27a5.61,5.61,0,0,1-3.17.06,6.37,6.37,0,0,1-10.28.06l-.41-.07a5,5,0,0,1-1.48.62,4.64,4.64,0,0,1-.9.26,16.33,16.33,0,0,1-2.6.31,6.46,6.46,0,0,1-3.89-1.33c-1.45.44-2.91.85-4.38,1.21a6.58,6.58,0,0,1-6.88-2.4c-.71.18-1.43.36-2.14.51,0,1-.12,1.59-.31,1.74-3.32,2.68-41.18-1.73-41.18-1.73-74.7-10.42-89.16,12.51-106-.45s-14.78,5.5-14.78,5.5l-5.93,22.16c-17.44,6.73,7,24.56,7,24.56-.51,14.13,100.08,39.66,95.22,33.06-2.15-2.93,39.36-7.92,43.49-3.93s49.41,6.84,49.41,6.84c-3.62,14.81,9.55,28.9,10.79,31.56.49,1.08-2.32,6.9-5.86,13.46,16.87-.18,33.72,2.43,50.66,1.05,9.35-.76,18.5-2.69,27.75-4.11a77.77,77.77,0,0,0,12.93-2.69c0-.17-.05-.34-.08-.51l.31-14.67a47.34,47.34,0,0,1,2-7.39c3.74-10.35,19.46-27.7,23.79-37.46,11.37-25.62,130.81-5.66,130.81-5.66,7.56.31,110.07,17.43,119.81,2.27S1871.13,270.22,1871.13,270.22Z" transform="translate(0 3.41)"/><path d="M1322.85,238.56a65.65,65.65,0,0,0,17.41,11.82,58,58,0,0,0,21.6,4.56c15.33.57,30.46-2.42,45.69-3.58a104.34,104.34,0,0,1,23.1.38c7.53,1.12,14.68,3.65,21.76,6.34s14,5.34,21.43,6.94a100.37,100.37,0,0,0,46.54-1c4.08-1.08,8-2.59,12-3.81,3.86-1.15,8.17-2.05,12-.37l-.54-2.06c-3.88,5.15-9.44,8.83-15,12a89.28,89.28,0,0,1-17,7.42,94.7,94.7,0,0,1-37,4.11,91.28,91.28,0,0,1-20.53-4.3c-1.83-.62-2.62,2.28-.79,2.89a96.12,96.12,0,0,0,75.78-6.93c6.42-3.53,12.69-7.74,17.14-13.65a1.5,1.5,0,0,0-.54-2.05c-7-3.06-14.18.06-20.94,2.27a95.11,95.11,0,0,1-22,4.43,96.82,96.82,0,0,1-22.18-.7,108.94,108.94,0,0,1-21.58-5.76c-7.1-2.63-14.1-5.6-21.47-7.4a85.62,85.62,0,0,0-22.4-2.15c-15.29.36-30.35,3.48-45.64,4-8.48.28-17.18-.12-25.23-3-7.34-2.66-13.85-7.23-19.57-12.47-1.43-1.3-3.55.82-2.13,2.13Z" transform="translate(0 3.41)"/><path d="M1451.77,276.23c-8.41-3.63-17.11-7.36-26.41-7.64-4.71-.14-9.21,1.05-13.85,1.68a99.25,99.25,0,0,1-14.73.41c-9.58-.16-19.15,1.23-28.71.42a85.8,85.8,0,0,1-24.72-6.09,109.17,109.17,0,0,1-25.16-14.58c-1.53-1.17-3,1.43-1.51,2.59,13.57,10.36,29.55,18.11,46.56,20.52a80.67,80.67,0,0,0,13,.81c5-.09,9.93-.57,14.9-.68s9.82.2,14.73,0,9.45-1.23,14.23-1.86c10.55-1.39,20.69,2.87,30.16,7,1.76.76,3.29-1.83,1.52-2.59Z" transform="translate(0 3.41)"/><path d="M1454,277l-.28,0,.4,0a3.8,3.8,0,0,1-1-.29l.36.15c-.21-.08-.41-.18-.62-.28a2.7,2.7,0,0,0-.61-.25c-.22,0-.42-.05-.64-.07l.4.05-.1,0,.36.15-.06,0,.3.24,0,0a1.11,1.11,0,0,0-.49-.31,1,1,0,0,0-.57-.13,1.5,1.5,0,0,0-1.06.44,1.46,1.46,0,0,0-.44,1.06,1.42,1.42,0,0,0,.44,1.06,1.84,1.84,0,0,0,.83.46c.22,0,.42,0,.63.07l-.4-.06.17.05-.36-.15c.45.19.87.41,1.32.58a4.31,4.31,0,0,0,1.42.27,1.61,1.61,0,0,0,1.06-.44,1.52,1.52,0,0,0,.44-1.06,1.59,1.59,0,0,0-.44-1.07A1.55,1.55,0,0,0,1454,277Z" transform="translate(0 3.41)"/><path d="M1579.25,244.74c5.41-.33,12.21-.12,15.44,5,3.09,4.92,2,11.06-.31,16.13a3.08,3.08,0,0,0,1.08,4.1,3,3,0,0,0,4.1-1.07c3.16-7,4.62-15.33.31-22.19-4.44-7.08-12.88-8.46-20.62-8a3.07,3.07,0,0,0-3,3,3,3,0,0,0,3,3Z" transform="translate(0 3.41)"/><path d="M1572.86,231.82c.76-3.53,3.08-6.4,2.66-10.2s-2.66-7.27-5.3-10a21,21,0,0,0-19.33-6.08,20.15,20.15,0,0,0-9.59,5.37c-2.9,2.74-5.58,5.74-8.34,8.62a23.68,23.68,0,0,1-3.42,3.22,8.43,8.43,0,0,1-4.23,1.35c-4.12.42-8.24.82-12.36,1.23a105.38,105.38,0,0,1-14,.66c-4.68-.17-9.35-.55-14-.85a3,3,0,0,0-3,3,3.06,3.06,0,0,0,3,3c7.86.51,15.74,1.28,23.61.61,3.94-.34,7.87-.77,11.81-1.16,3.65-.36,7.67-.29,11-2,3.1-1.55,5.46-4.49,7.82-6.95,2.51-2.63,4.94-5.58,7.8-7.83a13.86,13.86,0,0,1,15.87-.51,15.85,15.85,0,0,1,6.2,7c1.49,3.54-1.28,6.5-2,9.87a3.07,3.07,0,0,0,2.1,3.69,3,3,0,0,0,3.69-2.1Z" transform="translate(0 3.41)"/><path d="M1550.39,223.14a12.32,12.32,0,0,1,1.61-.06c.25,0,.49,0,.73,0l.4,0,.16,0a10.89,10.89,0,0,1,1.5.35l.77.26.24.1.19.09c.19.1.37.2.54.31s.23.18.07,0a2.66,2.66,0,0,1,.24.23c.07.07.17.27.06.06,0,0,.18.32.12.19s.07.24.07.24.05.2.07.3c.25,1.11.46,2.23.69,3.35a1.52,1.52,0,0,0,1.84,1,1.54,1.54,0,0,0,1-1.85c-.24-1.21-.42-2.46-.76-3.64a4.49,4.49,0,0,0-2.35-2.8,13,13,0,0,0-7.24-1.33,1.54,1.54,0,0,0-1.5,1.5,1.5,1.5,0,0,0,1.5,1.5Z" transform="translate(0 3.41)"/><path d="M1579.25,254.8l.39-.08c-.14,0-.15,0,0,0a5.93,5.93,0,0,1,.73,0c.17,0-.21-.06.06,0l.33.08a3,3,0,0,1,.32.09s.44.17.14,0a6.7,6.7,0,0,1,1.11.62l.26.19c.14.1-.16-.14.05,0s.36.3.53.47a2.39,2.39,0,0,1,.23.22s.27.29.15.15.08.14.1.17c-.13-.25,0,0,0,.08l.06.32c-.06-.34,0,.1,0,.14a5,5,0,0,1,0,.67c0,.22,0,.45,0,.67,0,.42,0-.17,0,.07s0,.22-.06.33-.12.48-.19.71a3,3,0,0,1-.11.32c0,.06-.17.43,0,.14a1.54,1.54,0,0,0,.54,2.05,1.51,1.51,0,0,0,2-.53,9.39,9.39,0,0,0,.86-3.76,7.36,7.36,0,0,0-.21-2,3.86,3.86,0,0,0-1.14-1.8c-1.84-1.78-4.33-3-6.93-2.34a1.5,1.5,0,0,0,.8,2.89Z" transform="translate(0 3.41)"/><path d="M1602.55,175.49a21.37,21.37,0,0,0-3.72,4.06c-1.32,1.78-2.73,3.49-4,5.26a109.69,109.69,0,0,0-7.32,11.39c-1.08,1.92-2.14,3.86-3.18,5.8-.52.95-1,1.91-1.56,2.88s-.91,1.93-.27,2.93c1,1.57,3.34,2.32,5.06,2.65a63.94,63.94,0,0,0,6.77.72l8.42.73a53.26,53.26,0,0,0,8.55.5c1.91-.15,1.93-3.15,0-3a41.09,41.09,0,0,1-6.56-.33l-6.94-.6c-2.32-.2-4.63-.39-6.94-.6a12.28,12.28,0,0,1-5-1.14c-.19-.1-.44-.38-.63-.41l-.15-.12.08.57s.71-1.31.73-1.36c.48-.89,1-1.78,1.45-2.67q1.41-2.62,2.88-5.22a112.19,112.19,0,0,1,6.53-10.28c1.35-1.87,2.83-3.63,4.21-5.48a22.56,22.56,0,0,1,3.77-4.16c1.49-1.22-.64-3.33-2.12-2.12Z" transform="translate(0 3.41)"/><path d="M1614.42,231.09c11.23,4.89,23.06.76,33.87-3.2,1.8-.66,1-3.56-.79-2.89-9.85,3.61-21.24,8-31.56,3.5-1.76-.76-3.28,1.82-1.52,2.59Z" transform="translate(0 3.41)"/><path d="M1614.19,231.2c-.25,5.09,1.6,10,4,14.37a23,23,0,0,0,1.78,3,7.74,7.74,0,0,0,2.86,1.86,19,19,0,0,0,5.81,1.72c8.21,1.05,16-3.46,22.12-8.43a79.41,79.41,0,0,0,10-9.89c1.25-1.45-.86-3.59-2.12-2.12-4.87,5.65-10.41,11-17,14.59a23.18,23.18,0,0,1-10.28,3,15.78,15.78,0,0,1-5-.69c-1.62-.5-3.56-1.18-4.45-2.67-2.66-4.48-4.94-9.45-4.68-14.78.09-1.93-2.91-1.93-3,0Z" transform="translate(0 3.41)"/><path d="M1609.2,229.21c2.54.82,5.55,1.77,6.88,4.31.68,1.29.42,2.75.69,4.14a16.75,16.75,0,0,0,1.73,4.12,46.47,46.47,0,0,1,3.58,7.75,14.63,14.63,0,0,1,.61,4.36,11.2,11.2,0,0,1-.57,4.5c-.82,1.74,1.76,3.26,2.59,1.52a12.56,12.56,0,0,0,.94-4.86,18.87,18.87,0,0,0-.4-5.3c-.76-3.24-2.45-6.18-4-9.1a11.74,11.74,0,0,1-1.69-4.76,8.45,8.45,0,0,0-1.32-4.53c-1.94-2.82-5.15-4-8.28-5-1.85-.59-2.64,2.3-.8,2.89Z" transform="translate(0 3.41)"/><path d="M1577.93,210.28a11.1,11.1,0,0,1,4.75-1.17,23.55,23.55,0,0,1,4.62.88c3.21.76,6.48.65,9.66,1.57s6.35.64,9.57.51c1.57-.06,3.26-.33,4.64.6a11,11,0,0,1,2.72,3.12c1.08,1.59,3.68.1,2.59-1.51-1.76-2.61-3.8-5.07-7.17-5.27-3.71-.22-7.5.78-11.15-.22a26.21,26.21,0,0,0-5.19-1,34.32,34.32,0,0,1-5.53-.82,22.16,22.16,0,0,0-5-.83,13,13,0,0,0-5.33,1.28,1.56,1.56,0,0,0-1.05,1.84,1.51,1.51,0,0,0,1.85,1.05Z" transform="translate(0 3.41)"/><path d="M1540.28,351.85c0,.48.07,1,.1,1.44a1.15,1.15,0,0,0,.13.58,1,1,0,0,0,.31.48,1.14,1.14,0,0,0,.48.31,1.06,1.06,0,0,0,.58.13l.4-.05a1.49,1.49,0,0,0,.66-.39l.24-.3a1.54,1.54,0,0,0,.2-.76c0-.48-.07-1-.1-1.44a1.08,1.08,0,0,0-.13-.58,1.14,1.14,0,0,0-.31-.48,1.17,1.17,0,0,0-.48-.31,1.15,1.15,0,0,0-.58-.13l-.4.06a1.57,1.57,0,0,0-.66.38l-.23.31a1.42,1.42,0,0,0-.21.75Z" transform="translate(0 3.41)"/><path d="M1540,344.54q0,3.66.29,7.31a1.5,1.5,0,1,0,3,0q-.24-3.64-.29-7.31a1.5,1.5,0,1,0-3,0Z" transform="translate(0 3.41)"/><path d="M1540,341.48c0,1,0,2,0,3.06a1.49,1.49,0,0,0,1.5,1.5,1.52,1.52,0,0,0,1.06-.44,1.61,1.61,0,0,0,.44-1.06c0-1,0-2,0-3.06a1.5,1.5,0,0,0-1.5-1.5,1.53,1.53,0,0,0-1.5,1.5Z" transform="translate(0 3.41)"/><path d="M1540,339c0,.84,0,1.67,0,2.5a1.5,1.5,0,0,0,1.5,1.5,1.54,1.54,0,0,0,1.06-.44,1.58,1.58,0,0,0,.44-1.06c0-.83,0-1.66,0-2.5a1.5,1.5,0,0,0-2.56-1.06A1.61,1.61,0,0,0,1540,339Z" transform="translate(0 3.41)"/><path d="M1540.14,335.73c-.06,1.08-.1,2.17-.13,3.25a1.54,1.54,0,0,0,.44,1.06,1.47,1.47,0,0,0,1.06.44,1.52,1.52,0,0,0,1.5-1.5c0-1.08.07-2.17.13-3.25a1.54,1.54,0,0,0-.44-1.06,1.5,1.5,0,0,0-2.56,1.06Z" transform="translate(0 3.41)"/><path d="M1514.61,312.84c3.38-.46,6.39-2.13,9.36-3.7q4.85-2.55,9.69-5.12c6.52-3.48,13-7,19.43-10.67l-2.06-.54c.23.45-.83,1.95-1,2.31-.43.87-.85,1.76-1.25,2.65-.72,1.62-1.41,3.27-2,4.93a93.33,93.33,0,0,0-3.37,10.73,116.57,116.57,0,0,0-3.23,22.3c-.1,1.93,2.9,1.92,3,0a110.83,110.83,0,0,1,3.57-23.25,91.81,91.81,0,0,1,3.75-11.07c.75-1.83,1.58-3.62,2.46-5.39.79-1.57,1.57-3,.71-4.73a1.53,1.53,0,0,0-2.06-.53c-6.27,3.58-12.62,7-19,10.44q-4.74,2.52-9.48,5c-3,1.57-5.91,3.28-9.29,3.73a1.52,1.52,0,0,0-1,1.85,1.54,1.54,0,0,0,1.85,1Z" transform="translate(0 3.41)"/><path d="M1571.41,204.71c-.24.25-.5.48-.76.71l-.19.15s-.23.19-.09.08l-.09.06-.2.14a11.52,11.52,0,0,1-1.8,1l-.22.1c-.2.1.23-.09,0,0l-.45.18-1,.3c-.32.08-.64.15-1,.2,0,0-.38.06-.16,0s-.07,0-.11,0l-.55.05a1.5,1.5,0,0,0,0,3,13.45,13.45,0,0,0,8.67-3.92,1.51,1.51,0,0,0,0-2.12,1.53,1.53,0,0,0-2.12,0Z" transform="translate(0 3.41)"/><path d="M1575.57,206.25a25,25,0,0,1,4.27-1.57,8.21,8.21,0,0,1,4.26.06,1.5,1.5,0,0,0,.8-2.9,11.42,11.42,0,0,0-5.69-.09,28.71,28.71,0,0,0-5.15,1.91,1.5,1.5,0,0,0-.54,2.05,1.55,1.55,0,0,0,2,.54Z" transform="translate(0 3.41)"/><path d="M1322.08,238.34c-1.07,4.89,0,10-1.51,14.86a1.51,1.51,0,0,0,2.2,1.69q5.87-3.24,11.83-6.27l-2.26-1.3c-.1,7.25-.19,14.64.9,21.82.19,1.22,1.75,1.31,2.51.67,2.8-2.38,4.28-5.94,7.31-8.07,1.52-1.07,3.16-1.94,4.63-3.08a28.8,28.8,0,0,0,4.3-4.39c1.23-1.47-.88-3.6-2.13-2.12a25.16,25.16,0,0,1-4.34,4.41c-1.5,1.09-3.15,1.94-4.63,3.07-2.94,2.23-4.47,5.68-7.26,8.05l2.51.67c-1.05-6.9-.89-14.07-.8-21a1.51,1.51,0,0,0-2.26-1.29q-6,3-11.82,6.27l2.2,1.69c1.49-4.84.44-10,1.52-14.86.41-1.88-2.48-2.68-2.9-.79Z" transform="translate(0 3.41)"/><path d="M1351,252.43a145.78,145.78,0,0,0-1.62,21.68,1.51,1.51,0,0,0,2.26,1.3,87.33,87.33,0,0,0,22.45-21.64c1.12-1.58-1.48-3.08-2.59-1.52a83.31,83.31,0,0,1-21.38,20.57l2.26,1.29a140.35,140.35,0,0,1,1.51-20.88,1.54,1.54,0,0,0-1-1.84,1.5,1.5,0,0,0-1.85,1Z" transform="translate(0 3.41)"/><path d="M1371.36,254.08q-1.32,10.8-2.26,21.65c-.17,1.92,2.83,1.91,3,0q.93-10.85,2.26-21.65a1.5,1.5,0,1,0-3,0Z" transform="translate(0 3.41)"/><path d="M1371.33,277a23.4,23.4,0,0,0,6.45-4.86,82,82,0,0,1,5.62-6c4.43-3.93,8.34-8.46,12.39-12.77,1.32-1.4-.8-3.53-2.12-2.12-4,4.21-7.76,8.63-12.06,12.48a68,68,0,0,0-5.54,5.85,21,21,0,0,1-6.25,4.86c-1.72.88-.21,3.47,1.51,2.59Z" transform="translate(0 3.41)"/><path d="M1393.56,251.45a180.09,180.09,0,0,1-4.9,21.91,1.51,1.51,0,0,0,2.9.8,182.42,182.42,0,0,0,4.9-21.91,1.56,1.56,0,0,0-1-1.85,1.52,1.52,0,0,0-1.85,1Z" transform="translate(0 3.41)"/><path d="M1391.13,274.91a16.46,16.46,0,0,1,3.45-2.7,21.87,21.87,0,0,0,3.49-3c2.33-2.41,5.06-4.27,7.52-6.51,2.23-2,4.06-4.44,6.27-6.49s5.15-3,7.23-5.2c1.34-1.39-.78-3.51-2.12-2.12a16.9,16.9,0,0,1-3.68,2.52,22,22,0,0,0-3.55,2.68c-2.21,2.05-4,4.45-6.27,6.49-2.46,2.25-5.19,4.11-7.52,6.51a19.06,19.06,0,0,1-3.39,2.89,16.84,16.84,0,0,0-3.56,2.84c-1.25,1.45.86,3.58,2.13,2.12Z" transform="translate(0 3.41)"/><path d="M1416.39,249.7q-.9,10.62-2.61,21.14c-.16,1,.67,2.3,1.85,1.84a16.4,16.4,0,0,0,5.6-4.1c1.8-1.79,3.79-3.35,5.72-5a38,38,0,0,0,5.13-5.54,16.44,16.44,0,0,1,5.61-4.81c1.74-.83.22-3.42-1.52-2.59-4.59,2.21-6.82,6.81-10.49,10.08-1.83,1.63-3.8,3.09-5.58,4.78-1.62,1.52-3.13,3.47-5.27,4.29l1.85,1.84q1.77-10.9,2.71-21.93c.17-1.92-2.83-1.91-3,0Z" transform="translate(0 3.41)"/><path d="M1435.47,252.71a184.34,184.34,0,0,0,.72,24c.18,1.9,3.18,1.92,3,0a184.34,184.34,0,0,1-.72-24c.07-1.93-2.93-1.93-3,0Z" transform="translate(0 3.41)"/><path d="M1438.76,277.76a16.28,16.28,0,0,1,4.88-3.67,46.94,46.94,0,0,0,5.76-3.59,120.29,120.29,0,0,0,10.62-9.7c1.39-1.35-.73-3.47-2.12-2.13-3.42,3.32-6.76,6.88-10.62,9.69-3.45,2.52-7.86,3.92-10.64,7.28-1.23,1.47.88,3.61,2.12,2.12Z" transform="translate(0 3.41)"/><path d="M1457.48,260.2q-1.23,9.56-1.82,19.17a1.52,1.52,0,0,0,2.26,1.29c1.67-.83,3-2.2,4.68-3,.94-.46,1.94-.79,2.87-1.28a17.84,17.84,0,0,0,2.65-1.83,115.94,115.94,0,0,0,9.64-8.63c1.38-1.35-.74-3.48-2.12-2.12a124.36,124.36,0,0,1-9.37,8.41,25.25,25.25,0,0,1-5.19,2.86c-1.68.82-3,2.19-4.67,3l2.25,1.3q.6-9.62,1.82-19.17a1.52,1.52,0,0,0-1.5-1.5,1.54,1.54,0,0,0-1.5,1.5Z" transform="translate(0 3.41)"/><path d="M1475.21,264.7l-.06,4.53a25.39,25.39,0,0,1-.24,4.45c-.25,1.39-.67,2.73-.9,4.12s-.38,2.92-.51,4.39c-.17,1.92,2.83,1.91,3,0,.12-1.36.24-2.73.48-4.07s.72-2.83.93-4.28a69.69,69.69,0,0,0,.3-9.14,1.5,1.5,0,0,0-3,0Z" transform="translate(0 3.41)"/><path d="M1493.12,265.93a90.38,90.38,0,0,0-7.88,7.9c-1.31,1.39-2.65,2.75-4,4.1a14.07,14.07,0,0,1-4,3.23,1.51,1.51,0,0,0-.54,2,1.53,1.53,0,0,0,2,.54,14.58,14.58,0,0,0,4.19-3.26c1.42-1.43,2.84-2.85,4.22-4.31a92.65,92.65,0,0,1,8.09-8.13,1.5,1.5,0,0,0,0-2.12,1.53,1.53,0,0,0-2.12,0Z" transform="translate(0 3.41)"/><path d="M1495.64,267.92l.62-.5a1.14,1.14,0,0,0,.31-.48,1.36,1.36,0,0,0,0-1.16,1.08,1.08,0,0,0-.31-.48l-.3-.24a1.57,1.57,0,0,0-.76-.2l-.4.05a1.49,1.49,0,0,0-.66.39l-.62.5a1.11,1.11,0,0,0-.31.48,1.34,1.34,0,0,0,0,1.15,1.21,1.21,0,0,0,.31.49l.31.23a1.51,1.51,0,0,0,.75.21l.4-.06a1.45,1.45,0,0,0,.66-.38Z" transform="translate(0 3.41)"/><path d="M1493.25,266.58c-.27,1.32-.22,2.64-.39,4a28.24,28.24,0,0,1-.79,3.39,76,76,0,0,0-1.47,7.48,1.54,1.54,0,0,0,1,1.84,1.52,1.52,0,0,0,1.85-1.05c.37-2.51.86-5,1.47-7.47a33.23,33.23,0,0,0,.82-3.52c.18-1.27.11-2.57.36-3.83a1.53,1.53,0,0,0-1-1.84,1.52,1.52,0,0,0-1.85,1Z" transform="translate(0 3.41)"/><path d="M1509.92,264.33c-2.56,3.15-5.93,5.52-8.76,8.4s-5.55,6.12-8.73,8.77a1.51,1.51,0,0,0,0,2.12,1.53,1.53,0,0,0,2.12,0c3.18-2.65,5.83-5.83,8.73-8.77s6.2-5.25,8.76-8.4a1.55,1.55,0,0,0,0-2.12,1.5,1.5,0,0,0-2.12,0Z" transform="translate(0 3.41)"/><path d="M1510.38,265a38,38,0,0,0,2,12.59,1.52,1.52,0,0,0,2.74.35c1.54-2.45,3.23-4.87,4.57-7.43,1.11-2.13,1.68-4.67,3.37-6.44,1.33-1.4-.79-3.53-2.12-2.13-1.86,1.95-2.54,4.48-3.72,6.83-1.34,2.66-3.11,5.14-4.69,7.66l2.74.36a35.27,35.27,0,0,1-1.87-11.79c0-1.93-3-1.93-3,0Z" transform="translate(0 3.41)"/><path d="M1521.76,263.38a10.76,10.76,0,0,0,3.75,4.2c.76.55,1.56,1,2.35,1.53.42.26.83.52,1.24.8l.6.42.11.08.34.28a1.54,1.54,0,0,0,2.12,0,1.52,1.52,0,0,0,0-2.12c-1.54-1.29-3.29-2.23-4.92-3.36-.17-.11-.32-.22-.48-.34s-.23-.17-.06,0l-.26-.21a11.94,11.94,0,0,1-.91-.83c-.15-.16-.3-.32-.43-.48s-.24-.31-.13-.15-.11-.17-.11-.16a6.88,6.88,0,0,1-.62-1.13,1.5,1.5,0,0,0-2-.54,1.54,1.54,0,0,0-.54,2.05Z" transform="translate(0 3.41)"/><path d="M1533.64,268.6c-.44-3.08.61-6.4.42-9.57a1.5,1.5,0,0,0-3,0,29.87,29.87,0,0,1-.3,5.09,21.2,21.2,0,0,0,0,5.28,1.51,1.51,0,0,0,1.85,1,1.54,1.54,0,0,0,1.05-1.84Z" transform="translate(0 3.41)"/><path d="M1532.85,260.46c.5.28,1,.58,1.46.89.24.16.49.33.72.5l.36.26a.91.91,0,0,0,.16.11s.27.21.08.07l0,0,.15.12.34.28c.23.18.45.38.67.57.44.39.86.8,1.27,1.22a1.52,1.52,0,0,0,2.12,0,1.54,1.54,0,0,0,0-2.12,26.46,26.46,0,0,0-5.85-4.52,1.5,1.5,0,1,0-1.52,2.59Z" transform="translate(0 3.41)"/><path class="cls-14" d="M1388.82,523.41" transform="translate(0 3.41)"/><path class="cls-15" d="M1144.65,498.83,1141,509.64l-46.87-12.79S1145.56,496.31,1144.65,498.83Z" transform="translate(0 3.41)"/><polyline class="cls-15" points="1144.97 498.81 1144.89 499.04 1098.75 474.96 1151.32 486.74"/><polygon class="cls-15" points="1160.03 475.44 1155.71 484.12 1113.39 462.57 1160.03 475.44"/><polygon class="cls-15" points="1185.05 621.48 1182.69 629.1 1130.2 615.15 1185.05 621.48"/><polygon class="cls-15" points="1186.78 617.51 1188.53 609.72 1127.5 596.22 1186.78 617.51"/><polygon class="cls-15" points="1192.32 596.83 1189.24 607.54 1132.91 584.51 1192.32 596.83"/><path class="cls-8" d="M1576.4,144s56.08-24.34,9.55,10.78c0,0,53-21.76,8.85,11.05,0,0,49.93-20.75,6.58,9.07" transform="translate(0 3.41)"/><path class="cls-16" d="M1646.07,168" transform="translate(0 3.41)"/><path class="cls-15" d="M1614.68,228.91s13.5,5.7,33.82-3.86,19.34-6.73,22.44-8.88-21.35,35.13-45.94,36.09c0,0-7-10.18-6.93-11.77,0,0-3.16-9-3-10Z" transform="translate(0 3.41)"/><path class="cls-15" d="M1583.57,207.32s25.49,3.26,26.6,2.36c0,0-5.9-7.56,1.38-22.82s14.82-24.07,14.82-24.07S1600.91,168.66,1583.57,207.32Z" transform="translate(0 3.41)"/><path class="cls-15" d="M1389,523s-2.85,2.47.07,17.33l-27.93,6.08s-6.71-8.21,27.73-23" transform="translate(0 3.41)"/><path class="cls-15" d="M1356.58,602.75l21.85,11-19.37,13.06s-9-18-2.48-24.1" transform="translate(0 3.41)"/><polygon class="cls-17" points="1324.26 243.08 1333.18 249.61 1321.75 256.99 1324.26 243.08"/><path class="cls-17" d="M1334.63,246.86l.79,19.67s6-7.79,6.48-7.23,8.21-5.7,7.77-6.26S1334.63,246.86,1334.63,246.86Z" transform="translate(0 3.41)"/><path class="cls-17" d="M1353.33,253.73l-1.43,18.5s15.7-11.68,18.35-17.48Z" transform="translate(0 3.41)"/><polygon class="cls-17" points="1373.89 257.82 1371.1 278.52 1393.27 256.08 1373.89 257.82"/><path class="cls-17" d="M1391.35,271.86,1396.1,252l19.19-1.53s-9,7.34-9.89,8.91S1391.35,271.86,1391.35,271.86Z" transform="translate(0 3.41)"/><path class="cls-17" d="M1416.43,269.25l2.51-18.71s16,.55,15.94,1.55S1416.43,269.25,1416.43,269.25Z" transform="translate(0 3.41)"/><path class="cls-17" d="M1438.33,253l.18,21.8s8-5.8,10-6.81,8.87-8.38,8.87-8.38Z" transform="translate(0 3.41)"/><path class="cls-17" d="M1459.82,260.35l-1.38,17.58s2.56-2.45,3.25-2.62c1.63-.4,13.69-10,13.39-10.78Z" transform="translate(0 3.41)"/><path class="cls-17" d="M1477.53,265.3l-1.8,17.72s6.51-5,7-6,9.79-10.13,9.79-10.13Z" transform="translate(0 3.41)"/><polygon class="cls-15" points="1509.4 269.1 1495.61 270.15 1492.99 285.07 1509.4 269.1"/><path class="cls-15" d="M1513.88,275.8l-1.08-10.71,7.49-1.77S1514.89,275.91,1513.88,275.8Z" transform="translate(0 3.41)"/><path class="cls-15" d="M1456.2,278l1.35-15.34s-13.44,10.82-13.88,10.72S1455.91,278.75,1456.2,278Z" transform="translate(0 3.41)"/><path class="cls-18" d="M1436.27,253.26l.81,18.56s-15.91-3.36-17.63-2S1436.27,253.26,1436.27,253.26Z" transform="translate(0 3.41)"/><path class="cls-15" d="M1435.78,253.65" transform="translate(0 3.41)"/><path class="cls-18" d="M1416.57,252.45l-1.93,18.23-19.8.4s16.75-14.41,16.85-15.41S1416.57,252.45,1416.57,252.45Z" transform="translate(0 3.41)"/><polygon class="cls-18" points="1393.56 258.14 1389.72 274.95 1377.04 275.11 1393.56 258.14"/><path class="cls-18" d="M1369.92,271.94l1.71-15.48s-13.28,14.74-14.17,13.63Z" transform="translate(0 3.41)"/><path class="cls-18" d="M1351,254.68l-.88,13.1-10.25-3.64s3.91-4.13,3.89-3.63S1351,254.68,1351,254.68Z" transform="translate(0 3.41)"/><polygon class="cls-18" points="1332.79 252.25 1333.06 264.8 1322.76 257.93 1332.79 252.25"/><path d="M1544.34,316.63v-.05l0,.2a.2.2,0,0,1,0-.11l-.08.18a2.4,2.4,0,0,1,.21-.31l.22-.31c.15-.22.29-.44.43-.67a.73.73,0,0,0,.07-.58.72.72,0,0,0-.34-.44.74.74,0,0,0-.58-.08.78.78,0,0,0-.45.35c-.15.26-.32.51-.49.76s-.18.23-.26.35a1.29,1.29,0,0,0-.24.71.75.75,0,0,0,.75.75.77.77,0,0,0,.75-.75Z" transform="translate(0 3.41)"/><polygon class="cls-15" points="1596.08 140.24 1600.05 146.55 1627.55 127.39 1596.08 140.24"/><polygon class="cls-15" points="1603.53 152.16 1608.01 158.49 1632.62 138.34 1603.53 152.16"/><polygon class="cls-15" points="1611.3 163.35 1614.89 168.22 1638.93 151.17 1611.3 163.35"/><path d="M1323.61,235.69l-.19-.07.36.15a4.21,4.21,0,0,1-.94-.55l.31.24c-.15-.12-.28-.24-.41-.36a1.14,1.14,0,0,0-.48-.31,1.08,1.08,0,0,0-.58-.13,1.06,1.06,0,0,0-.58.13,1,1,0,0,0-.48.31,1.46,1.46,0,0,0-.44,1.06l0,.4a1.49,1.49,0,0,0,.39.66l.34.31c.22.17.44.35.68.5a5.52,5.52,0,0,0,1.18.55,1,1,0,0,0,.59,0,1.12,1.12,0,0,0,.56-.18,1,1,0,0,0,.42-.38,1.15,1.15,0,0,0,.27-.51l0-.4a1.47,1.47,0,0,0-.2-.76l-.23-.3a1.47,1.47,0,0,0-.67-.39Z" transform="translate(0 3.41)"/><path d="M1323.79,235.56l-1.75-.94a1.5,1.5,0,0,0-1.51,2.59,10.44,10.44,0,0,0,2.59,1.34c1.59.57,2.69-2,1.16-2.74-1-.47-1.9-1-2.84-1.46a1.51,1.51,0,0,0-2.2,1.69c.39,1.28,1.31,2.21,1,3.6s-.68,3-1,4.47-.53,3.09-.72,4.65c-.16,1.36-.6,3.17.28,4.36a1.54,1.54,0,0,0,2.36.31c1.07-.84,1.15-2.63,1.35-3.86a19,19,0,0,0,.29-4.76,1.54,1.54,0,0,0-1.5-1.5,1.5,1.5,0,0,0-1.5,1.5,15.31,15.31,0,0,1-.13,3.64c-.09.59-.2,1.17-.32,1.76a6.39,6.39,0,0,0-.17.85l-.06.22c.13-.15.11-.14-.08,0l2.35.3c-.17-.24-.11-.23-.09-.63s0-.64.08-.95c.07-.72.15-1.43.25-2.14.22-1.52.5-3,.82-4.55a24.39,24.39,0,0,0,.84-4.3c0-1.49-.83-2.46-1.24-3.8l-2.2,1.7c.93.5,1.88,1,2.83,1.46l1.16-2.74a7.69,7.69,0,0,1-1.88-1l-1.51,2.59,1.75.94c1.7.91,3.21-1.67,1.51-2.59Z" transform="translate(0 3.41)"/><path d="M1319.1,236c0,1.94,0,3.88-.12,5.81a1.5,1.5,0,0,0,1.5,1.5,1.54,1.54,0,0,0,1.5-1.5c.08-1.93.12-3.87.12-5.81a1.5,1.5,0,0,0-3,0Z" transform="translate(0 3.41)"/><path d="M1319.09,240.16a63.23,63.23,0,0,1-2.23,10l2.74-.35c0,.23,0,.19,0-.12a4.35,4.35,0,0,1,0-.51c0-.21.08-.42.13-.63.15-.6.36-1.18.54-1.78a18.25,18.25,0,0,0,.65-3.6c.23-2.33.16-4.69.93-6.93a1.5,1.5,0,1,0-2.89-.8c-.88,2.58-.78,5.32-1.06,8a21.09,21.09,0,0,1-.88,3.69c-.36,1.2-.85,3.08,0,4.2a1.52,1.52,0,0,0,2.74-.36,64.64,64.64,0,0,0,2.24-10,1.57,1.57,0,0,0-1-1.85,1.53,1.53,0,0,0-1.85,1Z" transform="translate(0 3.41)"/><path d="M1318.1,250.2s-.37-.07-.3,0-.14-.17,0,0l.43,1.06c.07.09.11,0,.11-.17s.09-.28.13-.42.13-.41.19-.62c.14-.49.27-1,.4-1.47.22-.92.41-1.84.57-2.77a13.35,13.35,0,0,1,.82-2.48,7.83,7.83,0,0,0,.33-1.33,3.56,3.56,0,0,1,.23-1c.93-1.7-1.66-3.21-2.59-1.52-.56,1-.5,2.2-.93,3.27a10,10,0,0,0-.64,1.68c-.14.63-.22,1.27-.35,1.9a36.65,36.65,0,0,1-.92,3.57c-.27.86-.6,1.68.09,2.45a2.86,2.86,0,0,0,1.68.87,1.56,1.56,0,0,0,1.84-1,1.52,1.52,0,0,0-1.05-1.85Z" transform="translate(0 3.41)"/><path d="M1318.68,238.81a5.58,5.58,0,0,0-1.37,2.58c-.17.86-.44,1.68-.59,2.54-.33,1.83-.3,3.48-1,5.23l2.9.8a15.57,15.57,0,0,0,.51-2.12,1.55,1.55,0,0,0-1-1.85,1.51,1.51,0,0,0-1.84,1,12.7,12.7,0,0,1-.64,2.4l2.9.79a7.5,7.5,0,0,0,.33-1.32l-2.89-.8c-.07.52-.17,1-.28,1.54a1.54,1.54,0,0,0,1,1.85,1.51,1.51,0,0,0,1.85-1.05c.12-.51.21-1,.28-1.54a1.54,1.54,0,0,0-1-1.85,1.51,1.51,0,0,0-1.85,1.05,7,7,0,0,1-.34,1.33,1.51,1.51,0,0,0,1.05,1.84,1.54,1.54,0,0,0,1.85-1.05,13.15,13.15,0,0,0,.63-2.39l-2.89-.8a14,14,0,0,1-.52,2.12,1.53,1.53,0,0,0,1,1.85,1.55,1.55,0,0,0,1.85-1,10.91,10.91,0,0,0,.62-2.39c.13-.83.22-1.79.33-2.49s.43-1.61.58-2.43a5.27,5.27,0,0,1,.26-1.11c-.08.19.16-.27.14-.24a1.54,1.54,0,0,1,.27-.37,1.53,1.53,0,0,0,0-2.12,1.51,1.51,0,0,0-2.12,0Z" transform="translate(0 3.41)"/><polygon class="cls-15" points="1320.24 256.83 1316.51 253.89 1321.97 240.8 1320.24 256.83"/><path class="cls-15" d="M1354.78,605.63l26.36-18-24.65-17S1349.37,605.81,1354.78,605.63Z" transform="translate(0 3.41)"/><path class="cls-15" d="M1360.15,545l23.47,17.25-27.21,8.87S1355.82,546.84,1360.15,545Z" transform="translate(0 3.41)"/><path class="cls-19" d="M1284,460.55a8,8,0,0,1,.41,15.11,1.55,1.55,0,0,0-1,1.85,1.52,1.52,0,0,0,1.85,1,11,11,0,0,0-.42-20.9c-1.83-.6-2.62,2.3-.79,2.9Z" transform="translate(0 3.41)"/><path class="cls-19" d="M1297.69,525.38c2,.26,4.2.55,5.89,1.76a9.31,9.31,0,0,1,3,4.13,40.31,40.31,0,0,1,1.68,5.48,14.19,14.19,0,0,1,.46,7c-.46,1.87,2.43,2.67,2.89.79a16.92,16.92,0,0,0-.36-8.18,40.92,40.92,0,0,0-2.16-6.76,11.73,11.73,0,0,0-4.08-5.1c-2.16-1.43-4.79-1.76-7.29-2.08-.81-.11-1.49.76-1.5,1.5a1.54,1.54,0,0,0,1.5,1.5Z" transform="translate(0 3.41)"/><path class="cls-8" d="M1494.53,246.7c2.61-.14,5.23-.2,7.84-.17,1.19,0,2.39,0,3.58.13a4.5,4.5,0,0,1,2.52.79,1.54,1.54,0,0,0,2.12,0,1.52,1.52,0,0,0,0-2.12c-2.09-1.73-4.75-1.72-7.33-1.78q-4.37-.09-8.73.15c-1.92.1-1.93,3.11,0,3Z" transform="translate(0 3.41)"/><path d="M1484.33,244.54a35.79,35.79,0,0,1,7.9-1.75,13.83,13.83,0,0,1,3.52.18,11,11,0,0,1,1.81.5c.22.08.43.17.64.27s.32.16.47.25.31.18.1,0l-.21-.76v.17l.21-.76c.23-.17.23-.19,0-.06l-.26.12c-.23.11-.46.21-.7.3a17.35,17.35,0,0,1-1.76.6,18.53,18.53,0,0,1-3.4.63,1.54,1.54,0,0,0-1.5,1.5,1.51,1.51,0,0,0,1.5,1.5,21.46,21.46,0,0,0,7.37-1.94c1.15-.53,2-1.74,1.26-3-.58-1-2-1.45-3-1.8-4.83-1.7-10-.29-14.7,1.11-1.85.55-1.06,3.45.79,2.9Z" transform="translate(0 3.41)"/><path class="cls-15" d="M1361.09,546.43l14.61,15.92-19.56,8S1348.48,557.24,1361.09,546.43Z" transform="translate(0 3.41)"/><path class="cls-15" d="M1356.14,570.31s16.44,16,20.94,16l-20.5,16.45S1347.35,578.64,1356.14,570.31Z" transform="translate(0 3.41)"/><path class="cls-17" d="M1523.91,262.7s2.68,3.33,3.23,2.88l3.79,2.43.87-8Z" transform="translate(0 3.41)"/><path class="cls-17" d="M1533.67,260.41l-.58,7.44,5.2-3.77S1534.1,260.16,1533.67,260.41Z" transform="translate(0 3.41)"/><path class="cls-17" d="M1535.36,259s4.92,3.69,4.58,3.8,3.64-4,3.64-4S1536.36,258.16,1535.36,259Z" transform="translate(0 3.41)"/><path class="cls-17" d="M1522.24,264s5.29,5.42,7.38,5.75l-13.79,6.73Z" transform="translate(0 3.41)"/><polygon class="cls-17" points="1510.8 270.27 1512.72 280.61 1496.6 284.44 1510.8 270.27"/><polygon class="cls-17" points="1493.4 272.58 1490.93 285.35 1480.25 285.72 1493.4 272.58"/><path class="cls-17" d="M1475.76,267.64l-1.52,14-14.58-2.5s2.07-2.05,3.26-2.09,5.28-3.06,5.28-3.06l7.56-6.37" transform="translate(0 3.41)"/><path class="cls-8" d="M1528.47,345.6a12.49,12.49,0,0,0,2.48-3.43l2.62-4.68c.38-.67.75-1.34,1.06-2s.58-1.56.94-2.31.82-1.41,1.25-2.1c.64-1,1.22-2.06,1.8-3.11q1.85-3.3,3.67-6.61a19.79,19.79,0,0,0,1.1-2.15,10.8,10.8,0,0,0,.68-2.36l-20.53,29.37a3.69,3.69,0,0,0,1,.51A4.26,4.26,0,0,0,1528.47,345.6Z" transform="translate(0 3.41)"/><path class="cls-8" d="M1515.32,357.93l8.22-11.75a7.93,7.93,0,0,1-1.17-1l-39.48-27.72c18.4,96,72.75,89.43,72.75,89.43a15.7,15.7,0,0,0,2,.21,5.15,5.15,0,0,1,6.8-1.09c22-7.78,42.19-53.83,42.19-53.83Z" transform="translate(0 3.41)"/><path class="cls-8" d="M1482.89,317.46l28.09-4.68,14.13,35.42S1478.79,321.91,1482.89,317.46Z" transform="translate(0 3.41)"/><path class="cls-8" d="M1456.34,500.43s79.55-54,111.11-95.71S1426.69,483.86,1456.34,500.43Z" transform="translate(0 3.41)"/><path class="cls-14" d="M1584.19,200.94a4.17,4.17,0,0,0,.31,1.56,11.38,11.38,0,0,0,1.12-2.73,3.17,3.17,0,0,0-1.12,2.73c2.94-5.86,6-11.84,10.45-16.74,3.14-3.48,8.18-6.75,8-12" transform="translate(0 3.41)"/><path class="cls-14" d="M1565.14,207.19a2.06,2.06,0,0,0-.28.91c4.45-1.85,8.46-5.21,13.31-6,2.07-.32,7.09.92,7.12-2.43" transform="translate(0 3.41)"/><path class="cls-14" d="M1483.49,225.16c14,2.56,28.84,3.5,42.42-1.47,6.87-2.51,10.64-6.84,15.47-12,4.24-4.57,9.71-8,16.23-6.53,1.44.33,7.75,4.11,8.37,2" transform="translate(0 3.41)"/><path class="cls-8" d="M1338.5,638.46s-17.09,189.44,15.71,200,77.79,24.38,85.29,17S1462,839,1455,828s-52-33-56-24c0,0-21.41-5-24.21,4s-5.2,22,0,24.5-16.66-12.5-14.22-37.5,6.55-167.3-1.51-168.15" transform="translate(0 3.41)"/><path class="cls-8" d="M1393.17,817.5S1419,835,1430,832s22-1,22-11-46-35-49-32-33,12-17,23,63,4,61,0-12-28.3-24-26.15S1374,794,1385,806s54.83,6.54,54.83,6.54,13.84-28.84,5.5-26.69-48-17.42-44.66-.13,18.66,24.28,25.5,23.28,32.53-37.67,38.68-34.33S1475,794,1475,794s18,4,16-1-13-33-19-28c0,0-17-8-23,5,0,0-20.67,12.68-18.83,14.84" transform="translate(0 3.41)"/></g><g id="Lines"><path d="M1371.51,822.86c7.45,6.88,17.53,9.39,27.36,10.42,5.67.6,11.37.8,17.05,1.25s11.6,1.05,17.42,1.42a122.15,122.15,0,0,0,19.6-.12c1-.1,1-1.6,0-1.5-11.29,1.11-22.59-.07-33.83-1-10.65-.91-21.72-.68-32.06-3.69a35.85,35.85,0,0,1-14.47-7.8c-.71-.66-1.78.4-1.07,1.06Z" transform="translate(0 3.41)"/><path d="M1452.89,835.94a5.3,5.3,0,0,0,3.66-1,.77.77,0,0,0,.27-1,.76.76,0,0,0-1-.27,4.25,4.25,0,0,1-.74.44l-.1,0h0l-.16.06c-.13,0-.27.09-.41.12a3,3,0,0,1-.43.09c-.18,0,.18,0,0,0l-.22,0a6.13,6.13,0,0,1-.86,0,.75.75,0,0,0-.75.75.77.77,0,0,0,.75.75Z" transform="translate(0 3.41)"/><path d="M1449.8,305.28a20.53,20.53,0,0,1,4.55.34,26.81,26.81,0,0,1,4.19.43,29.14,29.14,0,0,1,3.64,1.67,14.59,14.59,0,0,0,4.36.78c1,.07,1-1.43,0-1.5a11.28,11.28,0,0,1-4.55-1,12.72,12.72,0,0,0-3.62-1.5c-1.33-.25-2.68-.23-4-.36a20.49,20.49,0,0,0-4.55-.34c-1,.12-1,1.62,0,1.5Z" transform="translate(0 3.41)"/><path d="M1626.9,218.34a14.22,14.22,0,0,0,4.93,2.66c.41.15.81.29,1.21.45l.27.11c.15.06-.14-.07.1.05a6.11,6.11,0,0,1,.58.27,10.15,10.15,0,0,0,2.74,1.26,1.5,1.5,0,0,0,.8-2.89c-.1,0-.2,0-.3-.06s-.38-.14-.25-.08l-.17-.09-.27-.15c-.36-.21-.72-.43-1.1-.61a25.66,25.66,0,0,0-2.54-1.06l-1.14-.42-.53-.21c.14.06.06,0,0,0l-.33-.15a10.41,10.41,0,0,1-1-.56c-.16-.1-.31-.21-.46-.32.2.15,0,0-.08-.07l-.27-.23a1.5,1.5,0,0,0-2.12,2.12Z" transform="translate(0 3.41)"/><path d="M1646.78,224.07a17.8,17.8,0,0,1-7.43-3,.75.75,0,1,0-.76,1.29,18.76,18.76,0,0,0,7.79,3.18.75.75,0,1,0,.4-1.45Z" transform="translate(0 3.41)"/><path d="M1645.57,224.42a18.68,18.68,0,0,1-4.14-2c-.62-.4-1.2-.86-1.8-1.29a6,6,0,0,0-2.23-1,.76.76,0,0,0-.73,1.26,7.1,7.1,0,0,0,2.86,1.74l.2-1.48-1.36-.16c-.88-.11-.95,1.21-.2,1.47.43.15.86.27,1.3.38a.75.75,0,0,0,.58-1.37,5.55,5.55,0,0,0-2.1-.66.75.75,0,0,0-.64,1.13,1.88,1.88,0,0,0,1.35.86c.5.09,1.09,0,1.5.29l.58-1.37-3.19-.66c-.79-.16-1.37,1-.57,1.37,1.47.76,3.15.75,4.65,1.42.86.39,1.6-.79.75-1.29a6.44,6.44,0,0,0-2.83-.89,7.34,7.34,0,0,1-1.4-.17,7.67,7.67,0,0,1-1.36-.64.75.75,0,0,0-.76,1.29,6.19,6.19,0,0,0,2.51,1l.2-1.47a5.54,5.54,0,0,1-2.74-1.06l-.75,1.29a16.57,16.57,0,0,0,4.86,1.81,21.16,21.16,0,0,1,2.47.85c.9.31,1.81.56,2.73.81a.75.75,0,0,0,.4-1.45c-.86-.23-1.71-.47-2.55-.75s-1.62-.66-2.47-.86a17,17,0,0,1-4.69-1.7c-.85-.5-1.52.74-.75,1.29a6.85,6.85,0,0,0,3.49,1.27c.83.08,1-1.33.19-1.47a5.2,5.2,0,0,1-2.14-.86l-.76,1.29a6.84,6.84,0,0,0,2.79,1,6.25,6.25,0,0,1,2.81.73l.75-1.29c-1.49-.67-3.2-.68-4.65-1.42l-.58,1.37,3.19.66a.76.76,0,0,0,.58-1.38,2.53,2.53,0,0,0-1.37-.41c-.24,0-.79,0-1-.2l-.65,1.13a3.8,3.8,0,0,1,1.35.46l.57-1.37c-.44-.11-.87-.24-1.3-.39l-.2,1.48,1.36.16c.87.11,1-1.22.2-1.47a5.41,5.41,0,0,1-2.19-1.35l-.73,1.25a5.42,5.42,0,0,1,2.13,1c.59.45,1.19.89,1.82,1.28a21.05,21.05,0,0,0,4.21,2c.91.32,1.3-1.13.4-1.45Z" transform="translate(0 3.41)"/><path d="M1543.08,316.67a27.32,27.32,0,0,1-.22,3.94l1.47-.2a10.42,10.42,0,0,1-.43-2.41.76.76,0,0,0-1.13-.65,1.57,1.57,0,0,0-.63,1.32l-.15,1.64h1.5l0-.68c0-.82-1.32-1-1.47-.2a23.4,23.4,0,0,0-.59,4.24.75.75,0,0,0,1.5,0,20.89,20.89,0,0,1,.54-3.84l-1.48-.2,0,.68a.75.75,0,0,0,1.5,0l.1-1.09c0-.18,0-.37.05-.55a.83.83,0,1,0,0-.12c0-.15,0-.12-.12.1l-1.13-.65a12.16,12.16,0,0,0,.48,2.81.75.75,0,0,0,1.48-.2,27.32,27.32,0,0,0,.22-3.94.75.75,0,0,0-1.5,0Z" transform="translate(0 3.41)"/><path class="cls-8" d="M1669.82,218.84l-5.33,7.26s113,7.4,112,11.4a17.49,17.49,0,0,1,15,7c6,8,13.32,19.57,13.32,19.57l19.49,33.31s12.65-12.76-5.58-30.82c0,0-10.9-28.75-35.06-37.4s-47.52-4.77-58.35-5.22C1725.32,223.94,1670.14,216.18,1669.82,218.84Z" transform="translate(0 3.41)"/><path d="M1805,264.49c2.27.33,4.53.74,6.78,1.15,1.1.21,2.21.43,3.3.71a14.56,14.56,0,0,0,3.27.64.38.38,0,0,0,0-.75,15.39,15.39,0,0,1-3.33-.68c-1.09-.27-2.19-.48-3.3-.69-2.17-.39-4.34-.79-6.52-1.1-.47-.07-.68.65-.2.72Z" transform="translate(0 3.41)"/><path d="M1822.11,293.69l2.25.3a8,8,0,0,0,2.19,0,.38.38,0,0,0,.27-.46.38.38,0,0,0-.46-.27,7.45,7.45,0,0,1-2,0l-2-.27a.39.39,0,0,0-.46.26.37.37,0,0,0,.26.46Z" transform="translate(0 3.41)"/></g><g id="Spikes"><path class="cls-15" d="M1490.41,792l-12.3,2.12-7.64,1.84s3.15-.29,9.62,13.55,10.16,22.44,10.16,22.44-5.81-16.9,8.28-40.86" transform="translate(0 3.41)"/><path class="cls-15" d="M1358.66,626.26,1378.51,643l-17.31,9.59S1353.94,638.37,1358.66,626.26Z" transform="translate(0 3.41)"/><path class="cls-15" d="M1364.29,677.21l17.22-7.56-19.82-19.53S1360,672.42,1364.29,677.21Z" transform="translate(0 3.41)"/><path class="cls-15" d="M1363.19,706.66,1380,696.58l-17-20.74S1360.27,707.93,1363.19,706.66Z" transform="translate(0 3.41)"/><path class="cls-15" d="M1362.26,724.53l16.87-4.19-16.32-14.88S1359.3,718.17,1362.26,724.53Z" transform="translate(0 3.41)"/><path class="cls-15" d="M1363.78,743l15.54-6.08L1362,723.6S1361.07,737.57,1363.78,743Z" transform="translate(0 3.41)"/><path class="cls-15" d="M1361,762.4l16.9-1.13L1362.78,739S1360.07,758.34,1361,762.4Z" transform="translate(0 3.41)"/><path class="cls-15" d="M1375.71,770.67l-15.68-10-.69,27.07S1376.28,771.1,1375.71,770.67Z" transform="translate(0 3.41)"/><path class="cls-15" d="M1360.62,803.23l17-9.06-17.71-10.72S1357.64,795.84,1360.62,803.23Z" transform="translate(0 3.41)"/><path class="cls-15" d="M1388.77,837.52l-4.37-11.83-14.32,6.08S1386.09,840.56,1388.77,837.52Z" transform="translate(0 3.41)"/><path class="cls-15" d="M1364.41,818.43l10.82-6.15-14.42-10.82S1358.78,813.55,1364.41,818.43Z" transform="translate(0 3.41)"/><path class="cls-15" d="M1370.52,832.41l6.31-7.66-14.42-12.32s.9,12.32,8.11,20" transform="translate(0 3.41)"/><path d="M1451.18,824.68a37.61,37.61,0,0,1-15,3.13c-5.26,0-10.55-.75-15.79-1.23-2.75-.25-5.51-.45-8.24-.89a55.16,55.16,0,0,1-7.56-1.94c-5.09-1.59-10.32-2.13-15.55-3a43.34,43.34,0,0,1-7.69-2c-2.33-.86-5.58-2.24-6.94-4.44-.51-.82-1.8-.07-1.3.75,1.16,1.88,3.41,3.13,5.34,4.07a31.78,31.78,0,0,0,6.78,2.33c5.43,1.27,11,1.51,16.44,3,2.76.74,5.44,1.76,8.24,2.35a71.49,71.49,0,0,0,7.87,1c5.63.52,11.3,1.25,17,1.44a39.75,39.75,0,0,0,17.24-3.3c.88-.39.12-1.68-.76-1.3Z" transform="translate(0 3.41)"/><path d="M1381.57,804.16c5.35,5.81,12.87,9.08,20.55,10.46a54,54,0,0,0,13.68.33c4.74-.34,9.49-.31,14.23-.35a100.78,100.78,0,0,0,15.81-1.12c1-.15.54-1.6-.4-1.44-9,1.5-18.16.83-27.24,1.26-4.4.22-8.74.78-13.15.26a43.13,43.13,0,0,1-11.54-3,30.87,30.87,0,0,1-10.88-7.47c-.66-.72-1.72.35-1.06,1.06Z" transform="translate(0 3.41)"/><path d="M1392.46,794.45a23.24,23.24,0,0,0,9.78,6.88c2,.7,4,1.36,6,2.18a37.77,37.77,0,0,0,6.59,2.2,51.76,51.76,0,0,0,13,.57c4.85-.22,9.7-.55,14.54-1,1-.08,1-1.58,0-1.5q-6.78.57-13.57.92c-4.37.21-8.83.44-13.16-.38s-8.12-2.85-12.2-4.19a22.45,22.45,0,0,1-10-6.78c-.64-.72-1.7.34-1.06,1.06Z" transform="translate(0 3.41)"/><path d="M1401.78,790.88c2,2.45,5.76,3.44,8.63,4.42a39.42,39.42,0,0,0,11.26,2.27c4,.16,8-.27,12-.45s8.06.18,12.07-.26c1-.1,1-1.6,0-1.5-3.77.41-7.56.1-11.35.23s-7.51.54-11.28.51a37,37,0,0,1-11-1.81c-1.75-.56-3.47-1.2-5.17-1.89a9.59,9.59,0,0,1-4.09-2.58c-.61-.75-1.67.32-1.07,1.06Z" transform="translate(0 3.41)"/><path d="M1447.1,787.88c-3.63,1.88-8.19,1.8-12.18,1.78a71.5,71.5,0,0,1-12.82-1.07c-1.83-.34-4.11-.63-5.72-1.62s-2.52-3-3-4.78c-.08-.35-.38-1-.1-1.33s1.12-.06,1.32,0a4.12,4.12,0,0,1,2.26,1.5c1.21,1.52,1.44,3.61,1.7,5.47.13,1,1.58.55,1.45-.4-.44-3.17-1.31-7-4.84-8-1-.29-2.93-.36-3.44.8a3.79,3.79,0,0,0,.15,2.13,12.46,12.46,0,0,0,.93,2.56,7.48,7.48,0,0,0,3.13,3.51,21.78,21.78,0,0,0,5.73,1.59,73.38,73.38,0,0,0,12.73,1.12c4.42.05,9.4.1,13.43-2,.86-.44.1-1.74-.76-1.3Z" transform="translate(0 3.41)"/><path d="M1429.91,783.5a13.55,13.55,0,0,0-2.83,5.81.75.75,0,0,0,.52.92.74.74,0,0,0,.92-.52,12,12,0,0,1,2.45-5.14.78.78,0,0,0,0-1.07.76.76,0,0,0-1.06,0Z" transform="translate(0 3.41)"/><path class="cls-15" d="M1406.44,841.3l-5.88-11.15-13.4,7.89S1404.18,844.67,1406.44,841.3Z" transform="translate(0 3.41)"/><path class="cls-15" d="M1423.43,841.78,1419.54,830l-13.45,12S1417.53,846.33,1423.43,841.78Z" transform="translate(0 3.41)"/><path class="cls-15" d="M1435.89,841.71l-4-11-9.63,11.85S1432.06,843.49,1435.89,841.71Z" transform="translate(0 3.41)"/><path class="cls-15" d="M1435.1,841.63l3.63-8.54,9.3,7.15s-8.88,3.77-12.93,1.39" transform="translate(0 3.41)"/><path class="cls-15" d="M1455.64,839.2l-3.4-7.08-5.09,8.57S1453.1,841.09,1455.64,839.2Z" transform="translate(0 3.41)"/><path class="cls-8" d="M1582,392.43S1688,412,1675,383s-21.78-101.34-21.78-101.34-2.68-1.22,11.55-1.94c0,0,38,113.77,18.12,121.52,0,0-6.06,9.08-27,10.42s-25.52,4-85.22-6.82c0,0-.76.36-1.23-1.24" transform="translate(0 3.41)"/><path d="M1654,281.87c3.06-1.78,6.73-1.74,10.16-1.7a.75.75,0,0,0,0-1.5c-3.71-.05-7.61,0-10.91,1.91a.75.75,0,0,0,.75,1.29Z" transform="translate(0 3.41)"/><path class="cls-8" d="M1610.7,188.75l17.58,28s-18.83-7.55-19.3-9.39a19.11,19.11,0,0,1-.36-12.29C1610.5,188.5,1610.7,188.75,1610.7,188.75Z" transform="translate(0 3.41)"/><path d="M1615.22,216.57l3.15.06a19.49,19.49,0,0,1,3,.12c1,.18,1.83.54,2.81.67a7.76,7.76,0,0,1,.92.14s.51.15.32.06a2.26,2.26,0,0,1,.26.16c-.1-.08-.08-.05.06.07,1.34,1.39,3.46-.74,2.12-2.12a4.68,4.68,0,0,0-2.93-1.22,7.49,7.49,0,0,1-1.12-.18c-.49-.12-1-.31-1.44-.42a15.89,15.89,0,0,0-3.52-.27l-3.59-.07c-1.93,0-1.93,3,0,3Z" transform="translate(0 3.41)"/><path class="cls-8" d="M1593.58,186.32s-47.08-81.82-52.08-79.82c0,0-32-27-38-24s-21.32,2.92-27.66,10.46c0,0,7.56-16.21,19.61-18.34s22.38,5.27,22.38,5.27,17.87,9.28,30.27,22.94c0,0,1.92-1,5.66,3.83L1563,117l13.93,20.26,5.31,7.8,10.68,16.08,6.11,9.4,3,3.46.33,1.83Z" transform="translate(0 3.41)"/><path class="cls-8" d="M1616,162" transform="translate(0 3.41)"/><path class="cls-8" d="M1674.57,222.94s18.36-60.31,14.84-.31c0,0,18.32-56.15,14.59.44,0,0,17.07-53.07,11.52.89" transform="translate(0 3.41)"/><polygon class="cls-15" points="1689.33 203.69 1690.04 178.37 1682.31 205.64 1689.33 203.69"/><polygon class="cls-15" points="1698.18 204.91 1704 205.19 1703.81 175.01 1698.18 204.91"/><polygon class="cls-15" points="1711.52 207.21 1716.35 207.99 1720.1 175.67 1711.52 207.21"/><path class="cls-19" d="M1677.29,224.28a7,7,0,0,1,2.22-1.05,4.61,4.61,0,0,1,2.27-.06,12.29,12.29,0,0,1,4.6,2.48,1.51,1.51,0,0,0,2.06-.54,1.54,1.54,0,0,0-.54-2.05,13.75,13.75,0,0,0-5.66-2.86,8.92,8.92,0,0,0-6.47,1.49,1.53,1.53,0,0,0-.53,2.05,1.51,1.51,0,0,0,2,.54Z" transform="translate(0 3.41)"/><path class="cls-19" d="M1692.05,223.85a18,18,0,0,1,5-1.6,4.26,4.26,0,0,1,2.08.07,2.48,2.48,0,0,1,.67.43,5.27,5.27,0,0,1,.68.75,1.53,1.53,0,0,0,2,.53,1.51,1.51,0,0,0,.54-2.05,6.85,6.85,0,0,0-2.31-2.2,5.91,5.91,0,0,0-3.54-.56,20.55,20.55,0,0,0-6.71,2,1.51,1.51,0,0,0-.54,2.05,1.53,1.53,0,0,0,2,.54Z" transform="translate(0 3.41)"/><path class="cls-19" d="M1707,224.64a4.59,4.59,0,0,1,.37-.39l.23-.2c-.09.09-.15.11,0,0a4.34,4.34,0,0,1,.46-.28l.21-.11c.16-.09-.24.08,0,0l.52-.16.23-.05a1.13,1.13,0,0,1,.18,0l-.16,0a1.23,1.23,0,0,1,.54,0h.24c.13,0,.3-.06,0,0a2.58,2.58,0,0,1,1,.25c.17,0-.23-.12,0,0l.21.11q.23.12.45.27c.13.09.17.15,0,0l.18.15a4.31,4.31,0,0,1,.37.37c0,.06.23.28,0,0l.14.19a5,5,0,0,1,.29.5,1.5,1.5,0,1,0,2.59-1.51,6.28,6.28,0,0,0-4.58-3.29,6.34,6.34,0,0,0-5.66,2,1.5,1.5,0,1,0,2.12,2.12Z" transform="translate(0 3.41)"/><path class="cls-19" d="M1594.88,166.89c.8,1.31,2.16,2.14,3.14,3.31l.08.1.08.11c.1.15.2.29.29.44s.18.3.26.46a2.59,2.59,0,0,1,.14.29c-.06-.13,0-.12,0,0a7.21,7.21,0,0,1,.28,1c0-.21,0-.08,0,.06a2.26,2.26,0,0,1,0,.26v.26c0,.07,0,.37,0,.06a1.5,1.5,0,0,0,2.9.79,7,7,0,0,0-1.35-5.26,14.61,14.61,0,0,0-1.75-1.94l-.86-.77c-.14-.13-.28-.26-.41-.4l-.16-.19c.21.25,0-.07,0-.11a1.5,1.5,0,1,0-2.59,1.51Z" transform="translate(0 3.41)"/><path class="cls-19" d="M1586.72,155.92a13.17,13.17,0,0,1,2,1.57c.32.31.64.63.93,1l.46.54.13.16.17.22a15.12,15.12,0,0,1,1.4,2.31,3.39,3.39,0,0,1,.3,2.14,1.5,1.5,0,1,0,2.89.8c.65-2.38-.55-4.75-1.91-6.64a18.42,18.42,0,0,0-4.83-4.65,1.51,1.51,0,0,0-2,.54,1.53,1.53,0,0,0,.54,2Z" transform="translate(0 3.41)"/><path class="cls-19" d="M1579.82,144.89l.32.11c.21.08-.17-.1,0,0s.36.19.53.29l.56.38c-.13-.09-.08-.06,0,0l.26.23a20.43,20.43,0,0,1,1.76,1.84c.29.34.59.68.86,1-.1-.12,0,0,0,.06l.22.31c.13.19.24.39.35.59,0,0,.17.37.12.23s.08.24.07.23.06.19.08.28.07.41,0,.23,0,.14,0,.16,0,.24,0,.36c0-.16,0-.09,0,0a3.31,3.31,0,0,1-.14.41,1.51,1.51,0,0,0,1,1.84,1.54,1.54,0,0,0,1.85-1c1-2.5-.69-4.83-2.23-6.63a11.62,11.62,0,0,0-5-3.86,1.52,1.52,0,0,0-1.84,1,1.54,1.54,0,0,0,1,1.85Z" transform="translate(0 3.41)"/><text class="cls-20" transform="translate(257.13 713.96) rotate(-25.8)"><tspan class="cls-21">T</tspan><tspan x="46.25" y="0">il</tspan><tspan class="cls-22" x="137.26" y="0">l</tspan><tspan x="184.86" y="0">ykke du har vundet!</tspan></text><path d="M1694.5,614.8" transform="translate(0 3.41)"/></g><g id="Bord"><path class="cls-23" d="M1658.38,663.41l6.59-57.9s10.7-5.37,10.62.28-3.47,58.35-3.47,58.35S1665.6,676.62,1658.38,663.41Z" transform="translate(0 3.41)"/><path class="cls-23" d="M1635.37,719l7.82-68.79s12.72-6.38,12.62.34-4.13,69.32-4.13,69.32S1643.94,734.7,1635.37,719Z" transform="translate(0 3.41)"/><path class="cls-23" d="M1749.9,731.29l7.82-68.78s12.72-6.39,12.62.33-4.13,69.32-4.13,69.32S1758.47,747,1749.9,731.29Z" transform="translate(0 3.41)"/><path class="cls-23" d="M1770.51,676.59l6.59-57.9s10.7-5.37,10.62.28-3.47,58.35-3.47,58.35S1777.73,689.8,1770.51,676.59Z" transform="translate(0 3.41)"/><ellipse class="cls-23" cx="1716.5" cy="637.91" rx="81.5" ry="39.5"/></g><g id="Glastop"><g class="cls-24"><ellipse class="cls-25" cx="1706.58" cy="570.16" rx="26.5" ry="11.63"/></g></g><g id="sugerør"><path class="cls-26" d="M1708.08,642.75s2,3,4,0,27-96,27-96,22-6,24,0c0,0,2,3,5-1s-11-8-11-8-27,0-26,7Z" transform="translate(0 3.41)"/><path d="M1767.42,542.51a4.79,4.79,0,0,0-3.74.42,2.51,2.51,0,0,0-.86,3.27c.22.43.87,0,.65-.38a1.85,1.85,0,0,1-.12-1.29,1.64,1.64,0,0,1,.89-1,4.05,4.05,0,0,1,3-.25.37.37,0,0,0,.2-.72Z" transform="translate(0 3.41)"/><path d="M1737.73,540.36a6.86,6.86,0,0,1,2.56,5.77c0,.48.7.48.75,0a7.56,7.56,0,0,0-2.78-6.3c-.36-.32-.89.2-.53.53Z" transform="translate(0 3.41)"/><path d="M1740.49,539.78a8.46,8.46,0,0,1,1.45,5.83c0,.48.72.48.75,0a9.18,9.18,0,0,0-1.67-6.36c-.3-.38-.83.16-.53.53Z" transform="translate(0 3.41)"/><path d="M1742.28,539.09a6.18,6.18,0,0,0,.73,1.21,3.16,3.16,0,0,1,.32,1.36c.08,1.11.08,2.23.12,3.34a.38.38,0,0,0,.75,0c0-1.14,0-2.3-.12-3.44a4.57,4.57,0,0,0-.31-1.42c-.2-.45-.63-.78-.77-1.25a.37.37,0,0,0-.72.2Z" transform="translate(0 3.41)"/><path d="M1744.73,539.08a6,6,0,0,1,.83,2.47,26.26,26.26,0,0,1,.23,3c0,.48.77.48.75,0a30.17,30.17,0,0,0-.26-3.15,6.52,6.52,0,0,0-.9-2.65c-.27-.4-.92,0-.65.38Z" transform="translate(0 3.41)"/><path d="M1747.12,538.88c.11.46.3.89.42,1.35a5.11,5.11,0,0,1,.12,1.35,11.32,11.32,0,0,0,.08,2.73c.1.47.83.27.72-.2a12.37,12.37,0,0,1,0-2.72,5.16,5.16,0,0,0-.15-1.36c-.12-.46-.31-.89-.42-1.35a.37.37,0,0,0-.72.2Z" transform="translate(0 3.41)"/><path d="M1749.38,538.81a6.86,6.86,0,0,1,.47,5.09.37.37,0,0,0,.72.2,7.64,7.64,0,0,0-.54-5.67c-.22-.43-.87,0-.65.38Z" transform="translate(0 3.41)"/><path d="M1751.48,538.62a4.21,4.21,0,0,1,.91,2.37c0,.45,0,.9,0,1.35a3.17,3.17,0,0,1-.24,1.3c-.2.44.44.82.65.38a3.8,3.8,0,0,0,.33-1.48,13,13,0,0,0,0-1.65,5.06,5.06,0,0,0-1.13-2.8c-.3-.37-.83.16-.53.53Z" transform="translate(0 3.41)"/><path d="M1753.86,538.56a8.6,8.6,0,0,1,.81,4.66c0,.49.72.48.75,0a9.32,9.32,0,0,0-.91-5c-.24-.42-.88,0-.65.38Z" transform="translate(0 3.41)"/><path d="M1756.42,538.32a8.76,8.76,0,0,1,0,5c-.16.46.56.65.73.2a9.53,9.53,0,0,0,0-5.37c-.1-.47-.83-.27-.72.2Z" transform="translate(0 3.41)"/></g><g id="glas"><g class="cls-24"><ellipse class="cls-25" cx="1707.5" cy="640.41" rx="20.5" ry="9"/></g><path class="cls-27" d="M1679.79,567.72l6.09,70.44s2.17,2.89,3.17,2.89,7,4,7,3,8,1,8,1l10-1,7-2s5.78-3.11,5.39-4.55,6.11-71.31,6.11-71.31-.7-6.4-11.5-9.14c-14.24-3.61-39.7-2.6-41.26,10.67" transform="translate(0 3.41)"/></g></svg>