<svg id="Layer_1" data-name="Layer 1" xmlns="http://www.w3.org/2000/svg" viewBox="0 0 1920 1080"><defs><style>.cls-1{fill:#98c8de;}.cls-2{fill:#e5b58c;}.cls-3{fill:#36ffff;}.cls-4{fill:#6ee962;}.cls-5{fill:#c69c6d;}.cls-6{fill:#ad7c52;}</style></defs><rect class="cls-1" width="1920" height="554.05"/><rect class="cls-2" y="549.05" width="1920" height="530.95"/><path class="cls-3" d="M1387,794.5h8a1.5,1.5,0,0,0,0-3h-8a1.5,1.5,0,0,0,0,3Z"/><path class="cls-3" d="M1386.62,799.62a195.26,195.26,0,0,0,32.45,3.17,81.49,81.49,0,0,0,16.06-1.07,33,33,0,0,0,7.81-2.68,12.55,12.55,0,0,0,7.68-10.62c.49-7.15-5.78-12.06-11.36-15.18a54.22,54.22,0,0,0-14.13-5.42c-10.36-2.39-21-2.14-31.52-1.62a26.62,26.62,0,0,0-8.14,1.26c-4.4,1.65-7.89,4.68-9.26,9.32-2.36,8,3.38,15.87,9.81,20l-1.82-14.13-.27.21,1.82-1.4a3.25,3.25,0,0,1-.57.33l2.15-.91a4.18,4.18,0,0,1-.92.25l2.39-.32a5.35,5.35,0,0,1-1,0l2.39.33a6.92,6.92,0,0,1-1.33-.37l2.15.91a9.82,9.82,0,0,1-1.91-1.11l1.82,1.41a11.56,11.56,0,0,1-1.83-1.87l1.4,1.82a11.87,11.87,0,0,1-1.24-2.09l.91,2.15a8.64,8.64,0,0,1-.45-1.5l.32,2.39a6,6,0,0,1,0-1.52l-.33,2.39a5.26,5.26,0,0,1,.21-.75l-.91,2.15a7.29,7.29,0,0,1,.54-1l-1.4,1.83a6.37,6.37,0,0,1,1-1.09l-1.83,1.4a9.66,9.66,0,0,1,1.67-1l-2.15.9a10.94,10.94,0,0,1,2.25-.65l-2.39.32a12.93,12.93,0,0,1,3.17,0l-2.39-.32a17,17,0,0,1,3.9,1l-2.15-.91c3.85,1.64,7,4.38,10.68,6.41a61.61,61.61,0,0,0,13.22,5.33c8.57,2.43,17.45,4,26.16,5.81a9.58,9.58,0,0,0,6.94-.91,9.18,9.18,0,0,0,4.13-5.38c1-4.52-1.36-10-6.28-11.07q-8.64-1.83-17.29-3.68a90.38,90.38,0,0,1-15.57-4.43l2.15.91a63.73,63.73,0,0,1-10-5.73,33.43,33.43,0,0,0-4.85-2.72,27.62,27.62,0,0,0-8.83-2.38,17.07,17.07,0,0,0-15.71,7.24c-4,6-1.52,13.41,2.86,18.38a16.93,16.93,0,0,0,7.87,4.9,14,14,0,0,0,6.43.15,12.85,12.85,0,0,0,5.73-3.12c2.16-1.77,2.83-5,2.48-7.56a9,9,0,0,0-4.3-6.57c-.44-.29-.87-.58-1.28-.9l1.82,1.4a15.85,15.85,0,0,1-2.48-2.5l1.4,1.82a14.15,14.15,0,0,1-1.45-2.38l.91,2.15a9.21,9.21,0,0,1-.57-1.92l.32,2.39a6.7,6.7,0,0,1,0-1.55l-.32,2.39a6.26,6.26,0,0,1,.33-1.12l-.91,2.15a6.83,6.83,0,0,1,.49-.82l-1.4,1.82a6.1,6.1,0,0,1,.88-.88l-1.82,1.41a8.24,8.24,0,0,1,1.39-.78l-2.15.91a12.65,12.65,0,0,1,3-.73l-2.39.32a119.13,119.13,0,0,1,12.81-.58,95.25,95.25,0,0,1,13.61.68l-2.4-.32a54.19,54.19,0,0,1,13.26,3.45l-2.15-.9a39.26,39.26,0,0,1,8.49,4.85l-1.82-1.4a10.17,10.17,0,0,1,1.66,1.62l-1.41-1.83a7.09,7.09,0,0,1,.77,1.29l-.91-2.15a3.22,3.22,0,0,1,.2.67l-.32-2.39a3.49,3.49,0,0,1,0,1l.32-2.39-.09.33.91-2.15a2.36,2.36,0,0,1-.33.63l1.4-1.82a4.71,4.71,0,0,1-.74.74l1.82-1.41a15.29,15.29,0,0,1-2.83,1.49l2.15-.9a28.17,28.17,0,0,1-6.58,1.69l2.39-.32a99.67,99.67,0,0,1-16.39.38c-5.82-.2-11.62-.7-17.38-1.46l2.39.32q-4.14-.56-8.25-1.29a9.68,9.68,0,0,0-6.94.91,9,9,0,0,0-3.23,12.31c1.21,1.87,3.11,3.73,5.38,4.14Z"/><path class="cls-4" d="M1321,789.4c2.41-1.78,4.9-3.69,6.42-6.34a10.06,10.06,0,0,0,1.29-4.27c.09-1.15-.11-2.64.75-3.43,1.42-1.31-.71-3.43-2.12-2.12-2.24,2.06-1,5.28-2.23,7.78s-3.49,4.21-5.63,5.79a1.53,1.53,0,0,0-.53,2.05,1.49,1.49,0,0,0,2,.54Z"/><path class="cls-4" d="M1318,786.92c1.2,2,4.08,1.13,4.91-.75a4.32,4.32,0,0,0-.1-3.31c-.16-.44-.34-.86-.46-1.31a3,3,0,0,1-.08-.32c-.07-.27,0,.22,0,0a.72.72,0,0,0,0-.25s-.08.31,0,.19a1,1,0,0,0,0-.17c.07-.31-.12.19,0,0a2.43,2.43,0,0,0,.15-.26c0-.13-.09.12-.11.13a.69.69,0,0,0,.11-.13s.3-.26.09-.1.08,0,.11,0-.33.14-.19.09.24,0,0,0-.12,0-.06,0-.17,0-.19,0,.18.06-.05,0-.14-.06-.08,0,0,0-.14-.13a1.61,1.61,0,0,0,1.06.44,1.5,1.5,0,0,0,1.06-2.56,2.52,2.52,0,0,0-2.26-.59,3,3,0,0,0-1.55,1,3.82,3.82,0,0,0-.87,1.74,4.49,4.49,0,0,0,.2,2.12c.18.55.42,1.07.58,1.62,0,.14.07.28.1.42s0,.14,0-.08c0,.07,0,.14,0,.22V785c0-.27,0-.33,0-.17-.12.37.15-.22,0,0a2.26,2.26,0,0,0-.16.26q.24-.3.09-.12a1.14,1.14,0,0,0-.11.11c-.29.26.21-.11,0,0l-.13.08c-.14.07-.09,0,.16-.06a1.34,1.34,0,0,0-.27.07q.43,0,.21,0t.21,0c-.34-.07.27.15.07,0,.22.18.27.21.16.11.16.21.2.26.12.12a1.51,1.51,0,0,0-2.6,1.52Z"/><path class="cls-4" d="M1298.3,770.42a12.82,12.82,0,0,0-.62-12.21,1.5,1.5,0,0,0-2.59,1.51,8.62,8.62,0,0,1,1,2.25,8.91,8.91,0,0,1,.42,2.27,10.14,10.14,0,0,1,0,1.35c0,.17,0,.34,0,.51s0,.22,0,.11l-.06.33a10.65,10.65,0,0,1-.73,2.37,1.53,1.53,0,0,0,.54,2.05,1.51,1.51,0,0,0,2-.54Z"/><path class="cls-4" d="M1300.53,769.42l1.33-6a1.5,1.5,0,1,0-2.89-.8l-1.33,6a1.5,1.5,0,1,0,2.89.8Z"/><path class="cls-4" d="M1300.3,769.8c-2.24,1.25-1.5,4.39.43,5.54,2.48,1.49,5-.66,6.58-2.47h-2.13l1.49,1.75a1.51,1.51,0,0,0,2.12,0,12.93,12.93,0,0,0,2.62-5.15,1.5,1.5,0,0,0-2.89-.8l-.93,2.39a1.51,1.51,0,0,0,1.05,1.85c3.38.89,3.88,5.62,4.06,8.57l2.79-.76-3.34-4.61c-.59-.82-2.08-1.13-2.59,0l-3.14,6.81H1309l-1.73-4c-.55-1.26-2.4-.76-2.75.36l-.76,2.45h2.89a10.36,10.36,0,0,0-8.07-7.83,1.51,1.51,0,0,0-1.46.38,4,4,0,0,0-.27,4.93,1.53,1.53,0,0,0,2.59,0,1.22,1.22,0,0,1,1-.33,1.1,1.1,0,0,1,1,.79,1.52,1.52,0,0,0,2,.53l4.38-2.13a1.5,1.5,0,1,0-1.51-2.59l-4.39,2.13,2.06.54c-1.28-2.93-5.56-2.89-7.26-.46h2.59c-.24-.33-.51-.88-.2-1.28l-1.46.38a7.46,7.46,0,0,1,6,5.74,1.51,1.51,0,0,0,2.89,0l.77-2.46-2.74.36,1.73,4a1.5,1.5,0,0,0,2.59,0l3.14-6.81h-2.59l3.34,4.62a1.57,1.57,0,0,0,1.69.69,1.53,1.53,0,0,0,1.11-1.45c-.27-4.37-1.33-10.16-6.27-11.46l1,1.84.93-2.39-2.89-.8a9.62,9.62,0,0,1-1.85,3.83h2.12l-1.48-1.75a1.52,1.52,0,0,0-2.13,0c-.63.74-1.76,2.2-2.79,2.08-.14,0-.32-.17-.46-.48.08.16-.17-.42,0-.17s0,0,0,0-.42.38-.09.2a1.5,1.5,0,0,0-1.51-2.59Z"/><path class="cls-4" d="M1309.38,773.27a9.1,9.1,0,0,0-1.21,3.27c-.06.25-.12.5-.19.74l-.12.38-.06.16c0,.18.15-.31,0-.08s-.11.23-.18.34-.24.35-.09.15,0,0,0,0l-.11.12c-.05,0-.25.2,0,.05s0,0-.06,0l2.2.9-.9-2.41-.47-1.27a3.42,3.42,0,0,0-.74-1.36,1.93,1.93,0,0,0-1.88-.5,2.62,2.62,0,0,0-1.35,1.21l-1.38,2.21,1.69-.69a1,1,0,0,1,.69.88,1.5,1.5,0,1,0-3,0,2.06,2.06,0,0,0,1.51,2,1.53,1.53,0,0,0,1.7-.69l1.06-1.69.29-.46c.06-.09.11-.25.2-.31-.28.45-.76.56-1.44.31-.35-.4-.45-.49-.31-.27s.07.11,0-.11l.07.19,1.4,3.75a1.53,1.53,0,0,0,.87,1,1.46,1.46,0,0,0,1.33-.08,5.33,5.33,0,0,0,2.15-3.37c.14-.55.25-1.1.41-1.65a2.91,2.91,0,0,1,.12-.39l.07-.21c.07-.19,0,.07,0,.11a2.05,2.05,0,0,0,.2-.39c.07-.13.16-.25.24-.37a1.52,1.52,0,0,0-.54-2.06,1.54,1.54,0,0,0-2,.54Z"/><path class="cls-4" d="M1298.07,780c-.25,1.42-.57,2.83-.94,4.23a1.51,1.51,0,0,0,2.74,1.16,12.66,12.66,0,0,1,1-1.58c.16-.21.33-.42.51-.62l.32-.35c.38-.33.15-.33-.67,0l-.67-.39.08.09a1.51,1.51,0,0,0,2.51-.66,4.69,4.69,0,0,0,0-3.05,2.77,2.77,0,0,0-2-1.73,1.51,1.51,0,0,0-1.84,1l-1,5.94a1.51,1.51,0,0,0,2.2,1.7,13.27,13.27,0,0,0,3.88-3.91l-2.8-.75a19,19,0,0,0,.22,3.37c.18,1.19,1.77,1.34,2.51.66l1-.94h-2.13a3.69,3.69,0,0,1,.77,1.87,1.51,1.51,0,0,0,2.51.66,5.13,5.13,0,0,0,1.17-2.16l-2.74.35a6,6,0,0,0,1.16,1.35,1.53,1.53,0,0,0,2.12,0,7,7,0,0,0,1.83-3.1l-1.85,1.05a1.6,1.6,0,0,1,.1.29c.34,1.65,3,1.28,2.95-.4a5.23,5.23,0,0,1,.24-1.89l-2.21.89.65.34a1.52,1.52,0,0,0,2.06-.54,7.63,7.63,0,0,1,1.05-1.64l-2.5-.66c.13.33.2.72.35,1,0,.09-.06.13,0,.14s.55-.22.09-.12a1.5,1.5,0,1,0,.8,2.89,2.71,2.71,0,0,0,2-1.85,4.25,4.25,0,0,0-.29-2.89,1.52,1.52,0,0,0-2.51-.66,10.35,10.35,0,0,0-1.52,2.25l2-.54-.65-.34a1.52,1.52,0,0,0-2.2.9,7.91,7.91,0,0,0-.35,2.69l2.94-.4a3.25,3.25,0,0,0-2.19-2.39,1.52,1.52,0,0,0-1.85,1.05,3.9,3.9,0,0,1-1,1.78h2.12a3.72,3.72,0,0,1-.69-.74,1.52,1.52,0,0,0-2.74.36,1.79,1.79,0,0,1-.41.84l2.51.66a6.51,6.51,0,0,0-1.53-3.19,1.53,1.53,0,0,0-2.13,0l-1,.94,2.5.66a14.7,14.7,0,0,1-.11-2.57,1.51,1.51,0,0,0-2.79-.76,9.6,9.6,0,0,1-2.81,2.83l2.21,1.69,1-5.94-1.85,1.05c.53.1-.15-.12,0-.14s.08.21.08.14a5.15,5.15,0,0,1-.17,1.09l2.5-.66c-1-1.17-2.44-.32-3.22.55a17.47,17.47,0,0,0-2.1,2.89L1300,785c.38-1.4.69-2.81.94-4.24a1.5,1.5,0,1,0-2.89-.79Z"/><path class="cls-4" d="M1309.21,774.49a11.44,11.44,0,0,1-1.8.58.8.8,0,0,1-.21,0s.41,0,.19,0,.3.08.15,0-.17.15.39.73c.41.26.53.53.38.82-.06.13-.06.13,0,0l0-.07s-.24.24-.07.1.24-.22,0-.06,0,0,.07,0l-1.51-2.59c-.58.36-1.17.69-1.77,1-.29.16-.58.32-.88.47l-.44.23-.19.11-.15.07c-.21.11,0,.08.5-.11l1.06.44,0,0,.38.66a5.58,5.58,0,0,1-.1-.59,1.5,1.5,0,1,0-2.89.8,2.62,2.62,0,0,0,.25.95,1.6,1.6,0,0,0,1.38.79,4.68,4.68,0,0,0,1.85-.77c.86-.46,1.71-.93,2.54-1.44a1.5,1.5,0,1,0-1.51-2.59,3,3,0,0,0-1.42,1.65,1.83,1.83,0,0,0,1.23,2.31,3.55,3.55,0,0,0,1.8-.12,13.24,13.24,0,0,0,1.5-.51,1.63,1.63,0,0,0,.9-.69,1.54,1.54,0,0,0,.15-1.15,1.49,1.49,0,0,0-.69-.9,1.43,1.43,0,0,0-1.16-.15Z"/><path class="cls-4" d="M1323.25,732.28a14.12,14.12,0,0,0,4.31-7.71,1.5,1.5,0,0,0-2.89-.79,74.86,74.86,0,0,0-2.65,8.8,1.52,1.52,0,0,0,1.44,1.9,4.09,4.09,0,0,0,3.69-2.61c.46-1,.58-2.81,1.57-3.43l-1.81-.24c.66.8.23,2.15-.34,2.87a8.16,8.16,0,0,1-3.79,2.2l1.9,1.45c-.2-2-.46-4-1.76-5.59a4.78,4.78,0,0,0-4.63-1.6,3.54,3.54,0,0,0-2.12,1.44,5.49,5.49,0,0,0-.51,1,8.33,8.33,0,0,0-.39.89c-.07-.2.43-.12.45-.13.22-.12.14.1,0-.19l-.76-1.18-1.89-3c-.62-1-2.54-1-2.74.36-.42,2.79-.47,6.36,2.66,7.63a4.78,4.78,0,0,0,4.07-.52c.32-.17,1.78-1,2-.64.74,1.18,2.91.81,2.79-.76a17.92,17.92,0,0,0-5-11.17,1.51,1.51,0,0,0-2.51,1.46l.71,2.94,2.2-1.7-1.55-1.2a1.53,1.53,0,0,0-2.06.54,5.9,5.9,0,0,0-.54,4.06c.4,1.89,3.3,1.09,2.9-.8a2.56,2.56,0,0,1,.23-1.74l-2,.53,1.56,1.2c1.11.86,2.48-.55,2.2-1.69l-.71-2.94-2.5,1.46a14.72,14.72,0,0,1,4.11,9.05l2.8-.75a3.25,3.25,0,0,0-2.93-1.52,7.26,7.26,0,0,0-3.2,1.08c-.79.4-1.46.62-2-.18-.71-1-.44-2.44-.28-3.55l-2.74.36,1.72,2.74a10,10,0,0,0,1.73,2.38,2.57,2.57,0,0,0,2.79.46,3.26,3.26,0,0,0,1.58-1.94c.41-1,.74-1.47,1.83-.91,1.35.68,1.46,2.79,1.59,4.09a1.53,1.53,0,0,0,1.9,1.45c2.19-.78,4.47-1.79,5.75-3.84a5.3,5.3,0,0,0-.3-6.25,1.51,1.51,0,0,0-1.82-.23,5.76,5.76,0,0,0-2.29,3.39c-.22.67-.53,2.28-1.46,2.24l1.45,1.9a75,75,0,0,1,2.65-8.81l-2.89-.79a11.47,11.47,0,0,1-3.54,6.38c-1.42,1.31.7,3.42,2.12,2.12Z"/><path class="cls-4" d="M1315.61,727.14a10.81,10.81,0,0,1-1.06,1.68l.23-.3a6,6,0,0,1-.86,1l.3-.24a1.53,1.53,0,0,1-.3.19l.36-.15a1.29,1.29,0,0,1-.28.08l.4-.06h-.17l.4.06a.83.83,0,0,1-.21-.06l.36.15a.92.92,0,0,1-.24-.13l.3.23a1.31,1.31,0,0,1-.23-.24l.23.31a2,2,0,0,1-.17-.32l.15.36a4,4,0,0,1-.21-.83,1.5,1.5,0,0,0-2.74-.36,1.72,1.72,0,0,0-.15,1.16,3.31,3.31,0,0,0,1,2,2.47,2.47,0,0,0,1.56.64,2.55,2.55,0,0,0,1.39-.42,7.78,7.78,0,0,0,1.59-1.7,10,10,0,0,0,.94-1.53,1.59,1.59,0,0,0,.15-1.15,1.5,1.5,0,0,0-2.74-.36Z"/><path class="cls-4" d="M1309,716.21a23.52,23.52,0,0,0-2.9,3.7,1.5,1.5,0,0,0,1.7,2.2l.36-.15a1.55,1.55,0,0,0,.54-.54A9.54,9.54,0,0,0,1310,719a1.56,1.56,0,0,0-.15-1.16,1.51,1.51,0,0,0-2.06-.54,1.62,1.62,0,0,0-.68.9l-.18.45.15-.36a8,8,0,0,1-1,1.67l2.6,1.51c.36-.57.75-1.13,1.16-1.67l-.23.31a22.27,22.27,0,0,1,1.49-1.73,1.54,1.54,0,0,0,.44-1.06,1.5,1.5,0,0,0-1.5-1.5,1.56,1.56,0,0,0-1.06.44Z"/><path class="cls-4" d="M1308.92,718.39a8.25,8.25,0,0,1-1.06-1.81l.15.36c-.06-.15-.12-.29-.17-.44a1.51,1.51,0,0,0-1.65-1.07,1.42,1.42,0,0,0-.86.41,1.77,1.77,0,0,0-.44,1.06,36.72,36.72,0,0,0-.19,4.45,1.52,1.52,0,0,0,1.5,1.5l.25,0a1.58,1.58,0,0,0,1.06-.44,1.5,1.5,0,0,0-1.06-2.56l-.25,0,1.5,1.5a36.72,36.72,0,0,1,.19-4.45l-2.94.4a9.29,9.29,0,0,0,1.38,2.6,1.65,1.65,0,0,0,.89.69,1.5,1.5,0,0,0,1.85-1.05,1.45,1.45,0,0,0-.15-1.15Z"/><path class="cls-4" d="M1308,718.83l-.88,2.22a1.22,1.22,0,0,0,0,.6,1.16,1.16,0,0,0,.18.56,1.51,1.51,0,0,0,2,.53l.31-.23a1.57,1.57,0,0,0,.38-.66l.89-2.23a1.08,1.08,0,0,0,0-.59,1.11,1.11,0,0,0-.17-.56,1.55,1.55,0,0,0-.9-.69,1.52,1.52,0,0,0-1.16.15l-.3.23a1.56,1.56,0,0,0-.39.67Z"/><path class="cls-4" d="M1332.11,691.23l-.47.1a1.08,1.08,0,0,1,0,.4c-.12.31-.17.69-.28,1l2.9.8a33.33,33.33,0,0,0,.73-5.81l-2.79.76a4.6,4.6,0,0,1,.45,2.8,1.51,1.51,0,0,0,1.9,1.45,3.47,3.47,0,0,0,2.6-3.22l-3,.4a4.4,4.4,0,0,1,.2,2.07c-.17,1.37,1.7,1.86,2.56,1.06-.22.2,0,1.24,0,1.63,0,1.22,1.71,2.1,2.56,1.06l2.88-3.5-2.35-.31a2.76,2.76,0,0,0,3.11,1.42,2.72,2.72,0,0,0,1.49-1.06,2.25,2.25,0,0,0,.47-.82l.15-.28a1.46,1.46,0,0,0-.91-.42,1.52,1.52,0,0,0,2.74-.36,22.13,22.13,0,0,0,.65-10.81,1.52,1.52,0,0,0-2.2-.9,8.41,8.41,0,0,0-3.56,3l2.8.75-.38-4.07a1.52,1.52,0,0,0-2.25-1.3,14.8,14.8,0,0,0-3.57,2.83l2.51.66a6.56,6.56,0,0,1-.2-1c-.14-1.15-1.62-2.16-2.56-1.06.76-.89.23.14.58-.08s.49-.83.66-1h-2.12a4.79,4.79,0,0,0,1.38,1.11,1.51,1.51,0,0,0,2.05-.54,13.86,13.86,0,0,1,5.31-5.66l-2.21-.9a22.8,22.8,0,0,1-.06,8c-.29,1.59,1.86,2.72,2.74,1.15.24-.41.86-1.67,1.48-1.51a1.49,1.49,0,0,0,1.69-.69l1.8-4.23a1.51,1.51,0,0,0-2.35-1.82,13.43,13.43,0,0,0-2.63,3.09,1.51,1.51,0,0,0,2.36,1.82l4.5-4.87-2.35-.3a1.46,1.46,0,0,1,.26.9,1.51,1.51,0,0,0,2.26,1.29l3.48-2-2.25-1.29-.29,2.27a1.5,1.5,0,0,0,2.25,1.3l1.08-.81-2.2-.9c.24.62-.78.94-1.24,1.15a9,9,0,0,0-1.9,1.12,14.52,14.52,0,0,0-2.78,3.36l2.75.36c-.38-1.73-1.35-3.8-3.35-4a3.9,3.9,0,0,0-2.89,1.2c-1,.86-2,1.76-3,2.63l2.5.67-1.56-3.82a1.53,1.53,0,0,0-2.21-.9,4.84,4.84,0,0,0-2,2.48,1.51,1.51,0,0,0,1.84,1.85,7.73,7.73,0,0,0,2.26-1.43,6.25,6.25,0,0,1,.85-.69,1.44,1.44,0,0,1,.53-.21q.38,0,.12,0c.35.31.41,1.2.71,1.62a2.63,2.63,0,0,0,2.19,1.12c1.78,0,3.53-1.57,5-2.46s2.67-2.32,1.53-4.08a1.51,1.51,0,0,0-2.35-.3,11,11,0,0,0-2.7,3.86c-.34.82-.89,4.11-2.25,3.92l.36,2.74,3-2.27-2-2.05-1.31,2.91c-.63,1.42,1.17,3.23,2.36,1.82a18.52,18.52,0,0,1,2.45-2.4l-2.35-.3.9,1.17a1.53,1.53,0,0,0,2.36.31,10.27,10.27,0,0,0,1.74-2.41l-2.74-.36a6.88,6.88,0,0,1,.16,2.17h3a6.11,6.11,0,0,1,.92-3.61l-2.59-1.52a68,68,0,0,1-4.51,8.08l2.06-.54a7.61,7.61,0,0,1-1.56-1.38,1.51,1.51,0,0,0-1.82-.24,7.17,7.17,0,0,0-2.76,3.48c-.62,1.57,1.49,2.26,2.5,1.46l3.22-2.53-2.51-.66a2.36,2.36,0,0,0,1.22,1.68,4.44,4.44,0,0,0,1,.4,2.47,2.47,0,0,0,.47.11c.4.21.5,0,.29-.53-.28,1.89,2.61,2.71,2.89.8a2.39,2.39,0,0,0-.83-2.41,6.66,6.66,0,0,0-2.1-.85c-.19-1.24-1.73-1.27-2.51-.66l-3.21,2.53,2.51,1.46a3.71,3.71,0,0,1,1.39-1.69l-1.82-.23a10.9,10.9,0,0,0,2.16,1.85,1.54,1.54,0,0,0,2.06-.54,69.18,69.18,0,0,0,4.5-8.07,1.5,1.5,0,0,0-2.59-1.52,8.91,8.91,0,0,0-1.33,5.13,1.5,1.5,0,0,0,3,0,9.91,9.91,0,0,0-.26-3,1.53,1.53,0,0,0-2.75-.36,6.94,6.94,0,0,1-1.28,1.8l2.36.31-.9-1.18a1.54,1.54,0,0,0-2.36-.3,17.37,17.37,0,0,0-2.45,2.4l2.35,1.82,1.31-2.91c.53-1.19-.71-3.07-2.05-2.06l-3,2.27c-.88.66-1.08,2.54.36,2.74a4.47,4.47,0,0,0,4.82-2.9c.45-1,.66-2.11,1.13-3.11a8.09,8.09,0,0,1,1.91-2.54l-2.36-.31c0-.3-.06-.34-.26-.14l-.4.24-1,.61c-.64.39-1.33.74-1.94,1.17-.42.06-.49.13-.24.22s.19.08.07-.12a1.82,1.82,0,0,0-.2-.58,3.28,3.28,0,0,0-1-1.49,3.33,3.33,0,0,0-3.19-.33c-1.27.45-2,1.69-3.18,2.17l1.84,1.85a1.41,1.41,0,0,1,.65-.69l-2.21-.9,1.57,3.82a1.52,1.52,0,0,0,2.51.66l1.52-1.31a10.47,10.47,0,0,1,1.69-1.45c.4-.18.29-.33.6.18a4.73,4.73,0,0,1,.46,1.42,1.52,1.52,0,0,0,2.74.36,13.38,13.38,0,0,1,1.72-2.23,10,10,0,0,1,2.44-1.44c1.52-.82,2.76-2.49,2.06-4.28-.31-.8-1.35-1.53-2.2-.89l-1.08.81,2.26,1.29.29-2.27c.14-1.17-1.37-1.82-2.26-1.3l-3.49,2.05,2.26,1.3a4.67,4.67,0,0,0-.67-2.42,1.52,1.52,0,0,0-2.36-.3l-4.5,4.87,2.35,1.82a10.73,10.73,0,0,1,2.16-2.49l-2.36-1.82-1.8,4.24,1.69-.69c-2.22-.6-3.85,1.1-4.86,2.89l2.75,1.15a27.22,27.22,0,0,0,.06-9.61,1.51,1.51,0,0,0-2.21-.9,16.7,16.7,0,0,0-6.38,6.74l2-.54a2.49,2.49,0,0,1-.77-.64,1.51,1.51,0,0,0-2.12,0c-1.15,1.42-2.3,3.39-.94,5.07a2.59,2.59,0,0,0,3.94.3l-2.56-1.06a15.08,15.08,0,0,0,.31,1.76,1.52,1.52,0,0,0,2.51.66,12,12,0,0,1,3-2.36l-2.26-1.29.38,4.07a1.51,1.51,0,0,0,2.79.76,5.69,5.69,0,0,1,2.48-1.94l-2.2-.9a19,19,0,0,1-.65,9.23l2.74-.36a2.23,2.23,0,0,0-3-.83,2.73,2.73,0,0,0-1.22,1.11,2.19,2.19,0,0,0-.37.71l-.15.28c.22.07.35,0,.4-.11a1.51,1.51,0,0,0-2.36-.3l-2.88,3.5,2.56,1.06c0-1.44-.16-3-1.4-3.93a2.83,2.83,0,0,0-3.73.18l2.56,1.06a6.49,6.49,0,0,0-.3-2.87,1.51,1.51,0,0,0-2.95.4c0,.22-.22.28-.4.33l1.9,1.44a7.41,7.41,0,0,0-.86-4.31c-.72-1.39-2.75-.66-2.8.75a28.14,28.14,0,0,1-.63,5,1.51,1.51,0,0,0,2.9.8c.48-1.5.7-3.25-.59-4.42a2.67,2.67,0,0,0-3.67,0c-1.43,1.3.7,3.42,2.13,2.12Z"/><path class="cls-4" d="M1355.51,678.09l-1.53,5.45a1.52,1.52,0,0,0,2.2,1.7,10.32,10.32,0,0,0,4.72-6.41H1358c1.1,3.14,5,2.38,6.33-.09a28.81,28.81,0,0,0,1.76-4.78c.63-1.89,1.24-3.8,1.83-5.7l-2.5.66a2.76,2.76,0,0,1,.73,2.42h3a14.79,14.79,0,0,0-1.29-7.59c-.51-1.15-2-.79-2.59,0l-4.1,5.39,2.74.36a19,19,0,0,0-2.32-6.29,1.51,1.51,0,0,0-2.35-.3l-3.9,4.4,2.51.66-.95-5.4a1.51,1.51,0,0,0-2.2-.9,17.76,17.76,0,0,0-4.73,4.16l2.36.31a12,12,0,0,1-.81-6.11,1.5,1.5,0,0,0-1.9-1.44,5.37,5.37,0,0,0-3.82,3.78c-.4,1.36,1.52,2.64,2.5,1.45l5.76-6.9c.14-.16.46-.42.53-.62l.18-.19-.64-.25s.29.83.3.89a5.19,5.19,0,0,0,1.2,2.34,1.51,1.51,0,0,0,2.35-.3,24.72,24.72,0,0,0,1.83-5.29l-2.74.35,1.44,2.45.9-2.21a6.61,6.61,0,0,0-3,1.42h2.12a0,0,0,0,0,0,0l-2.5-.66,1,3.17a1.52,1.52,0,0,0,2.51.66,22.59,22.59,0,0,1,4.17-2.88l-2-.54,1.49,2.87a1.51,1.51,0,0,0,2.35.3l1.62-1.66-2.51-.66a2.78,2.78,0,0,1-.25,1.94l2.74,1.15a6,6,0,0,1,1.39-2.82l-2.51-.66.65,1.7a1.55,1.55,0,0,0,1.45,1.1l2.06-.12-1.5-1.5a6.1,6.1,0,0,0,2.65,5.22l-.69-.9a2.74,2.74,0,0,1-.13,1.87l2.89.79a3.09,3.09,0,0,1,1-1.77l-2.56-1.06a14.5,14.5,0,0,1-1.43,6.07c-.7,1.45,1.13,3.14,2.35,1.82a12.07,12.07,0,0,0,3.25-9.19l-2.94.4.74,5.49c.19,1.39,2.11,1.31,2.74.36a15.43,15.43,0,0,1,2.59-2.94l-2.51-.66.49,1.73c.45,1.58,3.06,1.33,3-.4l-.19-3c-.12-1.91-3.08-1.94-3,0a17,17,0,0,1-4.15,11.91c-1.46,1.66-3.41,2.7-4.9,4.29s-1.91,3.85-3.38,5.42l2.36.31-1-1.51a1.52,1.52,0,0,0-2.35-.31,20,20,0,0,0-3.9,5.23l2.74.36c-.45-2.69,1.71-5,3.45-6.79s3.6-3.5,4.66-5.81c.79-1.75-1.79-3.27-2.59-1.52-1.25,2.73-3.68,4.47-5.59,6.69s-3.35,5.09-2.82,8.23a1.51,1.51,0,0,0,2.74.36,17.47,17.47,0,0,1,3.43-4.62l-2.36-.31,1,1.51a1.51,1.51,0,0,0,2.35.3c1.58-1.68,2-4.12,3.66-5.7.87-.84,1.92-1.47,2.83-2.25a17.63,17.63,0,0,0,2.53-2.65,20,20,0,0,0,4.29-13.14h-3l.19,3,2.94-.4-.48-1.73a1.52,1.52,0,0,0-2.51-.66,18.22,18.22,0,0,0-3.06,3.55l2.74.35-.74-5.49c-.22-1.66-3.08-1.28-3,.4a9.14,9.14,0,0,1-2.37,7.07l2.36,1.81a18.08,18.08,0,0,0,1.84-7.58,1.52,1.52,0,0,0-2.56-1.06,5.8,5.8,0,0,0-1.76,3.1,1.5,1.5,0,0,0,2.89.79c.44-1.13.67-2.94-.13-4-.36-.46-.88-.72-1.19-1.24a3.11,3.11,0,0,1-.4-1.77,1.52,1.52,0,0,0-1.5-1.5l-2.06.12,1.45,1.1-.66-1.7a1.51,1.51,0,0,0-2.5-.66,8.88,8.88,0,0,0-2.16,4.15c-.34,1.58,1.93,2.75,2.74,1.15a6.09,6.09,0,0,0,.55-4.25,1.5,1.5,0,0,0-2.5-.66l-1.62,1.66,2.36.3-1.49-2.86a1.52,1.52,0,0,0-2-.54,26.07,26.07,0,0,0-4.79,3.35l2.51.66-1-3.17a1.52,1.52,0,0,0-2.51-.66,3.18,3.18,0,0,0,0,4.29,1.52,1.52,0,0,0,2.12,0,3.8,3.8,0,0,1,1.69-.65,1.5,1.5,0,0,0,.89-2.2l-1.44-2.44a1.52,1.52,0,0,0-2.74.36,21.54,21.54,0,0,1-1.53,4.57l2.36-.3c-.61-.63-.56-1.86-1-2.62a2.47,2.47,0,0,0-3.19-1c-1.46.67-2.51,2.51-3.51,3.71l-3.84,4.6,2.51,1.46a2.33,2.33,0,0,1,1.73-1.68l-1.9-1.45a15,15,0,0,0,1.22,7.62,1.5,1.5,0,0,0,2.35.3,15.94,15.94,0,0,1,4.12-3.69l-2.2-.9.94,5.4a1.51,1.51,0,0,0,2.51.67l3.9-4.4-2.36-.3a16.5,16.5,0,0,1,2,5.57c.24,1.42,2,1.26,2.74.36l4.1-5.4h-2.59a11.73,11.73,0,0,1,.88,6.08c-.2,1.93,2.79,1.9,3,0a5.65,5.65,0,0,0-1.61-4.54,1.52,1.52,0,0,0-2.51.66c-.69,2.21-1.4,4.42-2.14,6.61a26.17,26.17,0,0,1-1,2.86c-.13.28-.32.77-.62.92s-.47-.08-.37.19a1.52,1.52,0,0,0-2.9,0,7.23,7.23,0,0,1-3.33,4.61l2.2,1.69,1.53-5.45a1.5,1.5,0,0,0-2.89-.8Z"/><path class="cls-4" d="M1365.18,678a2.89,2.89,0,0,1-.41.87l2.74,1.16a8.68,8.68,0,0,0,.12-6.36c-.41-1.11-2.1-1.6-2.74-.35a9.3,9.3,0,0,0-.86,2.42c-.37,1.87,2.43,2.69,2.89.79l.66-2.71a1.5,1.5,0,0,0-2.74-1.15,14.88,14.88,0,0,1-1.1,1.62c-.13.16-1.36,1.26-1.34,1.42l1.12.56v-.42a6.36,6.36,0,0,0,0-1.07,20.69,20.69,0,0,1,.21-2.36c.26-1.85-2.36-2.71-2.9-.8a9.37,9.37,0,0,1-1.33,2.89c-.25.35-.9.83-1,1.2q-.32.23.12.09a.63.63,0,0,0,.27,0s-.11-.28-.08-.36c.33-.92,1-1.15,1.85-1.46a5.58,5.58,0,0,0,1.5-.71c.3-.21.67-.77,1-.86l-.79-2.89a6.82,6.82,0,0,0-2.49,1.4l2.35.3a8,8,0,0,1-.54-2c-.16-1.33-2-2.22-2.79-.75l-1.74,3.33,2.74.36c-.33-.91-1-2.42-.28-3.3l-2.51-.67c.29,1.21-.22,2.55-.38,3.76a21.11,21.11,0,0,0-.19,3.81c0,1,1.29,2,2.26,1.29a7.36,7.36,0,0,0,2.81-4.8,31.23,31.23,0,0,0,.39-3.35,12.51,12.51,0,0,0,0-3.51c-.46-2.15-2.73-2.15-4.12-3.48a3.77,3.77,0,0,0-2.25-1.41,23.68,23.68,0,0,0-3.47.06l1.45,1.89a4.4,4.4,0,0,1,1.66-2.57l-2-2-2.56,4.86a1.5,1.5,0,0,0,2.59,1.51,38.87,38.87,0,0,0,3.72-6.28c.88-1.71-1.65-3.21-2.59-1.51a2.4,2.4,0,0,1-.57.73,1.5,1.5,0,0,0,0,2.12A7,7,0,0,1,1356,662a1.51,1.51,0,0,0,2.6,0l.68-1.59-2.8-.75a6.91,6.91,0,0,0,1,3.43,1.52,1.52,0,0,0,2.75-.36,6.37,6.37,0,0,0,0-3.3l-2.21,1.69c.36.19.42,1.08.56,1.44a3.84,3.84,0,0,0,1.41,1.93c1,.73,2.19-.28,2.26-1.3l.31-4.18-2.95.4.79,2.8c.54,1.92,3.15,1.06,2.89-.8a10,10,0,0,1,.19-3.58l-2.51.66c1.73,1.73.77,4.82.82,7,0,1.93,3,1.94,3,0a17.53,17.53,0,0,1,.19-3.07h-2.89a6,6,0,0,1-.87,4.46c-1,1.64,1.56,3.15,2.59,1.52a9.07,9.07,0,0,0,1.17-6.78c-.28-1.4-2.65-1.47-2.89,0a21,21,0,0,0-.3,3.87h3c-.07-3.18.82-6.58-1.7-9.1a1.5,1.5,0,0,0-2.5.66,13.89,13.89,0,0,0-.19,5.18l2.89-.8-.79-2.8a1.5,1.5,0,0,0-2.94.4l-.31,4.18,2.26-1.29c.07,0-.11-.36-.16-.49-.11-.36-.2-.72-.33-1.07a3.2,3.2,0,0,0-1.48-1.81,1.52,1.52,0,0,0-2.2,1.69,3.24,3.24,0,0,1-.05,1.72l2.75-.36a3.69,3.69,0,0,1-.63-1.92c0-1.35-2.16-2.23-2.79-.76l-.69,1.59h2.6a8.82,8.82,0,0,0-2.66-3.39v2.12a5,5,0,0,0,1-1.34l-2.59-1.51a39.75,39.75,0,0,1-3.72,6.28l2.59,1.51,2.56-4.86c.64-1.21-.75-3-2-2a7.58,7.58,0,0,0-3,4.37,1.51,1.51,0,0,0,1.44,1.9l2.49-.07c.12,0,.82.12.57,0,.25.15.45.49.67.69a9.22,9.22,0,0,0,1.72,1.25c.41.22,1.36.51,1.48.73a6.6,6.6,0,0,1-.06,2.34c0,.84-.11,1.69-.24,2.52-.18,1.19-.46,2.71-1.51,3.47l2.26,1.3a19.8,19.8,0,0,1,.28-4.28,9.54,9.54,0,0,0,.19-4.08,1.52,1.52,0,0,0-2.51-.67c-1.59,1.87-1.27,4.07-.49,6.23a1.52,1.52,0,0,0,2.74.36l1.74-3.34-2.8-.76a12.88,12.88,0,0,0,.95,3.5,1.52,1.52,0,0,0,2.36.3,3.2,3.2,0,0,1,1.16-.63,1.5,1.5,0,0,0-.79-2.89c-.95.25-1.37,1-2.19,1.44a16.71,16.71,0,0,0-2.59,1.17,4,4,0,0,0-1.35,5.05,2.69,2.69,0,0,0,4.5.57,12.23,12.23,0,0,0,3-5.29l-2.9-.8a26,26,0,0,0-.32,4.23c0,1.15.27,2.41,1.5,2.85s2.15-.49,2.93-1.27a17.1,17.1,0,0,0,2.49-3.25l-2.74-1.15-.66,2.71,2.89.79a6.4,6.4,0,0,1,.56-1.7l-2.74-.36a6.19,6.19,0,0,1-.12,4.76c-.69,1.63,1.86,2.51,2.74,1.16a6.23,6.23,0,0,0,.72-1.6c.54-1.85-2.36-2.65-2.9-.79Z"/><path class="cls-4" d="M1354.46,678.72a15.83,15.83,0,0,0-2,2.23,6.66,6.66,0,0,0-.7,1.25,6.38,6.38,0,0,0-.44,1.77,1.41,1.41,0,0,0,.6,1.18,1.45,1.45,0,0,0,1.3.27,2.67,2.67,0,0,0,1.66-1.26,1.51,1.51,0,0,0-.54-2,1.53,1.53,0,0,0-2,.54l-.1.15.23-.3a.88.88,0,0,1-.22.21l.31-.23-.27.15.36-.16-.17.06,1.89,1.44s0-.08,0-.13l0,.4a4.27,4.27,0,0,1,.29-1.06l-.15.36a5.84,5.84,0,0,1,.78-1.29l-.23.3a15.39,15.39,0,0,1,1.62-1.71,1.5,1.5,0,1,0-2.12-2.12Z"/><path class="cls-4" d="M1366.89,664.82a12,12,0,0,1,2.84-5.38,1.5,1.5,0,0,0-2.12-2.12,22.3,22.3,0,0,0-2.51,2.54,1.51,1.51,0,0,0,.31,2.35,9.86,9.86,0,0,0,3.89.88,1.54,1.54,0,0,0,1.5-1.5,3.63,3.63,0,0,0-.15-1.5,1.52,1.52,0,0,0-2.74-.36c-1.1,2.24-.74,4.62-1.27,7-.42,1.87,2.4,2.67,2.89.79l1.16-4.36h-2.9c.45,1.94-.26,3.92-.87,5.75a1.5,1.5,0,0,0,2.89.79l1-2.5.44-1.11a3.25,3.25,0,0,0,.22-.56c0-.29.43-.11-.21.08l-1.9-1.44a8.39,8.39,0,0,1-.88,4,9.1,9.1,0,0,0-.81,4.32,1.52,1.52,0,0,0,2.26,1.3l.71-.45-2.25-1.29.24,2.24a1.52,1.52,0,0,0,2.8.76l5.45-7.43a1.52,1.52,0,0,0-.54-2.06,1.54,1.54,0,0,0-2,.54l-5.45,7.43,2.79.76-.24-2.24a1.53,1.53,0,0,0-2.26-1.3l-.72.45,2.26,1.29a8.4,8.4,0,0,1,.87-4,9.09,9.09,0,0,0,.82-4.32,1.51,1.51,0,0,0-1.89-1.45c-1.27.39-1.67,1.45-2.11,2.57l-1.42,3.62,2.89.79c.8-2.38,1.46-4.82.88-7.34a1.52,1.52,0,0,0-2.9,0l-1.15,4.37,2.89.79c.45-2,0-4.38,1-6.26l-2.74-.35a1.28,1.28,0,0,1,0,.7l1.5-1.5a6.09,6.09,0,0,1-2.38-.47l.3,2.36a23.15,23.15,0,0,1,2.51-2.54l-2.12-2.12A15.23,15.23,0,0,0,1364,664c-.45,1.88,2.44,2.68,2.89.8Z"/><path class="cls-4" d="M1373.63,666.38c-1.13,1.09-2.23,2.22-3.29,3.37a1.56,1.56,0,0,0-.44,1.06,1.5,1.5,0,0,0,.44,1.06,1.46,1.46,0,0,0,1.06.44,1.49,1.49,0,0,0,1.06-.44q1.59-1.73,3.29-3.37a1.56,1.56,0,0,0,.44-1.06,1.5,1.5,0,0,0-.44-1.06,1.52,1.52,0,0,0-2.12,0Z"/><path class="cls-5" d="M1135,737s-26,1-27,5c0,0-6,5-4,7s5,10,7,10,10,8,13,7c0,0,15.11,3.17,18.56.09,0,0,11.44-6.09,10.44-8.09,0,0,5-8,3-9C1156,749,1145,734,1135,737Z"/><path class="cls-6" d="M1108,747s32-16,41,0S1124,774,1108,747Z"/></svg>
