<svg id="Layer_1" data-name="Layer 1" xmlns="http://www.w3.org/2000/svg" viewBox="0 0 906.2 815.6"><defs><style>.cls-1,.cls-4,.cls-5,.cls-6,.cls-8{fill:#fff;}.cls-1,.cls-3,.cls-8{stroke:#000;}.cls-1,.cls-3,.cls-5,.cls-6,.cls-8{stroke-miterlimit:10;}.cls-1{opacity:0.29;}.cls-2{fill:#8cc63f;}.cls-3{fill:#b3b3b3;}.cls-5,.cls-6{stroke:#fff;}.cls-6{stroke-width:0.25px;}.cls-7{fill:#e4ffb4;}.cls-9{font-size:43.38px;font-family:CCMonsterMash;}.cls-10{letter-spacing:-0.04em;}.cls-11{letter-spacing:0em;}.cls-12{letter-spacing:-0.02em;}.cls-13{letter-spacing:0em;}</style></defs><path class="cls-1" d="M210.44,216.12c1.16.63,2.36,1.18,3.49,1.86a1.53,1.53,0,0,1,.54,2.05,1.47,1.47,0,0,1-.32.38c.75.23,1.51.45,2.26.69a1.6,1.6,0,0,1,1,1c2.12.44,4.24.88,6.36,1.38-.43-1-.85-2.11-1.25-3.16a1.48,1.48,0,0,1-2.43-.68c-.65-2.37-1.16-4.78-1.65-7.19a1.54,1.54,0,0,1-.46-.7c-1.06-3-1.62-6.22-2.43-9.32a1.52,1.52,0,0,1-.7-.6l-1.55-2.53q-.24,1.35-.6,2.67a1.45,1.45,0,0,1-1,1,1.49,1.49,0,0,1-1,1.1,1.57,1.57,0,0,1-1.16-.16l0,0a28.05,28.05,0,0,0,1,4,1.52,1.52,0,0,1-1,1.85,1.29,1.29,0,0,1-.51,0,24.13,24.13,0,0,1-.37,3.52l.3,1.74C209.4,215.46,209.91,215.82,210.44,216.12Z" transform="translate(-10.18 -9.54)"/><path class="cls-1" d="M225.28,227q-3.42-.86-6.89-1.57a1.16,1.16,0,0,1-.77.21c-2.66-.23-5.33-.28-8-.38a1.88,1.88,0,0,1,0,.53,1.34,1.34,0,0,1,.37.38,33.06,33.06,0,0,0,8.79,1.51c2.33.2,4.64.27,7,.34C225.6,227.64,225.44,227.3,225.28,227Z" transform="translate(-10.18 -9.54)"/><path class="cls-2" d="M577.17,21.05c-8-24-31-3-31-3,6,14-110,99-123,123-6.41,11.85-50.14,43.14-94,68.45a1.57,1.57,0,0,1-.75.52c-.37.11-.74.23-1.1.37-1.49,1-3,2-4.54,2.93a1.66,1.66,0,0,1-.43.14,1.14,1.14,0,0,1-.5.17c-.36.22-.74.41-1.12.62a1.1,1.1,0,0,1-.2.23,1.44,1.44,0,0,1-.23.32L320,215a1.36,1.36,0,0,1-.59.18l-.06.25v.19a.5.5,0,1,1-1,0h0a.52.52,0,0,1-.19-.48c-2.95,1.43-5.81,3-8.68,4.6a1.4,1.4,0,0,1-1.62-.13c-.42.4-.82.81-1.24,1.2-1.41,1.31-3.54-.8-2.13-2.12a1.31,1.31,0,0,1,.34-1.56l4.86-4.52a1.47,1.47,0,0,1-.8-.41,1.51,1.51,0,0,1,0-2.12c1.61-1.47,3.29-2.88,5-4.3-.48.2-1,.4-1.44.58a40.92,40.92,0,0,1-7.38,2c-1.42,6.67-2.89,12.74-4.93,13.87-20,11-37.78,20.38-48.87,25.78-7.6,3.7-11-2-11-2-5.32-3.64-9.53-9.48-12.92-16-3.29-.07-6.52-.22-9.81-.49a34.49,34.49,0,0,1-9.14-1.88l-.58,0a1.14,1.14,0,0,1-.33.36,1.55,1.55,0,0,1-.32.2h0a2.9,2.9,0,0,1,0,.51,5,5,0,0,1-.07.56.84.84,0,0,1-.05.17l-.07.18a1.45,1.45,0,0,1,.18.35c.84,2.35,1.55,4.75,2.23,7.16a1.48,1.48,0,0,1-.55,1.58V239a14.27,14.27,0,0,0,.13,2.18,1.84,1.84,0,0,1,.54.5c2,2.84,1.76,6.55,2.82,9.75a1.32,1.32,0,0,1-.13,1.1l.06.08a1.62,1.62,0,0,1,1.07,1.44v.11a.42.42,0,0,1,0,.06,3.58,3.58,0,0,0,.09.35,5.58,5.58,0,0,0,.23.69v0l0,.09.13.27c.1.22.21.45.32.67a9.84,9.84,0,0,1,.9,2.59l0,.08a34.5,34.5,0,0,0,1.86,3.94c.61,1.23,1,2.53,1.55,3.79.91,2.11,2.26,4.81.9,7.06a7.67,7.67,0,0,1-2.42,2c-1,.69-.85,1.71-1.08,2.76-.52,2.46-2.22,4.47-2.71,7h0a1.53,1.53,0,0,1,.23,1.64,5,5,0,0,1-.47,1.45,8.17,8.17,0,0,1-.76,1.18,1.27,1.27,0,0,1,.06.28,4.27,4.27,0,0,1-.56,2.18,7,7,0,0,1-.5.83.71.71,0,0,1-.05.22,13.53,13.53,0,0,1-1,1.9l0,.06c0,.12,0,.24,0,.36a1.47,1.47,0,0,1-.16,1.09c-.07.11-.13.22-.19.33a1.34,1.34,0,0,1,.12.3,1.08,1.08,0,0,1,0,.59,1.12,1.12,0,0,1-.18.56,5.24,5.24,0,0,1-.71,1c-.18.23-.38.44-.58.66l-.05.05-.25.19h0a1,1,0,0,1-.33.14h-.07a1.07,1.07,0,0,1-.25,0h0a17.09,17.09,0,0,1-2.3,1.85,1.48,1.48,0,0,1-1,.17c-.58.46-1.19.87-1.79,1.27-.31.2-.62.4-.92.61l-.45.31-.2.14,0,0h0a3.4,3.4,0,0,0-.47.38l-.49.39-.09.07c-1.08,1.55-2.18,3.08-3.29,4.61a1.49,1.49,0,0,1-.07.54c-.79,2.44-1.86,4.77-2.7,7.19l-.09.27a1.7,1.7,0,0,1,.07.87c-.27,1.27-.67,2.51-1,3.75,0,0,0,.05,0,.07a1.33,1.33,0,0,1,.89,1.34,30.48,30.48,0,0,0,.75,6.23,14.72,14.72,0,0,1,.38,3.43,16.07,16.07,0,0,0-.07,2.94v.07a1.45,1.45,0,0,1,.16.72c0,.94-.08,1.87-.14,2.81a1.63,1.63,0,0,1,.68.17,1.49,1.49,0,0,1,.58,1.9v.06c.06-.09,0,0,0,0V343c0,.18,0,.35,0,.52,0,.33,0,.67.06,1,.06.72.17,1.45.24,2.17a8.37,8.37,0,0,1-.5,4.67l0,0a20.89,20.89,0,0,1-1,4.28,14.28,14.28,0,0,1-1.26,2.82,19.76,19.76,0,0,0-1.45,2.37,1.34,1.34,0,0,1-1,.7l0,0c-3,3.06-6.22,6.36-7.78,10.43-1.34,3.51-3.85,6.06-6.12,9-1.22,1.57-2.33,3.24-3.62,4.75s-2.62,2.82-3.86,4.3a35.46,35.46,0,0,0-3.41,4.66,17.19,17.19,0,0,1-3,4,24.8,24.8,0,0,0-3.68,3.56c-.5.73-.74,1.6-1.23,2.33a19.48,19.48,0,0,1-1.54,1.86,1.32,1.32,0,0,1-.35.29c-6.21,10.47-37.07,40.8-37.07,40.8-77.17,72.5-64.84,108.5-93.84,115.5s-7,21-7,21l19,26c-8,25,33,14,33,14,15,13,131.5-74.5,120-75-5.09-.22,26-50,34-51s51-48,51-48l0,0a14.53,14.53,0,0,1,1.07-2.21,12.49,12.49,0,0,1,.85-1.17c.25-.5.5-1,.74-1.54,1.32-2.94,2.31-6.23,3.52-9.24,0-.06.05-.11.07-.17-.34-3.38,1.39-8.07,1.91-10.35,1-4.27,1.83-8.33,2.51-12.65a16.85,16.85,0,0,1,1.36-4.79,13.45,13.45,0,0,1,.16-2.28,23.91,23.91,0,0,1,.5-3.58,11.13,11.13,0,0,0,.63-2.41,3,3,0,0,1,.28-1.28.71.71,0,0,1,0-.25c0-.09.06-.18.09-.28a.65.65,0,0,1,0-.2,6.47,6.47,0,0,1,.19-1.31c.07-.46.05-.95.1-1.42a15.84,15.84,0,0,1,.49-2.9.89.89,0,0,1,.63-.63s0-.06.05-.08a1.17,1.17,0,0,0,.15-.16l.32-.49h0a.53.53,0,0,1,.22-.27.5.5,0,0,1,.38-.05.53.53,0,0,1,.3.23,1.62,1.62,0,0,1,.1.18,1.8,1.8,0,0,1,.08.21.8.8,0,0,1,0,.15l.06.12a.41.41,0,0,1,.06.24.63.63,0,0,1,.12.23c.15.38.22.79.38,1.17l-.1-.24v0a1,1,0,0,1,.13.45,1,1,0,0,0,0,.1,2,2,0,0,1,.05.35v0a1.08,1.08,0,0,1,.14.46c0,.35.23.67.25,1,0,0,0,0,0,.07.2.5.48,1,.72,1.46a19.51,19.51,0,0,0,1.26,2.45c.52.77,1,1.57,1.57,2.3a15.17,15.17,0,0,0,1.33,2.12.89.89,0,0,1,.25.42c2.41,2.05,4.92,4.53,5.77,7.51.68.74,1.35,1.47,2,2.27a3.5,3.5,0,0,1,.61,1.11,19.75,19.75,0,0,1,1.45,2.11c1.48,1.1,3.26,2.71,3.66,4.62,2.54,2.66,5.1,5.27,7.4,8.19l.05,0h0c.16.2.32.39.48.6a2.83,2.83,0,0,1,.39.72,18.27,18.27,0,0,1,2.55,2.5,2.86,2.86,0,0,1,.33.55c.63.49,1.25,1,1.87,1.49a2.62,2.62,0,0,1,1,.8,2.8,2.8,0,0,1,.53.41l.22.22.87.7a3.69,3.69,0,0,1,.52.53,36.88,36.88,0,0,1,3.54,2.83,6.82,6.82,0,0,1,1.21,1.42c1.12.58,2.24,1.11,3.08,1.64a27,27,0,0,1,7,5.77l.21.13c1.08.6,2.23,1.15,3.35,1.69a151.15,151.15,0,0,0,15.15-17.64c7.23-10,14.43-20,21.1-30.37,5.71-8.86,11.29-18.11,14.67-28.14a64.6,64.6,0,0,1-17-18.59c-8-13.2-13.14-45.67-20-59-18-35,109-148,109-148C476.17,142.05,585.17,45.05,577.17,21.05Z" transform="translate(-10.18 -9.54)"/><path d="M28.9,590c11.14-1.69,22.21-5,31.93-10.77s17.34-14,24.2-22.66c12.6-16,22.18-34.09,33.93-50.69a138.6,138.6,0,0,1,19.62-22.74c8.47-7.7,18.36-13.42,28.2-19.16,9.39-5.48,18.51-11.25,26.78-18.35A140.17,140.17,0,0,0,214.62,423a137.94,137.94,0,0,0,15.43-26.34c2-4.57,3.68-9.27,5.44-13.95,1.61-4.3,3.45-8.77,6.53-12.25a17.22,17.22,0,0,1,5.12-4l-2.2-.9c2.45,9.64,1.37,19.94-.41,29.61a128.84,128.84,0,0,1-7.19,24.79,132.3,132.3,0,0,1-27.82,42.77A126.46,126.46,0,0,1,187,481.09c-1.62,1-.12,3.64,1.51,2.59A134.31,134.31,0,0,0,247,398.37c2.23-10.93,3.66-22.69.88-33.65a1.51,1.51,0,0,0-2.2-.89c-8.61,4.41-11.7,14.37-14.78,22.84A135.21,135.21,0,0,1,217.24,414a139.23,139.23,0,0,1-44.63,43c-9.83,6-20.12,11.34-29.32,18.32A117.14,117.14,0,0,0,122,496.82c-12.48,16-22,34-33.76,50.5-6.22,8.74-13.1,17.26-21.45,24.07-8.82,7.19-19.46,11.63-30.5,14.15-2.69.61-5.41,1.11-8.14,1.53-1.9.29-1.1,3.18.8,2.89Z" transform="translate(-10.18 -9.54)"/><path d="M183.43,483.51c-10.76,5.67-21.9,11.6-30.15,20.75-4.46,4.94-7.31,10.75-10.61,16.46-3.46,6-7.9,11.32-12.33,16.62s-8.61,10.86-12.65,16.51a145.88,145.88,0,0,1-12.46,15.69,120.23,120.23,0,0,1-28.72,22.17,153,153,0,0,1-38.56,15c-1.88.46-1.08,3.35.79,2.89,23.83-5.83,46.85-16.84,64.67-33.94A115.78,115.78,0,0,0,115.9,561.4c4.24-5.65,8.14-11.56,12.57-17.08,4.29-5.35,8.89-10.45,12.88-16s6.77-12.19,10.81-17.88c8-11.3,20.82-18,32.79-24.3,1.7-.9.19-3.49-1.52-2.59Z" transform="translate(-10.18 -9.54)"/><path d="M186.84,481.29a4.38,4.38,0,0,1-.58.56l.3-.23a7.71,7.71,0,0,1-1.27.75c-.21.1-.44.19-.64.31a2.48,2.48,0,0,0-.51.41,1.67,1.67,0,0,1-.23.23l.31-.24-.1.06.35-.15-.07,0a1.5,1.5,0,0,0-1.05,1.85,1.5,1.5,0,0,0,.69.89,1.61,1.61,0,0,0,1.16.15,1.66,1.66,0,0,0,.48-.19,2.73,2.73,0,0,0,.43-.33,3.83,3.83,0,0,1,.28-.29l-.3.23a5.25,5.25,0,0,1,.71-.36c.23-.11.46-.23.68-.36a5.46,5.46,0,0,0,1.48-1.19,1.61,1.61,0,0,0,.44-1.06,1.58,1.58,0,0,0-.44-1.06,1.56,1.56,0,0,0-1.06-.44,1.48,1.48,0,0,0-1.06.44Z" transform="translate(-10.18 -9.54)"/><path d="M260.59,314.6c4.7-6.63,11.46-13.76,20.4-12.5,8.6,1.21,14.42,8.43,18.08,15.72a3,3,0,1,0,5.18-3c-3.48-6.94-8.66-13.5-15.93-16.69A22.68,22.68,0,0,0,276,296.2,23.57,23.57,0,0,0,265,301.06a47.29,47.29,0,0,0-9.55,10.51,3,3,0,0,0,1.08,4.11,3.06,3.06,0,0,0,4.1-1.08Z" transform="translate(-10.18 -9.54)"/><path d="M240.23,311.68a34.62,34.62,0,0,1-3.14-5.5,16.21,16.21,0,0,0-4.85-5.62c-4.05-2.82-9.68-3.36-14.47-2.94-9.86.86-19.21,6.41-23.41,15.6a28.18,28.18,0,0,0-2.15,15.07c.58,5.67,1.46,11.31,2.16,17a21.8,21.8,0,0,1,.09,7.34c-.58,2.51-2.22,4.61-3.61,6.74l-9.35,14.3a129.88,129.88,0,0,1-10.69,14.42c-4.17,4.78-8.53,9.39-12.82,14.06a3,3,0,0,0,4.24,4.24c7.31-7.95,15-15.71,21.09-24.64,3.06-4.45,6-9,8.91-13.54l4.62-7.06a21.27,21.27,0,0,0,3.44-7.14c1.07-5.09-.14-10.44-.8-15.5-.69-5.36-1.87-10.93-1.46-16.35.62-8.33,7.25-15.31,15.18-17.61,4.44-1.3,10-1.69,14.29.24a9.53,9.53,0,0,1,4.5,4.62,39.7,39.7,0,0,0,4,6.54,3,3,0,0,0,4.24,0,3.07,3.07,0,0,0,0-4.24Z" transform="translate(-10.18 -9.54)"/><path d="M211.9,327.7a15.35,15.35,0,0,1,5.54-5.14,3.39,3.39,0,0,1,3.44-.31c1.37.69,2.74,1.41,4.1,2.12,1.72.89,3.24-1.7,1.52-2.59s-3.14-1.72-4.76-2.43a6.14,6.14,0,0,0-5.33.36,18.08,18.08,0,0,0-7.1,6.48c-1.05,1.62,1.54,3.13,2.59,1.51Z" transform="translate(-10.18 -9.54)"/><path d="M271.64,324.51c1.05-2.25,3.41-3.22,5.75-3.53a2.12,2.12,0,0,1,1.45.18,8.16,8.16,0,0,1,1.37.95,9.7,9.7,0,0,1,2.28,2.9c.9,1.71,3.49.2,2.59-1.51a12,12,0,0,0-3-3.72c-1.39-1.13-2.84-2-4.7-1.8-3.32.38-6.83,1.8-8.34,5a1.54,1.54,0,0,0,.54,2.05,1.5,1.5,0,0,0,2.05-.53Z" transform="translate(-10.18 -9.54)"/><path d="M206.67,229.05a33.73,33.73,0,0,0,1.35,8.46c.8,3.07,1.41,6.18,2.23,9.24a157.65,157.65,0,0,0,5.91,17.4c1.09,2.73,2.22,5.44,3.35,8.14l1.83,4.36c.53,1.26,1.12,2.45,2.69,2.48,2.68,0,5.36-1.92,7.26-3.6,2.42-2.14,4.58-4.61,6.81-6.94l8.15-8.5c2.58-2.69,5.4-5.29,7.51-8.39,1.09-1.6-1.51-3.1-2.59-1.51a56.92,56.92,0,0,1-6.19,6.9l-6.46,6.72-6.79,7.08c-1.71,1.78-3.51,3.69-5.81,4.71a8.09,8.09,0,0,1-1.55.56c-.25-.08-.62-1.45-.72-1.71L222,270.52c-1.05-2.51-2.1-5-3.1-7.56a158.19,158.19,0,0,1-5.4-15.71c-.91-3.23-1.56-6.51-2.39-9.76a34.54,34.54,0,0,1-1.44-8.44,1.5,1.5,0,0,0-3,0Z" transform="translate(-10.18 -9.54)"/><path d="M277.34,264.58c15-7.77,20.76-24.67,25.84-39.62.62-1.83-2.28-2.62-2.9-.8-4.82,14.21-10.19,30.43-24.46,37.83-1.71.88-.2,3.47,1.52,2.59Z" transform="translate(-10.18 -9.54)"/><path d="M277.5,265c5.62,5.05,13,7.3,20.35,8.49,1.78.29,3.53.76,5.26.13a28.14,28.14,0,0,0,4-1.81,25.26,25.26,0,0,0,6.32-4.95c7.62-8.26,9.27-20.37,9.09-31.17a115,115,0,0,0-2-18.87c-.35-1.89-3.25-1.09-2.9.8,1.88,10.17,2.87,21,.94,31.18a34.54,34.54,0,0,1-5.43,13.7,22.1,22.1,0,0,1-5,5.12,24,24,0,0,1-3.17,1.94A9.83,9.83,0,0,1,301.3,271a28.22,28.22,0,0,1-5.74-1,52.78,52.78,0,0,1-5.56-1.45,28.66,28.66,0,0,1-10.38-5.69c-1.43-1.29-3.56.83-2.12,2.12Z" transform="translate(-10.18 -9.54)"/><path d="M270.2,268.89c3.39-2.24,7.52-5,11.8-3.81,1.95.52,3.27,2.09,5.05,2.94a26.24,26.24,0,0,0,6.17,1.69c4,.81,8.16,1.44,11.92,3.12a22.13,22.13,0,0,1,5.41,3.51c1.5,1.31,3.23,2.7,4.08,4.55s3.4.23,2.59-1.52a12.89,12.89,0,0,0-3.11-3.83A35,35,0,0,0,309.8,272a29.31,29.31,0,0,0-9.71-3.9c-3.53-.84-7.2-1.24-10.66-2.34-1.78-.56-3-1.9-4.62-2.76a10.39,10.39,0,0,0-4.77-1.15c-4.23,0-7.94,2.22-11.35,4.47-1.61,1.06-.11,3.66,1.51,2.59Z" transform="translate(-10.18 -9.54)"/><path d="M222,286.38a13.5,13.5,0,0,1,5.61-8.66,67.69,67.69,0,0,0,7.54-6.61,24.89,24.89,0,0,1,4-3.68,27.83,27.83,0,0,0,4.35-3.45,95.25,95.25,0,0,0,6.93-8.94,7.3,7.3,0,0,1,4.52-3.22,19.11,19.11,0,0,1,5.55,0c1.92.16,1.91-2.84,0-3-3.43-.29-7.21-.4-10.07,1.84a22,22,0,0,0-3.73,4.43c-1.24,1.68-2.45,3.38-3.76,5a20.06,20.06,0,0,1-4.23,4.05,30.6,30.6,0,0,0-4.65,3.76c-1.32,1.38-2.55,2.85-4,4.11s-2.75,2.17-4.13,3.26a21.82,21.82,0,0,0-4.08,4,19.19,19.19,0,0,0-2.75,6.34,1.5,1.5,0,0,0,2.89.79Z" transform="translate(-10.18 -9.54)"/><path d="M278.32,445.93c7-18.87,9-39,12.42-58.71l-1.84,1c-.32-.08-.38-.56-.39-.28,0-.18,0,.33,0,.56a6.37,6.37,0,0,1-.33,1.58c-.08.26-.21.11-.15.36l0,0c.47-.69,1.25-.53,2.32.47.1-.14,0,.26,0,0,.14-1.23.16-2.45.35-3.68l-1.84,1c2,.69,2.84,3.14,3.4,5,.35,1.12.62,2.25.9,3.38a13.41,13.41,0,0,0,1.93,3.59,45.6,45.6,0,0,0,4.89,7c2,2.19,3.5,4.87,5.25,7.25a159.62,159.62,0,0,0,23.2,25.39,163.54,163.54,0,0,0,15,11.69c1.6,1.1,3.1-1.5,1.52-2.59a155.69,155.69,0,0,1-25.87-22.35,158.55,158.55,0,0,1-11.3-13.65q-1.29-1.76-2.53-3.52a39.3,39.3,0,0,0-2.76-3.87,47.86,47.86,0,0,1-5.05-7.16c-.37-.59-.78-1.17-1.11-1.78a7.11,7.11,0,0,1-.57-1.76,33,33,0,0,0-1.21-4c-.95-2.42-2.37-4.57-4.93-5.45a1.5,1.5,0,0,0-1.85,1c-.24,1.58-.86,3.77-.32,5.36s2.51,1.38,3.22,0c.92-1.76,1.58-5.77-1.05-6.41a1.52,1.52,0,0,0-1.85,1c-3.41,19.7-5.44,39.85-12.42,58.71-.68,1.82,2.22,2.6,2.89.8Z" transform="translate(-10.18 -9.54)"/><path d="M212.38,284.71a4.29,4.29,0,0,1,.13,3.05,21,21,0,0,1-1.47,3.57c-1.37,2.82-2.7,5.68-2.74,8.87a1.5,1.5,0,0,0,3,0c0-3,1.54-5.65,2.78-8.3,1.16-2.45,2.3-5.29,1.2-8a1.56,1.56,0,0,0-1.85-1.05,1.5,1.5,0,0,0-1.05,1.84Z" transform="translate(-10.18 -9.54)"/><path d="M215.32,285.93c1.11-4.13,2.34-8.55,6-11.15a1.54,1.54,0,0,0,.54-2,1.52,1.52,0,0,0-2.06-.54,15.2,15.2,0,0,0-5,5.85,39.43,39.43,0,0,0-2.44,7.1,1.5,1.5,0,0,0,2.9.79Z" transform="translate(-10.18 -9.54)"/><path d="M28.45,591.08c4.3,5.41,10.82,8.67,14.68,14.45.65,1,2.51,1,2.75-.36q1.6-9.25,3.55-18.46l-2.51.67q5.91,4.89,12,9.56a121,121,0,0,0,12.46,8.61,1.51,1.51,0,0,0,2.25-1.3c-.12-5.26-2.69-10.1-2.39-15.4.15-2.68.71-5.32.73-8a41.32,41.32,0,0,0-1.08-8.42c-.37-1.89-3.26-1.09-2.89.8a36.28,36.28,0,0,1,1,8.09c-.07,2.69-.64,5.33-.74,8-.2,5.15,2.3,9.84,2.41,14.93L72.91,603c-8.54-5-16.29-11.43-23.87-17.71a1.52,1.52,0,0,0-2.51.67q-1.94,9.2-3.55,18.45l2.74-.36c-4-6-10.68-9.42-15.14-15-1.2-1.51-3.31.63-2.13,2.12Z" transform="translate(-10.18 -9.54)"/><path d="M69.31,571.92a200.56,200.56,0,0,0,21.88,20.45,1.52,1.52,0,0,0,2.56-1.06,120.78,120.78,0,0,0-3.82-42.94,1.51,1.51,0,0,0-2.9.8,118.15,118.15,0,0,1,3.72,42.14l2.56-1.06A200.56,200.56,0,0,1,71.43,569.8c-1.31-1.43-3.43.7-2.12,2.12Z" transform="translate(-10.18 -9.54)"/><path d="M88.67,550.67q10.65,11,21.68,21.54c1.4,1.33,3.52-.79,2.12-2.12q-11-10.58-21.68-21.54c-1.35-1.39-3.47.73-2.12,2.12Z" transform="translate(-10.18 -9.54)"/><path d="M112.79,571.54a32.72,32.72,0,0,0,.36-11.59c-.29-2-.78-3.9-1.12-5.85a54.69,54.69,0,0,1-.51-6.12c-.45-8.13-1.93-16.23-3.06-24.28-.26-1.9-3.15-1.09-2.89.8,1.09,7.79,2.51,15.62,3,23.48.11,1.92.16,3.83.43,5.74s.72,3.74,1.07,5.62a29.35,29.35,0,0,1-.12,11.4c-.39,1.88,2.5,2.69,2.89.8Z" transform="translate(-10.18 -9.54)"/><path d="M105.74,524.49a249.77,249.77,0,0,1,19.41,24.34c1.1,1.57,3.7.08,2.59-1.51a256.53,256.53,0,0,0-19.88-25c-1.3-1.43-3.41.7-2.12,2.13Z" transform="translate(-10.18 -9.54)"/><path d="M128,547.8c-.41-2.2,0-4.44.18-6.64a31.39,31.39,0,0,0-.35-6.2c-.52-4.35-.18-8.66-.41-13s-1.23-8.37-1.56-12.59A28.21,28.21,0,0,1,126,503a22.49,22.49,0,0,0,.43-6.44,1.54,1.54,0,0,0-1.5-1.5,1.5,1.5,0,0,0-1.5,1.5,23.89,23.89,0,0,1-.46,6.58,29,29,0,0,0-.17,6.45c.36,4.3,1.39,8.51,1.56,12.82s-.1,8.67.45,13a29.79,29.79,0,0,1,.2,6.67,23.58,23.58,0,0,0,0,6.5c.35,1.9,3.25,1.09,2.9-.8Z" transform="translate(-10.18 -9.54)"/><path d="M123.54,497.57q11,10.53,21.2,21.88a1.52,1.52,0,0,0,2.51-.67c1-3.22.59-6.53.26-9.82-.35-3.5-.24-7-.37-10.52a54.3,54.3,0,0,0-1.56-10.22,22.47,22.47,0,0,1-.32-10.15c.45-1.88-2.45-2.68-2.89-.8a24.25,24.25,0,0,0-.05,9.93c.62,3.47,1.6,6.74,1.78,10.28s0,7.06.33,10.57c.28,3.31,1,6.69-.07,9.94l2.5-.67q-10.19-11.33-21.2-21.87c-1.39-1.34-3.52.78-2.12,2.12Z" transform="translate(-10.18 -9.54)"/><path d="M143.63,479.36a258.73,258.73,0,0,0,27.13,20.55c1.62,1.07,3.12-1.53,1.52-2.59a252.55,252.55,0,0,1-26.52-20.08c-1.46-1.26-3.59.86-2.13,2.12Z" transform="translate(-10.18 -9.54)"/><path d="M173,498.24c-.64-3.17-.06-6.37.5-9.5a57.16,57.16,0,0,0,1-9.23c.12-6.36-.7-12.74-1.28-19.06-.17-1.91-3.17-1.93-3,0,.59,6.48,1.45,13,1.27,19.55-.16,6.34-2.68,12.7-1.4,19,.39,1.9,3.28,1.09,2.9-.79Z" transform="translate(-10.18 -9.54)"/><path d="M171.21,461.9q9.36,9.75,19.35,18.86a1.51,1.51,0,0,0,2.51-.66c.62-2.83.26-5.76,1-8.57a31,31,0,0,0,1.3-8.17,170.93,170.93,0,0,0-.94-17.81c-.2-1.9-3.2-1.92-3,0,.58,5.76.92,11.56.94,17.35a26.75,26.75,0,0,1-.19,3.9,32.82,32.82,0,0,1-1,3.93c-.76,2.83-.39,5.75-1,8.58l2.5-.67q-10-9.11-19.35-18.86c-1.34-1.39-3.46.73-2.12,2.12Z" transform="translate(-10.18 -9.54)"/><path d="M191.74,446.48l5,4.12a44,44,0,0,1,4.51,4c1.31,1.43,2.39,3.07,3.65,4.55s2.93,3.1,4.46,4.58,3.52-.78,2.13-2.12-3-2.88-4.36-4.46-2.41-3.2-3.76-4.67a41.51,41.51,0,0,0-4.38-3.9l-5.12-4.23a1.54,1.54,0,0,0-2.12,0,1.51,1.51,0,0,0,0,2.12Z" transform="translate(-10.18 -9.54)"/><path d="M209.19,428.33c.06,5.22,1,10.36,1.69,15.52.36,2.56.65,5.13.94,7.7s.71,5.18.07,7.71c-.47,1.87,2.42,2.67,2.89.8a21.1,21.1,0,0,0,.14-7.56c-.3-2.7-.6-5.4-1-8.1-.72-5.34-1.71-10.66-1.77-16.07,0-1.93-3-1.94-3,0Z" transform="translate(-10.18 -9.54)"/><path d="M212.4,427.77v-1.11a1.27,1.27,0,0,0-.13-.58,1.17,1.17,0,0,0-.31-.48,1.11,1.11,0,0,0-.49-.31,1,1,0,0,0-.57-.13l-.4,0a1.39,1.39,0,0,0-.66.39l-.24.3a1.57,1.57,0,0,0-.2.76v1.11a1.06,1.06,0,0,0,.13.58,1.08,1.08,0,0,0,.31.48,1,1,0,0,0,.48.31,1.06,1.06,0,0,0,.58.13l.4,0a1.49,1.49,0,0,0,.66-.39l.23-.3a1.48,1.48,0,0,0,.21-.76Z" transform="translate(-10.18 -9.54)"/><path d="M210.07,428.82c1.07,1.29,2.4,2.3,3.59,3.48a35.93,35.93,0,0,1,3.17,4c2.23,2.94,4.6,5.78,7.11,8.49,1.32,1.42,3.43-.7,2.12-2.12a103.13,103.13,0,0,1-7-8.36,37.75,37.75,0,0,0-3.2-4c-1.2-1.23-2.58-2.25-3.67-3.58a1.51,1.51,0,0,0-2.13,0,1.54,1.54,0,0,0,0,2.12Z" transform="translate(-10.18 -9.54)"/><path d="M222.28,409c1.18,5.54.79,11.28,1.46,16.89s1.76,11.25,1.86,17c0,1.93,3,1.94,3,0-.1-5.86-1.26-11.62-1.92-17.43s-.3-11.55-1.51-17.2c-.4-1.89-3.29-1.09-2.89.79Z" transform="translate(-10.18 -9.54)"/><path d="M223.07,408.31a53.78,53.78,0,0,0,15.68,9,1.52,1.52,0,0,0,1.85-1.85c-1.31-3.77-2.47-7.65-4-11.33-1.34-3.2-3.78-6.19-4.25-9.69a1.54,1.54,0,0,0-1.5-1.5,1.51,1.51,0,0,0-1.5,1.5c.51,3.77,2.64,6.76,4.19,10.14a122.81,122.81,0,0,1,4.17,11.68l1.85-1.85a49.21,49.21,0,0,1-14.35-8.24c-1.48-1.23-3.62.89-2.13,2.12Z" transform="translate(-10.18 -9.54)"/><path d="M231,394.36c5.5,1.47,10.4-1.69,15.63-2.74a1.5,1.5,0,1,0-.8-2.9c-4.57.92-9.25,4-14,2.75a1.5,1.5,0,0,0-.8,2.89Z" transform="translate(-10.18 -9.54)"/><path d="M247.11,387.24a26.83,26.83,0,0,1-5.18-4.35,41.22,41.22,0,0,0-5.39-4.83,1.5,1.5,0,0,0-1.51,2.59,25.75,25.75,0,0,1,2.55,2.15c.84.8,1.65,1.63,2.47,2.45a28.72,28.72,0,0,0,5.55,4.59,1.5,1.5,0,0,0,1.51-2.6Z" transform="translate(-10.18 -9.54)"/><path d="M237.25,379.77a34.62,34.62,0,0,1,9.17-2.24,1.5,1.5,0,0,0,0-3,36.78,36.78,0,0,0-10,2.35,1.54,1.54,0,0,0-1,1.85,1.51,1.51,0,0,0,1.84,1Z" transform="translate(-10.18 -9.54)"/><path class="cls-3" d="M236.17,175.05" transform="translate(-10.18 -9.54)"/><path class="cls-4" d="M275.17,263.05s18.12-9.74,25.56-40.37,9.67-27.08,10.06-32.35,19.61,54.27-1,82c0,0-17.33-1.28-19-2.78,0,0-12.65-4.5-13.65-5.5Z" transform="translate(-10.18 -9.54)"/><path class="cls-4" d="M224.17,278.05s26-25,26-27c0,0-13.46-.2-23.73-21.6s-13.27-37.4-13.27-37.4S197.17,225.05,224.17,278.05Z" transform="translate(-10.18 -9.54)"/><polygon class="cls-5" points="20.99 580.5 35.99 576.5 33.99 595.5 20.99 580.5"/><path class="cls-5" d="M48.17,585.05l22.2,16.46s-3.2-13.46-2.2-13.46,1-14,0-14S48.17,585.05,48.17,585.05Z" transform="translate(-10.18 -9.54)"/><path class="cls-5" d="M72.15,570.65l19,17.86s1-27.46-3-35.46Z" transform="translate(-10.18 -9.54)"/><polygon class="cls-5" points="80.83 539.23 100.99 560.5 95.99 516.5 80.83 539.23"/><path class="cls-5" d="M125.46,545.05,108,522.38l15.22-22.33s.08,16.33,1,18.66S125.46,545.05,125.46,545.05Z" transform="translate(-10.18 -9.54)"/><path class="cls-5" d="M144.69,515.33,126.44,496.1s14.73-17.05,15.73-16.05S144.69,515.33,144.69,515.33Z" transform="translate(-10.18 -9.54)"/><path class="cls-5" d="M146.17,477.05l24,19s.69-13.84,1.35-16.92-1.35-17.08-1.35-17.08Z" transform="translate(-10.18 -9.54)"/><path class="cls-5" d="M173.17,460.05l18,17s-.42-5,0-5.88c1-2.12,1.11-23.77,0-24.12Z" transform="translate(-10.18 -9.54)"/><path class="cls-5" d="M194.17,445.05,212,462.63s.2-11.58-.34-13-2.46-19.62-2.46-19.62Z" transform="translate(-10.18 -9.54)"/><polygon class="cls-4" points="212.49 401 201.49 417 215.49 433 212.49 401"/><path class="cls-4" d="M237.67,414.55,225,406.3l4.67-9.75S238.67,413.55,237.67,414.55Z" transform="translate(-10.18 -9.54)"/><path class="cls-4" d="M189.26,479.54l-15.59-15s0,24.22-.5,24.61S189.84,480.53,189.26,479.54Z" transform="translate(-10.18 -9.54)"/><path class="cls-6" d="M144.67,479.55l21,15.46S148,509.45,148,512.54,144.67,479.55,144.67,479.55Z" transform="translate(-10.18 -9.54)"/><path class="cls-4" d="M144.67,480.44" transform="translate(-10.18 -9.54)"/><path class="cls-6" d="M126.44,500.38l18.23,18.17-17,22s-1-31-2-32S126.44,500.38,126.44,500.38Z" transform="translate(-10.18 -9.54)"/><polygon class="cls-6" points="98.49 518 113.49 537 102.49 551 98.49 518"/><path class="cls-6" d="M106.67,568.55l-15.42-15.5s4.42,27.5,2.42,27.5Z" transform="translate(-10.18 -9.54)"/><path class="cls-6" d="M71.13,574.05l13.54,12.5-13,8s-1.08-7.92-.54-7.46S71.13,574.05,71.13,574.05Z" transform="translate(-10.18 -9.54)"/><polygon class="cls-6" points="38.53 579.25 52.49 590 35.91 595.22 38.53 579.25"/><path class="cls-7" d="M184,369.76l1.22-1.71c.63-.88,1.2-1.7,1.75-2.49A26.4,26.4,0,0,0,184,369.76Z" transform="translate(-10.18 -9.54)"/><path d="M309,417.49l-.09-.09.12.15a1.09,1.09,0,0,1-.08-.15l.07.18c-.12-.31-.18-.65-.28-1s-.21-.69-.34-1a.82.82,0,0,0-.34-.45.74.74,0,0,0-.58-.08.77.77,0,0,0-.53.93c.16.41.29.83.41,1.25a2.48,2.48,0,0,0,.58,1.32.79.79,0,0,0,.53.22.77.77,0,0,0,.53-.22.75.75,0,0,0,0-1.06Z" transform="translate(-10.18 -9.54)"/><path d="M26.73,587.67a5.45,5.45,0,0,1-.76.39l.36-.15a6,6,0,0,1-1.49.4l.4,0-.18,0a1.14,1.14,0,0,0-.57.13,1.11,1.11,0,0,0-.49.31,1.56,1.56,0,0,0-.44,1.06,1.54,1.54,0,0,0,.44,1.06,1.49,1.49,0,0,0,1.06.44,7.43,7.43,0,0,0,3.19-1,1.59,1.59,0,0,0,.69-.9,1.54,1.54,0,0,0-.15-1.15,1.51,1.51,0,0,0-.9-.69,1.57,1.57,0,0,0-1.16.15Z" transform="translate(-10.18 -9.54)"/><path d="M26.62,587.47l-2.57,1.08A1.56,1.56,0,0,0,23,590.39a1.52,1.52,0,0,0,1.85,1.05,13.08,13.08,0,0,0,3.63-1.55A1.5,1.5,0,0,0,27,587.3c-1.24.58-2.48,1.14-3.74,1.67a1.51,1.51,0,0,0,0,2.89,21,21,0,0,0,2.83.72,4.1,4.1,0,0,1,2.19,1.56c1.35,1.61,2.61,3.3,4,4.91s2.8,3.22,4.3,4.74c1.33,1.37,2.87,3.38,4.95,3.41a1.54,1.54,0,0,0,1.5-1.5A4,4,0,0,0,41.81,603c-.67-.82-1.37-1.64-2.08-2.43A24.87,24.87,0,0,0,35,596.43C33.4,595.37,31.9,598,33.5,599a20.71,20.71,0,0,1,3.69,3.24c.56.6,1.09,1.21,1.62,1.83.32.38,1.17,1.08,1.16,1.61l1.5-1.5c-.6,0-1.4-1.11-1.79-1.49-.74-.72-1.47-1.47-2.18-2.22-1.46-1.56-2.86-3.18-4.21-4.83a36,36,0,0,0-3.84-4.6,6.35,6.35,0,0,0-2.59-1.37A21.48,21.48,0,0,1,24,589v2.89c1.5-.63,3-1.28,4.46-2L27,587.3a10.47,10.47,0,0,1-2.92,1.25l.8,2.89,2.57-1.08a1.56,1.56,0,0,0,1-1.85,1.51,1.51,0,0,0-1.85-1Z" transform="translate(-10.18 -9.54)"/><path d="M22.83,591.83q3.18,2.56,6.25,5.26A1.5,1.5,0,0,0,31.2,595q-3.07-2.7-6.25-5.26a1.66,1.66,0,0,0-1.06-.44,1.58,1.58,0,0,0-1.06.44,1.52,1.52,0,0,0,0,2.12Z" transform="translate(-10.18 -9.54)"/><path d="M27.82,596a87.89,87.89,0,0,1,8.74,11l1.3-2.26c.26.1.3.1.13,0l-.29-.19-.31-.27a8.39,8.39,0,0,1-.86-.93c-.45-.57-.84-1.2-1.24-1.8a25.31,25.31,0,0,0-3.37-4.07c-2.4-2.36-5.19-4.41-7-7.3-1-1.63-3.62-.12-2.59,1.52,2,3.26,5.12,5.54,7.8,8.24a28.92,28.92,0,0,1,3.28,4.2,14.73,14.73,0,0,0,1.76,2.18,4,4,0,0,0,2.68,1.41,1.51,1.51,0,0,0,1.29-2.26,93.22,93.22,0,0,0-9.21-11.56c-1.32-1.41-3.44.72-2.12,2.12Z" transform="translate(-10.18 -9.54)"/><path d="M37.44,606.71a1,1,0,0,1-.64.31h.79l-.1,0,.66.39c.16.12.07.12,0-.06l-.32-.49-.52-.78c-.4-.59-.81-1.16-1.24-1.73-.85-1.14-1.74-2.25-2.68-3.32a11.8,11.8,0,0,1-1.06-1.28c-.36-.57-.61-1.19-1-1.76a12.18,12.18,0,0,0-1.28-1.74,4.73,4.73,0,0,1-1-1.17,1.55,1.55,0,0,0-1.85-1,1.51,1.51,0,0,0-1,1.85c.62,1.55,2,2.55,2.77,4a13.67,13.67,0,0,0,1.4,2.28c.55.67,1.15,1.3,1.7,2a45.41,45.41,0,0,1,3,4c.5.75.93,1.68,1.94,1.78a3.45,3.45,0,0,0,2.56-1.11c1.4-1.34-.72-3.46-2.12-2.12Z" transform="translate(-10.18 -9.54)"/><path d="M26,595.56a7,7,0,0,0,1.7,3.51c.82,1,1.49,2,2.33,3,1.53,1.72,3.33,3.21,4.44,5.23L37,605.78A23.22,23.22,0,0,0,34.92,603a1.5,1.5,0,1,0-2.12,2.12,15.87,15.87,0,0,1,1.83,2.5l2.59-1.51a11.85,11.85,0,0,0-1.39-1.84l-2.12,2.12c.5.54,1,1.09,1.44,1.67a1.5,1.5,0,0,0,2.12,0,1.53,1.53,0,0,0,0-2.12c-.46-.58-.94-1.13-1.44-1.67-1.32-1.42-3.42.7-2.12,2.12a8.38,8.38,0,0,1,.92,1.23,1.5,1.5,0,0,0,2.59-1.51,18.79,18.79,0,0,0-2.3-3.11l-2.12,2.12a19.78,19.78,0,0,1,1.64,2.13A1.5,1.5,0,0,0,37,605.78a29,29,0,0,0-4.53-5.42c-.79-.86-1.38-1.77-2.09-2.68a11.41,11.41,0,0,1-1.06-1.37,4.76,4.76,0,0,1-.49-1.55,1.5,1.5,0,0,0-1.84-1A1.53,1.53,0,0,0,26,595.56Z" transform="translate(-10.18 -9.54)"/><polygon class="cls-4" points="32.49 597 25.99 598.5 16.49 581 32.49 597"/><path class="cls-2" d="M188.47,409.51c2.13-3,4.36-5.86,6.7-8.67,1.06-1.28,2.12-2.58,3.29-3.77a6.93,6.93,0,0,1,3.62-2.21,1.5,1.5,0,1,0-.8-2.9c-3.53.69-5.88,4-8.05,6.54-2.56,3.07-5,6.25-7.35,9.5a1.5,1.5,0,0,0,.54,2.05,1.54,1.54,0,0,0,2.05-.54Z" transform="translate(-10.18 -9.54)"/><path d="M177,418.88a51.15,51.15,0,0,1,5.18-10.29,20.59,20.59,0,0,1,3.29-3.62,15,15,0,0,1,2.05-1.48c.35-.21.71-.41,1.09-.59.15-.08.81-.49.94-.45l-.66-.39c-.1-.08-.07-.32-.16-.3a3,3,0,0,0-.14.59c-.12.44-.24.88-.38,1.32-.25.79-.53,1.58-.86,2.35a26.53,26.53,0,0,1-2.5,4.52c-1.08,1.61,1.52,3.11,2.59,1.52a29.18,29.18,0,0,0,3.47-7,9.05,9.05,0,0,0,.8-3.74,2.18,2.18,0,0,0-3.12-1.65c-4.67,1.74-8.15,5.66-10.56,9.89a73.24,73.24,0,0,0-3.92,8.54,1.5,1.5,0,0,0,1,1.84,1.52,1.52,0,0,0,1.84-1.05Z" transform="translate(-10.18 -9.54)"/><path class="cls-5" d="M232.17,392.05s6,0,6-1l6-2-8-8Z" transform="translate(-10.18 -9.54)"/><path class="cls-5" d="M238.27,379.36l7.63,7.19.45-9S238.37,378.67,238.27,379.36Z" transform="translate(-10.18 -9.54)"/><path class="cls-5" d="M238.17,376.24s8.36-2.14,8.18-1.66-1.18-7.53-1.18-7.53S238.17,374.44,238.17,376.24Z" transform="translate(-10.18 -9.54)"/><path class="cls-5" d="M232.17,395.05s10.59-1,12.8-3l-4.8,21Z" transform="translate(-10.18 -9.54)"/><polygon class="cls-5" points="214.99 400.5 227.99 407.5 217.99 428.5 214.99 400.5"/><polygon class="cls-5" points="202.2 421.56 213.99 435.5 204.99 447.5 202.2 421.56"/><path class="cls-5" d="M195.17,449.05l14,14L193.59,476.8s-.42-4.09.58-5.42,1.31-8.46,1.31-8.46l-.31-13.87" transform="translate(-10.18 -9.54)"/><path class="cls-8" d="M315.93,464.55l16.31,35.83S315,666,477,638s251.63-67.22,251.63-67.22,41.1-154.31-39.76-166.54-332.38,51.47-330.12,78.11S335.86,478.1,315.93,464.55Z" transform="translate(-10.18 -9.54)"/><text class="cls-9" transform="matrix(0.63, -0.03, 0.05, 1, 361.34, 499.53)">Æd 20 grise<tspan x="0" y="52.05">for </tspan><tspan class="cls-10" x="78.08" y="52.05">a</tspan><tspan class="cls-11" x="98.03" y="52.05">t h</tspan><tspan class="cls-12" x="156.59" y="52.05">a</tspan><tspan x="177.42" y="52.05">ve nok energi til </tspan><tspan class="cls-10" x="507.13" y="52.05">a</tspan><tspan class="cls-13" x="527.09" y="52.05">t</tspan><tspan x="0" y="104.11">f</tspan><tspan class="cls-10" x="19.56" y="104.11">l</tspan><tspan class="cls-11" x="34.83" y="104.11">yve sydpå!</tspan></text><path class="cls-8" d="M493,646.82l16,36s-18.79,165.45,143.46,139,252.25-64.86,252.25-64.86S947.23,603,866.48,590s-332.84,48.36-330.84,75S512.79,660.56,493,646.82Z" transform="translate(-10.18 -9.54)"/><text class="cls-9" transform="matrix(0.63, -0.03, 0.05, 1, 553.34, 696.74)">Du kan se kometen komme<tspan x="0" y="52.05">tættere på oppe til højre.</tspan></text></svg>