<svg id="Layer_1" data-name="Layer 1" xmlns="http://www.w3.org/2000/svg" viewBox="0 0 1501.02 937.16"><defs><style>.cls-1,.cls-4,.cls-7,.cls-8{fill:#fff;}.cls-1,.cls-3,.cls-5,.cls-6{stroke:#000;}.cls-1,.cls-11,.cls-12,.cls-3,.cls-5,.cls-6,.cls-7,.cls-8{stroke-miterlimit:10;}.cls-1{opacity:0.29;isolation:isolate;}.cls-2{fill:#8cc63f;}.cls-11,.cls-3{fill:none;}.cls-6{fill:#b3b3b3;}.cls-7,.cls-8{stroke:#fff;}.cls-8{stroke-width:0.25px;}.cls-12,.cls-9{fill:#e4ffb4;}.cls-10{fill:#00833f;}.cls-11,.cls-12{stroke:#a7d400;}</style></defs><g id="Layer_1-2" data-name="Layer 1"><path class="cls-1" d="M503.17,216.9c1.15.64,2.35,1.18,3.49,1.86a1.53,1.53,0,0,1,.54,2.05,1.21,1.21,0,0,1-.33.38c.76.23,1.51.45,2.26.69a1.56,1.56,0,0,1,1,1c2.13.43,4.25.88,6.36,1.37-.43-1-.84-2.11-1.24-3.16a1.49,1.49,0,0,1-2.1-.08,1.56,1.56,0,0,1-.34-.6c-.64-2.37-1.15-4.78-1.65-7.18a1.9,1.9,0,0,1-.46-.71c-1.05-3-1.62-6.21-2.43-9.32a1.63,1.63,0,0,1-.7-.6c-.52-.83-1-1.68-1.54-2.52-.16.89-.36,1.79-.6,2.66a1.44,1.44,0,0,1-1,1,1.47,1.47,0,0,1-1,1.1,1.57,1.57,0,0,1-1.16-.15h0a27.85,27.85,0,0,0,1,4.05,1.52,1.52,0,0,1-1,1.85,1,1,0,0,1-.52,0,21.89,21.89,0,0,1-.37,3.52l.3,1.74A16.26,16.26,0,0,0,503.17,216.9Z" transform="translate(-8.33 -11.82)"/><path class="cls-1" d="M518,227.74q-3.42-.86-6.89-1.57a1.19,1.19,0,0,1-.78.22c-2.65-.23-5.32-.28-8-.39a1.57,1.57,0,0,1,0,.53,1.66,1.66,0,0,1,.37.38,33.21,33.21,0,0,0,8.78,1.52c2.34.19,4.65.26,7,.33Q518.24,228.25,518,227.74Z" transform="translate(-8.33 -11.82)"/><path class="cls-2" d="M1259.2,322.49c.37.54.77,1.06,1.16,1.58a.52.52,0,0,1,.36.23c.27.42.52.86.77,1.29.49.64,1,1.28,1.45,1.93a.41.41,0,0,1,0,.58l-.05,0c.53,1.09,1,2.2,1.47,3.31a20.78,20.78,0,0,0-2.45-6.14c-.71-1-1.47-2-2.28-2.9A.38.38,0,0,1,1259.2,322.49Z" transform="translate(-8.33 -11.82)"/><path class="cls-2" d="M963.1,766.83c-11.27-10.76-31.85-99.36-35.85-117a6.31,6.31,0,0,1,1.36-5.5c4.68-5.47,9.22-11.88,14.14-11.35a4.44,4.44,0,0,1,.85.14,17.28,17.28,0,0,1,5,2.67c.71.51,1.45,1,2.2,1.42a11.16,11.16,0,0,1,1.93,1.61c2,2,59.81,68,115.81,67s64,42,59,43c-1.37.28-2,8.35-2,19.82a1.56,1.56,0,0,0,1.59,1.57c1.13,0,2.27-.09,3.41-.2a82,82,0,0,1,9-.46h.14a1.51,1.51,0,0,0,1.51-1.5h0a1.52,1.52,0,0,1,3-.15l0,.22a1.51,1.51,0,0,0,1.56,1.38c1,0,1.9-.13,2.85-.23,1.82-.18,3.64-.42,5.46-.67a1.61,1.61,0,0,0,1.38-1.64c-.12-4.27-.25-8.37-.39-12.23a1.51,1.51,0,0,1,3-.42c1.11,4.58,2.3,9.52,3.53,14.64a1.21,1.21,0,0,1,.5-.07,34.64,34.64,0,0,0,9.21,0,1.55,1.55,0,0,0,1.31-1.72c-9.82-83.77-22.32-81.79-25.89-82.48-.17,0-.4,0-.56-.06-87.83-11.76-192.62-103.85-168.65-86.87,23.66,16.76,80.37-2.44,82-3l.06,0c71.54-34.39,154.28-124.86,165.65-137.51,1-1.11,1-1.13,1.4-1.57l.38-.32a20.81,20.81,0,0,1,2.33-1.15c41.11-21.2,99.82,25,116,38.82,1,.88,1.88,1.63,2.55,2.22l1.62,1.08.47.35a4.59,4.59,0,0,0,.85.38c.65.25,1.56.47,1.66.5l7.22,2c54.34,14.6,46.08,5,69.88.2,22.25-4.44,40.54-48.49,44.29-58.14a1.49,1.49,0,0,0-.66-1.84c-.74-.42-1.52-.83-2.32-1.28-2.7-1.54-5.34-3.21-8-4.78l-4-2.32v.12c-.12.38-.3.76-.45,1.12a7.11,7.11,0,0,0,.1.79,9.23,9.23,0,0,1-9,9h-.16a8.89,8.89,0,0,1-2.29-.3,1.52,1.52,0,0,0-1.55.49,8,8,0,0,1-4.69,2.66,1.57,1.57,0,0,0-1.24,1.17,8.43,8.43,0,0,1-4.26,5.55,1.47,1.47,0,0,0-.79,1.33c.13,4.6-2.76,9.31-8.68,9.31a8.82,8.82,0,0,1-4.57-1.17l-.38-.13-.37.59a8.56,8.56,0,0,1-3.09,3.12,1.62,1.62,0,0,0-.78,1.09,8.3,8.3,0,0,1-8.48,7,8.19,8.19,0,0,1-8-5.2,1.47,1.47,0,0,0-.83-.86,4.43,4.43,0,0,1-.67-.3,6.57,6.57,0,0,1-2.8-1.77c-.22.27-.42.55-.64.82-1.78,2.12-3.8,4-5.64,6.09a7.55,7.55,0,0,1-2.89,2,1.68,1.68,0,0,0-.86.76,8.18,8.18,0,0,1-7.53,4.28c-6.27,0-9.14-5.24-8.63-10.06a1.52,1.52,0,0,0-.84-1.51c-3.73-1.85-5.2-6.25-4.43-10.13a1.52,1.52,0,0,0-2-1.78c-1.66.59-3.32,1.16-4.94,1.86a5.48,5.48,0,0,1-2.06.3,1.39,1.39,0,0,0-1.2.57,8.12,8.12,0,0,1-6.92,3.37c-9.94,0-11.34-13.19-4.27-17a1.51,1.51,0,0,0,.78-1.46l-.66-8a1.51,1.51,0,0,0-1.26-1.36,8.35,8.35,0,0,1-4.54-2.46c-.13-.14-.24-.28-.36-.42a36.3,36.3,0,0,1-6.57,4.48l-.34.26a8.24,8.24,0,0,1-6.28,2.56c-8.67,0-10.88-10-6.56-15.12a1.55,1.55,0,0,0,.39-1v-.46a1.53,1.53,0,0,0-2.11-1.4,26.93,26.93,0,0,1-10.07,2.36,1.49,1.49,0,0,1-.47-.07,9.19,9.19,0,0,0-6.93.75,1.71,1.71,0,0,1-.91.23c-7.36-.33-9.75-8.1-7.23-13.33l-.41-.31a8,8,0,0,1-3.29-1.32,1.51,1.51,0,0,0-1.57-.08c-4.48,2.4-9.17,4.42-13.71,6.73a7.3,7.3,0,0,1-.9.41,1.65,1.65,0,0,0-.7.52,8.16,8.16,0,0,1-6.73,3.14,8.36,8.36,0,0,1-8.13-5.5,1.53,1.53,0,0,0-2.36-.66,56.36,56.36,0,0,1-5.37,3.52c-1.09.65-2.15,1.34-3.23,2l-.26.15v.06c-.45.46-1,.87-1.41,1.33a8.56,8.56,0,0,1-5.56,2.56,1.46,1.46,0,0,0-1.22.81,8.75,8.75,0,0,1-14.22,2,1.63,1.63,0,0,0-1.08-.52,9,9,0,0,1-2.76-.67,1.51,1.51,0,0,0-1.73.41c-.45.53-.91,1.05-1.37,1.57-1.27,1.42-2.72,2.66-4,4.07a1.47,1.47,0,0,0-.37,1c-.23,4.34-3.09,8.52-8.67,8.52a8.42,8.42,0,0,1-5.25-1.63,1.44,1.44,0,0,0-1.23-.27,23.27,23.27,0,0,1-3.89.58,1.5,1.5,0,0,0-1.24.77,9.77,9.77,0,0,1-1.88,2.5,1.55,1.55,0,0,0-.26,1.88c3,5.31.43,13.76-7.5,13.76a9,9,0,0,1-3.79-.77h-.07A17.85,17.85,0,0,1,1168,458a1.56,1.56,0,0,0-1.68,1c-.09.26-.17.5-.25.7-1.58,4.06-3.31,8-4.74,12.17a8.84,8.84,0,0,1-6.47,5.93,1.52,1.52,0,0,0-1.17,1.32c-.44,4.13-3.29,7.94-8.63,7.94a8.13,8.13,0,0,1-7.2-3.75,1.53,1.53,0,0,0-1.73-.66,13.3,13.3,0,0,1-2.07.41,2.24,2.24,0,0,0-.73.39,31.28,31.28,0,0,1-.47,6.48l-.05.2c-.53,2-1.82,3.73-2.19,5.72-.48,2.52-.32,5-1.13,7.52h0c.19,4.63-2.7,9.42-8.68,9.42a8.62,8.62,0,0,1-3.68-.73,1.51,1.51,0,0,0-1.34,0A17.33,17.33,0,0,1,1110,514a1.54,1.54,0,0,0-1.17.84c-.16.37-.35.73-.55,1.1a51.6,51.6,0,0,1-3.86,5.53,1.44,1.44,0,0,0-.28.6,9.83,9.83,0,0,1-1.11,2.87,12.24,12.24,0,0,1-2.47,3l-.27.33a25.53,25.53,0,0,1-2.22,3.15c-2.5,3-6.58,3.25-9.89,1.77a1.49,1.49,0,0,0-1.43.15,24.84,24.84,0,0,1-6.92,3.18l-.75.21a1.55,1.55,0,0,0-1,.83c-3.74,8-10.38,14.95-19.57,14.08-3.76-.35-6.24-2.4-9.38-4.15-2.31-1.28-4.93-1.12-7.5-1.62a17,17,0,0,1-4.21-1.41,1.52,1.52,0,0,0-2.17,1c-.17.77-.38,1.54-.62,2.29a24.43,24.43,0,0,1-13.64,14.55c-7.55,3.32-13.65,0-18.51-5.88l-.09-.1c-.05.41-.11.83-.2,1.25a13,13,0,0,1-13.9,10.58c-6-.5-10.25-5.39-14.08-9.52-4.47-4.82-8.71-10.28-8.72-17.15a8.38,8.38,0,0,1,3.81-7.25v0l-1-1.27a1.51,1.51,0,0,0-2-.38c-4.67,2.88-22,12.92-22.84,4.27-.94-9.41-58.62-76.45-65.36-84.26A1.5,1.5,0,0,1,878,451l9.46-19.88a1.6,1.6,0,0,1,.28-.4c2.68-2.72,35.86-36,82.83-63.83,49-29,16,4,98-42,46.62-26.15,73.5-29.35,93.92-29.64a3,3,0,0,1,1.11-.24h.47a1.21,1.21,0,0,1,.38,0h.25l.2-.06h.55l.31-.09a2.68,2.68,0,0,1,.56-.13h.11l.24-.05a2.53,2.53,0,0,1,.55,0h.07a.39.39,0,0,1,.1-.08,2.58,2.58,0,0,1,.94-.22,6,6,0,0,0,.81-.11c.29,0,.33-.05.5-.06h.43c.32,0,.59-.11.92-.14a.4.4,0,0,1,.15-.1,9.84,9.84,0,0,1,2.16-.28c.35,0,.67-.17,1-.18a6.28,6.28,0,0,0,1.12-.08h.43a.67.67,0,0,1,.15-.14l.1-.07c.26-.21.5-.45.76-.66a.61.61,0,0,1,.22-.13h.13a.58.58,0,0,1,.36.15.52.52,0,0,1,.14.35V293l.65-.26a11.78,11.78,0,0,1,1.52-.41.52.52,0,0,1,.56.24l.11-.06c.43-.23.86-.44,1.3-.66a.5.5,0,0,1,.68.19.48.48,0,0,1,0,.54c.27-.14.53-.29.8-.42s.65-.26,1-.39a.49.49,0,0,1,.56.24.47.47,0,0,1,.3.21h.1a.48.48,0,0,1,.49-.15.82.82,0,0,1,.25.16.52.52,0,0,1,.72-.08l0,0a.79.79,0,0,0,.2.17l.18-.1a2.83,2.83,0,0,1,1-.09,3.29,3.29,0,0,1,.77.06l.12-.07a8.79,8.79,0,0,1,2.21-.41.51.51,0,0,1,.46.34h.34a.54.54,0,0,1,.55-.29,18,18,0,0,0,2.2.22,2.82,2.82,0,0,1,.82.08,3.32,3.32,0,0,0,.89,0,37.64,37.64,0,0,1,4.25-.09.53.53,0,0,1,.4.22c.78-.28,1.56-.57,2.35-.89,17.14-7,31.12,3.86,41.18,16.8a.47.47,0,0,1,.57-.07,13.92,13.92,0,0,1,3,2.73,32.62,32.62,0,0,0,2.43,2.27,1.49,1.49,0,0,0,.92.34.5.5,0,0,1,.34.16s0,.05.06.07a12.17,12.17,0,0,0,.91,1.26l.19.19c.55.48,1.1.95,1.63,1.48,1,1,2,2,2.85,3l.07.07a39.26,39.26,0,0,1,5.12,6.31c1.27,2.18,1.79,4.74,2.58,7.12a38.76,38.76,0,0,0,1.51,4.06,9.26,9.26,0,0,0,.49.94c.6-1.24,1.71-2.08,2.51-3.19l.11-.12c.84-1.43,1.8-2.81,2.66-4.21a.48.48,0,0,1,.36-.22c.64-.77,1.25-1.57,1.92-2.31l.56-1a.44.44,0,0,1,.5-.24c.14-.22.29-.45.45-.66a.53.53,0,0,1,0-.49,22,22,0,0,1,3.37-4.31l.09-.1a18.09,18.09,0,0,1,2.85-3l.29-.36a.57.57,0,0,1,.12-.23l.47-.51.3-.37a25.35,25.35,0,0,1,1.94-2.32l.13-.18a.28.28,0,0,1,0-.13.39.39,0,0,0,.08-.1l.12-.15a.55.55,0,0,1,.15-.28c.3-.28.58-.56.87-.86a.37.37,0,0,1,.08-.26,4.38,4.38,0,0,1,.73-.76.5.5,0,0,1,.12-.48c1.09-1.09,2.17-2.19,3.36-3.17a.57.57,0,0,1,.6-.08.48.48,0,0,1,.31,0l.18-.2a.43.43,0,0,1,.35-.17c1.9-1.59,6-4.65,6.88-1.91a1.56,1.56,0,0,0,.67.83,7.16,7.16,0,0,1,1.76,1.53,1.51,1.51,0,0,1,.26.46c.51,1.44,3.18,8.87,6.57,17.65a.52.52,0,0,1,.19.14,2.6,2.6,0,0,1,.26.32.44.44,0,0,1,.16.17,23.89,23.89,0,0,1,2.93,5.65,14.91,14.91,0,0,1,.71,1.65.44.44,0,0,1-.17.5c.1.16.19.33.28.49a.46.46,0,0,1,.63.1l0,.07c1.25,2.88,2.45,5.79,3.67,8.69.58,1.37,1.15,2.74,1.8,4.07l.1.19c.36.54.71,1.07,1.08,1.61,1,1.43,1.94,2.85,2.92,4.27a26.15,26.15,0,0,1,2.6,4.17.53.53,0,0,1,0,.25c.77.92,1.53,1.84,2.33,2.73h.1a.34.34,0,0,1,.2,0c.15.05.3.08.46.12a.61.61,0,0,1,.22.13l.08.1v.08a7.73,7.73,0,0,0,3.61-1h-.07a.52.52,0,0,1,0-.7,45,45,0,0,0,3-4.24.86.86,0,0,1,.13-.14l.75-1c26.42-138.21-57.41-165.89-59.17-166.46l-.06,0c-193.89-84.64-379.15,9.14-483.47,95.26-56,46.22-84.07,94.18-88.4,101.92a1.51,1.51,0,0,1-1.81.69,63.17,63.17,0,0,1-31.79-26.61c-8-13.2-13.14-45.67-20-59-17.86-34.72,107-146.24,109-148l0,0c7.17-8.15,116-105,108-129C863.94,7.05,851.61,11.47,844.24,16a15.15,15.15,0,0,0-6.13,7.75c-7.85,21-110.56,97.07-122.75,119.57-6.42,11.85-50.15,43.14-94,68.45a1.53,1.53,0,0,1-.76.52l-.9.31-.35.17c-1.45,1-2.9,1.93-4.39,2.82a.91.91,0,0,1-.42.14,1.12,1.12,0,0,1-.5.18l-1.12.61a1.16,1.16,0,0,1-.2.24,1,1,0,0,1-.24.31l-.3.23a1.41,1.41,0,0,1-.6.19v.43a.5.5,0,0,1-.5.5,1.58,1.58,0,0,1-.7-1c-2.94,1.43-5.81,3-8.67,4.6a1.39,1.39,0,0,1-1,.17,1.44,1.44,0,0,0-1.31.39l-.55.51c-1.41,1.31-3.53-.8-2.12-2.11a1.29,1.29,0,0,1,.34-1.56l4.85-4.53a1.47,1.47,0,0,1-.8-.41,1.53,1.53,0,0,1,0-2.12c1.62-1.47,3.29-2.87,5-4.3l-1.44.58a41.63,41.63,0,0,1-6.37,1.81,1.57,1.57,0,0,0-1.22,1.19c-1.36,6.26-2.78,11.79-4.73,12.86-20,11.06-37.77,20.38-48.86,25.78-6.91,3.37-10.35-1-10.91-1.87a1,1,0,0,0-.24-.23c-5-3.5-9.07-9-12.35-15.09a1.55,1.55,0,0,0-1.33-.83c-3-.08-5.92-.22-8.9-.47a34.93,34.93,0,0,1-9-1.81l-.33-.07c-1.24-.1-2.48-.26-3.72-.46a1.52,1.52,0,0,1-.6,0,18.82,18.82,0,0,1-2.08-.57,2,2,0,0,1-.88-.21c-.16-.07-.31-.17-.46-.25a1.3,1.3,0,0,1-.48-.25c-171.74-92.34-263.65-74.36-263.65-74.36s-256,46-216,151c34.68,91,52.82,24.23,57,4.84a1.48,1.48,0,0,1,2.82-.25c32.57,77.76,67.1,5.4,70.82-2.84a1.4,1.4,0,0,1,1.16-.82c125-10.47,305.17,94.09,305.17,100.07s-38.17,43.5-38.17,43.5c-77.16,72.5-64.83,108.5-93.83,115.5-27.28,6.59-9.43,19.36-7.22,20.86a1.45,1.45,0,0,1,.38.36l18.39,25.17a1.53,1.53,0,0,1,.23,1.34c-6.45,22.23,27.39,14.71,32.56,13.44a1.39,1.39,0,0,1,1.09.16c16.64,11.12,131-74.83,119.57-75.33-5.09-.22,26-50,34-51,7.22-.9,42.91-39.22,49.83-46.73a1.5,1.5,0,0,1,2.23,0c13.35,15.59,39,13.72,42.94,14.69,1.44.36,4.7,6.95,8.28,15.23a120,120,0,0,0,49.39,56c48.9,28.73,128.59,65.88,139.33,71.81,9.76,5.39,74.82,73.49,90.57,92.79a18.42,18.42,0,0,1,4,9.56c5.49,47.69,9.73,61.88,28.82,83.26,6,6.78,29.33,11.49,39.33,20.45,11.24,10.07,6.09,25.43,7.56,26.47a1.44,1.44,0,0,1,.61,1.31c-.2,2.53-.82,10.58-1.42,20.87a1.59,1.59,0,0,0,1.37,1.66c3.45.45,6.95.74,10.37,1.37a1.55,1.55,0,0,0,1.83-1.35c1.34-13.35,2.58-22.74,3.92-20.39S997,861.6,996.9,876.6a1.79,1.79,0,0,1,1.07-.13c1.8.33,3.56.72,5.32,1.14a1.51,1.51,0,0,0,1-.09,1.53,1.53,0,0,1,1,0c2.3.83,4.62,1.61,7,2.26h.26a12.55,12.55,0,0,0,2.45.14,1.53,1.53,0,0,1,.6.12c.42-4.53.79-8.89,1.12-12.91a1.5,1.5,0,0,1,3,0,255.3,255.3,0,0,0,5.1,28.13,1.44,1.44,0,0,0,1.86,1c3-1,6.8.06,8.28,3.13a11.24,11.24,0,0,1,.13-1.15c.15-1.91,0-3.86.13-5.78a9.87,9.87,0,0,1,0-1.63l-.26-1.14a7.23,7.23,0,0,1,1.69-9.08,1.65,1.65,0,0,0,.59-1.48c-5.26-42.83-15.39-68.16-21.81-80.63a22.68,22.68,0,0,0-14.71-11.54c-19.39-4.85-29.53-12.56-33.73-16.54" transform="translate(-8.33 -11.82)"/><path d="M321.62,590.74c11.15-1.69,22.21-5,31.93-10.77s17.35-14,24.2-22.65c12.61-16,22.18-34.09,33.94-50.7a139.37,139.37,0,0,1,19.61-22.74c8.48-7.69,18.37-13.42,28.2-19.16,9.39-5.48,18.51-11.25,26.78-18.35a138.9,138.9,0,0,0,21.06-22.62,137.12,137.12,0,0,0,15.43-26.34c2-4.57,3.69-9.27,5.44-14,1.61-4.3,3.46-8.76,6.53-12.25a17.65,17.65,0,0,1,5.13-4l-2.2-.9c2.44,9.65,1.36,19.94-.41,29.61a128.64,128.64,0,0,1-7.19,24.79,132.21,132.21,0,0,1-27.83,42.78,126.49,126.49,0,0,1-22.48,18.39c-1.62,1-.12,3.64,1.52,2.59a134.28,134.28,0,0,0,58.4-85.31c2.23-10.93,3.66-22.69.88-33.64a1.52,1.52,0,0,0-1.88-1,1.79,1.79,0,0,0-.32.13c-8.62,4.42-11.7,14.37-14.78,22.84A135,135,0,0,1,510,414.74a139.2,139.2,0,0,1-44.63,43c-9.84,6-20.13,11.34-29.33,18.33a117.77,117.77,0,0,0-21.34,21.51c-12.48,16-22,34-33.75,50.49-6.22,8.74-13.1,17.27-21.45,24.07-8.83,7.2-19.47,11.63-30.5,14.15-2.7.61-5.41,1.11-8.15,1.53-1.9.29-1.09,3.18.8,2.89Z" transform="translate(-8.33 -11.82)"/><path d="M476.16,484.33c-10.77,5.67-21.9,11.6-30.16,20.75-4.46,4.95-7.31,10.75-10.6,16.46-3.47,6-7.91,11.32-12.33,16.63s-8.61,10.85-12.65,16.51A146.77,146.77,0,0,1,398,570.33a119.67,119.67,0,0,1-28.71,22.17,152.59,152.59,0,0,1-38.57,15c-1.87.46-1.08,3.36.8,2.9,23.83-5.84,46.85-16.85,64.67-33.95a114,114,0,0,0,12.48-14.22c4.25-5.66,8.15-11.57,12.58-17.09,4.29-5.35,8.88-10.45,12.88-16s6.76-12.2,10.8-17.89c8-11.3,20.83-18,32.79-24.3,1.71-.9.19-3.49-1.51-2.59Z" transform="translate(-8.33 -11.82)"/><path d="M479.56,482.07a3.08,3.08,0,0,1-.58.56l.3-.23a6.24,6.24,0,0,1-1.27.75c-.21.1-.43.19-.63.31a2.24,2.24,0,0,0-.51.41l-.23.23.3-.23-.1.05.36-.15h-.08a1.5,1.5,0,0,0-1,1.85,1.47,1.47,0,0,0,.69.89,1.59,1.59,0,0,0,1.15.16,1.74,1.74,0,0,0,.49-.2,1.7,1.7,0,0,0,.42-.33c.1-.1.18-.2.28-.29l-.3.24a6.1,6.1,0,0,1,.72-.37c.23-.11.46-.23.68-.36a5.1,5.1,0,0,0,1.47-1.18,1.59,1.59,0,0,0,.44-1.07,1.5,1.5,0,0,0-1.5-1.5,1.52,1.52,0,0,0-1.06.44Z" transform="translate(-8.33 -11.82)"/><path d="M553.32,315.38c4.69-6.63,11.46-13.76,20.39-12.5,8.6,1.21,14.42,8.43,18.09,15.72a3,3,0,0,0,5.39-2.64,3.35,3.35,0,0,0-.21-.36c-3.49-7-8.66-13.5-15.94-16.7a22.74,22.74,0,0,0-12.31-1.9,23.67,23.67,0,0,0-11.05,4.86,47.27,47.27,0,0,0-9.54,10.47,3,3,0,0,0,1.07,4.1,3.06,3.06,0,0,0,4.11-1.08Z" transform="translate(-8.33 -11.82)"/><path d="M533,312.46a36.36,36.36,0,0,1-3.14-5.5,16,16,0,0,0-4.84-5.61c-4.06-2.82-9.68-3.36-14.48-3-9.85.86-19.21,6.41-23.41,15.6a28.44,28.44,0,0,0-2.15,15.07c.59,5.67,1.46,11.31,2.16,17a21,21,0,0,1,.09,7.34c-.57,2.51-2.21,4.62-3.6,6.74l-9.36,14.3a127.33,127.33,0,0,1-10.68,14.42c-4.17,4.78-8.53,9.39-12.82,14.06a3,3,0,0,0,4.24,4.24c7.31-7.95,14.94-15.71,21.08-24.64,3.06-4.45,6-9,8.92-13.54l4.61-7.06a21.11,21.11,0,0,0,3.45-7.14c1.07-5.08-.15-10.43-.8-15.5-.69-5.36-1.87-10.93-1.47-16.35.62-8.33,7.25-15.3,15.19-17.61,4.44-1.29,10-1.69,14.29.24a9.49,9.49,0,0,1,4.5,4.62,39.84,39.84,0,0,0,4,6.55,3,3,0,0,0,4.24,0,3.07,3.07,0,0,0,0-4.25Z" transform="translate(-8.33 -11.82)"/><path d="M504.63,328.48a15.52,15.52,0,0,1,5.54-5.14,3.44,3.44,0,0,1,3.43-.31c1.38.69,2.74,1.41,4.11,2.12,1.71.89,3.23-1.7,1.51-2.59s-3.13-1.72-4.76-2.43a6.15,6.15,0,0,0-5.32.37A18.2,18.2,0,0,0,502,327C501,328.59,503.58,330.1,504.63,328.48Z" transform="translate(-8.33 -11.82)"/><path d="M564.4,325.33c1-2.24,3.41-3.22,5.75-3.53a2.14,2.14,0,0,1,1.45.18,9.53,9.53,0,0,1,1.37.95,9.86,9.86,0,0,1,2.28,2.9c.89,1.71,3.48.2,2.59-1.51a12,12,0,0,0-3-3.72,6.28,6.28,0,0,0-4.69-1.8c-3.33.38-6.84,1.8-8.34,5a1.56,1.56,0,0,0,.53,2.06A1.52,1.52,0,0,0,564.4,325.33Z" transform="translate(-8.33 -11.82)"/><path d="M499.4,229.83a34.1,34.1,0,0,0,1.34,8.46c.81,3.07,1.41,6.18,2.23,9.24a161.24,161.24,0,0,0,5.92,17.4c1.08,2.73,2.21,5.44,3.35,8.15l1.83,4.35c.52,1.26,1.12,2.45,2.68,2.48,2.69,0,5.36-1.92,7.27-3.6,2.42-2.14,4.57-4.61,6.8-6.94l8.15-8.49c2.59-2.7,5.41-5.3,7.52-8.4,1.09-1.6-1.51-3.1-2.59-1.51a55.62,55.62,0,0,1-6.2,6.9l-6.45,6.72c-2.26,2.36-4.52,4.73-6.79,7.08-1.72,1.78-3.51,3.69-5.82,4.71a7,7,0,0,1-1.55.56c-.24-.08-.61-1.45-.72-1.7l-1.65-3.91c-1.05-2.51-2.09-5-3.1-7.55a163.69,163.69,0,0,1-5.4-15.72c-.9-3.23-1.56-6.51-2.38-9.76a34.23,34.23,0,0,1-1.44-8.47,1.5,1.5,0,0,0-3,0Z" transform="translate(-8.33 -11.82)"/><path d="M570.06,265.33c15-7.77,20.77-24.66,25.84-39.62.62-1.83-2.27-2.61-2.89-.79-4.82,14.21-10.2,30.43-24.46,37.82C566.83,263.63,568.35,266.22,570.06,265.33Z" transform="translate(-8.33 -11.82)"/><path d="M570.23,265.8c5.61,5,13,7.3,20.35,8.49,1.78.29,3.53.76,5.26.13a27.67,27.67,0,0,0,4-1.81,24.68,24.68,0,0,0,6.32-4.95c7.62-8.26,9.27-20.37,9.1-31.17a114,114,0,0,0-2-18.87c-.35-1.89-3.24-1.09-2.89.8,1.87,10.17,2.87,21,.93,31.18a34.45,34.45,0,0,1-5.41,13.73,21.66,21.66,0,0,1-5,5.11,22.68,22.68,0,0,1-3.16,1.94,9.5,9.5,0,0,1-3.7,1.42,28.67,28.67,0,0,1-5.74-.95,51.69,51.69,0,0,1-5.56-1.46,28.43,28.43,0,0,1-10.33-5.71c-1.44-1.28-3.56.83-2.12,2.12Z" transform="translate(-8.33 -11.82)"/><path d="M562.93,269.67c3.39-2.24,7.52-5,11.8-3.81,1.94.52,3.27,2.09,5,2.94a26.1,26.1,0,0,0,6.18,1.69c4,.81,8.16,1.45,11.92,3.12a21.71,21.71,0,0,1,5.4,3.51c1.51,1.32,3.23,2.7,4.09,4.55s3.39.23,2.59-1.52a13.07,13.07,0,0,0-3.11-3.83,34.26,34.26,0,0,0-4.32-3.55,29.07,29.07,0,0,0-9.7-3.91c-3.53-.84-7.21-1.24-10.67-2.34-1.78-.56-3-1.9-4.61-2.75a10.4,10.4,0,0,0-4.77-1.16c-4.24,0-7.94,2.22-11.36,4.47-1.6,1.06-.1,3.66,1.52,2.59Z" transform="translate(-8.33 -11.82)"/><path d="M514.67,287.17a13.59,13.59,0,0,1,5.61-8.67,65,65,0,0,0,7.55-6.61,25.29,25.29,0,0,1,4-3.67,27.81,27.81,0,0,0,4.34-3.46,90.81,90.81,0,0,0,6.93-8.94,7.36,7.36,0,0,1,4.52-3.22,19.18,19.18,0,0,1,5.56,0c1.92.16,1.91-2.84,0-3-3.43-.29-7.22-.4-10.07,1.84a22.71,22.71,0,0,0-3.74,4.44c-1.24,1.67-2.45,3.38-3.76,5a19.82,19.82,0,0,1-4.23,4.05,31.72,31.72,0,0,0-4.64,3.77c-1.33,1.37-2.55,2.84-4,4.1s-2.75,2.17-4.12,3.26a22.08,22.08,0,0,0-4.08,4,19.7,19.7,0,0,0-2.76,6.34,1.5,1.5,0,0,0,2.89.8Z" transform="translate(-8.33 -11.82)"/><path d="M570.89,447.07c2.41-3.94,3.27-8.48,4.14-13q1.5-7.62,3-15.26,3-15.39,5.48-30.86L581.66,389c1.13.18,1.57,2,2,2.87.62,1.35,1.26,2.69,1.93,4q1.9,3.79,4.07,7.45a136.73,136.73,0,0,0,9.69,14.16,163.64,163.64,0,0,0,24.19,24.89q7.5,6.28,15.54,11.82c1.59,1.1,3.1-1.5,1.52-2.59-19.13-13.21-36.44-29.69-48.35-49.79q-2.46-4.19-4.61-8.55c-.73-1.48-1.37-3-2.1-4.49a4.39,4.39,0,0,0-3.06-2.68,1.52,1.52,0,0,0-1.84,1.05c-1.63,10.15-3.47,20.27-5.39,30.37-1,5-1.94,10-2.91,15-.87,4.44-1.58,9-4,13-1,1.65,1.58,3.16,2.59,1.51Z" transform="translate(-8.33 -11.82)"/><path d="M50.29,348.85c-4-14.84-7.89-30-8.15-45.44-.24-14.56,3.4-28.64,12.21-40.38,8.17-10.91,19.42-19.12,30.75-26.46,12.72-8.23,25.82-16.95,40.25-21.86a175.42,175.42,0,0,1,23.46-5.79c8.25-1.56,16.51-3.06,24.76-4.58,16.8-3.11,33.59-6.4,50.44-9.24s33.81-4.88,50.86-4c16.59.86,32.95,4.15,49.23,7.25,30.26,5.76,60.88,12.35,88.71,26,3.43,1.67,6.8,3.46,10.11,5.34a1.5,1.5,0,1,0,1.52-2.59c-27.62-15.68-58.66-23.55-89.58-29.7-16.13-3.21-32.35-6.52-48.71-8.35C269,187.13,252,188,235,190.39c-17.37,2.44-34.61,6-51.86,9.15l-25.86,4.79c-8.25,1.53-16.53,3-24.66,5.1a107.87,107.87,0,0,0-22.42,8.62c-7,3.63-13.64,7.82-20.3,12-11.62,7.24-23.28,14.92-32.67,25a65.5,65.5,0,0,0-17.57,37.72c-1.73,15.31,1.18,30.82,4.83,45.64.93,3.78,1.92,7.54,2.93,11.29a1.53,1.53,0,0,0,2,.89,1.51,1.51,0,0,0,.95-1.69Z" transform="translate(-8.33 -11.82)"/><path d="M423.15,229.44,433,236a52.37,52.37,0,0,0,9.56,5.27,67.24,67.24,0,0,1,10.17,4.57c3.21,1.94,6.35,4,9.47,6.11a371.91,371.91,0,0,1,36,27.07c1.46,1.25,2.89,2.54,4.25,3.91.73.73,1.44,1.48,2.12,2.26a4.3,4.3,0,0,1,.86,1c.23.6-.09,1.13-.28,1.72L501,300.56c-.6,1.84,2.3,2.63,2.89.8l3.82-11.76c.55-1.67,1.35-3.32.31-5a26.53,26.53,0,0,0-3.78-4.22c-5.43-5.35-11.63-10-17.65-14.66q-9.31-7.2-19-13.84-4.86-3.31-9.82-6.5a59,59,0,0,0-10.14-5.48c-2-.79-4.08-1.47-6.06-2.38a42.55,42.55,0,0,1-5.51-3.18c-3.82-2.5-7.63-5-11.44-7.55-1.62-1.06-3.12,1.53-1.52,2.59Z" transform="translate(-8.33 -11.82)"/><path d="M508,286.72c1.11-4.14,2.34-8.56,6-11.16a1.53,1.53,0,0,0,.54-2.05,1.51,1.51,0,0,0-2.05-.54,15.45,15.45,0,0,0-5,5.85,40.75,40.75,0,0,0-2.43,7.1,1.5,1.5,0,0,0,2.89.8Z" transform="translate(-8.33 -11.82)"/><path d="M321.18,591.87c4.29,5.41,10.82,8.66,14.68,14.44.65,1,2.5,1,2.74-.36q1.62-9.24,3.55-18.45l-2.5.66q5.91,4.89,12,9.56a119.59,119.59,0,0,0,12.47,8.61,1.51,1.51,0,0,0,2.26-1.3c-.12-5.26-2.69-10.09-2.39-15.39.15-2.68.71-5.33.73-8a42.57,42.57,0,0,0-1.08-8.41c-.37-1.9-3.26-1.1-2.89.79a36.28,36.28,0,0,1,1,8.1c-.08,2.68-.64,5.32-.75,8-.19,5.15,2.3,9.83,2.42,14.92l2.26-1.29c-8.54-5-16.29-11.42-23.87-17.7a1.52,1.52,0,0,0-2.15.05,1.57,1.57,0,0,0-.36.61q-1.92,9.21-3.55,18.45l2.74-.36c-4-6-10.69-9.42-15.15-15-1.2-1.52-3.31.62-2.12,2.12Z" transform="translate(-8.33 -11.82)"/><path d="M362,572.7a200.59,200.59,0,0,0,21.89,20.45,1.52,1.52,0,0,0,2.15-.06,1.5,1.5,0,0,0,.41-1,120.58,120.58,0,0,0-3.83-42.94,1.5,1.5,0,0,0-2.89.8,118.4,118.4,0,0,1,3.72,42.14L386,591a200.59,200.59,0,0,1-21.89-20.45c-1.31-1.42-3.42.7-2.12,2.12Z" transform="translate(-8.33 -11.82)"/><path d="M381.4,551.45q10.65,11,21.69,21.54c1.39,1.33,3.51-.78,2.12-2.12q-11-10.53-21.7-21.54c-1.34-1.39-3.46.73-2.12,2.12Z" transform="translate(-8.33 -11.82)"/><path d="M405.52,572.33a32.67,32.67,0,0,0,.36-11.58c-.3-2-.78-3.9-1.12-5.86a52.07,52.07,0,0,1-.51-6.12c-.46-8.13-1.94-16.22-3.06-24.28-.27-1.9-3.16-1.09-2.89.8,1.08,7.79,2.51,15.62,3,23.48.11,1.92.16,3.83.43,5.74s.72,3.75,1.07,5.62a29.55,29.55,0,0,1-.12,11.4c-.4,1.88,2.49,2.69,2.89.8Z" transform="translate(-8.33 -11.82)"/><path d="M398.46,525.27a249.59,249.59,0,0,1,19.41,24.35c1.1,1.57,3.7.07,2.59-1.52a256.3,256.3,0,0,0-19.87-25c-1.3-1.44-3.42.69-2.13,2.12Z" transform="translate(-8.33 -11.82)"/><path d="M420.67,548.59c-.41-2.21,0-4.44.18-6.65a30.65,30.65,0,0,0-.35-6.2c-.52-4.35-.17-8.66-.4-13s-1.24-8.37-1.56-12.59a27.64,27.64,0,0,1,.22-6.36,22.81,22.81,0,0,0,.43-6.44,1.56,1.56,0,0,0-1.5-1.5,1.5,1.5,0,0,0-1.5,1.5,23.82,23.82,0,0,1-.47,6.58,29.61,29.61,0,0,0-.16,6.45c.35,4.3,1.39,8.51,1.56,12.83s-.1,8.66.44,13a29.78,29.78,0,0,1,.21,6.67,22.76,22.76,0,0,0,0,6.49c.35,1.9,3.24,1.1,2.89-.79Z" transform="translate(-8.33 -11.82)"/><path d="M416.27,498.33q11,10.53,21.2,21.88a1.5,1.5,0,0,0,2.5-.66c1-3.23.6-6.53.27-9.83-.35-3.5-.25-7-.37-10.52A54.42,54.42,0,0,0,438.31,489a22.45,22.45,0,0,1-.32-10.15c.44-1.88-2.45-2.68-2.9-.8a24.6,24.6,0,0,0,0,9.93c.62,3.47,1.61,6.74,1.79,10.29s0,7,.32,10.56c.28,3.32,1,6.69-.07,9.94l2.51-.66q-10.18-11.31-21.19-21.86c-1.4-1.33-3.52.78-2.12,2.12Z" transform="translate(-8.33 -11.82)"/><path d="M436.4,480.15a258.64,258.64,0,0,0,27.13,20.54c1.61,1.07,3.12-1.53,1.51-2.59A252.21,252.21,0,0,1,438.52,478c-1.45-1.25-3.58.86-2.12,2.13Z" transform="translate(-8.33 -11.82)"/><path d="M465.73,499c-.64-3.17-.05-6.37.51-9.5a57,57,0,0,0,1-9.22c.11-6.37-.71-12.74-1.28-19.07-.17-1.91-3.18-1.93-3,0,.59,6.48,1.44,13,1.27,19.55-.17,6.34-2.68,12.7-1.4,19,.38,1.89,3.27,1.09,2.89-.8Z" transform="translate(-8.33 -11.82)"/><path d="M463.93,462.68q9.36,9.75,19.36,18.87a1.53,1.53,0,0,0,2.15,0,1.42,1.42,0,0,0,.36-.63c.62-2.83.25-5.76,1-8.57a30.19,30.19,0,0,0,1.31-8.17,171,171,0,0,0-1-17.81c-.19-1.9-3.19-1.92-3,0,.59,5.77.92,11.56.94,17.35a24.16,24.16,0,0,1-.19,3.9,33.43,33.43,0,0,1-1,3.94c-.76,2.82-.4,5.74-1,8.57l2.51-.66q-10-9.12-19.36-18.87c-1.34-1.39-3.46.73-2.12,2.12Z" transform="translate(-8.33 -11.82)"/><path d="M484.47,447.26l5,4.12a44,44,0,0,1,4.51,4c1.32,1.43,2.39,3.07,3.66,4.55a62.22,62.22,0,0,0,4.46,4.58c1.39,1.34,3.52-.78,2.12-2.12s-3-2.88-4.36-4.45-2.4-3.21-3.76-4.68a41.63,41.63,0,0,0-4.38-3.9l-5.11-4.23a1.55,1.55,0,0,0-2.12,0,1.51,1.51,0,0,0,0,2.12Z" transform="translate(-8.33 -11.82)"/><path d="M501.91,429.11c.06,5.22,1,10.36,1.7,15.52.35,2.56.64,5.13.93,7.7s.71,5.18.07,7.71c-.47,1.88,2.43,2.68,2.9.8a20.88,20.88,0,0,0,.14-7.56c-.3-2.7-.61-5.4-1-8.1-.71-5.34-1.71-10.66-1.77-16.07a1.5,1.5,0,0,0-3,0Z" transform="translate(-8.33 -11.82)"/><path d="M505.12,428.55v-1.11a1,1,0,0,0-.13-.58,1.08,1.08,0,0,0-.31-.48,1.05,1.05,0,0,0-.48-.31,1.24,1.24,0,0,0-.58-.13h-.4a1.78,1.78,0,0,0-.66.39l-.23.3a1.58,1.58,0,0,0-.21.76v1.11a1.29,1.29,0,0,0,.13.58,1.11,1.11,0,0,0,.31.48,1.08,1.08,0,0,0,.48.31,1,1,0,0,0,.58.13l.4-.05a1.31,1.31,0,0,0,.66-.39l.24-.3a1.44,1.44,0,0,0,.2-.76Z" transform="translate(-8.33 -11.82)"/><path d="M502.8,429.6q1.71,1.83,3.58,3.48a37,37,0,0,1,3.18,4q3.36,4.43,7.11,8.5c1.31,1.42,3.43-.71,2.12-2.13a105.7,105.7,0,0,1-7-8.36,37,37,0,0,0-3.19-4c-1.21-1.22-2.59-2.25-3.68-3.58a1.51,1.51,0,0,0-2.12,0,1.53,1.53,0,0,0,0,2.12Z" transform="translate(-8.33 -11.82)"/><path d="M515,409.73c1.18,5.54.79,11.29,1.45,16.89s1.77,11.25,1.87,17a1.5,1.5,0,0,0,3,0c-.1-5.87-1.26-11.63-1.92-17.44s-.31-11.55-1.51-17.2c-.4-1.89-3.3-1.09-2.89.79Z" transform="translate(-8.33 -11.82)"/><path d="M515.8,409.09a53.75,53.75,0,0,0,15.68,9,1.51,1.51,0,0,0,1.85-1.08,1.55,1.55,0,0,0,0-.77c-1.3-3.77-2.46-7.64-4-11.33-1.34-3.2-3.77-6.19-4.24-9.69a1.55,1.55,0,0,0-1.5-1.5,1.5,1.5,0,0,0-1.5,1.5c.5,3.77,2.63,6.76,4.19,10.14,1.72,3.73,2.83,7.81,4.17,11.68l1.84-1.84A49.37,49.37,0,0,1,517.93,407c-1.48-1.22-3.61.89-2.12,2.12Z" transform="translate(-8.33 -11.82)"/><path d="M523.67,395.15c5.5,1.46,10.41-1.7,15.63-2.75a1.5,1.5,0,0,0,1.06-1.84,1.52,1.52,0,0,0-1.85-1.06h0c-4.57.92-9.26,4-14,2.75a1.51,1.51,0,0,0-1.75,1.22,1.49,1.49,0,0,0,1,1.68Z" transform="translate(-8.33 -11.82)"/><path d="M539.84,388a26.63,26.63,0,0,1-5.18-4.36,42.56,42.56,0,0,0-5.39-4.82,1.52,1.52,0,0,0-2,.53,1.54,1.54,0,0,0,.54,2.06,23.75,23.75,0,0,1,2.54,2.14c.85.8,1.66,1.63,2.48,2.45a28.66,28.66,0,0,0,5.54,4.59,1.53,1.53,0,0,0,2-.54,1.5,1.5,0,0,0-.53-2.05Z" transform="translate(-8.33 -11.82)"/><path d="M530,380.56a35,35,0,0,1,9.17-2.25,1.5,1.5,0,0,0,0-3,37.45,37.45,0,0,0-10,2.35,1.5,1.5,0,1,0,.8,2.9Z" transform="translate(-8.33 -11.82)"/><path class="cls-3" d="M945.4,539.62" transform="translate(-8.33 -11.82)"/><path class="cls-4" d="M1021.12,875.73h16l3.79,68.1S1017.4,875.64,1021.12,875.73Z" transform="translate(-8.33 -11.82)"/><polyline class="cls-4" points="1008.08 865.01 1008.43 865.01 996.85 937.16 989.2 861.91"/><polygon class="cls-4" points="970.27 855.33 983.76 857.23 973.85 923.16 970.27 855.33"/><polygon class="cls-4" points="1153.67 757.16 1164.86 756.91 1169.58 833.01 1153.67 757.16"/><polygon class="cls-4" points="1147.61 756.62 1136.46 757.75 1145.58 845.01 1147.61 756.62"/><polygon class="cls-4" points="1117.61 758.43 1133.24 757.77 1127.58 843.01 1117.61 758.43"/><path class="cls-2" d="M939.49,193.85S932,82.17,963.94,184c0,0-5-104.75,24.5-8.46,0,0-5.1-98.86,19.68-5.78" transform="translate(-8.33 -11.82)"/><path class="cls-5" d="M265.4,152.88" transform="translate(-8.33 -11.82)"/><path class="cls-2" d="M306,159.1s57-96.32,25.73,5.72c0,0,55.21-89.17,25,6.89,0,0,51.75-84.38,19.5,6.37" transform="translate(-8.33 -11.82)"/><path class="cls-6" d="M528.9,175.83" transform="translate(-8.33 -11.82)"/><path class="cls-4" d="M567.9,263.83s18.11-9.74,25.56-40.37,9.67-27.07,10-32.35,19.61,54.28-1,82c0,0-17.32-1.28-19-2.78,0,0-12.64-4.5-13.64-5.5Z" transform="translate(-8.33 -11.82)"/><path class="cls-4" d="M516.9,278.83s26-25,26-27c0,0-13.46-.2-23.73-21.6s-13.27-37.4-13.27-37.4S489.9,225.83,516.9,278.83Z" transform="translate(-8.33 -11.82)"/><path class="cls-4" d="M944.84,539.62s4.56,2.71,23.06-7.79l20.5,34.5s-8,12.59-43-26.71" transform="translate(-8.33 -11.82)"/><path class="cls-4" d="M1065.4,547.33l5-34,26,20s-20,20-31,14" transform="translate(-8.33 -11.82)"/><path class="cls-4" d="M1096.4,533.33l6-36,24,14S1114.4,530.33,1096.4,533.33Z" transform="translate(-8.33 -11.82)"/><path class="cls-4" d="M1152.4,483.33l-24-11-2,39S1151.4,492.33,1152.4,483.33Z" transform="translate(-8.33 -11.82)"/><path class="cls-4" d="M1185.4,455.33l-26-9-7,37S1189.4,457.33,1185.4,455.33Z" transform="translate(-8.33 -11.82)"/><path class="cls-4" d="M1206.4,438.33l-20-14-.7,31S1202.4,447.33,1206.4,438.33Z" transform="translate(-8.33 -11.82)"/><path class="cls-4" d="M1231.4,427.33l-15-18-10,29S1225.4,433.33,1231.4,427.33Z" transform="translate(-8.33 -11.82)"/><path class="cls-4" d="M1263.4,419.33l-9-22-23,30S1258.4,422.33,1263.4,419.33Z" transform="translate(-8.33 -11.82)"/><path class="cls-4" d="M1296.4,423.33l-2-26-31,22S1296.4,424.33,1296.4,423.33Z" transform="translate(-8.33 -11.82)"/><path class="cls-4" d="M1320.4,437.33l2-27-26,13S1309.4,435.33,1320.4,437.33Z" transform="translate(-8.33 -11.82)"/><path class="cls-4" d="M1376.4,479.33l-5-34-28,15,4-37-27,14s12,18,23,23" transform="translate(-8.33 -11.82)"/><path class="cls-4" d="M1411.4,472.33l-17-20-19,27S1409.4,481.33,1411.4,472.33Z" transform="translate(-8.33 -11.82)"/><path class="cls-4" d="M1432.4,460l-13-11.67-8,24S1428.4,469.66,1432.4,460Z" transform="translate(-8.33 -11.82)"/><path class="cls-4" d="M1455.4,440.33l-13-5-10,24.67s16-6.67,23-19.67" transform="translate(-8.33 -11.82)"/><polygon class="cls-4" points="332.72 114.4 344.58 71.01 319.79 114.81 332.72 114.4"/><polygon class="cls-4" points="347.47 120.23 357.39 123.15 369.75 71.01 347.47 120.23"/><polygon class="cls-4" points="369.51 129.81 377.52 133.18 397.58 79.01 369.51 129.81"/><polygon class="cls-7" points="315.58 579.01 330.58 575.01 328.58 594.01 315.58 579.01"/><path class="cls-7" d="M340.9,585.83l22.19,16.5s-3.19-13.46-2.19-13.46,1-14,0-14S340.9,585.83,340.9,585.83Z" transform="translate(-8.33 -11.82)"/><path class="cls-7" d="M364.88,571.43l19,17.86s1.06-27.46-2.94-35.46Z" transform="translate(-8.33 -11.82)"/><polygon class="cls-7" points="375.42 537.74 395.58 559.01 390.58 515.01 375.42 537.74"/><path class="cls-7" d="M418.18,545.83l-17.5-22.67,15.22-22.33s.07,16.33,1,18.67S418.18,545.83,418.18,545.83Z" transform="translate(-8.33 -11.82)"/><path class="cls-7" d="M437.4,516.11l-18.25-19.22s14.75-17.06,15.75-16.06S437.4,516.11,437.4,516.11Z" transform="translate(-8.33 -11.82)"/><path class="cls-7" d="M438.9,477.83l24,19s.69-13.83,1.34-16.92-1.34-17.08-1.34-17.08Z" transform="translate(-8.33 -11.82)"/><path class="cls-7" d="M465.9,460.83l18,17s-.43-5,0-5.87c1-2.13,1.1-23.78,0-24.13Z" transform="translate(-8.33 -11.82)"/><path class="cls-7" d="M486.9,445.83l17.79,17.58s.21-11.58-.33-13-2.46-19.63-2.46-19.63Z" transform="translate(-8.33 -11.82)"/><polygon class="cls-4" points="507.08 399.51 496.08 415.51 510.08 431.51 507.08 399.51"/><path class="cls-4" d="M530.4,415.33l-12.67-8.25,4.67-9.75S531.4,414.33,530.4,415.33Z" transform="translate(-8.33 -11.82)"/><path class="cls-4" d="M482,480.33l-15.58-15s0,24.22-.5,24.61S482.57,481.33,482,480.33Z" transform="translate(-8.33 -11.82)"/><path class="cls-8" d="M437.4,480.33l21,15.47s-17.68,14.43-17.68,17.53S437.4,480.33,437.4,480.33Z" transform="translate(-8.33 -11.82)"/><path class="cls-4" d="M437.4,481.22" transform="translate(-8.33 -11.82)"/><path class="cls-8" d="M419.17,501.16l18.23,18.17-17,22s-1-31-2-32S419.17,501.16,419.17,501.16Z" transform="translate(-8.33 -11.82)"/><polygon class="cls-8" points="393.08 516.51 408.08 535.51 397.08 549.51 393.08 516.51"/><path class="cls-8" d="M399.4,569.33,384,553.83s4.43,27.5,2.43,27.5Z" transform="translate(-8.33 -11.82)"/><path class="cls-8" d="M363.86,574.83l13.54,12.5-13,8s-1.08-7.92-.54-7.46S363.86,574.83,363.86,574.83Z" transform="translate(-8.33 -11.82)"/><polygon class="cls-8" points="333.12 577.76 347.08 588.51 330.5 593.73 333.12 577.76"/><path class="cls-9" d="M50.07,350.33s-13.17-46.5-5.17-70.5,63.37-64.88,79.68-66.44S254.9,175.83,326.9,197.83c0,0,73.41,18,85.2,24.5s28.8,18.5,28.8,18.5,22.33,4.87,65.17,45.94L501.3,301s-15.73,4-16.57,23.45l3.17,26.4s0,4-10,18-28,37-28,37-172-112-306-100c0,0-38,91-73-1C70.9,304.83,61.23,354.83,50.07,350.33Z" transform="translate(-8.33 -11.82)"/><path d="M734.73,387.83a1.5,1.5,0,1,0-1.5-1.5,1.5,1.5,0,0,0,1.5,1.5Z" transform="translate(-8.33 -11.82)"/><path d="M738.13,388.05c7.65-27.8,34.11-45.17,56-61.37,13.47-10,27-19.85,41-29.05a447.85,447.85,0,0,1,43.77-25.17c15.11-7.63,30.37-15,45-23.52,7.15-4.2,14.24-8.52,21.63-12.3a145.79,145.79,0,0,1,23.14-9.16c8-2.51,16-5,23.81-8.19s15.52-6.9,23.5-9.8c15.37-5.58,31.56-8.53,47.82-9.88,16.42-1.36,32.92-1.21,49.37-.74,17.66.5,35.3,1.23,52.94,2.08q6.65.31,13.28.66c3.85.21,3.84-5.79,0-6q-27.21-1.41-54.43-2.36c-16.86-.58-33.74-1.1-50.6-.31-16.56.77-33.19,2.79-49.18,7.3-16.45,4.63-31.45,12.93-47.67,18.19-8.25,2.67-16.65,4.95-24.69,8.26A184.29,184.29,0,0,0,930.73,238c-7.25,4.21-14.42,8.55-21.8,12.53-7.66,4.13-15.46,8-23.25,11.89-15.39,7.66-30.6,15.55-45.18,24.69s-28.34,18.92-42.07,29c-12.29,9-24.83,17.87-36.34,27.88-10.59,9.2-20.5,19.91-26.28,32.85a69.11,69.11,0,0,0-3.48,9.66c-1,3.73,4.76,5.32,5.78,1.59Z" transform="translate(-8.33 -11.82)"/><path d="M1179.7,201.61a389.6,389.6,0,0,1,46.7,5.55c7.32,1.33,14.63,2.94,21.48,5.91a104.81,104.81,0,0,1,17.91,10.26c5.74,4,11.18,8.35,16.58,12.78s10.57,8.63,15.6,13.24a99.52,99.52,0,0,1,13.72,15,72.08,72.08,0,0,1,9.46,18.71c2.78,8.09,4.84,16.45,6.92,24.75q3.29,13.11,6.06,26.36a3,3,0,1,0,5.79-1.59c-3.29-15.67-6.87-31.4-11.56-46.72a87.65,87.65,0,0,0-9.14-21.05,91.41,91.41,0,0,0-13.32-16.18,207.06,207.06,0,0,0-16-14c-5.5-4.47-11.11-9.14-16.88-13.41A124,124,0,0,0,1255.15,210a88.35,88.35,0,0,0-21.56-7.43,366.22,366.22,0,0,0-53.92-6.86,3,3,0,0,0-3,3,3.06,3.06,0,0,0,3,3Z" transform="translate(-8.33 -11.82)"/><path class="cls-9" d="M583.15,390s52.11,79.86,29.43,78.36-44.18-7-44.68-16.69a59,59,0,0,0,3.5-8.61c1.91-5.81,3.92-14,6-22.29,1.33-5.29,2.12-10.38,3-15.19C581.79,397.92,582.93,391.52,583.15,390Z" transform="translate(-8.33 -11.82)"/><path d="M600.76,419.5a19.71,19.71,0,0,1,3.17,5.7c.9,2.24,1.81,4.47,2.71,6.71.83,2,1.68,4,2.44,6.09a40.07,40.07,0,0,0,2.43,6,94.47,94.47,0,0,1,5.37,12.35c.75,1.93,1.55,4.09,1,6.18s-2.13,2.87-4.17,3.08-1.93,3.2,0,3a8.65,8.65,0,0,0,4.9-1.69,6.94,6.94,0,0,0,2.28-4.11c.69-3.9-1.29-7.66-2.7-11.18-.75-1.86-1.46-3.73-2.25-5.57s-2-3.49-2.74-5.36c-1.51-3.79-2.87-7.63-4.41-11.41-1.66-4.1-3-8.55-5.93-11.94-1.27-1.46-3.38.67-2.12,2.12Z" transform="translate(-8.33 -11.82)"/><path d="M601.73,418.27a.38.38,0,0,1-.09-.09l.11.15-.08-.15.08.18a9.06,9.06,0,0,1-.28-1c-.1-.35-.22-.69-.34-1a.78.78,0,0,0-.35-.45.88.88,0,0,0-.58-.08.78.78,0,0,0-.52.93c.15.41.29.83.41,1.26a2.52,2.52,0,0,0,.58,1.31.75.75,0,1,0,1.06-1.06Z" transform="translate(-8.33 -11.82)"/><path class="cls-9" d="M1165.15,294.76l.29-.06" transform="translate(-8.33 -11.82)"/><path class="cls-9" d="M1164.78,294.83l.37-.07" transform="translate(-8.33 -11.82)"/><path class="cls-9" d="M1171.58,293.64c31.18-4.89,58.28-1,77,16.75,7.63,7.21,10.81,41.94,18.43,28.84,0,0,26.72-38.93,32-33.91s24.33,56,31.22,55.94c0,0,7.15,1.35,8.63-14.29l.49-11.64s-3,2-5,0c0,0-12-66-25-75,0,0-37-36-39-34,0,0-28-22-50-20,0,0-35-7-43-5l-73-3s-60-1-92,12-53,20-53,20-26,11-31,16l-76,40-51,34s-70,45-65,69l59.38,29.47,79.62,39.53s175.81-141.57,289.38-163.5" transform="translate(-8.33 -11.82)"/><path class="cls-9" d="M1170.68,293.78l.9-.14" transform="translate(-8.33 -11.82)"/><path class="cls-9" d="M1169.81,293.92l.87-.14" transform="translate(-8.33 -11.82)"/><path class="cls-9" d="M1165.46,294.7q2.19-.42,4.35-.78" transform="translate(-8.33 -11.82)"/><path class="cls-9" d="M1165.4,294.7h0" transform="translate(-8.33 -11.82)"/><polygon class="cls-4" points="930.91 143.68 944.23 140.72 928.08 81.51 930.91 143.68"/><polygon class="cls-4" points="956.03 138.17 969.7 134.34 950.08 79.51 956.03 138.17"/><polygon class="cls-4" points="980.1 131.64 990.71 128.44 976.08 76.51 980.1 131.64"/><path class="cls-10" d="M944.09,192.33c4-4,9-7.68,15-7.24a1.5,1.5,0,0,0,1.5-1.5,1.52,1.52,0,0,0-1.5-1.5c-6.76-.49-12.55,3.6-17.12,8.12C940.59,191.57,942.71,193.69,944.09,192.33Z" transform="translate(-8.33 -11.82)"/><path class="cls-10" d="M969.77,184.33c1.64-2.08,3.4-4.36,5.86-5.49a10.48,10.48,0,0,1,4.14-.72c1.69-.06,3.38-.08,5.08-.08a1.5,1.5,0,1,0,0-3c-1.79,0-3.58,0-5.37.09a13.66,13.66,0,0,0-5.13,1c-2.81,1.26-4.84,3.71-6.7,6.06a1.56,1.56,0,0,0,0,2.13,1.51,1.51,0,0,0,2.12,0Z" transform="translate(-8.33 -11.82)"/><path class="cls-10" d="M993.27,175.75a16.94,16.94,0,0,1,4.85-2.55,15.68,15.68,0,0,1,5.73-1.21,1.5,1.5,0,1,0,0-3,17.66,17.66,0,0,0-6.53,1.32,19,19,0,0,0-5.56,2.85,1.56,1.56,0,0,0-.54,2.05,1.51,1.51,0,0,0,2,.54Z" transform="translate(-8.33 -11.82)"/><path class="cls-10" d="M309.8,161.45c3.13-1.13,6.47-1.38,9.48.22a23.58,23.58,0,0,1,6.79,6.22,1.49,1.49,0,0,0,2.12,0,1.53,1.53,0,0,0,0-2.12c-2.21-2.69-4.69-5.41-7.89-6.94a14.53,14.53,0,0,0-11.3-.27,1.54,1.54,0,0,0-1,1.84,1.5,1.5,0,0,0,1.84,1Z" transform="translate(-8.33 -11.82)"/><path class="cls-10" d="M335.45,166.92a32.92,32.92,0,0,1,10.09-.67,7.4,7.4,0,0,1,4,1.27,7.23,7.23,0,0,1,2.14,3.09,1.53,1.53,0,0,0,1.84,1,1.49,1.49,0,0,0,1-1.84,10.76,10.76,0,0,0-2.78-4.31,9.41,9.41,0,0,0-4.93-2.1,34.49,34.49,0,0,0-12.19.62c-1.88.43-1.09,3.32.8,2.9Z" transform="translate(-8.33 -11.82)"/><path class="cls-10" d="M360.55,174.67a7,7,0,0,1,9.8,1.45,6.87,6.87,0,0,1,1.2,2.62c.45,1.88,3.34,1.08,2.89-.79a10.17,10.17,0,0,0-6-6.94,10,10,0,0,0-9.45,1.07,1.55,1.55,0,0,0-.54,2,1.51,1.51,0,0,0,2,.54Z" transform="translate(-8.33 -11.82)"/><path d="M319.46,588.45a5.05,5.05,0,0,1-.77.39l.36-.15a5.77,5.77,0,0,1-1.49.41l.4-.06h-.17a1.29,1.29,0,0,0-.58.13,1.37,1.37,0,0,0-.48.31,1.58,1.58,0,0,0-.44,1.06,1.5,1.5,0,0,0,.44,1.06,1.42,1.42,0,0,0,1.06.44,7.75,7.75,0,0,0,1.66-.33A6.75,6.75,0,0,0,321,591a1.49,1.49,0,0,0,.69-.9,1.46,1.46,0,0,0-.15-1.15,1.56,1.56,0,0,0-.9-.69,1.59,1.59,0,0,0-1.15.15Z" transform="translate(-8.33 -11.82)"/><path d="M319.4,588.25l-2.62,1.08a1.57,1.57,0,0,0-1,1.85,1.51,1.51,0,0,0,1.85,1,12.83,12.83,0,0,0,3.63-1.55,1.5,1.5,0,1,0-1.52-2.59c-1.23.58-2.48,1.14-3.74,1.67a1.52,1.52,0,0,0-1,1.89,1.48,1.48,0,0,0,1,1,21.51,21.51,0,0,0,2.84.73,4.11,4.11,0,0,1,2.19,1.55c1.35,1.61,2.6,3.3,4,4.91s2.81,3.22,4.3,4.74,2.87,3.38,4.95,3.41a1.51,1.51,0,0,0,1.5-1.5,4,4,0,0,0-1.15-2.68c-.68-.82-1.37-1.64-2.09-2.43a25.58,25.58,0,0,0-4.71-4.16c-1.61-1.06-3.12,1.53-1.51,2.59A21.12,21.12,0,0,1,330,603c.55.6,1.09,1.21,1.61,1.83.32.38,1.18,1.09,1.16,1.61l1.5-1.5c-.6,0-1.39-1.1-1.78-1.48-.75-.73-1.47-1.47-2.18-2.23-1.47-1.56-2.86-3.17-4.22-4.82a35.09,35.09,0,0,0-3.83-4.61,6.35,6.35,0,0,0-2.59-1.37,20,20,0,0,1-2.84-.72v2.89c1.5-.62,3-1.28,4.46-2L319.78,588a10,10,0,0,1-2.91,1.25l.8,2.89,2.56-1.08a1.53,1.53,0,0,0,1-1.84,1.51,1.51,0,0,0-1.84-1.05Z" transform="translate(-8.33 -11.82)"/><path d="M315.56,592.62q3.18,2.55,6.24,5.25a1.5,1.5,0,0,0,2.2-2l-.08-.08q-3.06-2.7-6.24-5.25a1.59,1.59,0,0,0-1.06-.44,1.5,1.5,0,0,0-1.06,2.56Z" transform="translate(-8.33 -11.82)"/><path d="M320.54,596.74a87.26,87.26,0,0,1,8.75,11l1.29-2.26c.26.1.31.1.14,0a2.4,2.4,0,0,1-.29-.19c-.11-.08-.21-.18-.32-.27a10.78,10.78,0,0,1-.85-.93c-.45-.57-.84-1.2-1.24-1.8a25.28,25.28,0,0,0-3.38-4.07c-2.4-2.36-5.18-4.41-7-7.29-1-1.64-3.62-.13-2.59,1.51,2,3.26,5.13,5.54,7.8,8.24a29.47,29.47,0,0,1,3.28,4.2,13.82,13.82,0,0,0,1.77,2.18,4,4,0,0,0,2.67,1.41,1.51,1.51,0,0,0,1.3-2.26,92.37,92.37,0,0,0-9.22-11.56c-1.32-1.41-3.44.72-2.12,2.12Z" transform="translate(-8.33 -11.82)"/><path d="M330.17,607.49a1,1,0,0,1-.65.31h.69l.66.39c.17.12.08.12,0-.06l-.32-.49-.53-.78c-.4-.59-.81-1.16-1.23-1.73-.84-1.14-1.74-2.24-2.68-3.32a11,11,0,0,1-1.07-1.28c-.35-.56-.6-1.19-.94-1.76a11.27,11.27,0,0,0-1.29-1.73,4.93,4.93,0,0,1-1-1.18,1.54,1.54,0,0,0-1.84-1,1.52,1.52,0,0,0-1,1.84c.63,1.55,2,2.55,2.77,4a14,14,0,0,0,1.41,2.28c.55.67,1.14,1.3,1.7,2a48.48,48.48,0,0,1,3,4c.5.75.92,1.69,1.93,1.78a3.43,3.43,0,0,0,2.57-1.11c1.39-1.34-.73-3.46-2.12-2.12Z" transform="translate(-8.33 -11.82)"/><path d="M318.7,596.33a7.24,7.24,0,0,0,1.69,3.52c.82,1,1.49,2,2.34,3,1.52,1.72,3.32,3.21,4.43,5.23l2.59-1.51a22,22,0,0,0-2.1-2.73,1.51,1.51,0,0,0-2.12,0,1.53,1.53,0,0,0,0,2.12,15.79,15.79,0,0,1,1.83,2.49l2.59-1.51a12.34,12.34,0,0,0-1.39-1.84l-2.16,2.11c.51.54,1,1.1,1.45,1.67a1.49,1.49,0,0,0,2.12,0,1.53,1.53,0,0,0,0-2.12c-.46-.58-.94-1.13-1.44-1.67-1.33-1.41-3.42.7-2.13,2.12a8.45,8.45,0,0,1,.93,1.23,1.51,1.51,0,0,0,2.07.47,1.49,1.49,0,0,0,.52-2,19.75,19.75,0,0,0-2.3-3.1L325.5,606a17.32,17.32,0,0,1,1.63,2.12,1.51,1.51,0,0,0,2.07.47,1.49,1.49,0,0,0,.52-2,28.55,28.55,0,0,0-4.52-5.42c-.79-.86-1.38-1.77-2.1-2.68a11,11,0,0,1-1.05-1.37,4.62,4.62,0,0,1-.49-1.54,1.48,1.48,0,0,0-1.78-1.14,1.51,1.51,0,0,0-1.15,1.78s0,.1,0,.15Z" transform="translate(-8.33 -11.82)"/><polygon class="cls-4" points="327.08 595.51 320.58 597.01 311.08 579.51 327.08 595.51"/><path class="cls-9" d="M143.9,305.83" transform="translate(-8.33 -11.82)"/><path class="cls-9" d="M75.9,242.94a29,29,0,0,0-4.85,3.76c-.84.83-.27,2.73,1.07,2.56h.08a1.51,1.51,0,0,0,1.5-1.5v-.12a1.54,1.54,0,0,0-1.5-1.5,2.73,2.73,0,0,0-1.77.83c-.78.59-1.56,1.19-2.33,1.8q-2.19,1.71-4.35,3.5A43.58,43.58,0,0,0,50.07,269c-1.68,3.21-3,6.65-2.81,10.33.1,1.92,3.1,1.93,3,0-.18-3.31,1.07-6.34,2.61-9.21A52,52,0,0,1,58,261.85a53.56,53.56,0,0,1,7-6.72q2-1.65,4-3.24l1.9-1.48,1.11-.85.37-.28c.53-.33.49-.37-.12-.14l-1.5-1.5v.12l1.5-1.5H72.2l1.06,2.56a24.73,24.73,0,0,1,4.14-3.29c1.65-1,.14-3.6-1.51-2.59Z" transform="translate(-8.33 -11.82)"/><path class="cls-9" d="M505.31,286l-.14-.15c-.09-.11-.09-.22.06.08-.06-.13-.16-.24-.22-.36a1.51,1.51,0,0,0-2.05-.54,1.63,1.63,0,0,0-.69.9,1.75,1.75,0,0,0,.15,1.15,2.15,2.15,0,0,0,.84.9,1.5,1.5,0,0,0,1.82-.23,1.56,1.56,0,0,0,.23-1.82,6.56,6.56,0,0,0-1.19-1.49c-.38-.42-.78-.83-1.18-1.22-.83-.8-1.68-1.57-2.53-2.34a1.5,1.5,0,0,0-2.12,2.12c.46.5,1,1,1.44,1.41a1.5,1.5,0,0,0,2.56-1.06,1.7,1.7,0,0,0-.44-1.06,6.07,6.07,0,0,0-.85-.83,1.64,1.64,0,0,0-1.06-.44,1.5,1.5,0,0,0-1.5,1.49,1.46,1.46,0,0,0,.43,1.07,6.29,6.29,0,0,0,.59.57,1.58,1.58,0,0,0,1.06.44,1.5,1.5,0,0,0,1.06-.44,1.42,1.42,0,0,0,.44-1.06,1.76,1.76,0,0,0-.44-1.06c0,.06.18.25.07.09l-.12-.19c-.07-.12-.14-.24-.2-.36L499,283.43c.45.54,1.06.92,1.53,1.45.19.21-.19-.27,0,0l.16.23c.17.22.33.44.52.65l.33.33.18.19c.25.26-.16-.24,0,0a1.56,1.56,0,0,0,.89.69,1.49,1.49,0,0,0,1.85-1,1.47,1.47,0,0,0-.15-1.16,8.47,8.47,0,0,0-.9-1s-.15-.21-.2-.22l.12.16-.11-.15c-.16-.23-.33-.46-.5-.67-.47-.57-1.12-.95-1.59-1.52a1.48,1.48,0,0,0-1.06-.44,1.59,1.59,0,0,0-.91.32,1.54,1.54,0,0,0-.39,1.94,8,8,0,0,0,.73,1.06l2.12-2.12c-.2-.18-.39-.37-.58-.57l-2.13,2.12a6.15,6.15,0,0,1,.86.83l2.12-2.12c-.49-.46-1-.92-1.44-1.41l-2.12,2.12c.82.75,1.66,1.5,2.46,2.27.38.38.76.76,1.13,1.15l.53.6.24.29c.21.24-.12-.2,0,0a.93.93,0,0,1,.11.19l2-2.06a.79.79,0,0,1,.31.32.61.61,0,0,1-.07-.14l-2.61,1.4a4.44,4.44,0,0,0,.77,1,1.5,1.5,0,0,0,2.12-2.12Z" transform="translate(-8.33 -11.82)"/><path class="cls-9" d="M500.71,281.23a34.76,34.76,0,0,0-5.31-4.9c-.89-.67-1.68-1.45-2.56-2.14s-2.18-1.43-3.27-2.12a1.5,1.5,0,0,0-1.52,2.59,33,33,0,0,1,3,1.89c.38.31.75.69,1.13,1s1,.83,1.57,1.23a31.61,31.61,0,0,1,4.89,4.57,1.5,1.5,0,0,0,2.12-2.12Z" transform="translate(-8.33 -11.82)"/><path class="cls-9" d="M492.2,275.08a2.73,2.73,0,0,0-.17-.84,3.46,3.46,0,0,0-.36-.72,7.21,7.21,0,0,0-.94-1.06,5.08,5.08,0,0,0-1.1-.84,8.85,8.85,0,0,1-.89-.51l.31.24c-.14-.12-.26-.25-.4-.36a2.81,2.81,0,0,0-1-.6,1.54,1.54,0,0,0-1.15.15,1.5,1.5,0,0,0,.36,2.74H487l-.35-.15a.71.71,0,0,1,.17.11l-.3-.24a9.4,9.4,0,0,0,1.06.85,8.72,8.72,0,0,1,1,.54l-.3-.23a6.44,6.44,0,0,1,1.09,1.06l-.24-.3a2.27,2.27,0,0,1,.27.44l-.15-.36a1.82,1.82,0,0,1,.11.38l-.05-.4V275a1.44,1.44,0,0,0,.13.58,1.21,1.21,0,0,0,.31.48,1.53,1.53,0,0,0,1.06.44,1.5,1.5,0,0,0,1.06-.44,1.4,1.4,0,0,0,.44-1.06Z" transform="translate(-8.33 -11.82)"/><path class="cls-4" d="M1070,548.45l-35.64-27.12-11.7,40.37S1072.68,555.58,1070,548.45Z" transform="translate(-8.33 -11.82)"/><path class="cls-4" d="M986.84,568.25l12.56-38.92,23.9,32.3S991.29,573.17,986.84,568.25Z" transform="translate(-8.33 -11.82)"/><path class="cls-10" d="M907.67,707.33a11.86,11.86,0,0,1,21.24-7.49c1.22,1.49,3.33-.64,2.12-2.12a14.84,14.84,0,0,0-26.36,9.61,1.5,1.5,0,0,0,3,0Z" transform="translate(-8.33 -11.82)"/><path class="cls-10" d="M988,660.39c-.6-3.09-1.25-6.38-.17-9.45a15,15,0,0,1,4.83-6.18,63.62,63.62,0,0,1,6.86-4.77,19.34,19.34,0,0,1,8.45-3.26c1.91-.15,1.93-3.15,0-3a22.05,22.05,0,0,0-9.78,3.56,64.46,64.46,0,0,0-7.94,5.59,17.25,17.25,0,0,0-5.32,7.27c-1.23,3.58-.53,7.43.18,11,.37,1.89,3.26,1.09,2.89-.8Z" transform="translate(-8.33 -11.82)"/><path class="cls-11" d="M70.9,304.83s32.33-87.66,50.17-78.83" transform="translate(-8.33 -11.82)"/><path class="cls-12" d="M143.9,305.83s17.5-95.5,59.5-88.5" transform="translate(-8.33 -11.82)"/><path class="cls-11" d="M1300.4,305.77s-26-81.77-53-71.61" transform="translate(-8.33 -11.82)"/><path class="cls-11" d="M1247.4,309.33s-35.5-89.55-64-76" transform="translate(-8.33 -11.82)"/><path class="cls-2" d="M481.19,410.33q3.21-4.45,6.7-8.67c1.07-1.28,2.13-2.59,3.29-3.78a7,7,0,0,1,3.62-2.21,1.49,1.49,0,0,0,1.15-1.78,1.51,1.51,0,0,0-1.79-1.15l-.15,0c-3.54.68-5.89,3.94-8.05,6.53q-3.84,4.62-7.36,9.5a1.5,1.5,0,1,0,2.59,1.52Z" transform="translate(-8.33 -11.82)"/><path d="M469.71,419.67a50.89,50.89,0,0,1,5.18-10.29,20.27,20.27,0,0,1,3.29-3.63,16.85,16.85,0,0,1,2-1.47c.36-.22.72-.42,1.09-.6a4.27,4.27,0,0,1,.94-.45l-.66-.38c-.09-.08-.06-.33-.15-.31-.06.2-.11.39-.15.59-.11.45-.24.88-.38,1.32a21.21,21.21,0,0,1-.85,2.35,27,27,0,0,1-2.5,4.53c-1.08,1.6,1.51,3.1,2.59,1.51a28.57,28.57,0,0,0,3.47-7,8.91,8.91,0,0,0,.79-3.74,2.19,2.19,0,0,0-3.12-1.65c-4.66,1.74-8.14,5.66-10.55,9.89a74.07,74.07,0,0,0-3.93,8.54,1.51,1.51,0,0,0,1.05,1.84,1.53,1.53,0,0,0,1.85-1Z" transform="translate(-8.33 -11.82)"/><path class="cls-9" d="M875,457.43,736.9,387.33s93.08,113.66,133,75" transform="translate(-8.33 -11.82)"/></g><g id="Halepig"><path class="cls-4" d="M1453.9,430.83l26,13,16.87,7.1s-6.3-3.81.67-38.7,11.9-56.12,11.9-56.12-12.44,39.72-71.94,65.22" transform="translate(-8.33 -11.82)"/><path class="cls-4" d="M988.4,566.33l14.71-26.52,19.29,22.52S1008.4,578.33,988.4,566.33Z" transform="translate(-8.33 -11.82)"/><path class="cls-4" d="M1022.4,562.33s14-29,12-35l31,20S1037.4,570.33,1022.4,562.33Z" transform="translate(-8.33 -11.82)"/></g><g id="Layer_2" data-name="Layer 2"><path class="cls-7" d="M524.9,392.83s6,0,6-1l6-2-8-8Z" transform="translate(-8.33 -11.82)"/><path class="cls-7" d="M531,380.14l7.62,7.19.46-9S531.09,379.45,531,380.14Z" transform="translate(-8.33 -11.82)"/><path class="cls-7" d="M530.9,377s8.36-2.13,8.18-1.66-1.18-7.53-1.18-7.53S530.9,375.22,530.9,377Z" transform="translate(-8.33 -11.82)"/><path class="cls-7" d="M524.9,395.83s10.58-1,12.79-3l-4.79,21Z" transform="translate(-8.33 -11.82)"/><polygon class="cls-7" points="509.58 399.01 522.58 406.01 512.58 427.01 509.58 399.01"/><polygon class="cls-7" points="496.79 420.07 508.58 434.01 499.58 446.01 496.79 420.07"/><path class="cls-7" d="M487.9,449.83l14,14-15.58,13.75s-.42-4.08.58-5.42,1.31-8.46,1.31-8.46l-.31-13.87" transform="translate(-8.33 -11.82)"/></g></svg>
